<svg width="24" height="24" viewBox="0 0 24 24" fill="none" xmlns="http://www.w3.org/2000/svg">
<path fill-rule="evenodd" clip-rule="evenodd" d="M17.6881 1.41889C17.981 1.126 18.4559 1.126 18.7488 1.41889L22.9914 5.66152C23.1321 5.80217 23.2111 5.99294 23.2111 6.19185C23.2111 6.39076 23.1321 6.58153 22.9914 6.72218L7.43508 22.2785C7.29443 22.4192 7.10366 22.4982 6.90474 22.4982L2.66222 22.4981C2.24802 22.4981 1.91225 22.1623 1.91224 21.7481L1.91211 17.5056C1.9121 17.3067 1.99112 17.1159 2.13178 16.9752L17.6881 1.41889ZM18.2185 3.00988L3.41212 17.8162L3.41222 20.9981L6.5941 20.9982L21.4004 6.19185L18.2185 3.00988Z" fill="#40403F"/>
<path fill-rule="evenodd" clip-rule="evenodd" d="M13.4462 5.66498C13.7391 5.37209 14.214 5.37209 14.5069 5.66498L18.7495 9.90763C19.0424 10.2005 19.0424 10.6754 18.7495 10.9683C18.4566 11.2612 17.9818 11.2612 17.6889 10.9683L13.4462 6.72564C13.1533 6.43275 13.1533 5.95788 13.4462 5.66498Z" fill="#40403F"/>
</svg>
