<svg viewBox="0 0 390 844" preserveAspectRatio="none" fill="none" xmlns="http://www.w3.org/2000/svg">
<g clip-path="url(#clip0_621_5197)">
<rect width="390" height="844" fill="white"/>
<path d="M265.351 80.5C315.007 80.5 271.079 239.018 215.695 190.375C160.31 141.732 155.874 227 118.675 227C37.6688 227 -28 161.41 -28 80.5C-28 -0.409721 37.6688 -66 118.675 -66C199.682 -66 215.695 80.5 265.351 80.5Z" fill="url(#paint0_linear_621_5197)"/>
<path d="M91.5 127.5C134 167.5 92.4655 189 58.5 189C24.5345 189 -3 161.466 -3 127.5C-3 93.5345 24.5345 66 58.5 66C64.1389 66 68.4812 68.2376 71.7766 71.269C78.8878 77.8107 67.5936 89.5065 69.7814 98.9179C71.1584 104.841 76.9832 113.837 91.5 127.5Z" fill="url(#paint1_linear_621_5197)"/>
<path d="M-10.051 606.032C-4.66507 577.257 82.428 619.906 48.2334 646.724C14.0388 673.542 62.9684 685.362 58.9337 706.917C50.1474 753.859 5.0165 784.799 -41.869 776.023C-88.7545 767.247 -119.64 722.079 -110.854 675.137C-102.067 628.196 -15.4369 634.807 -10.051 606.032Z" fill="url(#paint2_linear_621_5197)"/>
<path d="M-8.37035 715.749C-37.0515 711.181 -25.9757 690.712 -11.9988 681.208C1.97815 671.705 21.013 675.331 30.5168 689.308C40.0205 703.285 36.3943 722.32 22.4174 731.823C20.0969 733.401 17.684 733.695 15.4797 733.37C10.723 732.668 12.0981 724.695 8.56439 721.434C6.3404 719.382 1.42634 717.31 -8.37035 715.749Z" fill="url(#paint3_linear_621_5197)"/>
<path d="M491 652.553C491 689.555 385.015 775.63 385.015 719.552C385.015 663.474 318 689.555 318 652.553C318 615.551 367.597 613.003 385.015 585.554C402.433 558.105 419.247 550.432 428.406 601.492C437.565 652.553 491 632.097 491 652.553Z" fill="url(#paint4_linear_621_5197)"/>
<path d="M363.262 630.75C367.083 620.291 377.018 611.317 387.923 613.57C394.352 614.898 400.013 619.046 403.558 625.814C407.038 632.457 414.127 658.342 406.022 657.94C400.512 657.667 403.873 665.613 404.766 671.685C405.43 676.2 401.812 679.94 398.196 682.723C385.86 692.214 375.666 683.406 371.32 667.508C370.281 663.708 369.135 659.811 366.079 657.325C360.031 652.405 351.011 648.225 357.532 641.058C360.15 638.18 361.912 634.448 363.262 630.75Z" fill="url(#paint5_linear_621_5197)"/>
<path d="M198.339 41.9433C198.982 40.6475 199.836 39.9996 200.899 39.9996C201.962 39.9996 202.494 40.5478 202.494 41.6443C202.494 42.3171 202.173 43.0522 201.53 43.8497C200.244 45.3947 199.019 47.1764 197.857 49.1949L195.965 52.5965L218 93.3027H203.002L188.415 65.2861L176.268 87.7705C175.575 89.0664 174.982 90.3746 174.487 91.6954C173.992 93.041 173.337 93.7139 172.521 93.7139C171.507 93.7139 171 93.203 171 92.1813C171 91.5832 171.223 90.8979 171.668 90.1254L197.041 44.5225C197.313 44.0241 197.536 43.6129 197.709 43.289L198.339 41.9433Z" fill="white"/>
</g>
<defs>
<linearGradient id="paint0_linear_621_5197" x1="294.493" y1="236.654" x2="254.119" y2="9.65702" gradientUnits="userSpaceOnUse">
<stop offset="0.0989583" stop-color="#FDE896"/>
<stop offset="0.630208" stop-color="#FFDE59"/>
</linearGradient>
<linearGradient id="paint1_linear_621_5197" x1="104.827" y1="149.257" x2="76.9134" y2="43.708" gradientUnits="userSpaceOnUse">
<stop stop-color="#111111"/>
<stop offset="0.0001" stop-color="#111111"/>
<stop offset="1" stop-color="#686868"/>
</linearGradient>
<linearGradient id="paint2_linear_621_5197" x1="83.5978" y1="606.082" x2="-52.3212" y2="604.857" gradientUnits="userSpaceOnUse">
<stop offset="0.0989583" stop-color="#FDE896"/>
<stop offset="0.630208" stop-color="#FFDE59"/>
</linearGradient>
<linearGradient id="paint3_linear_621_5197" x1="-19.9422" y1="710.525" x2="21.0776" y2="746.149" gradientUnits="userSpaceOnUse">
<stop stop-color="#111111"/>
<stop offset="0.0001" stop-color="#111111"/>
<stop offset="1" stop-color="#686868"/>
</linearGradient>
<linearGradient id="paint4_linear_621_5197" x1="495.115" y1="743.751" x2="469.319" y2="609.631" gradientUnits="userSpaceOnUse">
<stop offset="0.659902" stop-color="#FFDE59"/>
<stop offset="1" stop-color="#FDE896"/>
</linearGradient>
<linearGradient id="paint5_linear_621_5197" x1="378.591" y1="614.816" x2="340.859" y2="643.865" gradientUnits="userSpaceOnUse">
<stop stop-color="#111111"/>
<stop offset="0.0001" stop-color="#111111"/>
<stop offset="1" stop-color="#686868"/>
</linearGradient>
<clipPath id="clip0_621_5197">
<rect width="390" height="844" fill="white"/>
</clipPath>
</defs>
</svg>
