<svg xmlns="http://www.w3.org/2000/svg" xmlns:xlink="http://www.w3.org/1999/xlink" viewBox="0 0 665.33 584.75"><defs><style>.cls-1{isolation:isolate;}.cls-2,.cls-27,.cls-28,.cls-29,.cls-30,.cls-31,.cls-32{mix-blend-mode:multiply;}.cls-3{fill:#fff;}.cls-4{fill:#fcfcfd;}.cls-5{fill:#fafafa;}.cls-6{fill:#f7f7f8;}.cls-7{fill:#f4f4f5;}.cls-8{fill:#f2f2f3;}.cls-9{fill:#efeff0;}.cls-10{fill:#ececee;}.cls-11{fill:#e9eaec;}.cls-12{fill:#e7e7e9;}.cls-13{fill:#e4e4e7;}.cls-14{fill:#e1e2e4;}.cls-15{fill:#dfdfe2;}.cls-16{fill:#dcdddf;}.cls-17{fill:#d9dadd;}.cls-18{fill:#d7d7da;}.cls-19{fill:#d4d5d8;}.cls-20{fill:#d1d2d6;}.cls-21{fill:#cecfd3;}.cls-22{fill:#cccdd1;}.cls-23{fill:#c9cace;}.cls-24{fill:#c6c7cc;}.cls-25{fill:#c4c5c9;}.cls-26{fill:#c1c2c7;}.cls-27{fill:url(#Безымянный_градиент_22);}.cls-28{fill:url(#Безымянный_градиент_22-2);}.cls-29{fill:url(#Безымянный_градиент_22-3);}.cls-30{fill:url(#Безымянный_градиент_22-4);}.cls-31{fill:url(#Безымянный_градиент_22-5);}.cls-32{fill:url(#Безымянный_градиент_22-6);}.cls-33{fill:#3a3a3a;}.cls-34{fill:url(#Безымянный_градиент_46);}.cls-35{fill:#fcfcfc;}.cls-36{fill:#f9f9f9;}.cls-37{fill:#f6f6f7;}.cls-38{fill:#f3f3f4;}.cls-39{fill:#f0f0f1;}.cls-40{fill:#ededee;}.cls-41{fill:#eaeaec;}.cls-42{fill:#e4e4e6;}.cls-43{fill:#e1e1e3;}.cls-44{fill:#dddfe1;}.cls-45{fill:#dadcde;}.cls-46{fill:#d7d9db;}.cls-47{fill:#d4d6d8;}.cls-48{fill:#d1d3d6;}.cls-49{fill:#ced0d3;}.cls-50{fill:#cbcdd0;}.cls-51{fill:#c8cacd;}.cls-52{fill:#c5c7cb;}.cls-53{fill:#c2c4c8;}.cls-54{fill:#bfc1c5;}.cls-55{fill:#f5d949;}.cls-56{fill:#dbe0e6;}.cls-57{fill:#c2c7cb;}.cls-58{fill:#96999e;}.cls-59{opacity:0.16;}.cls-60{opacity:0.11;}</style><linearGradient id="Безымянный_градиент_22" x1="551.56" y1="321.9" x2="584.36" y2="351.48" gradientUnits="userSpaceOnUse"><stop offset="0" stop-color="#cbcdd1"/><stop offset="1" stop-color="#afafb5" stop-opacity="0"/></linearGradient><linearGradient id="Безымянный_градиент_22-2" x1="608.08" y1="472.4" x2="635.09" y2="496.76" xlink:href="#Безымянный_градиент_22"/><linearGradient id="Безымянный_градиент_22-3" x1="96.77" y1="472.25" x2="121.61" y2="494.65" xlink:href="#Безымянный_градиент_22"/><linearGradient id="Безымянный_градиент_22-4" x1="155.25" y1="124.42" x2="184.81" y2="151.09" xlink:href="#Безымянный_градиент_22"/><linearGradient id="Безымянный_градиент_22-5" x1="222.49" y1="516.97" x2="269.66" y2="559.51" xlink:href="#Безымянный_градиент_22"/><linearGradient id="Безымянный_градиент_22-6" x1="446.8" y1="502.62" x2="491.46" y2="542.9" xlink:href="#Безымянный_градиент_22"/><linearGradient id="Безымянный_градиент_46" x1="55.38" y1="270.75" x2="114.43" y2="319.38" gradientUnits="userSpaceOnUse"><stop offset="0" stop-color="#e2e4e9" stop-opacity="0.8"/><stop offset="1" stop-color="#e2e4e9" stop-opacity="0"/></linearGradient></defs><g class="cls-1"><g id="Calque_2" data-name="Calque 2"><g id="Layer_1" data-name="Layer 1"><g class="cls-2"><path class="cls-3" d="M253.09,410.29l12-5.18a6.43,6.43,0,0,1,6.53,0l80.46,46,80.45,46a7,7,0,0,1,0,12.09l-12,4.88a6.49,6.49,0,0,1-6.44,0l-80.47-45.88-80.46-45.88a7,7,0,0,1-.1-12.08Z"/><path class="cls-4" d="M253.19,410.48l12-5.19a6.29,6.29,0,0,1,3.24-.86,6.77,6.77,0,0,1,3.21.89l80.21,45.9,2.94,1.68,77.28,44.22a7.13,7.13,0,0,1,3.07,8.75,6.31,6.31,0,0,1-2.69,3.16l-12,4.88a6.29,6.29,0,0,1-3.19.84,6.72,6.72,0,0,1-3.17-.88l-80.22-45.74-3-1.69-77.27-44.06a7.15,7.15,0,0,1-3.58-5.89,7,7,0,0,1,.45-2.83A6.32,6.32,0,0,1,253.19,410.48Z"/><path class="cls-5" d="M253.3,410.67l12-5.19a5.88,5.88,0,0,1,3.16-.82,6.92,6.92,0,0,1,3.19.92l80,45.76,2.93,1.68L431.6,497.1a7.38,7.38,0,0,1,3.66,5.8,7.07,7.07,0,0,1-.35,2.77,5.79,5.79,0,0,1-2.58,3.17l-12,4.88a6.06,6.06,0,0,1-3.13.8,7,7,0,0,1-3.15-.91L334.1,468l-3-1.68-77-43.92a7.38,7.38,0,0,1-3.69-5.78,7.07,7.07,0,0,1,.33-2.77A5.75,5.75,0,0,1,253.3,410.67Z"/><path class="cls-6" d="M253.4,410.85l12-5.18a5.79,5.79,0,0,1,3.1-.79,7.31,7.31,0,0,1,3.17,1l79.74,45.62,2.92,1.67,76.82,44c1.84,1.05,3.76,3.5,3.76,5.68a6.9,6.9,0,0,1-.22,2.7,5.36,5.36,0,0,1-2.45,3.18l-12,4.88a5.68,5.68,0,0,1-3.05.76,7.28,7.28,0,0,1-3.13-.93l-79.75-45.48-2.94-1.67-76.81-43.8c-1.85-1-3.78-3.48-3.79-5.67a6.87,6.87,0,0,1,.2-2.69A5.37,5.37,0,0,1,253.4,410.85Z"/><path class="cls-7" d="M253.5,411l12-5.18a5.55,5.55,0,0,1,3-.75,7.59,7.59,0,0,1,3.15,1l79.5,45.48,2.91,1.67,76.59,43.82c1.75,1,3.86,3.5,3.87,5.57a7,7,0,0,1-.09,2.63,5,5,0,0,1-2.33,3.19l-12,4.88a5.44,5.44,0,0,1-3,.72,7.57,7.57,0,0,1-3.11-1l-79.51-45.34-2.93-1.67L255,422.42c-1.75-1-3.88-3.47-3.9-5.55a7,7,0,0,1,.07-2.62A5,5,0,0,1,253.5,411Z"/><path class="cls-8" d="M253.61,411.23l12-5.18a5.2,5.2,0,0,1,3-.71,8,8,0,0,1,3.12,1L351,451.71l2.9,1.66,76.35,43.68c1.66.95,4,3.5,4,5.46,0,.8.35,1.86,0,2.57a4.58,4.58,0,0,1-2.2,3.19l-12,4.88a5.22,5.22,0,0,1-2.93.68,8,8,0,0,1-3.08-1l-79.28-45.2L331.84,466l-76.35-43.53c-1.66-.94-4-3.47-4-5.44,0-.79-.36-1.86-.06-2.56A4.57,4.57,0,0,1,253.61,411.23Z"/><path class="cls-9" d="M253.71,411.42l12-5.18a4.92,4.92,0,0,1,2.91-.67,8.31,8.31,0,0,1,3.1,1l79,45.22,2.89,1.65L429.75,497c1.57.9,4.08,3.48,4.09,5.34,0,.75.46,1.84.17,2.5a4.23,4.23,0,0,1-2.09,3.2L420,513a5,5,0,0,1-2.87.65,8.34,8.34,0,0,1-3.06-1l-79-45.06-2.91-1.67L256,422.45c-1.57-.89-4.09-3.46-4.11-5.32,0-.75-.47-1.83-.18-2.49A4.25,4.25,0,0,1,253.71,411.42Z"/><path class="cls-10" d="M253.82,411.61l12-5.18a4.72,4.72,0,0,1,2.85-.63,8.79,8.79,0,0,1,3.07,1.07L350.51,452l2.89,1.65L429.29,497c1.48.85,4.19,3.48,4.19,5.23,0,.71.58,1.81.3,2.43a4,4,0,0,1-2,3.21l-12,4.88a4.8,4.8,0,0,1-2.81.61,8.82,8.82,0,0,1-3-1L335.2,467.39l-2.9-1.65-75.89-43.27c-1.48-.84-4.2-3.46-4.21-5.21,0-.7-.59-1.8-.32-2.43A3.93,3.93,0,0,1,253.82,411.61Z"/><path class="cls-11" d="M253.92,411.8l12-5.18a4.48,4.48,0,0,1,2.78-.6,9.35,9.35,0,0,1,3.05,1.11l78.55,44.94,2.88,1.65L428.83,497c1.38.79,4.29,3.47,4.3,5.11,0,.66.69,1.78.43,2.36a3.67,3.67,0,0,1-1.84,3.22l-12,4.88a4.48,4.48,0,0,1-2.74.57,9.38,9.38,0,0,1-3-1.08l-78.56-44.8-2.9-1.65-75.66-43.14c-1.38-.78-4.3-3.45-4.32-5.09,0-.66-.69-1.78-.44-2.36A3.67,3.67,0,0,1,253.92,411.8Z"/><path class="cls-12" d="M254,412l12-5.18a4.28,4.28,0,0,1,2.72-.56,10.23,10.23,0,0,1,3,1.13l78.31,44.81,2.87,1.65L428.37,497c1.29.74,4.4,3.47,4.4,5,0,.62.8,1.76.56,2.3a3.42,3.42,0,0,1-1.71,3.23l-12,4.88a4.2,4.2,0,0,1-2.67.53,9.9,9.9,0,0,1-3-1.11l-78.32-44.66-2.89-1.65-75.43-43c-1.29-.73-4.41-3.44-4.42-5,0-.62-.81-1.75-.57-2.29A3.42,3.42,0,0,1,254,412Z"/><path class="cls-13" d="M254.13,412.18l12-5.18a4,4,0,0,1,2.65-.52,10.71,10.71,0,0,1,3,1.16l78.08,44.67,2.86,1.64,75.2,43c1.2.68,4.5,3.46,4.51,4.87,0,.58.91,1.73.69,2.23a3.21,3.21,0,0,1-1.59,3.24l-12,4.88a4.07,4.07,0,0,1-2.61.5,10.66,10.66,0,0,1-3-1.14L335.87,467,333,465.38l-75.2-42.87c-1.2-.68-4.51-3.44-4.53-4.86,0-.57-.92-1.72-.7-2.23A3.19,3.19,0,0,1,254.13,412.18Z"/><path class="cls-14" d="M254.23,412.37l12-5.19a3.79,3.79,0,0,1,2.58-.47,11.74,11.74,0,0,1,3,1.19l77.84,44.54,2.85,1.63,75,42.89c1.1.64,4.61,3.45,4.61,4.76,0,.53,1,1.7.82,2.17a3,3,0,0,1-1.47,3.24l-12,4.88a3.82,3.82,0,0,1-2.55.46,11.42,11.42,0,0,1-2.95-1.17l-77.85-44.39-2.87-1.64-75-42.75c-1.11-.63-4.62-3.43-4.63-4.74,0-.53-1-1.69-.83-2.16A3,3,0,0,1,254.23,412.37Z"/><path class="cls-15" d="M254.33,412.56l12-5.19a3.62,3.62,0,0,1,2.52-.43,12.42,12.42,0,0,1,3,1.22l77.6,44.4,2.85,1.63L427,497c1,.58,4.71,3.44,4.72,4.64,0,.49,1.14,1.67,1,2.1a2.84,2.84,0,0,1-1.35,3.25l-12,4.88a3.61,3.61,0,0,1-2.48.42,12.49,12.49,0,0,1-2.92-1.2l-77.62-44.26-2.86-1.63-74.74-42.61c-1-.58-4.72-3.43-4.73-4.63,0-.49-1.15-1.67-1-2.09A2.82,2.82,0,0,1,254.33,412.56Z"/><path class="cls-16" d="M254.44,412.75l12-5.19a3.41,3.41,0,0,1,2.45-.4,13.5,13.5,0,0,1,2.94,1.26l77.36,44.26L352,454.3l74.51,42.63c.92.53,4.82,3.44,4.82,4.53,0,.44,1.25,1.64,1.08,2a2.67,2.67,0,0,1-1.22,3.26l-12,4.88a3.38,3.38,0,0,1-2.42.38,13.8,13.8,0,0,1-2.9-1.23l-77.38-44.12L333.68,465l-74.51-42.48c-.92-.52-4.83-3.42-4.84-4.51,0-.44-1.26-1.64-1.09-2A2.67,2.67,0,0,1,254.44,412.75Z"/><path class="cls-17" d="M254.54,412.93l12-5.18a3.25,3.25,0,0,1,2.39-.36,15.33,15.33,0,0,1,2.92,1.28L349,452.8l2.83,1.62,74.27,42.5c.83.47,4.93,3.43,4.93,4.41,0,.4,1.37,1.61,1.22,2a2.55,2.55,0,0,1-1.1,3.27l-12,4.88a3.22,3.22,0,0,1-2.36.34,15.41,15.41,0,0,1-2.87-1.25l-77.14-44-2.86-1.63-74.27-42.35c-.83-.47-4.93-3.41-4.94-4.39,0-.4-1.37-1.61-1.22-2A2.56,2.56,0,0,1,254.54,412.93Z"/><path class="cls-18" d="M254.65,413.12l12-5.18a3,3,0,0,1,2.32-.32,16.59,16.59,0,0,1,2.89,1.31l76.89,44,2.82,1.62,74,42.36c.74.42,5,3.42,5,4.3,0,.35,1.48,1.58,1.34,1.89a2.42,2.42,0,0,1-1,3.28l-12,4.88a3.08,3.08,0,0,1-2.29.31,17,17,0,0,1-2.86-1.29L337,466.42l-2.85-1.62-74-42.22c-.74-.42-5-3.41-5-4.28,0-.36-1.48-1.58-1.34-1.9A2.42,2.42,0,0,1,254.65,413.12Z"/><path class="cls-19" d="M254.75,413.31l12-5.18a2.82,2.82,0,0,1,2.26-.28,19.59,19.59,0,0,1,2.87,1.34L348.52,453l2.81,1.62,73.81,42.23c.65.37,5.14,3.41,5.14,4.17,0,.31,1.6,1.56,1.48,1.84a2.32,2.32,0,0,1-.86,3.28l-12,4.88a2.84,2.84,0,0,1-2.22.27,19.15,19.15,0,0,1-2.84-1.32L337.2,466.29l-2.84-1.61-73.81-42.09c-.64-.36-5.15-3.4-5.15-4.16,0-.31-1.6-1.56-1.48-1.83A2.33,2.33,0,0,1,254.75,413.31Z"/><path class="cls-20" d="M254.85,413.5l12-5.18a2.67,2.67,0,0,1,2.2-.24,21.76,21.76,0,0,1,2.84,1.37l76.41,43.72,2.81,1.6,73.58,42.1c.55.32,5.25,3.41,5.25,4.06,0,.27,1.71,1.53,1.6,1.77a2.24,2.24,0,0,1-.73,3.29l-12,4.88a2.69,2.69,0,0,1-2.16.23,21.27,21.27,0,0,1-2.81-1.35l-76.43-43.58-2.83-1.61L261,422.6c-.55-.31-5.25-3.39-5.26-4.05,0-.26-1.7-1.52-1.6-1.75A2.25,2.25,0,0,1,254.85,413.5Z"/><path class="cls-21" d="M255,413.69l12-5.18a2.5,2.5,0,0,1,2.13-.21,27.37,27.37,0,0,1,2.82,1.4l76.17,43.59,2.8,1.6,73.35,42c.46.26,5.35,3.4,5.35,3.94,0,.22,1.82,1.51,1.74,1.7a2.17,2.17,0,0,1-.61,3.3l-12,4.88a2.51,2.51,0,0,1-2.1.19,27.66,27.66,0,0,1-2.79-1.37l-76.19-43.45-2.82-1.61-73.35-41.82c-.46-.26-5.36-3.39-5.36-3.94,0-.22-1.82-1.49-1.73-1.69A2.16,2.16,0,0,1,255,413.69Z"/><path class="cls-22" d="M255.06,413.88l12-5.18a2.37,2.37,0,0,1,2.07-.17c.19,0,2.62,1.33,2.8,1.43l75.93,43.45,2.8,1.6,73.11,41.83c.37.21,5.46,3.39,5.46,3.83,0,.18,1.93,1.48,1.86,1.63a2.1,2.1,0,0,1-.49,3.31l-12,4.88a2.4,2.4,0,0,1-2,.16c-.19,0-2.59-1.31-2.76-1.41l-76-43.31-2.81-1.6-73.12-41.7c-.37-.21-5.46-3.38-5.47-3.82,0-.17-1.93-1.46-1.86-1.62A2.11,2.11,0,0,1,255.06,413.88Z"/><path class="cls-23" d="M255.17,414.07l12-5.18a2.2,2.2,0,0,1,2-.13c.14,0,2.64,1.39,2.77,1.46l75.7,43.31,2.79,1.59,72.88,41.7c.27.16,5.56,3.39,5.56,3.72,0,.13,2.05,1.45,2,1.56a2.06,2.06,0,0,1-.37,3.32l-12,4.88a2.23,2.23,0,0,1-2,.12c-.14,0-2.61-1.37-2.74-1.44l-75.72-43.17-2.8-1.6-72.89-41.56c-.27-.16-5.57-3.38-5.57-3.71,0-.13-2-1.44-2-1.55A2.05,2.05,0,0,1,255.17,414.07Z"/><path class="cls-24" d="M255.27,414.26l12-5.18a2,2,0,0,1,1.93-.09c.1,0,2.67,1.44,2.76,1.49l75.46,43.17,2.78,1.59,72.65,41.57c.18.1,5.67,3.38,5.67,3.6s2.16,1.42,2.12,1.5a2,2,0,0,1-.24,3.32l-12,4.88a2,2,0,0,1-1.9.08c-.1,0-2.64-1.42-2.72-1.47l-75.48-43-2.8-1.59-72.66-41.43c-.18-.1-5.67-3.37-5.67-3.59s-2.16-1.41-2.13-1.49A2,2,0,0,1,255.27,414.26Z"/><path class="cls-25" d="M255.37,414.45l12-5.19a1.94,1.94,0,0,1,1.87-.05s2.69,1.5,2.73,1.52l75.23,43,2.77,1.59,72.42,41.43c.09.06,5.77,3.38,5.77,3.49s2.27,1.39,2.26,1.43a2,2,0,0,1-.12,3.33l-12,4.88a1.91,1.91,0,0,1-1.84,0c-.05,0-2.66-1.47-2.7-1.49l-75.24-42.91L335.74,464l-72.43-41.3c-.09-.05-5.78-3.36-5.78-3.47s-2.27-1.38-2.25-1.42A2,2,0,0,1,255.37,414.45Z"/><path class="cls-26" d="M267.47,409.45a1.81,1.81,0,0,1,1.8,0l80.46,46,80.45,46a1.94,1.94,0,0,1,0,3.34l-12,4.88a1.77,1.77,0,0,1-1.78,0L336,463.85,255.51,418a1.94,1.94,0,0,1,0-3.33Z"/></g><g class="cls-2"><path class="cls-3" d="M539.37,443.13l6.54-2.83a3.58,3.58,0,0,1,1.8-.49,3.49,3.49,0,0,1,1.76.47l31.39,17.65,31.39,17.64a3.83,3.83,0,0,1,0,6.59l-6.53,2.66a3.53,3.53,0,0,1-3.52,0l-31.39-17.56-31.39-17.56a3.84,3.84,0,0,1-.06-6.59Z"/><path class="cls-4" d="M539.43,443.23l6.54-2.82a3.32,3.32,0,0,1,1.76-.47,3.71,3.71,0,0,1,1.75.48L580.74,458l1.57.88,29.7,16.7a3.88,3.88,0,0,1,1.93,3.22,3.76,3.76,0,0,1-.24,1.47,3.43,3.43,0,0,1-1.5,1.8l-6.53,2.66a3.42,3.42,0,0,1-1.74.45,3.61,3.61,0,0,1-1.72-.47l-31.27-17.49-1.58-.88-29.69-16.61a3.88,3.88,0,0,1-1.95-3.21A3.75,3.75,0,0,1,538,445,3.46,3.46,0,0,1,539.43,443.23Z"/><path class="cls-5" d="M539.49,443.34l6.53-2.83a3.22,3.22,0,0,1,1.73-.45,3.84,3.84,0,0,1,1.74.5l31.13,17.5,1.57.88,29.57,16.62a4,4,0,0,1,2,3.16,3.83,3.83,0,0,1-.17,1.44,3.18,3.18,0,0,1-1.43,1.79l-6.53,2.66a3.33,3.33,0,0,1-1.71.44,3.87,3.87,0,0,1-1.71-.49l-31.14-17.42-1.57-.88-29.57-16.54a4,4,0,0,1-2-3.15,3.78,3.78,0,0,1,.16-1.43A3.15,3.15,0,0,1,539.49,443.34Z"/><path class="cls-6" d="M539.54,443.44l6.54-2.83a3.18,3.18,0,0,1,1.69-.43,3.87,3.87,0,0,1,1.72.52l31,17.43,1.55.87,29.46,16.56a4.12,4.12,0,0,1,2,3.09,3.81,3.81,0,0,1-.1,1.4,3,3,0,0,1-1.37,1.8l-6.53,2.66a3.07,3.07,0,0,1-1.67.41,4,4,0,0,1-1.7-.5l-31-17.35-1.57-.88-29.45-16.47a4.11,4.11,0,0,1-2.06-3.08,3.82,3.82,0,0,1,.1-1.4A2.92,2.92,0,0,1,539.54,443.44Z"/><path class="cls-7" d="M539.6,443.54l6.54-2.82a2.92,2.92,0,0,1,1.65-.41,4,4,0,0,1,1.71.53l30.89,17.36,1.55.87,29.34,16.49a4.25,4.25,0,0,1,2.09,3,3.91,3.91,0,0,1,0,1.37,2.78,2.78,0,0,1-1.29,1.8l-6.53,2.65a3,3,0,0,1-1.64.4,4.07,4.07,0,0,1-1.68-.52L571.29,467l-1.56-.87L540.4,449.72a4.24,4.24,0,0,1-2.11-3,3.86,3.86,0,0,1,0-1.36A2.75,2.75,0,0,1,539.6,443.54Z"/><path class="cls-8" d="M539.66,443.65l6.53-2.83a2.86,2.86,0,0,1,1.63-.39,4.31,4.31,0,0,1,1.69.55l30.76,17.29,1.54.87L611,475.56c.91.52,2.15,1.88,2.15,2.95,0,.42.18,1,0,1.33a2.55,2.55,0,0,1-1.23,1.8l-6.53,2.66a2.92,2.92,0,0,1-1.6.38,4.26,4.26,0,0,1-1.67-.54l-30.77-17.21-1.55-.87-29.22-16.34c-.9-.51-2.15-1.87-2.16-2.94,0-.41-.19-1,0-1.33A2.53,2.53,0,0,1,539.66,443.65Z"/><path class="cls-9" d="M539.71,443.75l6.54-2.83a2.69,2.69,0,0,1,1.59-.36,4.41,4.41,0,0,1,1.67.56l30.64,17.22,1.54.86,29.1,16.36c.85.48,2.2,1.87,2.2,2.89,0,.39.24.94.09,1.29a2.35,2.35,0,0,1-1.16,1.8l-6.53,2.66a2.66,2.66,0,0,1-1.56.35,4.4,4.4,0,0,1-1.66-.55l-30.64-17.14L570,466l-29.09-16.28c-.86-.48-2.21-1.86-2.22-2.87,0-.39-.24-1-.1-1.29A2.36,2.36,0,0,1,539.71,443.75Z"/><path class="cls-10" d="M539.77,443.85l6.54-2.82a2.57,2.57,0,0,1,1.55-.35,4.75,4.75,0,0,1,1.66.57L580,458.4l1.54.87,29,16.28c.8.46,2.25,1.88,2.25,2.83,0,.37.3.93.16,1.25a2.19,2.19,0,0,1-1.09,1.8l-6.53,2.66a2.59,2.59,0,0,1-1.53.34,4.7,4.7,0,0,1-1.64-.56L571.65,466.8l-1.54-.87-29-16.2c-.81-.46-2.26-1.87-2.27-2.82,0-.36-.3-.92-.16-1.25A2.18,2.18,0,0,1,539.77,443.85Z"/><path class="cls-11" d="M539.83,444l6.53-2.83a2.41,2.41,0,0,1,1.52-.32,5,5,0,0,1,1.65.58l30.39,17.08,1.52.86,28.86,16.22c.76.43,2.31,1.87,2.31,2.76,0,.34.35.91.23,1.22a2,2,0,0,1-1,1.8L605.28,484a2.45,2.45,0,0,1-1.49.31,5.11,5.11,0,0,1-1.63-.57l-30.39-17-1.54-.86-28.86-16.14c-.75-.43-2.31-1.86-2.32-2.75,0-.34-.36-.91-.23-1.22A2,2,0,0,1,539.83,444Z"/><path class="cls-12" d="M539.88,444.06l6.54-2.83a2.34,2.34,0,0,1,1.48-.3,5.09,5.09,0,0,1,1.63.6l30.27,17,1.52.86,28.74,16.15c.7.4,2.36,1.86,2.36,2.69,0,.32.41.9.29,1.18a1.92,1.92,0,0,1-1,1.81l-6.53,2.66a2.36,2.36,0,0,1-1.46.29,5.45,5.45,0,0,1-1.62-.59l-30.27-16.93-1.53-.86-28.73-16.07c-.71-.4-2.37-1.85-2.38-2.68,0-.32-.41-.9-.3-1.18A1.93,1.93,0,0,1,539.88,444.06Z"/><path class="cls-13" d="M539.94,444.16l6.54-2.82a2.22,2.22,0,0,1,1.44-.29,5.71,5.71,0,0,1,1.62.62l30.14,16.94,1.52.85,28.61,16.09c.66.37,2.42,1.85,2.42,2.62,0,.3.47.88.36,1.15a1.79,1.79,0,0,1-.89,1.8l-6.53,2.66a2.16,2.16,0,0,1-1.42.27,5.54,5.54,0,0,1-1.6-.6L572,466.59l-1.52-.86-28.62-16c-.66-.37-2.43-1.84-2.43-2.61,0-.3-.47-.88-.36-1.15A1.78,1.78,0,0,1,539.94,444.16Z"/><path class="cls-14" d="M540,444.26l6.53-2.82a2,2,0,0,1,1.41-.26,6.12,6.12,0,0,1,1.61.63l30,16.87,1.51.85,28.5,16c.6.34,2.47,1.84,2.47,2.55,0,.28.53.87.42,1.11a1.67,1.67,0,0,1-.81,1.81l-6.54,2.66a2.1,2.1,0,0,1-1.38.25,6,6,0,0,1-1.59-.62l-30-16.79-1.52-.85-28.5-15.94c-.6-.34-2.48-1.83-2.48-2.55,0-.27-.53-.86-.43-1.1A1.69,1.69,0,0,1,540,444.26Z"/><path class="cls-15" d="M540.05,444.37l6.54-2.83a2,2,0,0,1,1.37-.24,6.48,6.48,0,0,1,1.6.65l29.88,16.8,1.51.84,28.38,16c.55.32,2.52,1.84,2.53,2.49,0,.26.57.86.48,1.08a1.59,1.59,0,0,1-.75,1.81l-6.53,2.66a2,2,0,0,1-1.36.23,6.41,6.41,0,0,1-1.57-.64l-29.89-16.72-1.52-.85-28.37-15.87c-.56-.31-2.54-1.82-2.54-2.48,0-.25-.58-.85-.49-1.07A1.57,1.57,0,0,1,540.05,444.37Z"/><path class="cls-16" d="M540.11,444.47l6.54-2.82a1.81,1.81,0,0,1,1.34-.22,6.9,6.9,0,0,1,1.57.66l29.76,16.73,1.5.84,28.26,15.88c.51.29,2.58,1.83,2.59,2.42,0,.23.63.84.54,1a1.48,1.48,0,0,1-.68,1.81L605,483.47a1.8,1.8,0,0,1-1.32.21,6.72,6.72,0,0,1-1.55-.65l-29.77-16.65-1.51-.84-28.26-15.81c-.51-.28-2.59-1.82-2.59-2.41,0-.23-.64-.83-.56-1A1.51,1.51,0,0,1,540.11,444.47Z"/><path class="cls-17" d="M540.17,444.57l6.53-2.82a1.73,1.73,0,0,1,1.31-.2,7.94,7.94,0,0,1,1.56.68l29.64,16.65,1.49.84,28.14,15.82c.45.26,2.64,1.82,2.64,2.36,0,.2.69.82.61,1a1.41,1.41,0,0,1-.61,1.81L605,483.37a1.77,1.77,0,0,1-1.29.19,8.61,8.61,0,0,1-1.54-.66l-29.64-16.59-1.51-.84-28.14-15.74c-.45-.25-2.64-1.81-2.64-2.34,0-.21-.7-.82-.62-1A1.42,1.42,0,0,1,540.17,444.57Z"/><path class="cls-18" d="M540.22,444.68l6.54-2.83a1.63,1.63,0,0,1,1.27-.17,9.6,9.6,0,0,1,1.55.68L579.09,459l1.49.84,28,15.75c.4.23,2.69,1.81,2.69,2.29,0,.18.75.8.68,1a1.36,1.36,0,0,1-.55,1.82l-6.53,2.65a1.62,1.62,0,0,1-1.25.17,9.35,9.35,0,0,1-1.53-.67l-29.52-16.51-1.5-.84-28-15.68c-.4-.22-2.69-1.8-2.69-2.28,0-.18-.75-.8-.69-1A1.35,1.35,0,0,1,540.22,444.68Z"/><path class="cls-19" d="M540.28,444.78l6.54-2.83a1.56,1.56,0,0,1,1.23-.15,10,10,0,0,1,1.53.7L579,459l1.48.83,27.9,15.69c.36.2,2.75,1.8,2.75,2.22,0,.16.8.79.74.93a1.29,1.29,0,0,1-.47,1.81l-6.53,2.66a1.55,1.55,0,0,1-1.22.15,10.2,10.2,0,0,1-1.51-.69l-29.4-16.44-1.49-.84-27.9-15.61c-.36-.19-2.75-1.79-2.75-2.21,0-.16-.81-.78-.75-.93A1.29,1.29,0,0,1,540.28,444.78Z"/><path class="cls-20" d="M540.34,444.88l6.53-2.82a1.46,1.46,0,0,1,1.2-.14,11.68,11.68,0,0,1,1.52.72l29.26,16.45,1.48.83,27.78,15.62c.3.17,2.8,1.79,2.8,2.15,0,.14.86.77.81.89a1.24,1.24,0,0,1-.41,1.82l-6.53,2.66a1.44,1.44,0,0,1-1.18.12,11.3,11.3,0,0,1-1.5-.7l-29.27-16.37-1.49-.83-27.78-15.54c-.3-.18-2.8-1.79-2.8-2.15,0-.14-.87-.77-.82-.89A1.25,1.25,0,0,1,540.34,444.88Z"/><path class="cls-21" d="M540.39,445l6.54-2.83a1.36,1.36,0,0,1,1.16-.11,13.09,13.09,0,0,1,1.51.73l29.13,16.38,1.48.83,27.66,15.54c.25.15,2.85,1.79,2.85,2.09,0,.12.92.76.87.86a1.19,1.19,0,0,1-.33,1.81L604.72,483a1.35,1.35,0,0,1-1.14.11,13.56,13.56,0,0,1-1.49-.72L573,466l-1.48-.83L543.8,449.74c-.25-.15-2.85-1.79-2.86-2.08,0-.12-.91-.76-.87-.86A1.18,1.18,0,0,1,540.39,445Z"/><path class="cls-22" d="M540.45,445.09l6.54-2.83a1.3,1.3,0,0,1,1.12-.09c.11,0,1.4.7,1.49.75l29,16.31,1.47.82,27.54,15.48a19.7,19.7,0,0,1,2.91,2c0,.09,1,.74.94.82a1.16,1.16,0,0,1-.27,1.82l-6.53,2.66a1.28,1.28,0,0,1-1.11.09,14.44,14.44,0,0,1-1.47-.74l-29-16.23-1.48-.83-27.54-15.4a19.81,19.81,0,0,1-2.92-2c0-.09-1-.73-.94-.81A1.16,1.16,0,0,1,540.45,445.09Z"/><path class="cls-23" d="M540.51,445.19l6.53-2.82a1.17,1.17,0,0,1,1.09-.07c.08,0,1.41.72,1.48.76l28.89,16.23,1.46.83,27.42,15.41a28.07,28.07,0,0,1,3,2c0,.07,1,.73,1,.79a1.13,1.13,0,0,1-.21,1.82l-6.53,2.66a1.19,1.19,0,0,1-1.07.06c-.08,0-1.39-.71-1.46-.75l-28.9-16.16-1.47-.82-27.42-15.34a27.69,27.69,0,0,1-3-1.95c0-.07-1-.72-1-.78A1.12,1.12,0,0,1,540.51,445.19Z"/><path class="cls-24" d="M540.56,445.3l6.54-2.83a1.14,1.14,0,0,1,1.06-.05c.05,0,1.41.75,1.46.78l28.76,16.16,1.45.82,27.31,15.35c.1.05,3,1.77,3,1.89s1.09.7,1.07.74a1.1,1.1,0,0,1-.13,1.82l-6.53,2.66a1.13,1.13,0,0,1-1,.05c-.06,0-1.4-.74-1.45-.76l-28.77-16.1-1.46-.82-27.31-15.27c-.1-.06-3-1.76-3-1.88s-1.08-.7-1.07-.75A1.1,1.1,0,0,1,540.56,445.3Z"/><path class="cls-25" d="M540.62,445.4l6.54-2.83a1.06,1.06,0,0,1,1,0s1.42.77,1.44.79l28.64,16.09,1.45.82,27.18,15.28c.05,0,3.07,1.76,3.07,1.82s1.15.69,1.14.71a1.08,1.08,0,0,1-.07,1.82l-6.53,2.66a1,1,0,0,1-1,0s-1.41-.76-1.43-.77l-28.65-16L572,465l-27.19-15.21s-3.07-1.75-3.07-1.81-1.14-.69-1.13-.71A1.08,1.08,0,0,1,540.62,445.4Z"/><path class="cls-26" d="M547.21,442.68a1,1,0,0,1,1,0l31.39,17.64L611,478a1.06,1.06,0,0,1,0,1.83l-6.53,2.66a1,1,0,0,1-1,0l-31.39-17.56-31.39-17.56a1.06,1.06,0,0,1,0-1.82Z"/></g><g class="cls-2"><path class="cls-3" d="M489.52,297l6.06-2.62a3.31,3.31,0,0,1,1.67-.46,3.38,3.38,0,0,1,1.64.44l24.66,13.52,24.67,13.52a3.57,3.57,0,0,1,0,6.12l-5.41,3.36a3.38,3.38,0,0,1-1.64.44,3.33,3.33,0,0,1-1.62-.43l-25-13.89-25-13.89a3.56,3.56,0,0,1-.05-6.11Z"/><path class="cls-4" d="M489.57,297.1l6-2.61a4.17,4.17,0,0,1,.68-.31,3,3,0,0,1,1-.14,3.32,3.32,0,0,1,1.62.45L523.45,308l1.42.78L548,321.4a3.62,3.62,0,0,1,1.79,3,3.57,3.57,0,0,1-.21,1.35,3.24,3.24,0,0,1-1.4,1.68l-5.39,3.34a3.19,3.19,0,0,1-1.63.44,3.34,3.34,0,0,1-1.6-.44l-24.89-13.82-1.41-.79-23.47-13a3.59,3.59,0,0,1-1.81-3,3.76,3.76,0,0,1,.2-1.34A3.24,3.24,0,0,1,489.57,297.1Z"/><path class="cls-5" d="M489.62,297.19l6-2.59a3.76,3.76,0,0,1,.68-.31,2.73,2.73,0,0,1,1-.13,3.44,3.44,0,0,1,1.61.46L523.34,308l1.42.78,23,12.62a3.71,3.71,0,0,1,1.85,2.92,3.55,3.55,0,0,1-.16,1.31,3,3,0,0,1-1.33,1.69l-5.36,3.32a3.83,3.83,0,0,1-.65.3,3,3,0,0,1-1,.14,3.48,3.48,0,0,1-1.59-.46l-24.77-13.76-1.41-.78-23.35-13a3.68,3.68,0,0,1-1.86-2.91,3.35,3.35,0,0,1,.14-1.31A3,3,0,0,1,489.62,297.19Z"/><path class="cls-6" d="M489.67,297.29l6-2.59a4.13,4.13,0,0,1,.68-.3,2.45,2.45,0,0,1,1-.13,3.58,3.58,0,0,1,1.59.47l24.33,13.34,1.42.77,22.9,12.56a3.78,3.78,0,0,1,1.89,2.86,3.55,3.55,0,0,1-.09,1.27,2.74,2.74,0,0,1-1.28,1.69l-5.33,3.31a4.12,4.12,0,0,1-.64.3,2.53,2.53,0,0,1-1,.13,3.7,3.7,0,0,1-1.58-.46l-24.65-13.7-1.4-.78-23.25-12.92a3.8,3.8,0,0,1-1.91-2.85,3.63,3.63,0,0,1,.09-1.28A2.76,2.76,0,0,1,489.67,297.29Z"/><path class="cls-7" d="M489.73,297.38l5.95-2.57a3.43,3.43,0,0,1,.68-.3,2.28,2.28,0,0,1,1-.12,3.77,3.77,0,0,1,1.58.48l24.21,13.27,1.41.78,22.79,12.49a4,4,0,0,1,1.95,2.8,3.43,3.43,0,0,1,0,1.24,2.56,2.56,0,0,1-1.21,1.68l-5.31,3.3a3.73,3.73,0,0,1-.64.3,2.45,2.45,0,0,1-1,.13,3.83,3.83,0,0,1-1.56-.48L515,316.74,513.6,316l-23.14-12.86a3.92,3.92,0,0,1-1.95-2.79,3.43,3.43,0,0,1,0-1.24A2.58,2.58,0,0,1,489.73,297.38Z"/><path class="cls-8" d="M489.78,297.48l5.93-2.56a4.43,4.43,0,0,1,.67-.3,2.3,2.3,0,0,1,1-.12,3.81,3.81,0,0,1,1.56.5L523,308.21l1.41.77,22.68,12.43a4.07,4.07,0,0,1,2,2.73,3.81,3.81,0,0,1,0,1.21A2.39,2.39,0,0,1,548,327l-5.29,3.28a3.64,3.64,0,0,1-.63.3,2.15,2.15,0,0,1-1,.12,4,4,0,0,1-1.55-.49L515.1,316.68l-1.39-.78-23-12.79a4.11,4.11,0,0,1-2-2.73c0-.37-.17-.87,0-1.21A2.35,2.35,0,0,1,489.78,297.48Z"/><path class="cls-9" d="M489.83,297.58l5.91-2.55a3.35,3.35,0,0,1,.67-.3,1.85,1.85,0,0,1,1-.11,4.15,4.15,0,0,1,1.55.5l24,13.15,1.4.77,22.58,12.37c.79.46,2,1.73,2,2.67,0,.36.21.86.08,1.17a2.2,2.2,0,0,1-1.08,1.69l-5.27,3.27a3.54,3.54,0,0,1-.62.3,2,2,0,0,1-1,.12,4.07,4.07,0,0,1-1.53-.51l-24.32-13.51-1.39-.77-22.91-12.73c-.8-.45-2.05-1.73-2.05-2.67,0-.35-.22-.85-.09-1.17A2.18,2.18,0,0,1,489.83,297.58Z"/><path class="cls-10" d="M489.88,297.67l5.88-2.54a4,4,0,0,1,.67-.29,1.85,1.85,0,0,1,1-.11,4.27,4.27,0,0,1,1.53.52l23.88,13.09,1.39.76,22.46,12.31c.75.43,2.09,1.73,2.09,2.61,0,.33.27.84.15,1.14a2.06,2.06,0,0,1-1,1.69l-5.25,3.25a4.43,4.43,0,0,1-.62.3,1.85,1.85,0,0,1-1,.11,4.23,4.23,0,0,1-1.52-.52l-24.2-13.44-1.38-.77-22.81-12.67c-.75-.43-2.09-1.72-2.1-2.6,0-.34-.27-.85-.15-1.15A2,2,0,0,1,489.88,297.67Z"/><path class="cls-11" d="M489.94,297.77l5.85-2.53a4.88,4.88,0,0,1,.66-.29,1.67,1.67,0,0,1,1-.1,4.52,4.52,0,0,1,1.52.53l23.76,13,1.39.76,22.35,12.26c.7.4,2.14,1.71,2.14,2.54,0,.31.31.82.2,1.1a1.93,1.93,0,0,1-.95,1.69L542.6,330a3.93,3.93,0,0,1-.62.3,1.75,1.75,0,0,1-1,.11,4.78,4.78,0,0,1-1.51-.53l-24.09-13.39-1.37-.76-22.7-12.61c-.7-.4-2.14-1.72-2.14-2.54,0-.32-.32-.83-.21-1.11A1.89,1.89,0,0,1,489.94,297.77Z"/><path class="cls-12" d="M490,297.86l5.82-2.51a4.74,4.74,0,0,1,.66-.29,1.67,1.67,0,0,1,1-.1,4.6,4.6,0,0,1,1.5.55l23.65,13,1.38.76,22.24,12.19c.66.37,2.19,1.7,2.19,2.47,0,.3.37.81.26,1.08a1.75,1.75,0,0,1-.89,1.68l-5.19,3.23c-.13.07-.47.26-.61.31a1.75,1.75,0,0,1-1,.09,4.86,4.86,0,0,1-1.49-.54l-24-13.33-1.37-.76L491.58,303.1c-.66-.37-2.19-1.7-2.2-2.47,0-.29-.37-.81-.27-1.07A1.82,1.82,0,0,1,490,297.86Z"/><path class="cls-13" d="M490,298l5.8-2.51a4.84,4.84,0,0,1,.66-.28,1.55,1.55,0,0,1,.95-.09,5.27,5.27,0,0,1,1.49.55l23.53,12.9,1.38.76L546,321.42c.61.35,2.24,1.69,2.24,2.41,0,.27.42.8.32,1a1.67,1.67,0,0,1-.83,1.69l-5.17,3.21a5,5,0,0,1-.61.31,1.71,1.71,0,0,1-.95.09,5.24,5.24,0,0,1-1.48-.56l-23.86-13.26-1.37-.76L491.8,303.1c-.61-.34-2.24-1.69-2.25-2.41,0-.27-.42-.8-.32-1A1.66,1.66,0,0,1,490,298Z"/><path class="cls-14" d="M490.1,298.05l5.76-2.49a5.51,5.51,0,0,1,.66-.29,1.48,1.48,0,0,1,1-.08,5.4,5.4,0,0,1,1.47.57l23.42,12.84,1.38.75,22,12.07c.56.32,2.28,1.69,2.28,2.35,0,.25.48.78.38,1a1.56,1.56,0,0,1-.76,1.69l-5.15,3.2c-.11.06-.48.27-.6.31a1.48,1.48,0,0,1-.95.08,5.34,5.34,0,0,1-1.46-.57l-23.75-13.2-1.36-.75L492,303.1c-.56-.31-2.28-1.69-2.29-2.35,0-.25-.47-.78-.38-1A1.58,1.58,0,0,1,490.1,298.05Z"/><path class="cls-15" d="M490.15,298.15l5.74-2.48c.1-.06.54-.25.65-.29a1.42,1.42,0,0,1,.95-.07,5.85,5.85,0,0,1,1.46.58l23.3,12.77,1.37.75,21.91,12c.52.3,2.34,1.68,2.34,2.29,0,.23.52.76.44,1a1.48,1.48,0,0,1-.7,1.68l-5.13,3.19a6.63,6.63,0,0,1-.59.31,1.48,1.48,0,0,1-.95.08,6,6,0,0,1-1.45-.59l-23.64-13.13-1.35-.75L492.24,303.1c-.51-.29-2.33-1.68-2.34-2.29,0-.23-.52-.76-.44-1A1.47,1.47,0,0,1,490.15,298.15Z"/><path class="cls-16" d="M490.2,298.25l5.72-2.47a5.24,5.24,0,0,1,.64-.29,1.36,1.36,0,0,1,.95-.07,6.38,6.38,0,0,1,1.44.6l23.2,12.71,1.36.74,21.8,11.95c.46.27,2.38,1.67,2.38,2.22,0,.21.58.75.5.94a1.39,1.39,0,0,1-.63,1.69l-5.1,3.16a5,5,0,0,1-.6.32,1.3,1.3,0,0,1-.93.07,6.69,6.69,0,0,1-1.45-.59L516,316.15l-1.35-.75-22.14-12.3c-.47-.26-2.39-1.67-2.39-2.22,0-.21-.58-.76-.5-.94A1.39,1.39,0,0,1,490.2,298.25Z"/><path class="cls-17" d="M490.25,298.34l5.69-2.46c.09-.05.55-.25.65-.28a1.27,1.27,0,0,1,.94-.06,7.36,7.36,0,0,1,1.43.6L522,308.79l1.35.75,21.69,11.89c.42.24,2.44,1.65,2.44,2.15,0,.19.63.74.56.9a1.33,1.33,0,0,1-.57,1.69l-5.08,3.15c-.08.05-.5.29-.59.32a1.3,1.3,0,0,1-.93.07,7.15,7.15,0,0,1-1.43-.61l-23.41-13-1.35-.75-22-12.24c-.42-.24-2.43-1.67-2.44-2.16,0-.19-.62-.74-.55-.91A1.32,1.32,0,0,1,490.25,298.34Z"/><path class="cls-18" d="M490.31,298.44,496,296l.64-.28a1.27,1.27,0,0,1,.94-.06,8,8,0,0,1,1.41.62l23,12.59,1.35.74,21.58,11.83c.37.21,2.48,1.65,2.48,2.09,0,.17.68.72.62.87a1.26,1.26,0,0,1-.51,1.69l-5.05,3.13a4.71,4.71,0,0,1-.58.32,1.25,1.25,0,0,1-.93.06,7.74,7.74,0,0,1-1.42-.62l-23.29-13-1.34-.74L492.91,303.1c-.37-.21-2.48-1.66-2.48-2.1,0-.17-.68-.72-.62-.87A1.26,1.26,0,0,1,490.31,298.44Z"/><path class="cls-19" d="M490.36,298.53,496,296.1c.07,0,.57-.26.64-.28a1.18,1.18,0,0,1,.94-.05,9.13,9.13,0,0,1,1.4.63l22.85,12.52,1.35.74,21.47,11.77c.32.19,2.53,1.64,2.53,2,0,.14.73.7.68.83a1.21,1.21,0,0,1-.45,1.69l-5,3.12a6.55,6.55,0,0,1-.58.32,1.14,1.14,0,0,1-.92.06,8.78,8.78,0,0,1-1.4-.64L516.28,316l-1.33-.74L493.14,303.1c-.33-.19-2.53-1.65-2.54-2,0-.14-.73-.71-.67-.84A1.2,1.2,0,0,1,490.36,298.53Z"/><path class="cls-20" d="M490.41,298.63,496,296.2l.63-.27a1.12,1.12,0,0,1,.93-.05,10.86,10.86,0,0,1,1.39.64L521.71,309l1.34.73,21.36,11.71c.28.16,2.58,1.63,2.58,2,0,.13.79.69.74.8a1.15,1.15,0,0,1-.38,1.69l-5,3.11c-.05,0-.51.31-.57.33a1.14,1.14,0,0,1-.92,0,9.71,9.71,0,0,1-1.39-.65l-23.07-12.82-1.33-.74-21.7-12c-.28-.16-2.58-1.65-2.58-2,0-.12-.78-.69-.74-.8A1.16,1.16,0,0,1,490.41,298.63Z"/><path class="cls-21" d="M490.46,298.72l5.58-2.41s.58-.26.64-.27a1,1,0,0,1,.92,0,12.36,12.36,0,0,1,1.38.65l22.62,12.4,1.34.74,21.25,11.64a14.65,14.65,0,0,1,2.63,1.9c0,.11.83.68.79.77a1.12,1.12,0,0,1-.31,1.69l-5,3.09-.57.33a1.06,1.06,0,0,1-.92,0,10.76,10.76,0,0,1-1.37-.66l-23-12.75-1.33-.74-21.59-12a14.18,14.18,0,0,1-2.63-1.9c0-.11-.83-.68-.79-.78A1.11,1.11,0,0,1,490.46,298.72Z"/><path class="cls-22" d="M490.52,298.82l5.55-2.4.63-.27a1,1,0,0,1,.92,0c.1,0,1.27.62,1.36.67l22.52,12.34,1.33.73L544,321.43a18.43,18.43,0,0,1,2.69,1.84c0,.08.88.66.85.73a1.08,1.08,0,0,1-.25,1.69l-5,3.08s-.53.32-.57.33a1,1,0,0,1-.91,0c-.1,0-1.27-.63-1.36-.67l-22.85-12.7-1.31-.73L493.8,303.09a17.47,17.47,0,0,1-2.67-1.84c0-.09-.88-.67-.85-.74A1.07,1.07,0,0,1,490.52,298.82Z"/><path class="cls-23" d="M490.57,298.92l5.53-2.39s.59-.27.62-.28a1,1,0,0,1,.92,0c.08,0,1.28.64,1.35.68l22.4,12.27,1.32.73,21,11.53a23.29,23.29,0,0,1,2.73,1.77c0,.06.94.64.91.7a1,1,0,0,1-.19,1.68l-4.93,3.07-.56.33a1,1,0,0,1-.91,0c-.07,0-1.28-.65-1.35-.68L516.71,315.7,515.4,315,494,303.09a24.7,24.7,0,0,1-2.73-1.78c0-.06-.93-.65-.91-.7A1,1,0,0,1,490.57,298.92Z"/><path class="cls-24" d="M490.62,299l5.5-2.38.62-.27a1,1,0,0,1,.92,0S499,297,499,297l22.29,12.22,1.32.72,20.92,11.47c.09.05,2.78,1.59,2.78,1.7s1,.63,1,.67a1,1,0,0,1-.13,1.69l-4.91,3.05s-.53.33-.55.33a1,1,0,0,1-.91,0s-1.29-.68-1.33-.7l-22.62-12.57-1.31-.72-21.26-11.82c-.09,0-2.77-1.61-2.77-1.72s-1-.63-1-.67A1,1,0,0,1,490.62,299Z"/><path class="cls-25" d="M490.67,299.11l5.48-2.37.62-.27a.92.92,0,0,1,.91,0s1.3.69,1.32.7l22.17,12.15,1.31.72,20.81,11.41c.05,0,2.83,1.59,2.83,1.64s1,.61,1,.63a1,1,0,0,1-.06,1.69l-4.89,3-.55.33a.9.9,0,0,1-.9,0s-1.3-.7-1.32-.71l-22.5-12.5-1.31-.73-21.15-11.75s-2.82-1.6-2.82-1.66-1-.62-1-.63A1,1,0,0,1,490.67,299.11Z"/><path class="cls-26" d="M496.79,296.58a.9.9,0,0,1,.91,0l24.67,13.52L547,323.62a1,1,0,0,1,0,1.69l-5.41,3.35a.88.88,0,0,1-.9,0l-25-13.89-25-13.89a1,1,0,0,1,0-1.69Z"/></g><polygon class="cls-27" points="619.72 362.14 602.2 365.27 527.44 321.37 541.2 318.86 619.72 362.14"/><polygon class="cls-28" points="665.33 504.28 645.44 507.84 587.09 473.23 602.71 470.37 665.33 504.28"/><polygon class="cls-29" points="149.42 501.57 131.13 504.84 77.46 473.01 91.83 470.38 149.42 501.57"/><polygon class="cls-30" points="217.93 159.33 196.15 163.22 132.26 125.32 149.37 122.2 217.93 159.33"/><polygon class="cls-31" points="328.68 565.77 281.11 584.75 179.63 525.27 221.11 507.3 328.68 565.77"/><polygon class="cls-32" points="542.84 553.81 512.19 564.98 410.71 505.5 435.27 495.34 542.84 553.81"/><path class="cls-33" d="M358.08,539.83l-.2,5.29,8.83-.62c.74,0,1.33.26,1.32.68h0c0,.43-.64.82-1.38.87l-8.83.62-.2,5.34c0,.43-.63.82-1.38.87l-.18,0c-.74.05-1.33-.26-1.32-.68l.2-5.35-8.82.62c-.75.06-1.34-.25-1.33-.68h0c0-.42.64-.81,1.38-.86l8.83-.62.2-5.3c0-.42.63-.81,1.38-.86l.18,0C357.5,539.1,358.09,539.4,358.08,539.83Z"/><path class="cls-33" d="M618.69,238.54l-.22,6,9.95-.7c.84-.06,1.51.28,1.49.76h0c0,.49-.72.93-1.56,1l-10,.7-.22,6c0,.48-.72.92-1.56,1h-.2c-.85.06-1.51-.28-1.49-.76l.22-6-9.95.7c-.84.06-1.51-.28-1.49-.77h0c0-.48.71-.92,1.56-1l10-.69.22-6c0-.48.71-.92,1.55-1l.21,0C618,237.72,618.71,238.06,618.69,238.54Z"/><path class="cls-33" d="M33,193l6-9.89L27.23,187a1.16,1.16,0,0,1-1.26-.35c-.37-.47-.73-.92,1.73-5.2l-12.73.1h0a1,1,0,1,1,0-2l16.32-.13-.93,1.55c-.71,1.17-1.46,2.52-2,3.54l12.55-4.15,2.6-.86L37.17,190l9.68-2.19a1,1,0,1,1,.44,2Z"/><path class="cls-33" d="M493.13,169.35a19.4,19.4,0,0,1-9.48-2.27c-2.72-1.57-4.22-3.72-4.22-6.05s1.5-4.49,4.22-6.06h0c5.23-3,13.74-3,19,0,2.72,1.57,4.22,3.72,4.22,6.06s-1.5,4.48-4.22,6.05A19.38,19.38,0,0,1,493.13,169.35Zm0-14.65a17.38,17.38,0,0,0-8.46,2h0c-2.08,1.2-3.22,2.73-3.22,4.31s1.14,3.11,3.22,4.3c4.66,2.7,12.26,2.7,16.93,0,2.07-1.19,3.21-2.72,3.21-4.3s-1.14-3.11-3.21-4.31A17.42,17.42,0,0,0,493.13,154.7Z"/><path class="cls-33" d="M573.63,545.27a19.37,19.37,0,0,1-9.48-2.26c-2.72-1.58-4.22-3.73-4.22-6.06s1.5-4.48,4.22-6.06h0c5.23-3,13.73-3,19,0,2.72,1.58,4.22,3.73,4.22,6.06s-1.5,4.48-4.22,6.06A19.4,19.4,0,0,1,573.63,545.27Zm-8.47-12.62c-2.07,1.19-3.21,2.72-3.21,4.3s1.14,3.11,3.21,4.31c4.67,2.69,12.27,2.69,16.93,0,2.08-1.2,3.22-2.73,3.22-4.31s-1.14-3.11-3.22-4.3c-4.66-2.7-12.26-2.7-16.93,0Z"/><path class="cls-33" d="M445.12,23.42a1,1,0,0,1-.51-.14L408.33,1.88a1,1,0,0,1,1-1.74l36.29,21.4a1,1,0,0,1,.36,1.38A1,1,0,0,1,445.12,23.42Z"/><path class="cls-33" d="M418.91,30.89a1,1,0,0,1-.51-.14L388.86,13.33A1,1,0,0,1,388.5,12a1,1,0,0,1,1.39-.36L419.43,29a1,1,0,0,1,.36,1.39A1,1,0,0,1,418.91,30.89Z"/><path class="cls-33" d="M425.44,23.79a1.06,1.06,0,0,1-.51-.14L405.45,12.16a1,1,0,0,1-.36-1.39,1,1,0,0,1,1.39-.35L426,21.9a1,1,0,0,1-.52,1.89Z"/><polygon class="cls-34" points="16.73 290.68 94.88 335.17 162.24 307 78.56 260.77 16.73 290.68"/><g class="cls-2"><path class="cls-3" d="M81.52,257.91c-18.91-9.49-49.27-9-67.81,1s-18.24,25.92.67,35.41,49.26,9,67.8-1S100.42,267.39,81.52,257.91Z"/><path class="cls-35" d="M81.33,258c-18.81-9.44-49-9-67.43,1s-18.13,25.77.67,35.21,49,9,67.42-1S100.13,267.44,81.33,258Z"/><path class="cls-36" d="M81.14,258.11c-18.7-9.38-48.71-8.92-67,1s-18,25.63.66,35,48.71,8.92,67-1S99.83,267.49,81.14,258.11Z"/><path class="cls-37" d="M81,258.21c-18.59-9.33-48.43-8.87-66.66,1s-17.93,25.48.66,34.81,48.43,8.87,66.66-1S99.54,267.54,81,258.21Z"/><path class="cls-38" d="M80.76,258.32c-18.48-9.28-48.16-8.82-66.28,1s-17.83,25.34.66,34.61,48.15,8.82,66.27-1S99.24,267.59,80.76,258.32Z"/><path class="cls-39" d="M80.57,258.42c-18.38-9.22-47.88-8.77-65.89,1s-17.73,25.19.65,34.41,47.87,8.76,65.89-1S98.94,267.64,80.57,258.42Z"/><path class="cls-40" d="M80.38,258.52c-18.27-9.17-47.6-8.71-65.51,1s-17.62,25.05.64,34.22,47.6,8.71,65.52-1S98.65,267.69,80.38,258.52Z"/><path class="cls-41" d="M80.19,258.63c-18.16-9.12-47.32-8.67-65.13,1s-17.52,24.9.64,34,47.33,8.67,65.13-1S98.35,267.74,80.19,258.63Z"/><path class="cls-12" d="M80,258.73c-18-9.06-47-8.62-64.74,1s-17.42,24.75.63,33.81,47.05,8.61,64.75-1S98.06,267.79,80,258.73Z"/><path class="cls-42" d="M79.81,258.83c-18-9-46.76-8.56-64.36,1s-17.32,24.61.63,33.62,46.77,8.56,64.37-1S97.76,267.84,79.81,258.83Z"/><path class="cls-43" d="M79.62,258.93c-17.84-9-46.49-8.51-64,1s-17.21,24.46.63,33.41,46.49,8.52,64-1S97.46,267.89,79.62,258.93Z"/><path class="cls-44" d="M79.43,259c-17.73-8.9-46.21-8.47-63.6,1s-17.1,24.31.63,33.21,46.21,8.46,63.6-1S97.17,267.94,79.43,259Z"/><path class="cls-45" d="M79.24,259.14c-17.62-8.85-45.93-8.41-63.21,1s-17,24.17.62,33,45.93,8.41,63.22-1S96.87,268,79.24,259.14Z"/><path class="cls-46" d="M79.05,259.24c-17.52-8.79-45.65-8.36-62.83,1s-16.9,24,.62,32.82,45.65,8.36,62.83-1S96.58,268,79.05,259.24Z"/><path class="cls-47" d="M78.87,259.35c-17.42-8.75-45.38-8.32-62.46,1s-16.8,23.87.62,32.61,45.38,8.31,62.45-1S96.28,268.08,78.87,259.35Z"/><path class="cls-48" d="M78.68,259.45c-17.31-8.69-45.1-8.26-62.07.95s-16.7,23.73.61,32.42,45.1,8.26,62.07-1S96,268.13,78.68,259.45Z"/><path class="cls-49" d="M78.49,259.55c-17.21-8.63-44.82-8.21-61.69.95s-16.59,23.58.61,32.22,44.82,8.2,61.69-1S95.69,268.18,78.49,259.55Z"/><path class="cls-50" d="M78.3,259.65c-17.1-8.58-44.55-8.15-61.31,1S.5,284,17.6,292.61s44.54,8.16,61.3-.94S95.39,268.23,78.3,259.65Z"/><path class="cls-51" d="M78.11,259.76c-17-8.53-44.27-8.11-60.92.93S.8,284,17.79,292.51s44.26,8.11,60.92-.94S95.1,268.28,78.11,259.76Z"/><path class="cls-52" d="M77.92,259.86c-16.88-8.47-44-8.06-60.54.93s-16.29,23.15.6,31.62,44,8,60.54-.93S94.8,268.33,77.92,259.86Z"/><path class="cls-53" d="M77.73,260c-16.78-8.42-43.71-8-60.16.93s-16.18,23,.59,31.42,43.71,8,60.16-.93S94.51,268.38,77.73,260Z"/><path class="cls-54" d="M77.54,260.06c-16.67-8.36-43.43-7.95-59.77.93s-16.08,22.85.58,31.21,43.44,8,59.78-.92S94.21,268.43,77.54,260.06Z"/></g><path class="cls-33" d="M89.19,264.63a28.26,28.26,0,0,0-10.26-9.41c-17.11-9.88-44.85-9.88-62,0a28.26,28.26,0,0,0-10.26,9.41H4.13v9h0C4.41,279.94,8.65,286.19,17,291c17.11,9.88,44.85,9.88,62,0,8.31-4.8,12.55-11.05,12.79-17.34h0v-9Z"/><path class="cls-55" d="M17,246.74c-17.12,9.88-17.12,25.9,0,35.78s44.85,9.88,62,0,17.11-25.9,0-35.78S34.08,236.86,17,246.74Z"/><path class="cls-33" d="M48,290.39c-11.31,0-22.62-2.49-31.23-7.46-8.43-4.86-13.07-11.37-13.07-18.3s4.64-13.44,13.07-18.31h0c17.22-9.94,45.23-9.94,62.45,0,8.43,4.87,13.08,11.37,13.08,18.31s-4.65,13.44-13.08,18.3C70.56,287.9,59.25,290.39,48,290.39ZM17.21,247.16c-8.12,4.69-12.6,10.89-12.6,17.47s4.48,12.78,12.6,17.47c16.95,9.78,44.53,9.78,61.48,0,8.12-4.69,12.59-10.89,12.59-17.47s-4.47-12.78-12.59-17.47c-16.95-9.79-44.53-9.79-61.48,0Z"/><path class="cls-56" d="M69.1,261.82c-6.37,3.64-15.83,4-21.13.87S43.54,254,49.91,250.4s15.84-4,21.14-.88S75.48,258.18,69.1,261.82Z"/><path class="cls-33" d="M57.06,265.29a18.62,18.62,0,0,1-9.34-2.19c-2.4-1.43-3.72-3.43-3.7-5.62,0-2.73,2.09-5.46,5.66-7.5,6.5-3.71,16.19-4.1,21.61-.87,2.41,1.43,3.73,3.43,3.71,5.62,0,2.73-2.09,5.46-5.66,7.5h0A25.47,25.47,0,0,1,57.06,265.29ZM62,247.86a24.48,24.48,0,0,0-11.81,2.95c-3.27,1.86-5.15,4.3-5.17,6.68,0,1.84,1.13,3.54,3.23,4.8,5.16,3.07,14.43,2.67,20.66-.89h0c3.27-1.86,5.15-4.3,5.17-6.67,0-1.85-1.13-3.55-3.23-4.8A17.61,17.61,0,0,0,62,247.86Z"/><path class="cls-56" d="M45.07,281.87,15,264c8.6-4.91,22.3-4.89,30.6,0S53.67,277,45.07,281.87Z"/><path class="cls-33" d="M45.06,282.42,14.07,264l.71-.41c8.73-5,22.67-4.95,31.09.05,4.09,2.44,6.32,5.7,6.29,9.18s-2.47,7-6.86,9.48ZM16,264l29.09,17.31C49,279,51.18,276,51.21,272.79s-2-6.09-5.83-8.35C37.45,259.73,24.47,259.58,16,264Z"/><path class="cls-33" d="M406.9,504.08,263.3,421.46a29.8,29.8,0,0,1-13.39-25s0-372.36.1-373c1.9-13.73,18.53-20.7,31.05-13.49L424.52,92.73a29.35,29.35,0,0,1,13.14,24.6l-.27,369.05a11.82,11.82,0,0,1-.19,2C436.23,503,419.81,511.53,406.9,504.08Z"/><path class="cls-56" d="M434.23,139.12l0-5.55c0-1.61-1.3-2.16-2.91-1.24h0a6.08,6.08,0,0,0-2.92,4.59l0,5.56c0,1.6,1.3,2.16,2.91,1.23h0A6.07,6.07,0,0,0,434.23,139.12Z"/><path class="cls-33" d="M429.85,144.66a2,2,0,0,1-1-.26,2.09,2.09,0,0,1-1-1.93l0-5.55a6.54,6.54,0,0,1,3.17-5,2.73,2.73,0,0,1,2.71-.26,2.11,2.11,0,0,1,.95,1.93l0,5.55a6.52,6.52,0,0,1-3.17,5A3.5,3.5,0,0,1,429.85,144.66Zm2.91-12.28a2.47,2.47,0,0,0-1.21.39,5.61,5.61,0,0,0-2.67,4.15l0,5.55a1.18,1.18,0,0,0,.46,1.07,1.83,1.83,0,0,0,1.7-.26,5.63,5.63,0,0,0,2.67-4.16l0-5.55a1.18,1.18,0,0,0-.46-1.07A.94.94,0,0,0,432.76,132.38Z"/><path class="cls-56" d="M428.42,136.9a6.07,6.07,0,0,1,2.91-4.59,3.1,3.1,0,0,1,1.1-.35,2,2,0,0,1,.09.63l0,5.55a6,6,0,0,1-2.92,4.59,3.3,3.3,0,0,1-1.08.41,2.3,2.3,0,0,1-.11-.68Z"/><path class="cls-57" d="M436.34,140.48h0c-.23-1.61-1.6-2.16-3.09-1.24h0a5.13,5.13,0,0,0-2.27,4.59h0c.22,1.61,1.6,2.16,3.08,1.24h0A5.14,5.14,0,0,0,436.34,140.48Z"/><path class="cls-33" d="M432.67,146a2.12,2.12,0,0,1-.91-.19,2.37,2.37,0,0,1-1.28-1.92,5.59,5.59,0,0,1,2.51-5.08,2.69,2.69,0,0,1,2.57-.33,2.35,2.35,0,0,1,1.27,1.92h0a5.61,5.61,0,0,1-2.5,5.08A3.15,3.15,0,0,1,432.67,146Zm2-6.72a2.14,2.14,0,0,0-1.13.38,4.67,4.67,0,0,0-2,4.09,1.38,1.38,0,0,0,.71,1.15,1.71,1.71,0,0,0,1.61-.27,4.63,4.63,0,0,0,2-4.1h0a1.38,1.38,0,0,0-.71-1.14A1.09,1.09,0,0,0,434.65,139.29Z"/><path class="cls-56" d="M433.31,139.28a5.13,5.13,0,0,0-2.27,4.59,1.91,1.91,0,0,0,.84,1.43h0l-2.65-1.13a1.66,1.66,0,0,1-.79-1.4,5.14,5.14,0,0,1,2.28-4.59,3.77,3.77,0,0,1,1.82-.41l2.68,1.12A2.38,2.38,0,0,0,433.31,139.28Z"/><path class="cls-33" d="M432.08,145.93l-.4-.16L429,144.64a2.16,2.16,0,0,1-1.09-1.79,5.62,5.62,0,0,1,2.5-5.09,4.19,4.19,0,0,1,2.11-.48l.18,0,2.67,1.11-.33.95a1.85,1.85,0,0,0-1.49.33h0a4.67,4.67,0,0,0-2.05,4.09,1.45,1.45,0,0,0,.61,1.08l.42.26Zm.35-7.65a3.17,3.17,0,0,0-1.46.33,4.66,4.66,0,0,0-2,4.1c.09.67.27.89.53,1l1.14.48a2.3,2.3,0,0,1-.06-.28,5.58,5.58,0,0,1,2.51-5.08l.33-.19Z"/><path class="cls-56" d="M434.35,193.65a6,6,0,0,0-2.92,4.59l0,16.65a1.58,1.58,0,0,0,.8,1.54l-2.62-1.24-.25-.12a1.57,1.57,0,0,1-1-1.61l0-16.66a6,6,0,0,1,2.91-4.59,2.14,2.14,0,0,1,1.86-.4l.15.05h0l.08,0,3,1.4A2.38,2.38,0,0,0,434.35,193.65Z"/><path class="cls-33" d="M432,216.88l-2.87-1.36a2,2,0,0,1-1.25-2.06l0-16.66a6.48,6.48,0,0,1,3.16-5,2.62,2.62,0,0,1,2.28-.44l.15,0-.15.48.27-.43,3,1.42-.41.92a1.92,1.92,0,0,0-1.61.3h0a5.57,5.57,0,0,0-2.67,4.16l0,16.65a1.13,1.13,0,0,0,.52,1.09Zm.71-24.66a2.53,2.53,0,0,0-1.15.42,5.59,5.59,0,0,0-2.66,4.16l0,16.66a1,1,0,0,0,.66,1.14l1.4.67c0-.12,0-.25,0-.38l0-16.65a6.5,6.5,0,0,1,3.17-5,4.51,4.51,0,0,1,.44-.22l-1.55-.71A.65.65,0,0,0,432.7,192.22Z"/><path class="cls-57" d="M437.24,211.54l0-16.66c0-1.61-1.3-2.16-2.91-1.23h0a6,6,0,0,0-2.92,4.59l0,16.65c0,1.61,1.3,2.17,2.91,1.24h0A6,6,0,0,0,437.24,211.54Z"/><path class="cls-33" d="M432.87,217.08a2,2,0,0,1-1-.26,2.09,2.09,0,0,1-1-1.93l0-16.65a6.5,6.5,0,0,1,3.17-5,2.74,2.74,0,0,1,2.7-.26,2.11,2.11,0,0,1,1,1.93l0,16.66a6.48,6.48,0,0,1-3.17,5A3.5,3.5,0,0,1,432.87,217.08Zm2.93-23.38a2.49,2.49,0,0,0-1.2.38,5.57,5.57,0,0,0-2.67,4.16l0,16.65a1.18,1.18,0,0,0,.46,1.07,1.85,1.85,0,0,0,1.7-.26,5.59,5.59,0,0,0,2.67-4.16l0-16.66a1.18,1.18,0,0,0-.46-1.06A1,1,0,0,0,435.8,193.7Z"/><path class="cls-56" d="M434.21,230.25a6,6,0,0,0-2.92,4.59l0,9.54a1.56,1.56,0,0,0,.8,1.53l-2.62-1.24-.25-.12a1.58,1.58,0,0,1-1-1.61l0-9.54a6.07,6.07,0,0,1,2.92-4.59,2.18,2.18,0,0,1,1.86-.41l.15.06h0l.08,0,3,1.4A2.35,2.35,0,0,0,434.21,230.25Z"/><path class="cls-33" d="M431.85,246.36,429,245a2,2,0,0,1-1.26-2.06l0-9.54a6.52,6.52,0,0,1,3.17-5,2.66,2.66,0,0,1,2.28-.44l.15.05-.15.48.27-.43,3,1.42-.41.91a2,2,0,0,0-1.61.31,5.57,5.57,0,0,0-2.67,4.16l0,9.54a1.13,1.13,0,0,0,.51,1.08Zm.7-17.54a2.5,2.5,0,0,0-1.14.42,5.63,5.63,0,0,0-2.67,4.16l0,9.54a1.08,1.08,0,0,0,.67,1.15l1.4.66c0-.12,0-.24,0-.37l0-9.55a6.5,6.5,0,0,1,3.17-5h0a4.51,4.51,0,0,1,.44-.22l-1.55-.72A.9.9,0,0,0,432.55,228.82Z"/><path class="cls-57" d="M437.1,241l0-9.54c0-1.61-1.3-2.16-2.91-1.23h0a6,6,0,0,0-2.92,4.59l0,9.54c0,1.61,1.3,2.16,2.91,1.23h0A6,6,0,0,0,437.1,241Z"/><path class="cls-33" d="M432.72,246.56a1.94,1.94,0,0,1-1-.25,2.11,2.11,0,0,1-1-1.93l0-9.55a6.5,6.5,0,0,1,3.17-5,2.74,2.74,0,0,1,2.7-.26,2.1,2.1,0,0,1,1,1.93l0,9.54a6.53,6.53,0,0,1-3.17,5A3.48,3.48,0,0,1,432.72,246.56Zm2.94-16.26a2.49,2.49,0,0,0-1.2.38,5.57,5.57,0,0,0-2.67,4.16l0,9.54a1.18,1.18,0,0,0,.46,1.06,1.8,1.8,0,0,0,1.7-.26A5.6,5.6,0,0,0,436.6,241l0-9.54a1.18,1.18,0,0,0-.46-1.06A1,1,0,0,0,435.66,230.3Z"/><path class="cls-57" d="M250,23.47l-.1,372.73a29.8,29.8,0,0,0,13.39,25l145.11,83.49c8.34,3.7,18.36-.42,18.41-9.85l.26-371.42a29.32,29.32,0,0,0-13.14-24.6L269,15.28C258.58,9.46,250.6,14.73,250,23.47Z"/><path class="cls-33" d="M414.72,506.54a16.2,16.2,0,0,1-6.52-1.39L263.05,421.63a30.23,30.23,0,0,1-13.64-25.43l.1-372.76c.3-4.41,2.41-8,5.79-9.82,3.85-2.08,8.79-1.65,13.91,1.23l145,83.54a29.73,29.73,0,0,1,13.39,25l-.26,371.42a11.1,11.1,0,0,1-5.12,9.59A13.8,13.8,0,0,1,414.72,506.54Zm-164.21-483-.1,372.71a29.21,29.21,0,0,0,13.16,24.58l145.09,83.48a13.9,13.9,0,0,0,13-.67,10.14,10.14,0,0,0,4.66-8.75l.26-371.42a28.73,28.73,0,0,0-12.91-24.18L268.72,15.71c-4.81-2.69-9.41-3.13-13-1.21C252.71,16.16,250.79,19.44,250.51,23.49Z"/><path class="cls-3" d="M404,492.58,266.1,412.51A20.86,20.86,0,0,1,256.73,395L257,32c.41-6.13,6-9.82,13.28-5.74L408,106.33a20.57,20.57,0,0,1,9.21,17.24l-.37,362.11A8.32,8.32,0,0,1,404,492.58Z"/><path class="cls-33" d="M408.55,494.47a8.79,8.79,0,0,1-4.83-1.46L265.85,413A21.35,21.35,0,0,1,256.23,395l.25-363a8.33,8.33,0,0,1,4.13-7c2.75-1.48,6.26-1.18,9.9.86L408.29,105.9a21,21,0,0,1,9.46,17.67l-.37,362.11a8.7,8.7,0,0,1-4.66,7.73A8.79,8.79,0,0,1,408.55,494.47ZM264.41,25a6.85,6.85,0,0,0-3.32.8A7.33,7.33,0,0,0,257.48,32l-.25,363a20.33,20.33,0,0,0,9.15,17.1l137.88,80.06a7.81,7.81,0,0,0,12.12-6.48l.37-362.12a20,20,0,0,0-9-16.81L270,26.66A11.61,11.61,0,0,0,264.41,25Z"/><path class="cls-33" d="M360.88,70.94,329.29,52.5c-.91-.53-1.65,0-1.66,1.24h0a4,4,0,0,0,1.64,3.18l31.59,18.43c.91.53,1.65,0,1.66-1.24h0A4,4,0,0,0,360.88,70.94Z"/><g class="cls-1"><path class="cls-33" d="M296.84,244.68c-13.28,5-43.78-4.51-46.53-8l-18,8.91.27.25c11.68,10,28.45,18.27,46.41,11.85a61.68,61.68,0,0,0,23.1-15.15A55.13,55.13,0,0,1,296.84,244.68Z"/><path class="cls-33" d="M401.46,337.91c.3-5.57.63-11.89.52-19.88,0-.3,0-.53,0-.69l-18,8.91c0,.16,0,.39,0,.69-2.18,42.07-6.08,94.34-42,124.6a26.45,26.45,0,0,1-6,3.36s22.11-15.78,24-17C388.3,419.09,399.41,377.9,401.46,337.91Z"/><path class="cls-33" d="M402,317.34c-2,0-4-.17-5.88-.38-37.28-2.89-59.39-47.81-67.3-88.92L306.25,238.9c0,.12,13.34,83.37,71.81,87,1.92.12,3.86.34,5.88.38h0Z"/><path class="cls-55" d="M306.25,238.9c.82,4.31,16.42,86.18,77.69,87.35.11,6.31,2.36,126.31-64.45,133.1-4.31-2.28-86.19-45.6-87.21-213.71a50.27,50.27,0,0,0,32.83,13C277,258.68,291.27,254,306.25,238.9Z"/><path class="cls-33" d="M319.37,459.94l-.15-.08c-8.85-4.69-86.52-50.49-87.51-214.21v-1.36l1,.94A49.61,49.61,0,0,0,265.11,258c14.15.09,27.82-6.48,40.73-19.53l.76-.77.21,1.06c1.67,8.78,18,85.76,77.14,86.89h.54v.55c.25,13,.51,127-65,133.68Zm-86.51-213c1.38,161.1,77.28,206.77,86.74,211.83,63.45-6.65,64-116.77,63.78-132-57.65-1.55-74.91-74.1-77.48-86.74-12.83,12.68-26.45,19.11-40.49,19.11h-.3A51.13,51.13,0,0,1,232.86,246.94Z"/><path class="cls-3" d="M305.72,403.89a18,18,0,0,1-5.56-2,28.25,28.25,0,0,1-7.07-5.69,47.84,47.84,0,0,1-8.84-14.26,55.55,55.55,0,0,1-3.89-15.55,38.41,38.41,0,0,1,2.22-18.12,22.2,22.2,0,0,1,4.16-6.7,14.82,14.82,0,0,1,13.94-4.78c13,2.22,25,19.12,26.77,37.66.14,1.42-.55,2.42-1.54,2.25s-1.91-1.45-2-2.86c-1.51-15.72-11.69-30-22.7-31.93a12.58,12.58,0,0,0-11.82,4,18.68,18.68,0,0,0-3.53,5.69A32.52,32.52,0,0,0,283.94,367a47.52,47.52,0,0,0,3.32,13.27,40.79,40.79,0,0,0,7.51,12.12,23.34,23.34,0,0,0,5.88,4.73,14,14,0,0,0,5.86,1.8c3,.19,4.82-1.06,4.17-7.76a9,9,0,0,0-3-6,10.76,10.76,0,0,0-2.74-1.84c-4.93-1-9.46-7.41-10.14-14.47a14.77,14.77,0,0,1,.87-7c.44-1.07,1.53-1.19,2.42-.25a3.69,3.69,0,0,1,.81,3.63,9,9,0,0,0-.52,4.24c.41,4.32,3.21,8.26,6.24,8.78l.13,0,.14.05a16,16,0,0,1,9.34,13.44c.81,8.51-1.54,12.65-7,12.3C306.75,404,306.24,404,305.72,403.89Z"/><path class="cls-3" d="M311.46,375l-.13,0a3.32,3.32,0,0,1-1.92-3,12.09,12.09,0,0,0-2.64-7,6.66,6.66,0,0,0-3.15-2.24,3.34,3.34,0,0,1-1.9-3c-.05-1.39.72-2.29,1.72-2a11,11,0,0,1,5.21,3.7A20,20,0,0,1,313,372.92C313.08,374.26,312.39,375.15,311.46,375Z"/><path class="cls-3" d="M306.15,393.82c-4.52-.77-9-4.06-12.54-9.27a36.47,36.47,0,0,1-6.18-18c-.76-11.88,5.15-20.49,13.46-19.61,1,.11,1.93,1.34,2.11,2.76s-.47,2.49-1.45,2.38c-6.49-.69-11.11,6-10.52,15.32a28.52,28.52,0,0,0,4.83,14.09c2.79,4.07,6.27,6.64,9.8,7.25,1,.17,1.9,1.45,2,2.86S307.14,394,306.15,393.82Z"/><path class="cls-3" d="M277.85,382.27a2.78,2.78,0,0,1-1.85-2,69.77,69.77,0,0,1-3.22-15.18c-1.16-12.1,1.1-22.84,6.37-30.24s12.84-10.5,21.36-8.71c8.22,1.72,16.3,7.79,22.76,17.09A69.41,69.41,0,0,1,335,375.78c.14,1.53.24,3.06.27,4.56.09,3.5-.84,6.5-2.54,8.24l-.34.36c-1,1.07-2.44,2.69-5.84,1.28-4.94-2-7.39-6.87-8.57-10.57a29.11,29.11,0,0,1-1.32-7.29c0-1.39.75-2.26,1.74-1.95a3.36,3.36,0,0,1,1.88,3.07,20.8,20.8,0,0,0,1,5.26c1.11,3.36,2.89,5.5,5.43,6.55,1.76.73,2.25.18,3.07-.72l.41-.43a6.9,6.9,0,0,0,1.49-4.94c0-1.32-.11-2.68-.24-4-2.06-21.47-15.47-40.77-30.54-43.92-7.54-1.59-14.26,1.15-18.91,7.7s-6.66,16.06-5.63,26.77a61.6,61.6,0,0,0,2.84,13.43c.46,1.39.11,2.77-.78,3.08A1.13,1.13,0,0,1,277.85,382.27Z"/><path class="cls-3" d="M269.1,343.72a1.85,1.85,0,0,1-.84-.42,3.79,3.79,0,0,1-1.12-3.57c2.31-8.4,6.41-15.12,11.85-19.43a24.15,24.15,0,0,1,19.64-4.88c11.67,2,23.31,11.31,31.91,25.55a3.26,3.26,0,0,1,.08,3.55c-.69.76-1.83.39-2.56-.81-7.8-12.92-18.35-21.36-28.94-23.18-13.25-2.27-24.19,6.18-28.56,22.06A1.32,1.32,0,0,1,269.1,343.72Z"/><path class="cls-3" d="M309.57,414.76l-.29-.05a37.29,37.29,0,0,1-15.82-7.36,3.75,3.75,0,0,1-1.23-3.53,1.32,1.32,0,0,1,2.24-.9,33.72,33.72,0,0,0,14.35,6.67c.56.11,1.13.19,1.69.25,1,.11,1.93,1.36,2.1,2.78s-.48,2.47-1.46,2.36C310.63,414.92,310.1,414.85,309.57,414.76Z"/><path class="cls-3" d="M323.5,324.66a2,2,0,0,1-1-.6c-7.57-7.78-16-12.65-24.37-14.08a26.71,26.71,0,0,0-19.69,4c-.8.54-1.94-.1-2.53-1.42s-.44-2.82.36-3.35a29,29,0,0,1,21.37-4.34c9.08,1.56,18.22,6.84,26.44,15.28a3.72,3.72,0,0,1,.84,3.63A1.26,1.26,0,0,1,323.5,324.66Z"/></g><path class="cls-57" d="M267.28,192.16c-2,3.91-4.7,7.06-2.82,7.78,2.12.81,7.75-2.34,8.35-1.75,2.84,2.85-7.33,6.8-11.72,6.8-5.62,0-17.93,36.18-17.93,36.18l-13.84-5.68s17.72-28.33,19.51-36.2a17.86,17.86,0,0,1,7.67-10.8c1.23-.83,7.65,3.09,9.06-2.62,1.22-4.89,3.29-8.39,4.05-8.15C271.11,178.18,269.29,188.24,267.28,192.16Z"/><path class="cls-33" d="M243.46,241.84l-14.89-6.11.32-.5c.18-.29,17.7-28.36,19.45-36a18.35,18.35,0,0,1,7.88-11.11c.54-.36,1.41-.18,2.6.07,2.94.62,5.44.87,6.25-2.39,1-4,2.75-7.72,4-8.42a1,1,0,0,1,.7-.1,1.1,1.1,0,0,1,.65.67c.93,2.19-.89,11-2.68,14.49-.54,1.07-1.14,2.09-1.68,3-.93,1.59-1.91,3.24-1.69,3.85,0,0,.05.15.28.24,1.06.4,3.47-.47,5.24-1.1,2-.72,2.82-1,3.28-.54a1.88,1.88,0,0,1,.48,2.19c-1.14,2.77-8.77,5.47-12.55,5.47s-12.74,22-17.46,35.84Zm-13.4-6.59,12.79,5.25c1.9-5.53,12.63-36,18.24-36,3.65,0,10.73-2.7,11.62-4.84a.88.88,0,0,0-.19-1,12.28,12.28,0,0,0-2.3.7c-2.12.76-4.53,1.63-5.94,1.09a1.43,1.43,0,0,1-.88-.85c-.36-1.05.54-2.58,1.78-4.69.53-.89,1.12-1.9,1.65-2.94h0c2.07-4.05,3.33-12.53,2.65-13.67-.62.44-2.31,3.25-3.43,7.73s-5.07,3.64-7.44,3.14a5.35,5.35,0,0,0-1.83-.22,17.35,17.35,0,0,0-7.46,10.49C247.65,206.77,232.53,231.28,230.06,235.25Z"/><path class="cls-3" d="M173.76,252.46c.39,10.63,11.12,11.8,26,10.17,12.57-1.38,29.87-4.67,44-17.43,5.56-5-9.67-17-14-15.78s-14.05,4.72-29.2,6.69C182.76,238.43,173.42,243,173.76,252.46Z"/><path class="cls-33" d="M190.33,263.72c-6.61,0-11-1.14-13.71-3.51a10.22,10.22,0,0,1-3.36-7.73c-.33-9.17,8.06-14.37,27.22-16.87a153.2,153.2,0,0,0,26.26-5.82c1.13-.34,2.09-.63,2.87-.85,3.38-.93,12,5,14.84,10.18,1.47,2.68,1.35,4.91-.35,6.45-14.31,12.95-32.11,16.22-44.25,17.56A89.25,89.25,0,0,1,190.33,263.72Zm40.12-33.88a2.49,2.49,0,0,0-.57.06c-.78.22-1.73.51-2.85.85a154.09,154.09,0,0,1-26.42,5.85c-18.53,2.42-26.66,7.31-26.35,15.85h0a9.18,9.18,0,0,0,3,7c3.64,3.15,10.57,4,22.47,2.67s29.59-4.55,43.69-17.3c1.34-1.21,1.39-3,.15-5.23C241,234.87,233.58,229.84,230.45,229.84Z"/><path class="cls-33" d="M180.63,510.38c-1.83,1.79-4.15,11.72-2.51,13.54a9.11,9.11,0,0,0,3.6,2.18c11,4.2,27.89-10.43,30.7-12.86,2.56-2.23,5.17-7.16,3.76-10.24C215,500.48,183,508,180.63,510.38Z"/><path class="cls-3" d="M196.59,501.61c-4.1,1.58-14.8,7.52-16.64,9.3s-3.47,8.26-1.83,10.08c1,1,3.46,2,4.8,2.47,5.34,1.79,20.07-5.06,27.38-11.48,2.55-2.24,6.84-7.46,5.42-10.54C214.57,498.92,204.35,498.59,196.59,501.61Z"/><path class="cls-33" d="M185,524.24a7.2,7.2,0,0,1-2.19-.3c-1.14-.39-3.92-1.41-5-2.61-1.9-2.11-.13-8.86,1.86-10.78s12.85-7.88,16.8-9.41c7.66-3,18.38-2.93,19.77.09,1.67,3.64-3.58,9.4-5.55,11.13C204,518.22,191.49,524.24,185,524.24Zm23.51-24.3a33.65,33.65,0,0,0-11.69,2.13h0c-4.11,1.59-14.73,7.52-16.47,9.2s-3.21,7.83-1.81,9.39c1,1.05,3.76,2.05,4.59,2.33,5.1,1.7,19.71-5.08,26.89-11.39,2.84-2.48,6.49-7.37,5.3-10C214.79,500.6,212.06,499.94,208.46,499.94Z"/><path class="cls-33" d="M193,515.2a2.08,2.08,0,1,0,1.55,2A1.82,1.82,0,0,0,193,515.2Z"/><path class="cls-33" d="M180.52,511.59s-2.87,2.72-2,9.82c0,0,1.23,2.05,4.78,2.32,0,0-.25-7.19,1.28-9.39l.79-1.45-3.08-4.05Z"/><path class="cls-57" d="M181.65,506.1c-.33,1.84-.62,3.7-1.13,5.49a2.93,2.93,0,0,1,3-.16,2.62,2.62,0,0,1,1.09,2.91,15,15,0,0,0,7.95-1.33c6.8-2.9,8-6.81,7.36-8.21C197.93,500.4,183.56,506.43,181.65,506.1Z"/><path class="cls-33" d="M186.21,515a10.58,10.58,0,0,1-1.68-.14l-.57-.09.18-.56a2.11,2.11,0,0,0-.88-2.33,2.5,2.5,0,0,0-2.49.17l-1.08.61.34-1.19a42.23,42.23,0,0,0,1-4.6l.24-1.34.49.09a20.59,20.59,0,0,0,4.08-.92c5.48-1.51,13-3.59,14.58-.09a3.44,3.44,0,0,1-.12,2.56c-.55,1.4-2.25,4.08-7.5,6.32A17.45,17.45,0,0,1,186.21,515Zm-1-1.07a15.06,15.06,0,0,0,7.15-1.37c5.1-2.17,6.56-4.75,6.95-5.76a2.31,2.31,0,0,0,.15-1.77c-1.23-2.71-8.84-.61-13.4.64a27.33,27.33,0,0,1-4,1L182,507c-.21,1.21-.43,2.47-.73,3.69a3.09,3.09,0,0,1,2.52.28A3.16,3.16,0,0,1,185.22,513.91Z"/><path class="cls-33" d="M175.26,420.31c-1.12,2.52-3.33,14.16-2.12,27.62S178,505.29,178,505.29c13.54,5.23,20.67-1.4,20.67-1.4s4.8-61.71,5.26-80.75S178.3,413.48,175.26,420.31Z"/><path class="cls-33" d="M203,326.42c-10-8.73-20-7.3-23.25-4.85-13.42,10.14-13.32,34.36-12.64,42.33.63,7.29,5.53,47.62,7.55,59.25,3,17.31,29,18.54,29,5.63C203.73,416.26,221.11,342.12,203,326.42Z"/><path class="cls-33" d="M210.31,524.94c-1.83,1.78-4.15,11.72-2.51,13.53a9.18,9.18,0,0,0,3.6,2.19c11,4.2,27.89-10.44,30.7-12.87,2.56-2.21,5.17-7.15,3.75-10.23C244.69,515,212.71,522.6,210.31,524.94Z"/><path class="cls-3" d="M226.26,516.16c-4.09,1.59-14.78,7.52-16.63,9.31s-3.47,8.26-1.83,10.08c.95,1.05,3.46,2,4.8,2.47,5.33,1.78,20.06-5.06,27.38-11.48,2.55-2.24,6.84-7.46,5.42-10.54C244.24,513.47,234,513.14,226.26,516.16Z"/><path class="cls-33" d="M214.62,538.8a6.83,6.83,0,0,1-2.18-.31c-1.43-.48-4-1.46-5-2.6-1.91-2.12-.14-8.86,1.85-10.78s12.84-7.87,16.8-9.41h0c7.67-3,18.39-2.94,19.78.09,1.49,3.24-2.61,8.54-5.55,11.12C233.63,532.78,221.17,538.8,214.62,538.8Zm23.52-24.3a33.38,33.38,0,0,0-11.69,2.13h0c-4.13,1.6-14.75,7.53-16.47,9.2s-3.22,7.82-1.8,9.39a12.56,12.56,0,0,0,4.58,2.33c5.1,1.7,19.7-5.08,26.89-11.39,2.84-2.49,6.49-7.38,5.3-9.95C244.47,515.16,241.74,514.5,238.14,514.5Z"/><path class="cls-33" d="M222.66,529.76a2.07,2.07,0,1,0,1.55,2A1.82,1.82,0,0,0,222.66,529.76Z"/><path class="cls-33" d="M210.2,526.15s-2.88,2.72-2,9.82c0,0,1.22,2,4.77,2.32,0,0-.24-7.19,1.29-9.39l.78-1.45L212,523.39Z"/><path class="cls-57" d="M211.33,520.65a55.82,55.82,0,0,1-1.13,5.5,2.93,2.93,0,0,1,3-.16,2.62,2.62,0,0,1,1.09,2.91,15,15,0,0,0,7.95-1.34c6.8-2.88,8-6.8,7.36-8.2C227.61,515,213.24,521,211.33,520.65Z"/><path class="cls-33" d="M215.89,529.53a10.56,10.56,0,0,1-1.68-.13l-.57-.1.17-.55a2.09,2.09,0,0,0-.87-2.33,2.5,2.5,0,0,0-2.49.17l-1.08.61.34-1.19a45.55,45.55,0,0,0,1-4.5l.25-1.44.5.08a19.79,19.79,0,0,0,4.06-.91c5.49-1.52,13-3.59,14.59-.09a3.4,3.4,0,0,1-.13,2.56c-.55,1.41-2.25,4.09-7.49,6.32A17.5,17.5,0,0,1,215.89,529.53Zm-1-1.06a15.12,15.12,0,0,0,7.16-1.37c5.09-2.16,6.56-4.74,6.95-5.75a2.48,2.48,0,0,0,.15-1.79c-1.23-2.7-8.85-.6-13.4.65a27.6,27.6,0,0,1-4,.95l-.1.52c-.21,1.19-.42,2.41-.71,3.6a3.09,3.09,0,0,1,2.52.28A3.12,3.12,0,0,1,214.89,528.47Z"/><path class="cls-33" d="M202.74,433.89c-1.13,2.53-1.9,16.27-.69,29.74s5,59.68,5,59.68c13.55,5.22,20.6-4.94,20.6-4.94s4.69-60.49,5.15-79.53S205.78,427.06,202.74,433.89Z"/><path class="cls-33" d="M229.8,337.05c-10.26-8.44-22.62-1.42-25.86,1-13.42,10.14-11.33,23.56-10.66,31.52.63,7.3,8.3,57.62,10.32,69.25,3,17.31,29,18.54,29,5.63C232.63,432,243.67,348.47,229.8,337.05Z"/><path class="cls-58" d="M235.59,268.92c0-22.33-34.56-31-45.07-31-21.28,0-22.22,27.06-19.27,46.84s-5.5,65.07-5.5,65.07c15.63,18.06,71.94,5.81,71.94,5.81C232.24,332.15,235.59,288.52,235.59,268.92Z"/><path class="cls-33" d="M200.23,360.23c-14,0-28.07-2.26-34.85-10.1l-.16-.19,0-.23c.09-.46,8.4-45.43,5.49-64.9-1.64-11.07-3.09-31.17,5.7-41.37,3.47-4,8.2-6.05,14.07-6.05,9.27,0,45.57,8.23,45.57,31.53,0,4.73-.19,10.76-.41,17.74-.69,21.56-1.63,51.09,2.5,68.84l.11.49-.49.11A199.38,199.38,0,0,1,200.23,360.23Zm-33.94-10.58c14.69,16.49,65.24,6.71,70.8,5.58-4-17.93-3.09-47.19-2.41-68.61.22-7,.41-13,.41-17.7,0-22.56-35.5-30.53-44.57-30.53-5.57,0-10.05,1.92-13.31,5.7-8.85,10.27-6.77,31.79-5.47,40.57C174.56,303.55,166.94,346.06,166.29,349.65Z"/><path class="cls-57" d="M225.13,206.24c-.22-2.6-3.26-.71-5.22-2.45s-4.91-2.46-7.66-2.73c-2.43-.23-5.05-.2-7.12,1.12a11.17,11.17,0,0,0-3.43,4.11c-6.17,11-3.27,19.85-5,31.51,3.35,1.75,13.74,5.4,17.46,5.91.65.09-4.17-5.91-2.92-11.14,5,1.45,8.1-5,12.7-12.61,1.37-2.27.57-5.92-.09-7.61C222.86,209.91,225.36,208.84,225.13,206.24Z"/><path class="cls-33" d="M214.4,244.24l-.36,0c-3.75-.53-14.16-4.16-17.62-6l-.32-.17.05-.35a79.64,79.64,0,0,0,.73-11c.12-6.83.24-13.27,4.38-20.66a11.61,11.61,0,0,1,3.6-4.3c2.3-1.47,5.19-1.41,7.44-1.2,2.5.25,5.65.8,7.95,2.86a3.87,3.87,0,0,0,2.59.75c1.17.07,2.63.15,2.79,2a5.29,5.29,0,0,1-.87,3.18,3,3,0,0,0-.48,2.8c.71,1.84,1.52,5.61,0,8.05-.48.79-.94,1.58-1.4,2.34-3.79,6.41-6.8,11.52-11.34,10.63-.56,3.46,1.49,7.24,2.5,9.1.58,1.07.74,1.35.5,1.7Zm-17.2-6.73a95.68,95.68,0,0,0,16.15,5.56c0-.1-.1-.2-.16-.3-1.11-2.06-3.44-6.35-2.49-10.31l.12-.52.51.15c4.08,1.19,6.86-3.52,10.72-10l1.4-2.36c1.28-2.11.48-5.6-.12-7.16a4,4,0,0,1,.54-3.64,4.38,4.38,0,0,0,.76-2.61h0c-.08-1-.53-1-1.84-1.11a4.83,4.83,0,0,1-3.2-1c-2.08-1.87-5-2.38-7.38-2.61-2.09-.2-4.75-.26-6.79,1a10.72,10.72,0,0,0-3.26,3.94c-4,7.17-4.14,13.49-4.26,20.19A82.49,82.49,0,0,1,197.2,237.51Z"/><path class="cls-33" d="M214.8,192.47c.21-6.8-14-7-12.46.81-6.57-1-15.6,4.64-12,13.48-3.53,6.92,3.27,13.84,5.08,18,.4.92,1.79,4.45,1.79,4.45s8.94,2.39,12.45.05c4.09-2.72,5.53-7.53,6.47-12.1,1.53-7.46,6-3.8,6-10.31,2.82-1.32,4.13,2.66,4.13,2.66C232.79,197,222,188.37,214.8,192.47Z"/><path class="cls-3" d="M213.63,237.8c-8.47-4.31-12-5-15.93-5.22a3.52,3.52,0,0,0-3.13,1.59l-2.38,3.63,25.95,8.28C218.21,242.42,215.72,238.86,213.63,237.8Z"/><path class="cls-33" d="M218.62,246.76l-27.21-8.68,2.75-4.18a4,4,0,0,1,3.57-1.82c4.29.24,8,1.12,16.12,5.27,2.37,1.2,4.86,5,4.79,8.74ZM193,237.53l24.65,7.86c-.23-3.09-2.31-6.18-4.22-7.15h0c-8.77-4.46-12.18-5-15.72-5.16a3,3,0,0,0-2.69,1.36Z"/><path class="cls-57" d="M270.44,338.68c-3.75-2.29-5.48-2.13-4.26-3.73,1.39-1.8,5.3-4.47,5.27-5.31-.07-1.71-4.67,0-7.88,2.42-1.5,1.12-5.65.67-6.81.24-8.86-3.33-32.6-22.65-32.6-22.65l-8.8,12.1s33.91,17.9,39.57,23.65c2.18,2.22,6.49,8.34,7.79,7.62s7.58-2.87,8.57-4.13-2.66-9,1-4c3,4.07,8.16,6.62,7.31,5.09C278.28,347.66,274.2,341,270.44,338.68Z"/><path class="cls-33" d="M262.48,353.58c-1.22,0-3-2-5.6-5.17-.87-1-1.69-2-2.31-2.66-5.54-5.63-39.11-23.37-39.44-23.55l-.52-.27,9.45-13,.42.34c.23.19,23.77,19.31,32.46,22.57,1.15.43,5.07.76,6.33-.17,2.35-1.76,6.46-3.8,8-3.05a1.12,1.12,0,0,1,.65,1c0,.67-.83,1.44-2.61,3a23,23,0,0,0-2.76,2.65c-.3.4-.28.52-.28.53.05.19.8.55,1.47.88s1.74.85,2.93,1.58c4.3,2.6,8.83,10.62,9.33,11.53.39.69,0,1-.14,1.08-1.07.66-5.55-2.23-8-5.63-.23-.32-.42-.57-.58-.77,0,.24.11.48.16.7.49,2,.77,3.37.24,4-.7.88-3.17,1.94-6.33,3.22-1.08.44-2,.82-2.4,1A1,1,0,0,1,262.48,353.58Zm-46.37-32c4.44,2.35,33.85,18,39.18,23.46.65.67,1.49,1.67,2.37,2.72,1.33,1.6,4.13,5,4.83,4.81.43-.24,1.33-.61,2.49-1.07,2-.81,5.33-2.17,5.91-2.92.28-.34-.21-2.33-.42-3.18-.39-1.6-.56-2.32,0-2.59s1,.13,2.19,1.82a17.41,17.41,0,0,0,6.2,5.18c-1.16-2-5.06-8.49-8.7-10.7h0a32.35,32.35,0,0,0-2.86-1.53c-1.15-.56-1.85-.9-2-1.56a1.7,1.7,0,0,1,.46-1.38,23.83,23.83,0,0,1,2.9-2.8,11.65,11.65,0,0,0,2.26-2.23c0-.05,0-.07-.08-.09-.83-.4-4.22.88-7,3-1.75,1.3-6.14.73-7.28.3-8.31-3.11-29-19.72-32.34-22.39Z"/><path class="cls-3" d="M223.33,252.5C213,250,208.94,260,206.42,274.76c-2.11,12.46-3.68,30,4.73,47.05,3.31,6.73,19-4.65,19-9.16s-.68-14.8,1.56-29.91C234.37,265,232.48,254.75,223.33,252.5Z"/><path class="cls-33" d="M214.79,324.39A4.21,4.21,0,0,1,210.7,322c-8.54-17.31-6.81-35.32-4.77-47.37s4.89-18.74,9.17-21.55a10.21,10.21,0,0,1,8.35-1.11h0c8.91,2.19,11.61,11.69,8.77,30.8a153.31,153.31,0,0,0-1.59,26.86c0,1.18,0,2.18,0,3,0,3.5-8,10.16-13.86,11.49A9.3,9.3,0,0,1,214.79,324.39Zm5.49-71.79a8.22,8.22,0,0,0-4.64,1.36c-4,2.64-6.71,9.08-8.72,20.88s-3.73,29.71,4.68,46.75c.8,1.62,2.47,2.16,5,1.58,5.62-1.29,13.06-7.72,13.08-10.52,0-.81,0-1.8,0-3a154.34,154.34,0,0,1,1.6-27c2.75-18.49.28-27.64-8-29.69A12.47,12.47,0,0,0,220.28,252.6Z"/><path class="cls-33" d="M603.91,482a12.87,12.87,0,0,0,7.4-3.86c5.29-5.27-10.14-7.77-10.14-7.77l-3.59,6.68Z"/><path class="cls-33" d="M574.9,410.34a9.72,9.72,0,0,1-4.63-8.23h0a5.89,5.89,0,0,0-2.95-5.17L551.75,388c-3.93-2.26-7.78.07-7.83,4.72l-.43,44.36a9.76,9.76,0,0,0,4.63,8.23l57.37,32.91c3.92,2.26,7.78-.07,7.82-4.72l.35-34.75a10.45,10.45,0,0,0-5.23-9.18Z"/><path class="cls-33" d="M611.66,476.88a3.09,3.09,0,0,0,.75-2.23c0-.24,0-.47.05-.72l.34-34.75a10.41,10.41,0,0,0-5.23-9.17L574,410.77a9.76,9.76,0,0,1-4.63-8.23,5.87,5.87,0,0,0-2.95-5.17l-15.57-8.94c-3.92-2.25-7.78.08-7.82,4.73l-.43,44.35a9.75,9.75,0,0,0,4.62,8.23l51.17,29.36-.8,1.49,6,3.36s1.68,1.6,5.92-1A12.33,12.33,0,0,0,611.66,476.88Z"/><path class="cls-33" d="M602.8,406.09l-52.3-29.28c-1-.59-3.85,0-3.89,2.37l.41,60.59a1.57,1.57,0,0,0,.79,1.4l51.27,30.62c1.06.59,3.39-.26,3.43-2.74l1.09-61.57A1.56,1.56,0,0,0,602.8,406.09Z"/><path class="cls-3" d="M601.74,406.91,549,377.4a1.64,1.64,0,0,0-2.42,1.4l-1.09,61.93a1.57,1.57,0,0,0,.81,1.41L599,471.65a1.63,1.63,0,0,0,2.41-1.41l1.1-61.92A1.58,1.58,0,0,0,601.74,406.91Z"/><path class="cls-33" d="M599.81,472.49a2.12,2.12,0,0,1-1.09-.29L546,442.7a2.23,2.23,0,0,1-1.13-2l1.1-61.93a2.24,2.24,0,0,1,1.15-1.93,2.21,2.21,0,0,1,2.21,0l52.72,29.51a2.21,2.21,0,0,1,1.12,2l-1.09,61.92a2.28,2.28,0,0,1-2.27,2.24Zm-51.57-94.66a1,1,0,0,0-.49.13,1,1,0,0,0-.51.86l-1.09,61.93a.93.93,0,0,0,.47.84l52.72,29.5a.94.94,0,0,0,1,0,1,1,0,0,0,.51-.85l1.09-61.93a.9.9,0,0,0-.47-.83h0L548.71,378A1,1,0,0,0,548.24,377.83Z"/><polygon class="cls-33" points="563.29 446.03 552.45 439.81 552.4 442.4 563.25 448.62 563.29 446.03"/><polygon class="cls-33" points="588.52 460.75 577.68 454.53 577.63 457.12 588.48 463.34 588.52 460.75"/><polygon class="cls-33" points="575.82 453.29 564.97 447.07 564.93 449.65 575.77 455.88 575.82 453.29"/><polygon class="cls-33" points="578.03 408.49 582.13 410.86 582.15 409.89 578.05 407.52 578.03 408.49"/><polygon class="cls-33" points="572.22 405.13 577.26 408.04 577.28 407.07 572.24 404.16 572.22 405.13"/><polygon class="cls-33" points="566.84 402.02 570.67 404.24 570.69 403.26 566.86 401.05 566.84 402.02"/><polygon class="cls-33" points="558.14 396.99 565.66 401.34 565.68 400.37 558.15 396.02 558.14 396.99"/><polygon class="cls-33" points="583.3 411.53 598.3 420.06 598.32 419.09 583.32 410.55 583.3 411.53"/><polygon class="cls-33" points="560.09 400.33 563.83 402.49 563.85 401.52 560.11 399.36 560.09 400.33"/><polygon class="cls-33" points="554.23 396.95 558.2 399.24 558.22 398.27 554.25 395.98 554.23 396.95"/><polygon class="cls-33" points="584.11 414.2 598.26 422.25 598.28 421.28 584.12 413.23 584.11 414.2"/><polygon class="cls-33" points="579.68 411.67 583.33 413.75 583.34 412.78 579.69 410.7 579.68 411.67"/><polygon class="cls-33" points="552.69 391.65 564.05 398.21 564.07 397.24 552.71 390.67 552.69 391.65"/><polygon class="cls-33" points="584.18 409.83 598.34 417.88 598.35 416.91 584.2 408.86 584.18 409.83"/><polygon class="cls-33" points="579.75 407.3 583.4 409.39 583.42 408.41 579.77 406.33 579.75 407.3"/><polygon class="cls-33" points="567.83 395.99 580.16 403.11 580.18 402.14 567.85 395.01 567.83 395.99"/><polygon class="cls-33" points="592.63 412.39 598.38 415.7 598.39 414.73 592.64 411.42 592.63 412.39"/><polygon class="cls-33" points="586.44 408.83 591.13 411.53 591.14 410.56 586.46 407.86 586.44 408.83"/><polygon class="cls-33" points="578.07 404.02 585.13 408.08 585.15 407.11 578.08 403.05 578.07 404.02"/><polygon class="cls-33" points="570.32 399.56 577.1 403.46 577.11 402.49 570.34 398.59 570.32 399.56"/><polygon class="cls-33" points="562.48 395.05 569.06 398.84 569.08 397.87 562.5 394.08 562.48 395.05"/><polygon class="cls-33" points="555.79 391.21 561.27 394.36 561.29 393.38 555.81 390.24 555.79 391.21"/><polygon class="cls-33" points="571.98 418.47 581.9 424.2 581.92 423.23 572 417.5 571.98 418.47"/><polygon class="cls-33" points="557.9 410.33 570.43 417.57 570.45 416.6 557.92 409.36 557.9 410.33"/><polygon class="cls-33" points="552.39 407.15 556.55 409.55 556.56 408.57 552.41 406.18 552.39 407.15"/><polygon class="cls-33" points="583.07 424.87 593.54 430.83 593.56 429.85 583.09 423.89 583.07 424.87"/><polygon class="cls-33" points="565.05 416.67 574.41 422.08 574.43 421.11 565.07 415.7 565.05 416.67"/><polygon class="cls-33" points="575.16 422.51 578.62 424.51 578.64 423.54 575.18 421.54 575.16 422.51"/><polygon class="cls-33" points="559.63 413.55 563.6 415.83 563.61 414.86 559.65 412.57 559.63 413.55"/><polygon class="cls-33" points="554.36 410.5 558.85 413.09 558.87 412.12 554.38 409.53 554.36 410.5"/><polygon class="cls-33" points="579.44 425.01 583.09 427.1 583.11 426.12 579.46 424.04 579.44 425.01"/><polygon class="cls-33" points="559.35 408.97 563.82 411.55 563.84 410.57 559.37 407.99 559.35 408.97"/><polygon class="cls-33" points="553.95 405.85 557.61 407.96 557.63 406.99 553.97 404.88 553.95 405.85"/><polygon class="cls-33" points="583.95 423.17 598.1 431.22 598.12 430.25 583.97 422.2 583.95 423.17"/><polygon class="cls-33" points="579.52 420.64 583.17 422.73 583.18 421.75 579.53 419.67 579.52 420.64"/><polygon class="cls-33" points="574.53 411.03 593.63 422.01 593.65 421.04 574.55 410.06 574.53 411.03"/><polygon class="cls-33" points="567.5 406.98 572.43 409.82 572.45 408.85 567.51 406.01 567.5 406.98"/><polygon class="cls-33" points="557.26 401.09 566.22 406.25 566.23 405.32 566.32 405.32 557.27 400.12 557.26 401.09"/><polygon class="cls-33" points="567.6 409.32 579.92 416.45 579.94 415.48 567.62 408.35 567.6 409.32"/><polygon class="cls-33" points="552.58 400.64 565.76 408.26 565.78 407.29 552.6 399.67 552.58 400.64"/><polygon class="cls-33" points="584.39 419 598.18 426.85 598.2 425.87 584.41 418.03 584.39 419"/><polygon class="cls-33" points="581.52 417.36 583.71 418.61 583.72 417.63 581.54 416.39 581.52 417.36"/><polygon class="cls-33" points="592.39 425.73 598.14 429.04 598.16 428.07 592.41 424.76 592.39 425.73"/><polygon class="cls-33" points="587.09 422.69 590.89 424.87 590.91 423.9 587.11 421.71 587.09 422.69"/><polygon class="cls-33" points="575.67 416.12 586.16 422.15 586.18 421.18 575.69 415.14 575.67 416.12"/><polygon class="cls-33" points="563.45 409.09 568.5 411.99 568.52 411.02 563.47 408.12 563.45 409.09"/><polygon class="cls-33" points="555.56 404.55 559.85 407.02 559.87 406.04 555.58 403.57 555.56 404.55"/><polygon class="cls-33" points="560.5 407.39 562.67 408.64 562.68 407.66 560.52 406.42 560.5 407.39"/><polygon class="cls-33" points="569.68 412.67 574.84 415.64 574.86 414.66 569.7 411.69 569.68 412.67"/><path class="cls-33" d="M549.4,408.12Z"/><path class="cls-33" d="M570.27,413a9.72,9.72,0,0,1-4.63-8.23h0a5.87,5.87,0,0,0-2.95-5.17l-15.57-8.93c-3.92-2.26-7.78.07-7.82,4.72l-.43,44.36a9.71,9.71,0,0,0,4.62,8.22l57.37,32.92c3.92,2.26,7.78-.07,7.83-4.72l.34-34.75a10.43,10.43,0,0,0-5.23-9.18Z"/><path class="cls-55" d="M569.41,413.38a9.76,9.76,0,0,1-4.63-8.23h0a5.89,5.89,0,0,0-2.94-5.17L546.27,391c-3.93-2.25-7.79.08-7.83,4.73L538,440.12a9.75,9.75,0,0,0,4.62,8.23L600,481.27c3.93,2.25,7.79-.08,7.83-4.73l.34-34.75a10.39,10.39,0,0,0-5.23-9.17Z"/><path class="cls-33" d="M603,482.64a6.62,6.62,0,0,1-3.27-.93l-57.37-32.92a10.25,10.25,0,0,1-4.87-8.67l.43-44.35a6.07,6.07,0,0,1,2.79-5.44,5.76,5.76,0,0,1,5.79.28l15.57,8.93a6.42,6.42,0,0,1,3.19,5.61,9.21,9.21,0,0,0,4.38,7.79l33.53,19.24a11,11,0,0,1,5.48,9.62l-.34,34.75a6,6,0,0,1-2.8,5.43A5,5,0,0,1,603,482.64Zm-59.77-92a4,4,0,0,0-2,.52,5.11,5.11,0,0,0-2.29,4.58l-.43,44.35a9.23,9.23,0,0,0,4.37,7.79l57.37,32.92a4.73,4.73,0,0,0,4.78.27,5.08,5.08,0,0,0,2.3-4.57l.34-34.75a10,10,0,0,0-5-8.74l-33.53-19.24a10.24,10.24,0,0,1-4.88-8.67,5.4,5.4,0,0,0-2.69-4.73L546,391.48A5.64,5.64,0,0,0,543.25,390.68Z"/><polygon class="cls-55" points="617.76 175.86 531.34 131.83 531.34 77.15 617.76 121.19 617.76 175.86"/><path class="cls-33" d="M618.25,176.66l-87.4-44.53V76.35l87.4,44.54Zm-86.43-45.13,85.45,43.54V121.49L531.82,78Z"/><polygon class="cls-33" points="617.76 121.18 602.07 125.66 599.54 126.37 597.43 126.98 596.16 127.34 595.64 127.49 593.53 128.09 592.16 128.47 575.04 133.34 574.55 133.48 554.86 107.81 552.94 105.31 552.75 105.06 550.97 102.74 548.86 99.99 543.96 93.61 531.34 77.15 557.38 90.42 574.55 99.17 602.07 113.18 617.76 121.18"/><polygon class="cls-33" points="574.55 65.44 617.76 121.19 574.55 99.17 531.34 77.15 574.55 65.44"/><polygon class="cls-55" points="574.55 123.12 596.15 149.49 617.76 175.86 574.55 153.85 531.34 131.83 552.94 127.47 574.55 123.12"/><path class="cls-33" d="M619.62,177.36l-89.76-45.73,44.88-9ZM532.81,132l83.09,42.34-41.55-50.71Z"/><polygon class="cls-59" points="595.86 92.93 557.38 73.13 557.38 90.42 557.38 110.32 575.04 133.34 592.16 128.47 593.53 128.09 595.64 127.49 596.16 127.34 597.43 126.98 599.54 126.37 602.07 125.66 602.07 113.18 602.07 100.93 595.86 92.93"/><polygon class="cls-3" points="599.54 93.62 599.54 126.37 597.46 126.96 597.43 126.98 596.16 127.34 595.64 127.49 593.53 128.09 592.16 128.47 574.55 133.48 554.86 107.81 554.86 70.61 597.46 92.55 599.54 93.62"/><path class="cls-33" d="M574.37,134l-20-26.06V69.82L600,93.33v33.4Zm-19-26.38,19.39,25.28L599.06,126V93.91L597.24,93,555.34,71.4Z"/><polygon class="cls-59" points="597.46 92.55 597.46 126.96 597.43 126.98 596.16 127.34 595.64 127.49 593.53 128.09 592.16 128.47 574.55 133.48 554.86 107.81 554.86 70.61 597.46 92.55"/><polygon class="cls-3" points="595.64 84.28 595.64 127.49 593.53 128.09 592.16 128.47 574.55 133.48 552.94 105.31 552.75 105.06 550.97 102.74 550.97 61.27 595.64 84.28"/><path class="cls-33" d="M574.37,134l-23.88-31.12V60.48L596.12,84v43.87Zm-22.92-31.45,23.28,30.35,20.43-5.8V84.57L551.45,62.06Z"/><polygon class="cls-60" points="575.79 131.44 554.19 103.27 553.99 103.01 550.97 99.08 550.97 102.74 552.75 105.06 552.94 105.31 574.55 133.48 592.16 128.47 593.53 128.09 595.64 127.49 595.64 125.9 575.79 131.44"/><path class="cls-33" d="M537.55,271.58l0,0-6.79,4.19-2.25-3.44a21.19,21.19,0,0,1-4.94-2.11c-10.37-5.95-18.69-19.81-18.61-30.94a20.47,20.47,0,0,1,.22-2.68L502.84,233l6.27-3.83a8.17,8.17,0,0,1,1.72-1.05l.06,0h0c3.4-1.53,8-1.06,13,1.83,10.36,6,18.69,19.81,18.61,30.94C542.48,266.07,540.59,269.74,537.55,271.58Z"/><path class="cls-33" d="M498.17,295.56a23.92,23.92,0,0,1,2.34-10.5l-.88-2.46,6.64-4.1.81-.48c4.41-2.33,10.12-2.26,16.38,1.34,13.91,8,25.15,30.17,25,45.11L541.21,329l-16.2-15,3.21-1.12Z"/><path class="cls-58" d="M516.62,234.45c10.36,6,18.69,19.81,18.62,30.94s-8.57,15.34-18.94,9.38S497.62,255,497.69,243.83,506.25,228.51,516.62,234.45Z"/><path class="cls-33" d="M525.18,277.92a18.71,18.71,0,0,1-9.11-2.75c-10.46-6-18.91-20.07-18.84-31.34,0-5.29,1.95-9.28,5.37-11.24,3.72-2.13,8.91-1.6,14.25,1.46h0c10.47,6,18.92,20.08,18.84,31.34,0,5.29-2,9.28-5.37,11.25A10.24,10.24,0,0,1,525.18,277.92Zm-17.43-45.7a9.23,9.23,0,0,0-4.69,1.17c-3.13,1.79-4.87,5.5-4.91,10.44-.08,11,8.17,24.68,18.38,30.54,5,2.9,9.9,3.44,13.33,1.47,3.13-1.79,4.88-5.51,4.92-10.46.07-11-8.17-24.66-18.38-30.54h0A17.8,17.8,0,0,0,507.75,232.22Z"/><path class="cls-58" d="M516.17,283.88c13.91,8,25.16,30.17,25,45.1l-50.33-28.9C491,285.16,502.28,275.88,516.17,283.88Z"/><path class="cls-33" d="M541.66,329.77l-51.24-29.43v-.27c.06-8,3.32-14.63,8.73-17.73,4.93-2.83,11.06-2.42,17.25,1.14,14.6,8.37,25.38,30.93,25.27,45.51Zm-50.32-30,49.41,28.38c-.29-14.08-11-36-24.81-43.91h0c-5.9-3.4-11.7-3.8-16.33-1.14C494.55,286,491.47,292.26,491.34,299.81Z"/><path class="cls-33" d="M138.69,66.73a3.66,3.66,0,0,0,3.79-.42L152.93,59c1.95-1.39,4.7-1.33,7.28.16l16.51,9.51c3.41,2,2.83,5.14,1.93,8.55l-17,59.76c-.7,2.64-2.74,3.4-5.38,1.87L88.87,100c-2.65-1.52-4.23-4.91-3.53-7.55L98.17,48.4c.46-1.73,3.62-3.08,5.14-2.21Z"/><polygon class="cls-57" points="135.67 75.64 147.17 56.51 139.52 52.15 139.52 35.47 131.83 31.09 131.83 47.78 124.18 43.42 135.67 75.64"/><path class="cls-33" d="M135.55,76.9,123.18,42.23l8.11,4.62V30.16l8.77,5V51.84l7.86,4.47ZM125.18,44.61,135.8,74.38,146.42,56.7,139,52.47V35.78L132.37,32V48.71Z"/><path class="cls-55" d="M121.65,73.93a2,2,0,0,0,2.73-.42l4.9-7.36c.91-1.38,3-1.32,5.63.16l21,11.06c3.44,2,4.32,5.13,5.06,8.54l-.6,51c.57,2.64-1.13,3.55-3.8,2L89.22,100a9.53,9.53,0,0,1-4.89-4.63,10.43,10.43,0,0,1-1-4.5L83,55.59a2,2,0,0,1,3-2.2Z"/><path class="cls-33" d="M158.8,140.26a5.35,5.35,0,0,1-2.55-.82L89,100.52a10,10,0,0,1-5.12-4.87,11,11,0,0,1-1-4.74l-.35-35.26a2.54,2.54,0,0,1,1-2.58,2.58,2.58,0,0,1,2.82-.16l35.65,20.54h0a1.43,1.43,0,0,0,2-.25l4.9-7.35c1.1-1.66,3.48-1.67,6.37,0l20.93,11c3.6,2.06,4.58,5.39,5.34,8.92v.12l-.6,51c.37,1.84-.31,2.65-.75,3A2.22,2.22,0,0,1,158.8,140.26ZM85,53.66a1.46,1.46,0,0,0-.88.3,1.45,1.45,0,0,0-.58,1.52v.11L83.9,90.9a9.89,9.89,0,0,0,.92,4.27,9,9,0,0,0,4.63,4.37l67.35,39c1.17.67,2.17.85,2.67.48s.51-1,.31-1.92l0-.06v-.06l.6-51c-.73-3.37-1.61-6.31-4.78-8.13l-20.93-11c-2.32-1.32-4.19-1.45-4.92-.34l-4.91,7.35a2.49,2.49,0,0,1-3.45.6h0L85.73,53.87A1.46,1.46,0,0,0,85,53.66Z"/><path class="cls-56" d="M97.66,93.89l-11.11-6.1L88,94.67a1.85,1.85,0,0,0,.41.46l10.16,6Z"/><path class="cls-33" d="M99.29,102.13,88.17,95.6a2.61,2.61,0,0,1-.6-.65l-.06-.17-1.74-8,12.39,6.8ZM88.54,94.45a1.4,1.4,0,0,0,.21.24l9.18,5.39-.77-5.85-9.83-5.4Z"/><path class="cls-33" d="M90.93,92.62l-2.64-1.45.35,1.64a.36.36,0,0,0,.1.11l2.41,1.42Z"/><path class="cls-57" d="M117.09,84.26c-1.37-.8-7.43-2.18-9.09-2.59V93.19c0,5.77,4.07,12.79,9.09,15.69,2.34,1.35,4.47,1.57,6.08.83a5.45,5.45,0,0,0,2.91-4.47,10.77,10.77,0,0,0,.11-1.55V92.18C123.15,89.41,120.12,86,117.09,84.26Z"/><path class="cls-33" d="M123.17,109.71a2.82,2.82,0,0,1-.31.21c-1.65,1-3.94.83-6.47-.63-5-2.9-9.1-9.93-9.1-15.69V82.08l.71.18V93.19c0,5.77,4.07,12.79,9.09,15.69C119.43,110.23,121.56,110.45,123.17,109.71Z"/><path class="cls-33" d="M128.53,91v12.06c0,3-1,5.09-2.61,6l-2.77,1.53c.26-.3,2.95-4.38,2.95-6.1v-12s-6.64-6.68-9.71-8.46c-2.7-1.55-9.72-2.76-9.72-2.76l2.43-1.41s6.64,1,9.72,2.77S128.53,91,128.53,91Z"/><path class="cls-33" d="M128.53,91l-2.43,1.41s-6.64-6.68-9.71-8.46-9.72-2.76-9.72-2.76l2.43-1.41s6.58.83,9.66,2.6S128.53,91,128.53,91Z"/><path class="cls-3" d="M116.39,84a32.64,32.64,0,0,0-9.72-2.76v12c0,6.15,4.36,13.67,9.72,16.76,2.76,1.6,5.29,1.5,7.07.39,1.62-1,2.69-3,2.64-5.93v-12S120.4,86.1,116.39,84Zm9.09,20.15c0,2.67-.87,4.6-2.31,5.61a2.82,2.82,0,0,1-.31.21c-1.65,1-3.94.83-6.47-.63-5-2.9-9.1-9.93-9.1-15.69V82.08c3,.74,6.11.86,9.1,2.58s6.06,5.16,9.09,7.92Z"/><polygon class="cls-33" points="100.29 483.76 97.18 485.18 97.18 427.75 100.29 426.33 100.29 483.76"/><polygon class="cls-56" points="26.44 443.5 26.45 387.67 96.65 428.04 96.65 484.26 26.44 443.5"/><path class="cls-33" d="M27,388.58l69.14,39.76v55L27,443.19V388.58Zm-1.06-1.83V443.8l71.27,41.38V427.73l-71.26-41Z"/><polygon class="cls-33" points="100.29 426.33 97.17 427.73 25.91 386.75 29.01 385.34 100.29 426.33"/><polygon class="cls-33" points="100.29 424.58 97.18 426 97.18 415.52 100.29 414.1 100.29 424.58"/><polygon class="cls-58" points="26.44 384.32 26.45 375.44 96.65 415.8 96.65 425.08 26.44 384.32"/><path class="cls-33" d="M27,376.35l69.14,39.76v8.05L27,384v-7.66Zm-1.06-1.83v10.1L97.18,426V415.5l-71.26-41Z"/><polygon class="cls-33" points="100.29 414.1 97.17 415.5 25.91 374.52 28.57 372.85 100.29 414.1"/><polygon class="cls-55" points="46.4 444.83 72.96 442.57 46.4 409.21 46.4 444.83"/><path class="cls-33" d="M46,445.29V408l27.81,34.92Zm.85-34.86v33.94l25.31-2.15Z"/><path class="cls-58" d="M348.5,131.14c0-6.7-5.21-14.85-11.84-18.53-3.59-2-7.1-2.41-9.71-1.09s-3.82,3.82-3.82,7.24v14.17l-8.8-4.77-.87,42.66c-.17,9.2,9.09,21.74,20.7,28s21.2,3.95,21.37-5.25l.88-42.65-7.91-4.3Zm-10.18,46.27a.63.63,0,0,1-.95.61l-6.63-3.92a.61.61,0,0,1-.3-.65l1.62-9.64a.79.79,0,0,0-.14-.47,7.32,7.32,0,0,1-1.62-4.16c0-2.3,1.86-3.08,4.13-1.76s4.12,4.23,4.12,6.5a2.24,2.24,0,0,1-1.22,2.23.65.65,0,0,0-.47.67ZM343.56,144,328,135.6V119.74c0-1.79.61-3.08,1.73-3.65s3.18-.34,5.21.78c4.66,2.6,8.59,8.72,8.59,13.32Z"/><path class="cls-33" d="M346.13,202.88a26.63,26.63,0,0,1-12.21-3.58c-11.73-6.37-21.14-19.15-21-28.49l.89-43.48,8.78,4.76V118.76c0-3.62,1.45-6.35,4.1-7.68s6.44-1,10.17,1.09c6.78,3.77,12.1,12.1,12.1,19v15.23l7.92,4.3v.3L356,193.62c-.06,3.6-1.51,6.32-4.17,7.88A11.36,11.36,0,0,1,346.13,202.88ZM314.82,129,314,170.83c-.17,9,9,21.38,20.43,27.59,6.75,3.65,13.09,4.48,17,2.21,2.35-1.37,3.62-3.8,3.68-7l.88-42.35L348,147V131.14c0-6.54-5.09-14.49-11.58-18.1-3.44-1.91-6.81-2.3-9.24-1.07s-3.55,3.57-3.55,6.79v15Zm22.87,49.62a1.1,1.1,0,0,1-.58-.16l-6.62-3.92a1.12,1.12,0,0,1-.55-1.14l1.63-9.66h0s0-.06-.05-.09a7.87,7.87,0,0,1-1.72-4.46,2.78,2.78,0,0,1,1.27-2.57,3.61,3.61,0,0,1,3.61.38c2.41,1.4,4.37,4.51,4.37,6.93a2.71,2.71,0,0,1-1.51,2.68c-.12.05-.19.1-.18.17l1.45,10.57a1.08,1.08,0,0,1-.5,1.08A1.1,1.1,0,0,1,337.69,178.61Zm-5.32-21.33a1.64,1.64,0,0,0-.81.19,1.89,1.89,0,0,0-.76,1.71,6.84,6.84,0,0,0,1.52,3.86,1.24,1.24,0,0,1,.24.77l-1.63,9.73a.1.1,0,0,0,.06.12l6.63,3.93a.13.13,0,0,0,.14,0,.11.11,0,0,0,.06-.11l-1.45-10.59a1.15,1.15,0,0,1,.81-1.22,1.82,1.82,0,0,0,.87-1.75c0-2.07-1.77-4.84-3.88-6.07A3.68,3.68,0,0,0,332.37,157.28Zm11.69-12.45-16.53-8.93V119.74c0-2,.71-3.43,2-4.1s3.47-.43,5.68.79c4.8,2.68,8.85,9,8.85,13.76Zm-15.53-9.52,14.53,7.84v-13c0-4.46-3.82-10.37-8.34-12.89-1.88-1-3.65-1.32-4.73-.77s-1.46,1.63-1.46,3.21Z"/></g></g></g></svg>