<svg width="278" height="304" viewBox="0 0 278 304" fill="none" xmlns="http://www.w3.org/2000/svg">
<rect width="277" height="304" transform="translate(0.5)" fill="white"/>
<path d="M202.863 283.711C197.238 286.483 190.989 288.548 184.281 289.96C172.489 292.467 159.309 293.026 145.763 292.161C103.362 289.46 57.3954 272.802 39.2605 258.18C38.166 257.315 37.1716 256.444 36.2948 255.579C27.4098 246.9 22.5966 231.442 21.1373 214.79C20.0311 202.151 20.8549 188.841 23.3027 177.273C25.9034 164.875 30.3636 154.495 36.2948 149.153C55.0358 132.259 48.4338 89.1521 63.5678 54.6122C68.6694 42.9675 81.1908 36.2713 95.7364 32.529C99.6376 31.5228 103.686 30.7402 107.781 30.1342C121.232 28.1394 135.101 28.0335 145.699 28.5278C147.011 28.5866 148.276 28.6514 149.488 28.7337C157.29 29.2221 162.698 29.9635 163.757 30.2754C178.22 34.5296 189.094 40.0195 198.126 47.2629C219.127 64.0857 230.248 90.3348 253.461 132.301C286.659 192.319 251.125 259.827 202.863 283.711Z" fill="#080808"/>
<path opacity="0.21" d="M184.28 289.96C172.488 292.467 159.308 293.026 145.762 292.161C139.819 273.19 130.787 253.014 117.095 237.179C80.925 195.314 131.134 141.58 110.546 78.1782C104.662 60.0433 99.666 44.8916 95.7295 32.529C99.6307 31.5228 103.679 30.7402 107.774 30.1342C121.225 28.1394 135.094 28.0335 145.692 28.5278C164.203 72.1352 152.458 139.491 145.203 169.447C134.229 214.779 170.164 244.093 182.391 281.952C183.268 284.659 183.886 287.33 184.28 289.96Z" fill="#FFDE59"/>
<path opacity="0.21" d="M202.864 283.71C154.59 307.582 59.1846 277.926 36.2894 255.584C27.4043 246.905 22.5911 231.447 21.1318 214.795C59.1022 161.479 125.311 158.319 165.793 108.71C183.075 87.5271 192.837 66.2324 198.121 47.262C219.121 64.0847 230.242 90.3339 253.455 132.3C286.66 192.318 251.125 259.827 202.864 283.71Z" fill="#FFDE59"/>
<path opacity="0.21" d="M202.863 283.711C154.59 307.583 59.1842 277.927 36.289 255.585C27.4039 246.906 22.5907 231.448 21.1314 214.796C20.0252 202.157 20.849 188.847 23.2968 177.279C48.6986 244.087 196.791 274.932 218.503 192.53C236.844 122.897 154.454 58.9779 107.781 30.1397C133.677 26.2856 161.186 29.5219 163.751 30.2751C178.214 34.5293 189.088 40.0192 198.121 47.2626C219.121 64.0853 230.242 90.3345 253.455 132.3C286.659 192.318 251.125 259.827 202.863 283.711Z" fill="#FFDE59"/>
<path opacity="0.21" d="M150.965 144.434C136.955 179.156 76.4424 157.402 48.5986 238.174C45.5742 246.959 42.4379 253.502 39.2546 258.18C38.1601 257.315 37.1657 256.444 36.289 255.579C27.4039 246.9 22.5907 231.442 21.1314 214.79C20.0252 202.151 20.849 188.841 23.2968 177.273C25.8976 164.875 30.3578 154.496 36.289 149.153C55.03 132.259 48.428 89.1522 63.562 54.6123C70.0286 39.8431 88.4519 33.0175 107.775 30.1342C122.892 27.8865 138.538 28.0454 149.476 28.7338C155.825 65.5215 160.921 119.726 150.965 144.434Z" fill="#FFDE59"/>
<path opacity="0.35" d="M26.887 54.1641C26.887 54.1641 26.887 73.8465 46.4871 80.6486V173.642C46.4871 173.642 37.4726 177.078 36.2134 176.301C34.8482 175.454 27.5696 156.042 26.2692 144.327L16.6133 56.8237L26.887 54.1641Z" fill="#FFDE59"/>
<path opacity="0.24" d="M134.542 263.882C169.444 263.882 197.738 256.145 197.738 246.6C197.738 237.056 169.444 229.318 134.542 229.318C99.6403 229.318 71.3467 237.056 71.3467 246.6C71.3467 256.145 99.6403 263.882 134.542 263.882Z" fill="#FFDE59"/>
<path opacity="0.35" d="M219.144 133.283L207.658 137.973L219.144 217.573C219.144 217.573 239.209 230.995 259.086 254.932C260.009 256.044 267.571 251.795 270.571 250.242V150.506C270.571 150.5 249.424 129.629 219.144 133.283Z" fill="#FFDE59"/>
<path d="M207.658 137.973V222.263C207.658 222.263 239.244 228.042 259.086 254.932V155.196C259.086 155.19 237.938 134.319 207.658 137.973Z" fill="#FFFDF7"/>
<path opacity="0.35" d="M181.81 39.5536C181.657 39.5889 176.467 41.0305 176.385 42.5486C175.802 53.1931 180.751 91.6754 180.751 91.6754C180.751 91.6754 208.995 98.1244 225.211 105.88C225.858 106.192 228.2 102.867 229.389 100.637V44.5022C229.383 44.5022 198.68 35.929 181.81 39.5536Z" fill="#FFDE59"/>
<path d="M176.574 41.9661C175.356 42.225 176.574 96.9181 176.574 96.9181C176.574 96.9181 209.613 97.1711 225.212 105.88V47.709C225.212 47.7031 193.443 38.3414 176.574 41.9661Z" fill="#FFFDF7"/>
<path d="M36.214 83.3083V176.307C36.214 176.307 31.7303 174.171 26.9759 169.44C24.4987 166.975 21.9332 163.815 19.9031 159.879C18.0084 156.254 16.5492 151.964 16.002 146.975L16.102 131.211L16.6139 56.8179C17.3377 62.1489 22.7452 78.6304 36.214 83.3083Z" fill="#FFFDF7"/>
<path opacity="0.21" d="M31.3184 102.731V161.943C31.3184 161.943 29.2295 163.885 27.3172 162.526C25.3989 161.155 21.7272 163.485 21.2388 160.384C20.9976 158.854 20.5975 159.472 19.9031 159.884C18.0084 156.259 16.5492 151.97 16.002 146.98L16.102 131.216C18.1791 114.105 20.7328 94.37 20.7328 94.37C20.7328 94.37 21.8626 97.3121 25.2165 99.8481C26.7464 100.996 28.7411 102.066 31.3184 102.731Z" fill="#FFDE59"/>
<path opacity="0.35" d="M77.7373 23.9256C77.9433 23.3019 97.2079 -1.67039 128.082 5.00811L133.125 9.48005L128.082 48.1447C128.082 48.1447 100.285 60.9486 82.7741 76.0415C81.9209 76.777 78.5199 70.7928 77.7314 71.5695V23.9256H77.7373Z" fill="#FFDE59"/>
<path d="M82.7793 28.398C82.9852 27.7743 102.25 2.80196 133.124 9.48046V52.6171C133.124 52.6171 99.7139 59.2838 82.7793 76.0419V28.398Z" fill="#FFFDF7"/>
<path d="M28.846 97.884V157.096C28.846 157.096 26.3158 159.038 23.9857 157.679C21.6614 156.308 17.2071 158.638 16.6187 155.537C16.0244 152.436 14.6711 158.161 10.9817 153.166C10.6051 152.665 10.2638 152.389 9.93433 152.253C9.76369 152.171 9.59305 152.142 9.43418 152.142C8.3162 152.059 7.56303 153.224 7.29236 150.888C6.904 147.581 16.0068 89.5344 16.0068 89.5344C16.0068 89.5344 17.3895 92.4765 21.4496 95.0126C23.3031 96.1482 25.7215 97.225 28.846 97.884Z" fill="#0E0E0E"/>
<path opacity="0.11" d="M7.28613 150.881C8.17464 151.534 8.86897 151.94 9.42796 152.135C8.30997 152.052 7.5568 153.217 7.28613 150.881Z" fill="#FFDE59"/>
<path opacity="0.11" d="M28.8462 97.8831V157.095C28.8462 157.095 26.316 159.037 23.9859 157.678C21.6617 156.307 17.2074 158.637 16.619 155.536C16.0247 152.435 14.6713 158.16 10.9819 153.165C10.6054 152.664 10.2641 152.388 9.93457 152.253C12.3412 152.582 11.1879 147.463 12.7295 141.632C14.6713 134.318 13.7004 144.668 16.0011 150.687C18.3077 156.713 17.9605 146.215 20.1436 136.507C22.3207 126.798 21.8558 145.827 22.709 153.159C23.5622 160.49 22.4325 125.827 22.6855 111.864C22.8208 104.314 22.1383 98.7893 21.4439 94.994C23.3033 96.1473 25.7217 97.2241 28.8462 97.8831Z" fill="#FFDE59"/>
<path opacity="0.21" d="M127.547 38.3825C126.823 39.7064 125.234 40.6891 123.693 41.3775C123.028 41.6717 122.345 41.913 121.651 42.1189C121.645 41.6129 121.621 41.1009 121.551 40.5831C120.756 34.5754 115.967 30.0623 110.212 29.3738C109.153 29.2444 108.052 29.2503 106.946 29.3974C105.716 29.5621 104.546 29.8858 103.451 30.3624C98.2554 32.6101 94.9603 38.1 95.737 43.9842C95.7782 44.3078 95.837 44.6197 95.9017 44.9315C94.719 44.8609 93.5363 44.7668 92.3536 44.6255C91.0002 44.4608 89.8999 44.4726 89.0408 44.5549C87.9699 44.655 87.0049 45.414 86.7754 46.5673C85.6575 52.169 103.657 48.3561 108.947 47.5441C114.413 46.7026 122.792 46.179 128.306 43.584C133.825 40.995 129.135 35.4757 127.547 38.3825Z" fill="#FFDE59"/>
<path d="M123.776 37.3635C123.871 38.0696 123.906 38.7581 123.882 39.4465L98.404 42.8064C98.2039 42.1415 98.0568 41.4707 97.9685 40.7646C97.1918 34.8804 100.487 29.3905 105.683 27.1428C106.777 26.6603 107.942 26.3367 109.178 26.1778C110.284 26.0307 111.384 26.0307 112.444 26.1543C118.192 26.8427 122.982 31.35 123.776 37.3635Z" fill="#0E0E0E"/>
<path opacity="0.12" d="M123.776 37.3637C123.87 38.0698 123.905 38.7583 123.882 39.4467L110.036 41.2708C110.895 40.5117 111.672 39.5879 112.331 38.4876C113.319 36.8047 113.99 34.7335 114.067 32.2033C114.161 29.4025 113.431 27.4725 112.437 26.1486C118.192 26.8429 122.981 31.3501 123.776 37.3637Z" fill="#FFDE59"/>
<path opacity="0.12" d="M123.776 37.3635C123.87 38.0696 123.906 38.7581 123.882 39.4465L112.655 40.9293C112.585 40.1938 112.479 39.3583 112.332 38.4933C112.143 37.2812 111.914 35.969 111.596 34.6039C110.796 31.1028 107.872 28.5844 105.683 27.1428C106.777 26.6603 107.942 26.3367 109.178 26.1778C110.284 26.0307 111.384 26.0307 112.443 26.1543C118.192 26.8427 122.982 31.3499 123.776 37.3635Z" fill="#FFDE59"/>
<path d="M91.2664 41.335C92.1255 41.2526 93.2258 41.2408 94.5792 41.4056C98.551 41.8822 102.546 41.9822 106.489 41.4644L120.617 39.605C122.435 39.3638 122.535 39.6639 124.223 38.9107C125.765 38.2281 127.277 37.0278 129.019 35.7568C131.69 33.7974 134.815 38.3046 129.302 40.8995C123.788 43.4944 116.639 43.4944 111.172 44.3359C105.883 45.1479 87.883 48.9608 89.001 43.3591C89.2305 42.194 90.2014 41.435 91.2664 41.335Z" fill="#111111"/>
<g opacity="0.21">
<g opacity="0.21">
<g opacity="0.44">
<path opacity="0.44" d="M211.405 65.8582C211.452 65.8582 211.487 65.8699 211.534 65.8699C212.229 65.8111 212.788 65.3404 212.994 64.7225C213.064 64.5166 213.094 64.293 213.076 64.0576C213.076 64.0459 213.07 64.0341 213.064 64.0223C213.047 63.8517 212.999 63.6928 212.935 63.5516C212.911 63.4927 212.888 63.4398 212.858 63.3868C212.782 63.2456 212.682 63.1162 212.564 63.0044C212.511 62.9514 212.452 62.9161 212.393 62.8749C212.299 62.8043 212.199 62.7396 212.093 62.6925C212.034 62.6631 211.976 62.6454 211.911 62.6219C211.781 62.5807 211.646 62.5572 211.505 62.5454C211.464 62.5454 211.434 62.5278 211.393 62.5278C211.405 62.5336 211.411 62.5395 211.422 62.5395C211.37 62.5395 211.322 62.5278 211.269 62.5278C211.24 62.5278 211.217 62.5336 211.193 62.5395C211.617 62.3453 211.946 61.9864 212.087 61.5451C212.158 61.3392 212.187 61.1097 212.17 60.8802C212.17 60.8684 212.164 60.8567 212.158 60.8449C212.14 60.6742 212.093 60.5213 212.029 60.3742C212.005 60.3153 211.981 60.2624 211.952 60.2094C211.876 60.0682 211.776 59.9387 211.658 59.8269C211.605 59.774 211.546 59.7446 211.487 59.6975C211.393 59.6269 211.293 59.5621 211.187 59.5092C211.128 59.4798 211.069 59.4621 211.005 59.4386C210.875 59.3974 210.74 59.3739 210.599 59.3621C210.563 59.3621 210.528 59.3444 210.487 59.3444C210.499 59.3503 210.505 59.3562 210.516 59.3562C210.463 59.3562 210.416 59.3444 210.363 59.3444C210.316 59.3503 210.281 59.3503 210.24 59.368C210.169 59.3797 210.099 59.4033 210.028 59.4209C210.24 59.2268 210.405 58.9855 210.493 58.7148C210.563 58.5089 210.593 58.2853 210.575 58.0499C210.575 58.0382 210.569 58.0264 210.563 58.0146C210.546 57.844 210.499 57.691 210.434 57.5439C210.41 57.485 210.387 57.4321 210.357 57.3791C210.281 57.2379 210.181 57.1085 210.063 56.9967C210.01 56.9437 209.951 56.9143 209.893 56.8672C209.798 56.7966 209.698 56.7319 209.592 56.6789C209.534 56.6495 209.475 56.6318 209.41 56.6083C209.281 56.5671 209.145 56.5436 209.004 56.5318C208.969 56.5318 208.933 56.5142 208.892 56.5142C208.904 56.52 208.91 56.5259 208.922 56.5259C208.869 56.5259 208.822 56.5142 208.769 56.5142C208.722 56.52 208.686 56.52 208.645 56.5377C207.786 56.6671 207.162 57.4497 207.233 58.3206C207.245 58.4677 207.268 58.603 207.333 58.7384C207.333 58.7737 207.351 58.7972 207.362 58.8149C207.539 59.2621 207.91 59.5974 208.357 59.7563C208.351 59.7563 208.345 59.7563 208.333 59.7563C208.351 59.7622 208.369 59.7622 208.386 59.7681C208.463 59.7916 208.533 59.8093 208.61 59.8269C208.704 59.8446 208.804 59.8505 208.91 59.8505C208.957 59.8505 208.992 59.8622 209.039 59.8622C209.151 59.8505 209.251 59.8328 209.357 59.8034C208.998 60.1388 208.792 60.6272 208.833 61.1509C208.845 61.298 208.869 61.4333 208.933 61.5686C208.933 61.6039 208.951 61.6275 208.963 61.6451C209.139 62.0923 209.51 62.4277 209.957 62.5866C209.951 62.5866 209.946 62.5866 209.934 62.5866C209.951 62.5925 209.969 62.5925 209.987 62.5984C210.063 62.6219 210.134 62.6396 210.21 62.6572C210.305 62.6749 210.405 62.6807 210.51 62.6807C210.557 62.6807 210.593 62.6925 210.64 62.6925C210.675 62.6925 210.705 62.6807 210.74 62.6749C210.104 62.9514 209.687 63.6104 209.745 64.3342C209.757 64.4813 209.781 64.6166 209.846 64.752C209.846 64.7873 209.863 64.8108 209.875 64.8285C210.051 65.2756 210.422 65.611 210.869 65.7699C210.863 65.7699 210.858 65.7699 210.846 65.7699C210.863 65.7758 210.881 65.7758 210.899 65.7817C210.928 65.7935 210.952 65.8111 210.981 65.817C210.934 65.817 210.893 65.8052 210.852 65.8111C210.805 65.817 210.769 65.817 210.728 65.8346C209.869 65.9641 209.245 66.7467 209.316 67.6175C209.328 67.7646 209.351 67.9 209.416 68.0353C209.416 68.0706 209.434 68.0941 209.445 68.1118C209.622 68.559 209.993 68.8944 210.44 69.0533C210.434 69.0533 210.428 69.0533 210.416 69.0533C210.434 69.0591 210.452 69.0592 210.469 69.065C210.546 69.0886 210.616 69.1062 210.693 69.1239C210.787 69.1415 210.887 69.1474 210.993 69.1474C211.04 69.1474 211.075 69.1592 211.122 69.1592C211.817 69.1003 212.376 68.6296 212.582 68.0118C212.652 67.8058 212.682 67.5822 212.664 67.3469C212.664 67.3351 212.658 67.3233 212.652 67.3116C212.635 67.1409 212.588 66.982 212.523 66.8408C212.499 66.782 212.476 66.729 212.446 66.6761C212.37 66.5349 212.27 66.4054 212.152 66.2936C212.099 66.2406 212.04 66.2053 211.981 66.1641C211.887 66.0935 211.787 66.0288 211.681 65.9817C211.623 65.9523 211.564 65.9347 211.499 65.9111C211.47 65.8994 211.44 65.8817 211.405 65.8758C211.387 65.8582 211.393 65.8582 211.405 65.8582Z" fill="#FFDE59"/>
</g>
<g opacity="0.44">
<path opacity="0.44" d="M211.284 70.3725C211.266 70.2019 211.219 70.043 211.154 69.9018C211.131 69.843 211.107 69.79 211.078 69.7371C211.078 69.7371 211.078 69.7371 211.078 69.7312C211.001 69.59 210.901 69.4605 210.783 69.3487C210.73 69.2957 210.672 69.2663 210.613 69.2193C210.519 69.1486 210.419 69.0839 210.313 69.031C210.254 69.0015 210.195 68.9839 210.13 68.9604C210.001 68.9192 209.865 68.8956 209.724 68.8839C209.689 68.8839 209.654 68.8662 209.612 68.8662C209.624 68.8721 209.63 68.878 209.642 68.878C209.589 68.878 209.542 68.8662 209.489 68.8662C209.442 68.8721 209.406 68.8721 209.365 68.8897C208.506 69.0192 207.882 69.8018 207.953 70.6726C207.965 70.8197 207.988 70.9551 208.053 71.0904C208.053 71.1257 208.071 71.1493 208.083 71.1669C208.183 71.414 208.347 71.62 208.542 71.7906C208.512 71.7612 208.471 71.7494 208.436 71.7259C208.341 71.6553 208.241 71.5906 208.136 71.5376C208.077 71.5082 208.018 71.4905 207.953 71.467C207.824 71.4258 207.688 71.4023 207.547 71.3905C207.512 71.3905 207.476 71.3729 207.435 71.3729C207.447 71.3787 207.453 71.3846 207.465 71.3846C207.412 71.3846 207.365 71.3729 207.312 71.3729C207.265 71.3787 207.229 71.3787 207.188 71.3964C206.329 71.5258 205.705 72.3084 205.776 73.1793C205.788 73.3264 205.811 73.4617 205.876 73.5971C205.876 73.6324 205.894 73.6559 205.905 73.6736C206.082 74.1207 206.453 74.4561 206.9 74.615C206.894 74.615 206.888 74.615 206.876 74.615C206.894 74.6209 206.912 74.6209 206.929 74.6268C207.006 74.6503 207.076 74.668 207.153 74.6856C207.247 74.7033 207.347 74.7092 207.453 74.7092C207.5 74.7092 207.535 74.7209 207.582 74.7209C208.277 74.6621 208.836 74.1914 209.042 73.5735C209.112 73.3676 209.142 73.1381 209.124 72.9086C209.124 72.8968 209.118 72.8851 209.112 72.8733C209.095 72.7027 209.048 72.5497 208.983 72.4026C208.959 72.3437 208.936 72.2908 208.906 72.2378C208.83 72.0966 208.73 71.9671 208.612 71.8553C208.606 71.8495 208.606 71.8436 208.6 71.8436C208.742 71.9613 208.9 72.0495 209.077 72.1084C209.071 72.1084 209.065 72.1084 209.053 72.1084C209.071 72.1143 209.089 72.1143 209.106 72.1201C209.183 72.1437 209.253 72.1613 209.33 72.179C209.424 72.1966 209.524 72.2025 209.63 72.2025C209.677 72.2025 209.712 72.2143 209.76 72.2143C210.454 72.1554 211.013 71.6847 211.219 71.0669C211.289 70.8609 211.319 70.6373 211.301 70.402C211.289 70.3961 211.284 70.3843 211.284 70.3725Z" fill="#FFDE59"/>
</g>
<g opacity="0.44">
<path opacity="0.44" d="M206.715 75.2571C206.698 75.0865 206.651 74.9276 206.586 74.7864C206.562 74.7276 206.539 74.6746 206.509 74.6216C206.509 74.6216 206.509 74.6216 206.509 74.6158C206.433 74.4745 206.333 74.3451 206.215 74.2333C206.162 74.1803 206.103 74.1509 206.045 74.1038C205.95 74.0332 205.85 73.9685 205.744 73.9155C205.686 73.8861 205.627 73.8685 205.562 73.8449C205.433 73.8037 205.297 73.7802 205.156 73.7684C205.115 73.7684 205.085 73.7508 205.044 73.7508C205.056 73.7567 205.062 73.7626 205.074 73.7626C205.021 73.7626 204.974 73.7508 204.921 73.7508C204.874 73.7567 204.838 73.7567 204.797 73.7743C203.938 73.9038 203.314 74.6864 203.385 75.5572C203.397 75.7043 203.42 75.8397 203.485 75.975C203.485 76.0103 203.503 76.0338 203.514 76.0515C203.556 76.1633 203.626 76.2574 203.691 76.3516C203.608 76.2927 203.526 76.2457 203.438 76.1986C203.379 76.1692 203.32 76.1515 203.255 76.128C203.126 76.0868 202.991 76.0633 202.849 76.0515C202.814 76.0515 202.779 76.0338 202.738 76.0338C202.749 76.0397 202.755 76.0456 202.767 76.0456C202.714 76.0456 202.667 76.0338 202.614 76.0338C202.567 76.0397 202.532 76.0397 202.49 76.0574C201.631 76.1868 201.008 76.9694 201.078 77.8403C201.09 77.9874 201.114 78.1227 201.178 78.258C201.178 78.2933 201.196 78.3169 201.208 78.3345C201.267 78.4875 201.355 78.6287 201.455 78.7582C201.255 78.7229 201.049 78.6994 200.843 78.717C200.725 78.7288 200.613 78.7464 200.502 78.7758C200.596 78.6758 200.69 78.5699 200.755 78.4522C200.772 78.4346 200.784 78.411 200.796 78.3816C200.878 78.258 200.919 78.1286 200.949 77.9815C201.131 77.1224 200.613 76.2633 199.778 76.028C199.737 76.0044 199.701 75.9985 199.66 75.9927C199.607 75.9809 199.56 75.9868 199.507 75.9809C199.519 75.9809 199.525 75.975 199.537 75.9691C199.495 75.9632 199.46 75.975 199.425 75.975C199.284 75.9632 199.148 75.9691 199.013 75.9985C198.948 76.0103 198.884 76.0221 198.825 76.0456C198.731 76.075 198.642 76.1162 198.554 76.1633C198.631 76.075 198.713 75.9926 198.766 75.8867C198.784 75.8691 198.795 75.8455 198.807 75.8161C198.889 75.6926 198.931 75.5631 198.96 75.416C199.142 74.5569 198.625 73.6978 197.789 73.4625C197.748 73.4389 197.713 73.4331 197.671 73.4272C197.618 73.4154 197.571 73.4213 197.518 73.4154C197.53 73.4154 197.536 73.4095 197.548 73.4036C197.507 73.3977 197.471 73.4095 197.436 73.4095C197.295 73.3977 197.159 73.4036 197.024 73.433C196.959 73.4448 196.895 73.4566 196.836 73.4801C196.724 73.5154 196.618 73.5684 196.512 73.6272C196.447 73.6625 196.383 73.6919 196.324 73.7331C196.194 73.8273 196.083 73.945 195.983 74.0744C195.947 74.1215 195.918 74.1745 195.888 74.2274C195.806 74.3627 195.735 74.5157 195.694 74.6805C195.694 74.6923 195.683 74.704 195.683 74.7158C195.635 74.9453 195.635 75.1689 195.677 75.3866C195.8 76.0279 196.294 76.5693 196.977 76.7164C197.024 76.7282 197.065 76.7164 197.107 76.7223C197.207 76.734 197.307 76.7399 197.407 76.7341C197.489 76.7282 197.56 76.7223 197.636 76.7046C197.654 76.6987 197.671 76.7046 197.689 76.6987C197.683 76.6987 197.677 76.6987 197.666 76.6987C197.795 76.6693 197.919 76.6399 198.036 76.5869C198.019 76.6105 197.995 76.6222 197.977 76.6458C197.942 76.6929 197.913 76.7458 197.883 76.7988C197.801 76.9341 197.73 77.0871 197.689 77.2519C197.689 77.2636 197.677 77.2754 197.677 77.2872C197.63 77.5166 197.63 77.7402 197.671 77.958C197.795 78.5993 198.289 79.1407 198.966 79.2878C199.013 79.2995 199.054 79.2878 199.095 79.2936C199.195 79.3054 199.295 79.3113 199.395 79.3054C199.425 79.3054 199.46 79.3113 199.49 79.3113C198.654 79.9998 198.142 81.2295 198.254 82.5947C198.313 83.3537 198.554 84.0363 198.907 84.5894C198.919 84.6129 198.931 84.6306 198.96 84.6541C198.995 84.7012 199.036 84.7424 199.072 84.7894C199.178 84.9248 199.284 85.066 199.401 85.1837C199.572 85.3484 199.748 85.4897 199.943 85.6073C200.39 85.8898 200.902 86.031 201.437 85.9898C203.032 85.8604 204.197 84.1422 204.032 82.1298C203.985 81.5296 203.826 80.9706 203.579 80.4822C203.35 80.0468 203.055 79.6761 202.714 79.3819C202.732 79.3819 202.744 79.3819 202.761 79.3819C202.808 79.3819 202.844 79.3937 202.891 79.3937C203.585 79.3348 204.144 78.8641 204.35 78.2463C204.421 78.0403 204.45 77.8109 204.432 77.5814C204.432 77.5696 204.426 77.5578 204.42 77.5461C204.403 77.3754 204.356 77.2224 204.291 77.0753C204.268 77.0165 204.244 76.9635 204.215 76.9106C204.203 76.887 204.179 76.8635 204.162 76.84C204.268 76.9106 204.391 76.9576 204.515 76.9988C204.509 76.9988 204.503 76.9988 204.491 76.9988C204.509 77.0047 204.526 77.0047 204.544 77.0106C204.621 77.0341 204.691 77.0518 204.768 77.0694C204.868 77.0871 204.968 77.093 205.068 77.093C205.109 77.093 205.15 77.1048 205.197 77.1048C205.892 77.0459 206.451 76.5752 206.656 75.9573C206.727 75.7514 206.757 75.5278 206.739 75.2924C206.721 75.2807 206.715 75.2689 206.715 75.2571Z" fill="#FFDE59"/>
</g>
<g opacity="0.44">
<path opacity="0.44" d="M192.964 64.3859C193.006 64.3977 193.053 64.3859 193.094 64.3918C193.194 64.4036 193.294 64.4095 193.394 64.4036C193.47 64.3977 193.547 64.3918 193.623 64.3742C193.641 64.3683 193.659 64.3742 193.676 64.3683C193.67 64.3683 193.665 64.3683 193.653 64.3683C194.118 64.2683 194.524 63.9858 194.759 63.5621C194.777 63.5445 194.788 63.521 194.8 63.4915C194.883 63.368 194.924 63.2385 194.953 63.0914C195.136 62.2323 194.618 61.3733 193.782 61.1379C193.741 61.1143 193.706 61.1085 193.665 61.1026C193.612 61.0908 193.565 61.0967 193.512 61.0908C193.523 61.0908 193.529 61.0849 193.541 61.079C193.5 61.0732 193.465 61.0849 193.429 61.0849C193.288 61.0732 193.153 61.079 193.017 61.1085C192.953 61.1202 192.888 61.132 192.829 61.1555C192.717 61.1908 192.611 61.2438 192.505 61.3026C192.441 61.3379 192.376 61.3674 192.317 61.4086C192.188 61.5027 192.076 61.6204 191.976 61.7498C191.941 61.7969 191.911 61.8499 191.882 61.9028C191.799 62.0382 191.729 62.1911 191.687 62.3559C191.687 62.3677 191.676 62.3794 191.676 62.3912C191.629 62.6207 191.629 62.8443 191.67 63.062C191.788 63.7034 192.282 64.2388 192.964 64.3859Z" fill="#FFDE59"/>
</g>
<g opacity="0.44">
<path opacity="0.44" d="M194.805 61.5694C194.846 61.5812 194.893 61.5694 194.935 61.5753C195.035 61.5871 195.135 61.593 195.235 61.5871C195.311 61.5812 195.388 61.5753 195.464 61.5577C195.482 61.5518 195.499 61.5577 195.517 61.5518C195.511 61.5518 195.505 61.5518 195.494 61.5518C195.958 61.4518 196.364 61.1693 196.6 60.7457C196.617 60.728 196.629 60.7045 196.641 60.675C196.723 60.5515 196.765 60.422 196.794 60.2749C196.912 59.7101 196.729 59.1569 196.359 58.7686C196.453 58.8098 196.553 58.8451 196.659 58.8627C196.7 58.8745 196.747 58.8627 196.788 58.8686C196.888 58.8804 196.988 58.8863 197.088 58.8804C197.165 58.8745 197.241 58.8686 197.318 58.851C197.335 58.8451 197.353 58.851 197.371 58.8451C197.365 58.8451 197.359 58.8451 197.347 58.8451C197.812 58.745 198.218 58.4685 198.453 58.039C198.471 58.0213 198.483 57.9978 198.495 57.9683C198.577 57.8448 198.618 57.7153 198.648 57.5682C198.83 56.7091 198.312 55.8501 197.477 55.6147C197.435 55.5912 197.4 55.5853 197.359 55.5794C197.306 55.5676 197.259 55.5735 197.206 55.5676C197.218 55.5676 197.224 55.5617 197.235 55.5558C197.194 55.55 197.159 55.5617 197.124 55.5617C196.982 55.55 196.847 55.5558 196.712 55.5853C196.647 55.597 196.582 55.6088 196.523 55.6323C196.412 55.6676 196.306 55.7206 196.2 55.7794C196.135 55.8148 196.07 55.8442 196.011 55.8854C195.882 55.9795 195.77 56.0972 195.67 56.2266C195.635 56.2737 195.605 56.3267 195.576 56.3796C195.494 56.515 195.423 56.6679 195.382 56.8327C195.382 56.8445 195.37 56.8562 195.37 56.868C195.323 57.0975 195.323 57.3211 195.364 57.5388C195.429 57.8624 195.582 58.1625 195.811 58.3979C195.753 58.3744 195.694 58.3449 195.629 58.3273C195.588 58.3037 195.552 58.2979 195.511 58.292C195.458 58.2802 195.411 58.2861 195.358 58.2802C195.37 58.2802 195.376 58.2743 195.388 58.2684C195.347 58.2626 195.311 58.2743 195.276 58.2743C195.135 58.2626 194.999 58.2684 194.864 58.2979C194.799 58.3096 194.735 58.3214 194.676 58.3449C194.564 58.3802 194.458 58.4332 194.352 58.492C194.287 58.5273 194.223 58.5568 194.164 58.5979C194.034 58.6921 193.923 58.8098 193.823 58.9392C193.787 58.9863 193.758 59.0393 193.728 59.0922C193.646 59.2276 193.575 59.3805 193.534 59.5453C193.534 59.5571 193.522 59.5688 193.522 59.5806C193.475 59.8101 193.475 60.0337 193.517 60.2514C193.628 60.8869 194.123 61.4282 194.805 61.5694Z" fill="#FFDE59"/>
</g>
<g opacity="0.44">
<path opacity="0.44" d="M199.62 57.2972C199.661 57.309 199.708 57.2972 199.749 57.3031C199.849 57.3149 199.949 57.3208 200.049 57.3149C200.126 57.309 200.202 57.3031 200.279 57.2855C200.296 57.2796 200.314 57.2855 200.332 57.2796C200.326 57.2796 200.32 57.2796 200.308 57.2796C200.773 57.1796 201.179 56.8971 201.414 56.4735C201.432 56.4558 201.444 56.4323 201.455 56.4028C201.538 56.2793 201.579 56.1498 201.608 56.0027C201.638 55.8556 201.644 55.7144 201.638 55.5732C201.644 55.5791 201.644 55.5908 201.65 55.5967C201.826 56.0439 202.197 56.3793 202.644 56.5382C202.638 56.5382 202.632 56.5382 202.621 56.5382C202.638 56.5441 202.656 56.5441 202.673 56.5499C202.75 56.5735 202.821 56.5911 202.897 56.6088C202.991 56.6264 203.091 56.6323 203.197 56.6323C203.244 56.6323 203.28 56.6441 203.327 56.6441C204.021 56.5853 204.58 56.1145 204.786 55.4967C204.856 55.2907 204.886 55.0671 204.868 54.8318C204.868 54.82 204.862 54.8082 204.856 54.7965C204.839 54.6258 204.792 54.467 204.727 54.3257C204.703 54.2669 204.68 54.2139 204.651 54.161C204.574 54.0198 204.474 53.8903 204.356 53.7785C204.303 53.7256 204.245 53.6903 204.186 53.6491C204.092 53.5785 203.992 53.5137 203.886 53.4608C203.827 53.4314 203.768 53.4137 203.703 53.3902C203.574 53.349 203.438 53.3254 203.297 53.3137C203.262 53.3137 203.227 53.296 203.185 53.296C203.197 53.3019 203.203 53.3078 203.215 53.3078C203.162 53.3078 203.115 53.296 203.062 53.296C203.015 53.3019 202.979 53.3019 202.938 53.3196C202.109 53.4431 201.503 54.1786 201.526 55.0201C201.338 54.5611 200.955 54.1904 200.449 54.0492C200.408 54.0257 200.373 54.0198 200.332 54.0139C200.279 54.0021 200.232 54.008 200.179 54.0021C200.19 54.0021 200.196 53.9962 200.208 53.9903C200.167 53.9845 200.132 53.9962 200.096 53.9962C199.955 53.9845 199.82 53.9903 199.684 54.0198C199.62 54.0315 199.555 54.0433 199.496 54.0668C199.384 54.1021 199.278 54.1551 199.172 54.2139C199.108 54.2492 199.043 54.2787 198.984 54.3199C198.855 54.414 198.743 54.5317 198.643 54.6611C198.608 54.7082 198.578 54.7612 198.549 54.8141C198.466 54.9495 198.396 55.1025 198.355 55.2672C198.355 55.279 198.343 55.2907 198.343 55.3025C198.296 55.532 198.296 55.7556 198.337 55.9733C198.449 56.6088 198.943 57.1501 199.62 57.2972Z" fill="#FFDE59"/>
</g>
<g opacity="0.44">
<path opacity="0.44" d="M192.618 67.7571C192.659 67.7689 192.706 67.7571 192.747 67.763C192.847 67.7748 192.947 67.7807 193.047 67.7748C193.124 67.7689 193.2 67.763 193.277 67.7454C193.294 67.7395 193.312 67.7454 193.33 67.7395C193.324 67.7395 193.318 67.7395 193.306 67.7395C193.771 67.6395 194.177 67.357 194.412 66.9334C194.43 66.9157 194.442 66.8922 194.454 66.8628C194.536 66.7392 194.577 66.6097 194.607 66.4626C194.789 65.6035 194.271 64.7445 193.436 64.5091C193.394 64.4856 193.359 64.4797 193.318 64.4738C193.265 64.462 193.218 64.4679 193.165 64.462C193.177 64.462 193.183 64.4561 193.194 64.4503C193.153 64.4444 193.118 64.4561 193.083 64.4561C192.941 64.4444 192.806 64.4503 192.671 64.4797C192.606 64.4914 192.541 64.5032 192.482 64.5268C192.371 64.5621 192.265 64.615 192.159 64.6739C192.094 64.7092 192.029 64.7386 191.97 64.7798C191.841 64.8739 191.729 64.9916 191.629 65.121C191.594 65.1681 191.564 65.2211 191.535 65.274C191.453 65.4094 191.382 65.5624 191.341 65.7271C191.341 65.7389 191.329 65.7506 191.329 65.7624C191.282 65.9919 191.282 66.2155 191.323 66.4332C191.447 67.0746 191.941 67.6159 192.618 67.7571Z" fill="#FFDE59"/>
</g>
<g opacity="0.44">
<path opacity="0.44" d="M193.776 71.052C193.852 71.0461 193.929 71.0403 194.005 71.0226C194.023 71.0167 194.041 71.0226 194.058 71.0167C194.052 71.0167 194.046 71.0167 194.035 71.0167C194.499 70.9167 194.905 70.6401 195.141 70.2106C195.158 70.1929 195.17 70.1694 195.182 70.14C195.264 70.0164 195.306 69.887 195.335 69.7399C195.517 68.8808 195 68.0217 194.164 67.7863C194.123 67.7628 194.088 67.7569 194.046 67.751C193.993 67.7393 193.946 67.7451 193.893 67.7392C193.905 67.7392 193.911 67.7334 193.923 67.7275C193.882 67.7216 193.846 67.7334 193.811 67.7334C193.67 67.7216 193.534 67.7275 193.399 67.7569C193.334 67.7687 193.27 67.7804 193.211 67.804C193.099 67.8393 192.993 67.8922 192.887 67.9511C192.823 67.9864 192.758 68.0158 192.699 68.057C192.569 68.1511 192.458 68.2688 192.358 68.3983C192.322 68.4453 192.293 68.4983 192.264 68.5513C192.181 68.6866 192.111 68.8396 192.069 69.0043C192.069 69.0161 192.058 69.0279 192.058 69.0396C192.01 69.2691 192.01 69.4927 192.052 69.7104C192.175 70.3518 192.67 70.8931 193.346 71.0344C193.387 71.0461 193.434 71.0344 193.476 71.0403C193.582 71.0461 193.682 71.0579 193.776 71.052Z" fill="#FFDE59"/>
</g>
<g opacity="0.44">
<path opacity="0.44" d="M195.629 73.9961C195.647 73.9902 195.665 73.9961 195.682 73.9902C195.676 73.9902 195.67 73.9902 195.659 73.9902C196.123 73.8902 196.53 73.6136 196.765 73.1841C196.783 73.1664 196.794 73.1429 196.806 73.1135C196.888 72.9899 196.93 72.8605 196.959 72.7134C197.141 71.8543 196.624 70.9952 195.788 70.7598C195.747 70.7363 195.712 70.7304 195.67 70.7245C195.617 70.7128 195.57 70.7186 195.517 70.7128C195.529 70.7128 195.535 70.7069 195.547 70.701C195.506 70.6951 195.47 70.7069 195.435 70.7069C195.294 70.6951 195.159 70.701 195.023 70.7304C194.958 70.7422 194.894 70.7539 194.835 70.7775C194.723 70.8128 194.617 70.8657 194.511 70.9246C194.447 70.9599 194.382 70.9893 194.323 71.0305C194.194 71.1246 194.082 71.2423 193.982 71.3718C193.946 71.4189 193.917 71.4718 193.888 71.5248C193.805 71.6601 193.735 71.8131 193.693 71.9778C193.693 71.9896 193.682 72.0014 193.682 72.0131C193.635 72.2426 193.635 72.4662 193.676 72.6839C193.799 73.3253 194.294 73.8667 194.97 74.0138C195.017 74.0255 195.058 74.0138 195.1 74.0196C195.2 74.0314 195.3 74.0373 195.4 74.0314C195.476 74.0196 195.553 74.0079 195.629 73.9961Z" fill="#FFDE59"/>
</g>
<g opacity="0.44">
<path opacity="0.44" d="M204.995 56.3885C205.172 56.8357 205.542 57.1711 205.99 57.3299C205.984 57.3299 205.978 57.3299 205.966 57.3299C205.984 57.3358 206.001 57.3358 206.019 57.3417C206.096 57.3652 206.166 57.3829 206.243 57.4005C206.337 57.4182 206.437 57.4241 206.543 57.4241C206.59 57.4241 206.625 57.4358 206.672 57.4358C207.367 57.377 207.926 56.9063 208.131 56.2884C208.202 56.0825 208.231 55.8589 208.214 55.6235C208.214 55.6118 208.208 55.6 208.202 55.5882C208.184 55.4176 208.137 55.2646 208.073 55.1175C208.049 55.0587 208.026 55.0057 207.996 54.9527C207.92 54.8115 207.82 54.6821 207.702 54.5703C207.649 54.5173 207.59 54.4879 207.531 54.4408C207.437 54.3702 207.337 54.3055 207.231 54.2525C207.172 54.2231 207.113 54.2055 207.049 54.1819C206.919 54.1407 206.784 54.1172 206.643 54.1054C206.607 54.1054 206.572 54.0878 206.531 54.0878C206.543 54.0937 206.549 54.0995 206.56 54.0995C206.507 54.0995 206.46 54.0878 206.407 54.0878C206.36 54.0937 206.325 54.0937 206.284 54.1113C205.425 54.2408 204.801 55.0234 204.872 55.8942C204.883 56.0413 204.907 56.1766 204.972 56.312C204.966 56.3414 204.983 56.3649 204.995 56.3885Z" fill="#FFDE59"/>
</g>
</g>
</g>
<path d="M151.671 177.698C151.671 177.698 151.524 178.416 151.295 179.534C151.101 180.516 150.83 181.817 150.542 183.241C150.236 184.747 149.9 186.389 149.594 187.919C149 190.873 148.5 193.385 148.465 193.715C147.782 199.546 150.359 213.515 149.483 219.346C148.618 225.177 148.618 233.333 149.777 235.657C150.942 237.981 149.777 239.582 149.047 242.353C148.318 245.124 149.483 249.926 147.588 252.986C145.693 256.045 140.456 256.034 137.838 254.869C135.214 253.703 137.838 250.797 139.432 248.467C141.039 246.142 140.892 237.981 141.327 232.885C141.604 229.82 139.697 212.42 137.997 198.598C137.632 195.645 137.279 192.85 136.949 190.396C136.938 190.272 136.914 190.143 136.902 190.031C136.802 189.266 136.696 188.537 136.608 187.854C136.084 184.053 135.684 181.476 135.525 181.058L146.417 178.798L151.671 177.698Z" fill="#FFB6AE"/>
<path opacity="0.38" d="M143.598 193.986C143.598 196.84 141.862 199.152 139.732 199.152C139.103 199.152 138.526 198.958 137.997 198.593C137.632 195.639 137.279 192.844 136.949 190.391C137.655 189.408 138.638 188.808 139.732 188.808C141.862 188.808 143.598 191.126 143.598 193.986Z" fill="#FF7E7B"/>
<path d="M150.455 240.412C150.408 240.606 150.202 242.912 150.361 245.066C150.749 250.356 148.225 253.692 146.96 255.299C145.159 257.582 141.917 257.258 139.728 257.305C139.304 257.317 138.916 257.293 138.575 257.246C138.451 257.223 138.31 257.211 138.198 257.187C138.039 257.152 137.892 257.117 137.751 257.076C137.751 257.076 137.739 257.076 137.727 257.076C137.716 257.076 137.692 257.076 137.68 257.064C134.874 256.222 135.75 253.139 138.045 249.614C138.651 248.691 139.357 247.732 140.111 246.772C140.111 246.772 138.216 252.074 142.87 250.891C148.654 249.42 147.489 234.875 149.908 235.016C149.908 235.016 150.784 236.328 150.931 237.205C151.09 238.087 150.496 240.217 150.455 240.412Z" fill="#111111"/>
<path opacity="0.24" d="M150.453 240.412C150.406 240.606 150.2 242.912 150.359 245.066C150.747 250.356 148.223 253.692 146.958 255.298C145.157 257.581 141.915 257.258 139.726 257.305C139.302 257.317 138.914 257.293 138.573 257.246C138.449 257.223 138.308 257.211 138.196 257.187C138.037 257.152 137.89 257.117 137.749 257.075C141.856 257.817 144.457 255.24 144.457 253.633C144.457 252.039 140.821 252.686 138.843 251.309C138.249 250.885 138.031 250.291 138.043 249.62C138.649 248.696 139.355 247.737 140.109 246.778C140.109 246.778 138.214 252.08 142.868 250.897C148.652 249.426 147.487 234.88 149.906 235.022C149.906 235.022 150.782 236.334 150.929 237.211C151.088 238.087 150.494 240.217 150.453 240.412Z" fill="#FFDE59"/>
<path opacity="0.38" d="M151.295 179.533C151.101 180.516 150.83 181.816 150.542 183.24C146.493 185.429 139.956 187.153 136.602 187.848C136.079 184.046 135.678 181.469 135.52 181.051L146.411 178.792C148.282 178.951 150.03 179.192 151.295 179.533Z" fill="#FF7E7B"/>
<path d="M128.662 198.598C126.962 212.426 125.055 229.82 125.332 232.885C125.767 237.987 125.614 246.142 127.226 248.467C128.821 250.791 131.445 253.703 128.821 254.869C126.197 256.034 120.96 256.045 119.071 252.986C117.176 249.926 118.341 245.124 117.612 242.353C116.882 239.582 115.717 237.987 116.882 235.657C118.047 233.333 118.047 225.171 117.176 219.346C116.299 213.515 118.877 199.546 118.194 193.715C118.159 193.385 117.659 190.873 117.064 187.919C116.141 183.335 114.987 177.698 114.987 177.698L122.572 179.275L131.139 181.052C130.992 181.476 130.592 183.97 130.08 187.677C129.98 188.407 129.874 189.196 129.762 190.025C129.751 190.137 129.727 190.267 129.715 190.39C129.38 192.844 129.027 195.639 128.662 198.598Z" fill="#FFB6AE"/>
<path opacity="0.38" d="M123.059 193.986C123.059 196.84 124.794 199.152 126.924 199.152C127.554 199.152 128.131 198.958 128.66 198.593C129.025 195.639 129.378 192.844 129.708 190.391C129.002 189.408 128.019 188.808 126.924 188.808C124.794 188.808 123.059 191.126 123.059 193.986Z" fill="#FF7E7B"/>
<path d="M126.927 257.304C125.515 257.268 123.679 257.392 122.055 256.868H122.043C121.154 256.586 120.331 256.103 119.695 255.291C118.43 253.685 115.906 250.354 116.294 245.059C116.453 242.905 116.247 240.599 116.2 240.404C116.153 240.21 115.559 238.08 115.712 237.197C115.859 236.321 116.735 235.009 116.735 235.009C117.465 234.961 117.865 236.262 118.242 238.145C118.242 238.157 118.242 238.157 118.242 238.168C119.083 242.505 119.748 249.86 123.773 250.884C128.427 252.073 126.533 246.765 126.533 246.765C130.728 252.061 133.193 257.409 126.927 257.304Z" fill="#111111"/>
<path opacity="0.24" d="M126.927 257.306C125.515 257.27 123.679 257.394 122.055 256.87C125.115 256.759 124.874 254.94 124.362 253.416C123.85 251.886 121.155 251.604 119.625 249.992C118.095 248.397 118.242 242.089 118.242 238.176C119.084 242.513 119.748 249.868 123.773 250.892C128.428 252.081 126.533 246.773 126.533 246.773C130.728 252.063 133.194 257.412 126.927 257.306Z" fill="#FFDE59"/>
<path opacity="0.38" d="M131.139 181.052C130.991 181.476 130.591 183.971 130.079 187.678C128.573 187.542 125.825 187.107 124.219 184.689C123.148 183.082 122.724 181.017 122.577 179.269L131.139 181.052Z" fill="#FF7E7B"/>
<path d="M147.305 82.0085L147.005 101.979L146.411 101.967L125.434 101.703L124.08 101.685L123.78 79.4724L124.375 79.543L146.37 81.9026L147.305 82.0085Z" fill="#201F23"/>
<path opacity="0.21" d="M127.387 93.7532L128.252 93.1236C128.252 93.1236 127.829 94.6888 127.075 94.6535C126.322 94.6182 126.252 94.1063 125.957 94.071C125.675 94.0357 125.01 95.9304 125.01 95.9304L125.434 101.703L124.074 101.679L123.78 79.4724L124.375 79.543C124.41 83.15 124.498 95.0772 125.092 93.9298C125.775 92.5823 126.187 92.0351 126.405 93.1648C126.622 94.2887 127.387 93.7532 127.387 93.7532Z" fill="#FFDE59"/>
<path opacity="0.21" d="M147.306 82.0085L147.012 101.979L146.417 101.967L146.317 94.5123C146.317 94.5123 145.052 95.5714 144.605 94.6594C144.17 93.7473 143.11 94.0769 143.11 94.0769C143.11 94.0769 143.646 93.5061 144.24 93.7591C144.834 94.0121 145.376 94.3063 145.699 93.7591C146.029 93.2119 146.176 92.9059 146.176 92.9059L146.364 81.9084L147.306 82.0085Z" fill="#FFDE59"/>
<path d="M139.726 95.9296V88.0684H131.282V95.9296L127.204 97.4595V106.268H131.282H139.726H143.803L141.873 96.2473L139.726 95.9296Z" fill="#F2807E"/>
<path d="M125.612 78.8962C125.476 78.8433 123.264 76.2601 122.623 78.5255C121.981 80.7909 122.499 83.0269 123.635 84.3567C124.77 85.6865 126.812 86.4103 126.812 86.4103L125.612 78.8962Z" fill="#F2807E"/>
<path d="M145.441 78.8962C145.576 78.8433 147.788 76.2601 148.43 78.5255C149.071 80.7909 148.553 83.0269 147.418 84.3567C146.282 85.6865 144.24 86.4103 144.24 86.4103L145.441 78.8962Z" fill="#F2807E"/>
<path d="M141.888 67.6222L135.509 69.258L129.131 67.6222C129.131 67.6222 123.682 73.9771 124.4 77.178C124.4 77.178 125.5 86.6397 127.554 88.7874C129.608 90.9352 131.714 92.418 135.198 92.8946C135.303 92.9122 135.409 92.9005 135.504 92.871C135.604 92.9005 135.704 92.9122 135.809 92.8946C139.299 92.418 141.399 90.9352 143.453 88.7874C145.507 86.6397 146.607 77.178 146.607 77.178C147.337 73.9771 141.888 67.6222 141.888 67.6222Z" fill="#FFB6AE"/>
<path d="M160.481 181.679C160.481 181.679 155.038 186.721 137.562 186.821H133.467C115.991 186.721 110.548 181.679 110.548 181.679C110.583 177.877 110.766 174.3 111.06 170.97C111.23 169.01 111.448 167.127 111.701 165.321C114.643 143.591 122.263 133.235 122.263 133.235L118.444 99.9067V99.895L118.333 98.9241C118.333 98.9241 123.787 96.7823 130.124 95.9349C130.124 95.9349 129.771 98.318 135.508 99.1947C141.257 98.318 140.904 95.9349 140.904 95.9349C144.758 96.3468 147.93 97.1883 149.995 97.8826C151.719 98.4651 152.696 98.9182 152.696 98.9182L148.771 133.229C148.777 133.235 160.181 148.769 160.481 181.679Z" fill="#111111"/>
<path opacity="0.09" d="M111.701 165.322C114.643 143.591 122.263 133.235 122.263 133.235L118.444 99.9076C120.898 111.258 126.329 133.118 126.329 133.118C126.329 133.118 115.467 147.057 111.701 165.322Z" fill="#FFFDF7"/>
<path opacity="0.24" d="M160.481 181.68C160.481 181.68 155.038 186.723 137.562 186.823H133.467C115.991 186.723 110.548 181.68 110.548 181.68C110.583 177.879 110.766 174.301 111.06 170.971C113.054 179.597 123.263 179.974 126.859 177.702C131.236 174.931 128.877 170.206 131.136 167.435C133.396 164.663 132.084 177.985 135.561 177.702C139.039 177.42 136.95 157.685 138.698 147.052C140.457 136.419 141.54 155.207 142.999 163.133C144.458 171.071 150.136 178.885 152.031 176.902C160.475 168.088 147.73 139.261 145.994 134.742C144.246 130.223 143.67 131.983 138.992 131.618C134.302 131.253 138.992 131.618 142.263 130.223C144.935 129.105 148.559 106.61 149.983 97.884C151.707 98.4666 152.684 98.9196 152.684 98.9196L148.759 133.23C148.777 133.236 160.181 148.77 160.481 181.68Z" fill="#FFDE59"/>
<path opacity="0.24" d="M122.957 114.9C122.957 114.9 123.934 112.675 128.777 113.693C133.613 114.711 134.873 115.188 138.021 114.129C141.169 113.07 145.176 112.328 147.665 114.346C150.154 116.365 148.771 121.266 145.699 122.355C144.164 122.902 139.174 125.891 134.667 125.844C130.165 125.797 126.147 122.714 125.093 122.131C122.981 120.978 121.063 117.077 122.957 114.9Z" fill="#FFDE59"/>
<path d="M118.333 98.9191C110.56 99.937 113.225 131.682 113.225 131.682L121.904 128.922C121.904 128.922 125.188 98.0188 118.333 98.9191Z" fill="#F2807E"/>
<path d="M151.447 98.5314C159.22 99.5493 156.555 131.294 156.555 131.294L147.876 128.535C147.876 128.535 144.592 97.6311 151.447 98.5314Z" fill="#F2807E"/>
<path d="M136.831 85.1503C136.49 85.9977 135.095 85.9447 134.507 85.5622C134.195 85.3681 134.136 84.8797 134.195 84.2442C134.195 84.2442 134.195 84.1912 134.195 84.1618C134.348 82.4083 135.466 79.6369 135.496 79.478C135.496 79.478 136.578 82.8791 136.796 84.4384C136.861 84.7914 136.861 85.0385 136.831 85.1503Z" fill="#FF7E7B"/>
<path opacity="0.55" d="M136.795 84.4384C136.454 85.2621 135.089 85.2033 134.5 84.8208C134.347 84.709 134.224 84.5207 134.188 84.2442C134.188 84.2442 134.188 84.1912 134.188 84.1618C134.341 82.4083 135.459 79.6369 135.489 79.478C135.495 79.478 136.583 82.8732 136.795 84.4384Z" fill="#FFB6AE"/>
<path d="M87.8227 123.074L87.7815 123.221L82.78 143.38L77.7373 123.098L77.7314 123.074L82.78 114.766L87.8227 123.074Z" fill="#FFDE59"/>
<path opacity="0.35" d="M87.822 123.074L87.7808 123.221L82.7793 143.38V114.766L87.822 123.074Z" fill="#FFDE59"/>
<path opacity="0.47" d="M87.8227 123.074L87.7815 123.221L82.78 124.686L77.7373 123.098L77.7314 123.074L82.78 114.766L87.8227 123.074Z" fill="#FFFCEF"/>
<path d="M53.8541 44.1406L53.8365 44.2171L51.2298 54.7144L48.6055 44.1524L48.5996 44.1406L51.2298 39.8158L53.8541 44.1406Z" fill="#FFDE59"/>
<path opacity="0.35" d="M53.8538 44.1406L53.8362 44.2171L51.2295 54.7144V39.8158L53.8538 44.1406Z" fill="#FFDE59"/>
<path opacity="0.47" d="M53.8541 44.1406L53.8365 44.2171L51.2298 44.9762L48.6055 44.1524L48.5996 44.1406L51.2298 39.8158L53.8541 44.1406Z" fill="#FFFCEF"/>
<path d="M257.463 102.582L257.446 102.665L254.868 113.745L252.273 102.594L252.268 102.582L254.868 98.0162L257.463 102.582Z" fill="#FFDE59"/>
<path opacity="0.35" d="M257.463 102.582L257.445 102.665L254.868 113.745V98.0162L257.463 102.582Z" fill="#FFDE59"/>
<path opacity="0.47" d="M257.463 102.582L257.446 102.665L254.868 103.471L252.273 102.594L252.268 102.582L254.868 98.0162L257.463 102.582Z" fill="#FFFCEF"/>
<path d="M178.935 189.225L178.917 189.307L176.34 200.387L173.745 189.237L173.739 189.225L176.34 184.659L178.935 189.225Z" fill="#FFDE59"/>
<path opacity="0.35" d="M178.937 189.225L178.919 189.307L176.342 200.387V184.659L178.937 189.225Z" fill="#FFDE59"/>
<path opacity="0.47" d="M178.935 189.225L178.917 189.307L176.34 190.113L173.745 189.237L173.739 189.225L176.34 184.659L178.935 189.225Z" fill="#FFFCEF"/>
<path d="M189.475 117.647L189.457 117.73L186.88 128.809L184.285 117.659L184.279 117.647L186.88 113.081L189.475 117.647Z" fill="#FFDE59"/>
<path opacity="0.35" d="M189.475 117.647L189.457 117.73L186.88 128.809V113.081L189.475 117.647Z" fill="#FFDE59"/>
<path opacity="0.47" d="M189.475 117.647L189.457 117.73L186.88 118.53L184.285 117.659L184.279 117.647L186.88 113.081L189.475 117.647Z" fill="#FFFCEF"/>
<path d="M35.0982 195.032L35.0688 195.144L31.3206 210.242L27.5488 195.049L27.543 195.032L31.3206 188.806L35.0982 195.032Z" fill="#FFDE59"/>
<path opacity="0.35" d="M35.0979 195.032L35.0685 195.144L31.3203 210.242V188.806L35.0979 195.032Z" fill="#FFDE59"/>
<path opacity="0.47" d="M35.0982 195.032L35.0688 195.144L31.3206 196.238L27.5488 195.049L27.543 195.032L31.3206 188.806L35.0982 195.032Z" fill="#FFFCEF"/>
<path d="M213.332 253.849L213.303 253.955L209.69 268.524L206.048 253.867L206.042 253.849L209.69 247.841L213.332 253.849Z" fill="#FFDE59"/>
<path opacity="0.35" d="M213.332 253.849L213.302 253.955L209.689 268.524V247.841L213.332 253.849Z" fill="#FFDE59"/>
<path opacity="0.47" d="M213.332 253.849L213.303 253.955L209.69 255.014L206.048 253.867L206.042 253.849L209.69 247.841L213.332 253.849Z" fill="#FFFCEF"/>
<path opacity="0.09" d="M117.143 160.079C117.208 160.968 118.15 171.654 121.715 169.035C125.281 166.417 130.289 145.187 130.677 150.029C131.148 155.925 132.013 160.509 132.013 160.509C132.013 160.509 135.243 145.91 132.23 143.692C129.606 141.756 128.159 144.934 126.393 150.029C124.628 155.125 120.262 160.438 121.715 152.577C123.169 144.716 124.552 141.621 124.552 141.621C124.552 141.621 116.443 150.106 117.143 160.079Z" fill="#FFFDF7"/>
<path opacity="0.09" d="M144.24 140.614C142.839 139.619 144.334 152.653 146.47 157.213C148.606 161.773 151.007 167.41 151.065 165.321C151.136 163.232 147.253 142.75 144.24 140.614Z" fill="#FFFDF7"/>
<path opacity="0.09" d="M127.094 130.081C127.147 128.357 128.441 132.146 130.042 131.293C131.642 130.445 132.607 130.151 133.507 130.81C134.408 131.463 136.555 131.822 136.808 131.628C137.067 131.44 134.043 133.47 133.166 132.611C132.295 131.752 131.854 131.722 130.836 132.611C129.824 133.499 126.988 133.499 127.094 130.081Z" fill="#FFFDF7"/>
<path d="M210.132 64.5617C210.208 65.4855 209.52 66.2916 208.596 66.3681C207.843 66.427 207.178 65.9916 206.919 65.3266C206.907 65.3031 206.896 65.2855 206.89 65.2501C206.819 65.1207 206.801 64.9854 206.79 64.8324C206.719 63.9556 207.343 63.1731 208.202 63.0495C208.249 63.0318 208.278 63.0318 208.325 63.0259C208.996 62.973 209.608 63.3201 209.914 63.8791C210.038 64.0733 210.114 64.3087 210.132 64.5617Z" fill="#111111"/>
<path opacity="0.24" d="M210.131 64.5619C210.207 65.4857 209.519 66.2919 208.595 66.3684C207.842 66.4272 207.177 65.9918 206.918 65.3269C207.324 65.5093 208.948 66.1036 209.913 63.8853C210.037 64.0735 210.113 64.3089 210.131 64.5619Z" fill="#FFDE59"/>
<path opacity="0.24" d="M208.45 63.0205C209.05 63.2383 209.497 63.7855 209.55 64.4563C209.626 65.3801 208.938 66.1862 208.014 66.2627C207.973 66.2686 207.932 66.2627 207.891 66.2627C208.108 66.3451 208.35 66.3804 208.597 66.3627C209.521 66.2862 210.209 65.4801 210.132 64.5563C210.062 63.6737 209.32 63.0147 208.45 63.0205Z" fill="#FFDE59"/>
<path opacity="0.35" d="M207.613 63.5555C207.608 63.5555 207.602 63.5555 207.596 63.5555C207.784 63.3496 207.99 63.1671 208.202 63.0436C207.343 63.173 206.719 63.9556 206.79 64.8265C206.801 64.9736 206.825 65.1089 206.89 65.2443C206.919 64.8441 207.025 64.5205 207.154 64.2322C207.172 64.3204 207.219 64.391 207.284 64.4146C207.425 64.4675 207.613 64.3204 207.702 64.0792C207.796 63.8438 207.755 63.6085 207.613 63.5555Z" fill="#FFDE59"/>
<path opacity="0.35" d="M208.559 63.968C208.618 63.8099 208.59 63.6529 208.496 63.6173C208.402 63.5818 208.277 63.6811 208.217 63.8392C208.158 63.9973 208.186 64.1543 208.28 64.1899C208.374 64.2255 208.499 64.1261 208.559 63.968Z" fill="#FFDE59"/>
<path d="M209.701 67.8379C209.778 68.7618 209.089 69.5679 208.165 69.6444C207.412 69.7032 206.747 69.2678 206.488 68.6029C206.477 68.5793 206.465 68.5617 206.459 68.5264C206.388 68.3969 206.371 68.2616 206.359 68.1086C206.288 67.2319 206.912 66.4493 207.771 66.3257C207.818 66.3081 207.848 66.3081 207.895 66.3022C208.566 66.2492 209.177 66.5964 209.483 67.1554C209.601 67.3496 209.678 67.5849 209.701 67.8379Z" fill="#111111"/>
<path opacity="0.24" d="M209.702 67.8383C209.778 68.7621 209.09 69.5682 208.166 69.6447C207.413 69.7036 206.748 69.2681 206.489 68.6032C206.895 68.7856 208.519 69.3799 209.484 67.1616C209.602 67.3499 209.678 67.5853 209.702 67.8383Z" fill="#FFDE59"/>
<path opacity="0.24" d="M208.019 66.2969C208.619 66.5146 209.066 67.0619 209.119 67.7326C209.196 68.6565 208.507 69.4626 207.584 69.5391C207.542 69.545 207.501 69.5391 207.46 69.5391C207.678 69.6215 207.919 69.6568 208.166 69.6391C209.09 69.5626 209.778 68.7565 209.702 67.8327C209.631 66.9501 208.89 66.291 208.019 66.2969Z" fill="#FFDE59"/>
<path opacity="0.35" d="M207.177 66.8317C207.171 66.8317 207.165 66.8317 207.159 66.8317C207.348 66.6258 207.553 66.4434 207.765 66.3198C206.906 66.4493 206.282 67.2319 206.353 68.1027C206.365 68.2498 206.388 68.3852 206.453 68.5205C206.483 68.1204 206.588 67.7967 206.718 67.5084C206.736 67.5967 206.783 67.6673 206.847 67.6908C206.989 67.7438 207.177 67.5967 207.265 67.3554C207.365 67.1201 207.318 66.8847 207.177 66.8317Z" fill="#FFDE59"/>
<path opacity="0.35" d="M208.125 67.2487C208.185 67.0906 208.157 66.9335 208.063 66.898C207.968 66.8624 207.843 66.9617 207.784 67.1198C207.724 67.2779 207.752 67.435 207.846 67.4705C207.941 67.5061 208.065 67.4068 208.125 67.2487Z" fill="#FFDE59"/>
<path d="M208.353 70.9068C208.429 71.8306 207.741 72.6367 206.817 72.7132C206.064 72.7721 205.399 72.3366 205.14 71.6717C205.128 71.6482 205.116 71.6305 205.11 71.5952C205.04 71.4658 205.022 71.3304 205.01 71.1775C204.94 70.3007 205.563 69.5181 206.423 69.3946C206.47 69.3769 206.499 69.3769 206.546 69.371C207.217 69.3181 207.829 69.6652 208.135 70.2242C208.258 70.4243 208.335 70.6538 208.353 70.9068Z" fill="#111111"/>
<path opacity="0.24" d="M208.352 70.9074C208.429 71.8312 207.74 72.6373 206.817 72.7138C206.063 72.7727 205.399 72.3372 205.14 71.6723C205.546 71.8547 207.17 72.449 208.135 70.2307C208.258 70.4249 208.335 70.6544 208.352 70.9074Z" fill="#FFDE59"/>
<path opacity="0.24" d="M206.67 69.3658C207.271 69.5835 207.718 70.1307 207.771 70.8015C207.847 71.7253 207.159 72.5314 206.235 72.6079C206.194 72.6138 206.153 72.6079 206.111 72.6079C206.329 72.6903 206.57 72.7256 206.817 72.708C207.741 72.6315 208.43 71.8253 208.353 70.9015C208.288 70.0189 207.541 69.3599 206.67 69.3658Z" fill="#FFDE59"/>
<path opacity="0.35" d="M205.834 69.9003C205.828 69.9003 205.822 69.9003 205.816 69.9003C206.005 69.6944 206.211 69.512 206.423 69.3884C205.563 69.5179 204.94 70.3005 205.01 71.1713C205.022 71.3184 205.046 71.4538 205.11 71.5891C205.14 71.189 205.246 70.8653 205.375 70.577C205.393 70.6653 205.44 70.7359 205.505 70.7594C205.646 70.8124 205.834 70.6653 205.922 70.424C206.017 70.1946 205.975 69.9592 205.834 69.9003Z" fill="#FFDE59"/>
<path opacity="0.35" d="M206.786 70.3196C206.846 70.1615 206.818 70.0045 206.724 69.9689C206.629 69.9334 206.505 70.0327 206.445 70.1908C206.385 70.3489 206.413 70.5059 206.508 70.5415C206.602 70.577 206.727 70.4777 206.786 70.3196Z" fill="#FFDE59"/>
<path d="M201.478 78.0801C201.554 79.0039 200.866 79.8101 199.942 79.8866C199.189 79.9454 198.524 79.51 198.265 78.8451C198.253 78.8215 198.241 78.8039 198.235 78.7686C198.165 78.6391 198.147 78.5038 198.135 78.3508C198.065 77.4741 198.688 76.6915 199.548 76.5679C199.595 76.5503 199.624 76.5503 199.671 76.5444C200.342 76.4914 200.954 76.8386 201.26 77.3976C201.383 77.5976 201.46 77.833 201.478 78.0801Z" fill="#111111"/>
<path opacity="0.24" d="M201.477 78.0805C201.554 79.0043 200.865 79.8104 199.942 79.8869C199.188 79.9458 198.524 79.5103 198.265 78.8454C198.671 79.0278 200.295 79.6221 201.26 77.4038C201.383 77.598 201.46 77.8333 201.477 78.0805Z" fill="#FFDE59"/>
<path opacity="0.24" d="M199.795 76.5391C200.396 76.7568 200.843 77.304 200.896 77.9748C200.972 78.8986 200.284 79.7048 199.36 79.7813C199.319 79.7871 199.278 79.7813 199.236 79.7813C199.454 79.8636 199.695 79.8989 199.942 79.8813C200.866 79.8048 201.555 78.9987 201.478 78.0749C201.408 77.1922 200.666 76.5332 199.795 76.5391Z" fill="#FFDE59"/>
<path opacity="0.35" d="M198.959 77.0798C198.953 77.0798 198.947 77.0798 198.941 77.0798C199.13 76.8738 199.336 76.6914 199.548 76.5679C198.688 76.6973 198.065 77.4799 198.135 78.3508C198.147 78.4979 198.171 78.6332 198.235 78.7685C198.265 78.3684 198.371 78.0448 198.5 77.7565C198.518 77.8447 198.565 77.9153 198.63 77.9389C198.771 77.9918 198.959 77.8447 199.047 77.6035C199.142 77.3681 199.1 77.1327 198.959 77.0798Z" fill="#FFDE59"/>
<path opacity="0.35" d="M199.907 77.4927C199.967 77.3346 199.939 77.1776 199.845 77.142C199.75 77.1065 199.626 77.2058 199.566 77.3639C199.506 77.522 199.534 77.679 199.629 77.7146C199.723 77.7501 199.848 77.6508 199.907 77.4927Z" fill="#FFDE59"/>
<path d="M206.179 73.4227C206.255 74.3465 205.567 75.1526 204.643 75.2291C203.89 75.2879 203.225 74.8525 202.966 74.1876C202.954 74.1641 202.942 74.1464 202.937 74.1111C202.866 73.9817 202.848 73.8463 202.837 73.6933C202.766 72.8166 203.39 72.034 204.249 71.9104C204.296 71.8928 204.325 71.8928 204.372 71.8869C205.043 71.8339 205.655 72.1811 205.961 72.7401C206.085 72.9402 206.161 73.1755 206.179 73.4227Z" fill="#111111"/>
<path opacity="0.24" d="M206.179 73.423C206.255 74.3468 205.567 75.153 204.643 75.2294C203.89 75.2883 203.225 74.8529 202.966 74.188C203.372 74.3704 204.996 74.9647 205.961 72.7463C206.084 72.9405 206.161 73.1759 206.179 73.423Z" fill="#FFDE59"/>
<path opacity="0.24" d="M204.497 71.8816C205.097 72.0993 205.544 72.6466 205.597 73.3174C205.673 74.2412 204.985 75.0473 204.061 75.1238C204.02 75.1297 203.979 75.1238 203.938 75.1238C204.155 75.2062 204.396 75.2415 204.644 75.2238C205.567 75.1473 206.256 74.3412 206.179 73.4174C206.115 72.5348 205.367 71.8757 204.497 71.8816Z" fill="#FFDE59"/>
<path opacity="0.35" d="M203.66 72.4218C203.654 72.4218 203.649 72.4218 203.643 72.4218C203.831 72.2159 204.037 72.0335 204.249 71.9099C203.39 72.0394 202.766 72.822 202.837 73.6928C202.848 73.8399 202.872 73.9752 202.937 74.1106C202.966 73.7105 203.072 73.3868 203.201 73.0985C203.219 73.1868 203.266 73.2574 203.331 73.2809C203.472 73.3339 203.66 73.1868 203.749 72.9455C203.843 72.7102 203.802 72.4748 203.66 72.4218Z" fill="#FFDE59"/>
<path opacity="0.35" d="M204.611 72.8352C204.671 72.6771 204.643 72.5201 204.549 72.4846C204.455 72.449 204.33 72.5483 204.27 72.7064C204.21 72.8645 204.239 73.0215 204.333 73.0571C204.427 73.0927 204.552 72.9933 204.611 72.8352Z" fill="#FFDE59"/>
<path d="M203.782 75.7934C203.859 76.7172 203.17 77.5233 202.246 77.5998C201.493 77.6587 200.828 77.2232 200.569 76.5583C200.558 76.5348 200.546 76.5171 200.54 76.4818C200.469 76.3524 200.452 76.2171 200.44 76.0641C200.369 75.1873 200.993 74.4047 201.852 74.2812C201.899 74.2635 201.929 74.2635 201.976 74.2576C202.647 74.2047 203.259 74.5518 203.564 75.1108C203.688 75.305 203.765 75.5404 203.782 75.7934Z" fill="#111111"/>
<path opacity="0.24" d="M203.782 75.7937C203.859 76.7175 203.17 77.5237 202.246 77.6002C201.493 77.659 200.828 77.2236 200.569 76.5587C200.975 76.7411 202.599 77.3354 203.564 75.1171C203.688 75.3054 203.764 75.5407 203.782 75.7937Z" fill="#FFDE59"/>
<path opacity="0.24" d="M202.1 74.2524C202.7 74.4701 203.147 75.0173 203.2 75.6881C203.277 76.6119 202.588 77.418 201.665 77.4945C201.623 77.5004 201.582 77.4945 201.541 77.4945C201.759 77.5769 202 77.6122 202.247 77.5945C203.171 77.5181 203.859 76.7119 203.783 75.7881C203.712 74.9055 202.971 74.2465 202.1 74.2524Z" fill="#FFDE59"/>
<path opacity="0.35" d="M201.264 74.7867C201.258 74.7867 201.252 74.7867 201.246 74.7867C201.434 74.5808 201.64 74.3983 201.852 74.2748C200.993 74.4042 200.369 75.1868 200.44 76.0577C200.452 76.2048 200.475 76.3401 200.54 76.4755C200.569 76.0753 200.675 75.7517 200.805 75.4634C200.822 75.5516 200.87 75.6222 200.934 75.6458C201.076 75.6987 201.264 75.5516 201.352 75.3104C201.446 75.075 201.405 74.8397 201.264 74.7867Z" fill="#FFDE59"/>
<path opacity="0.35" d="M202.211 75.2017C202.271 75.0436 202.243 74.8866 202.148 74.851C202.054 74.8154 201.929 74.9147 201.87 75.0728C201.81 75.231 201.838 75.388 201.932 75.4235C202.027 75.4591 202.151 75.3598 202.211 75.2017Z" fill="#FFDE59"/>
<path d="M188.729 62.896C188.535 63.8022 189.117 64.6907 190.017 64.8849C190.753 65.0438 191.471 64.6907 191.812 64.067C191.83 64.0493 191.841 64.0258 191.853 63.9964C191.936 63.8728 191.977 63.7434 192.006 63.5963C192.189 62.7372 191.671 61.8781 190.835 61.6427C190.794 61.6192 190.759 61.6133 190.718 61.6074C190.059 61.4662 189.405 61.7369 189.029 62.2488C188.888 62.4253 188.782 62.6489 188.729 62.896Z" fill="#111111"/>
<path opacity="0.24" d="M188.729 62.8954C188.535 63.8016 189.117 64.6901 190.017 64.8843C190.753 65.0431 191.471 64.6901 191.812 64.0664C191.388 64.1958 189.7 64.5724 189.029 62.2482C188.888 62.4247 188.782 62.6483 188.729 62.8954Z" fill="#FFDE59"/>
<path opacity="0.24" d="M190.6 61.584C189.982 61.7252 189.465 62.2077 189.323 62.8667C189.129 63.7729 189.706 64.6614 190.612 64.8555C190.653 64.8614 190.694 64.8614 190.735 64.8673C190.506 64.9203 190.265 64.9262 190.024 64.8732C189.117 64.679 188.541 63.7905 188.735 62.8844C188.917 62.0253 189.735 61.4663 190.6 61.584Z" fill="#FFDE59"/>
<path opacity="0.35" d="M191.359 62.2251C191.365 62.2251 191.37 62.2251 191.376 62.2251C191.212 61.9956 191.035 61.7897 190.841 61.6426C191.676 61.8779 192.194 62.737 192.012 63.5961C191.982 63.7432 191.941 63.8727 191.859 63.9962C191.882 63.5961 191.818 63.2607 191.723 62.9547C191.694 63.043 191.641 63.1019 191.57 63.1195C191.423 63.1548 191.259 62.9842 191.2 62.737C191.141 62.484 191.212 62.2604 191.359 62.2251Z" fill="#FFDE59"/>
<path opacity="0.35" d="M190.598 62.7692C190.696 62.7461 190.744 62.594 190.706 62.4295C190.667 62.2651 190.556 62.1505 190.458 62.1737C190.36 62.1968 190.312 62.3489 190.351 62.5133C190.389 62.6778 190.5 62.7924 190.598 62.7692Z" fill="#FFDE59"/>
<path d="M190.577 60.0772C190.383 60.9834 190.966 61.8719 191.866 62.066C192.602 62.2249 193.319 61.8719 193.661 61.2481C193.678 61.2305 193.69 61.2069 193.702 61.1775C193.784 61.054 193.825 60.9245 193.855 60.7774C194.037 59.9183 193.519 59.0592 192.684 58.8239C192.643 58.8003 192.607 58.7944 192.566 58.7886C191.907 58.6473 191.254 58.918 190.877 59.4299C190.73 59.6123 190.624 59.8301 190.577 60.0772Z" fill="#111111"/>
<path opacity="0.24" d="M190.577 60.0766C190.383 60.9827 190.966 61.8712 191.866 62.0654C192.602 62.2243 193.319 61.8712 193.661 61.2475C193.237 61.377 191.548 61.7536 190.877 59.4293C190.73 59.6117 190.624 59.8294 190.577 60.0766Z" fill="#FFDE59"/>
<path opacity="0.24" d="M192.443 58.7651C191.825 58.9063 191.307 59.3888 191.166 60.0479C190.972 60.954 191.549 61.8425 192.455 62.0367C192.496 62.0426 192.537 62.0426 192.578 62.0485C192.349 62.1014 192.108 62.1073 191.866 62.0544C190.96 61.8602 190.383 60.9717 190.578 60.0655C190.76 59.2064 191.578 58.6474 192.443 58.7651Z" fill="#FFDE59"/>
<path opacity="0.35" d="M193.202 59.4063C193.208 59.4063 193.214 59.4063 193.22 59.4063C193.055 59.1768 192.879 58.9708 192.685 58.8237C193.52 59.0591 194.038 59.9182 193.856 60.7773C193.826 60.9244 193.785 61.0538 193.703 61.1774C193.726 60.7773 193.661 60.4419 193.567 60.1359C193.538 60.2242 193.485 60.283 193.414 60.3006C193.267 60.336 193.102 60.1653 193.043 59.9182C192.985 59.671 193.055 59.4416 193.202 59.4063Z" fill="#FFDE59"/>
<path opacity="0.35" d="M192.45 59.956C192.548 59.9328 192.596 59.7807 192.557 59.6163C192.518 59.4518 192.407 59.3373 192.309 59.3604C192.211 59.3836 192.163 59.5357 192.202 59.7001C192.241 59.8646 192.352 59.9791 192.45 59.956Z" fill="#FFDE59"/>
<path d="M192.432 57.3783C192.238 58.2845 192.82 59.173 193.721 59.3672C194.456 59.526 195.174 59.173 195.515 58.5493C195.533 58.5316 195.545 58.5081 195.556 58.4787C195.639 58.3551 195.68 58.2257 195.709 58.0785C195.892 57.2195 195.374 56.3604 194.538 56.125C194.497 56.1015 194.462 56.0956 194.421 56.0897C193.762 55.9485 193.109 56.2192 192.732 56.7311C192.585 56.9135 192.479 57.1312 192.432 57.3783Z" fill="#111111"/>
<path opacity="0.24" d="M192.432 57.3777C192.238 58.2839 192.82 59.1724 193.721 59.3666C194.456 59.5254 195.174 59.1724 195.515 58.5487C195.092 58.6781 193.403 59.0547 192.732 56.7305C192.585 56.9129 192.479 57.1306 192.432 57.3777Z" fill="#FFDE59"/>
<path opacity="0.24" d="M194.297 56.0663C193.68 56.2075 193.162 56.69 193.021 57.349C192.826 58.2552 193.403 59.1437 194.309 59.3378C194.35 59.3437 194.392 59.3437 194.433 59.3496C194.203 59.4026 193.962 59.4085 193.721 59.3555C192.815 59.1613 192.238 58.2728 192.432 57.3667C192.615 56.5076 193.432 55.9486 194.297 56.0663Z" fill="#FFDE59"/>
<path opacity="0.35" d="M195.057 56.7074C195.063 56.7074 195.069 56.7074 195.075 56.7074C194.91 56.4779 194.733 56.272 194.539 56.1249C195.375 56.3602 195.892 57.2193 195.71 58.0784C195.681 58.2255 195.639 58.355 195.557 58.4785C195.581 58.0784 195.516 57.743 195.422 57.437C195.392 57.5253 195.339 57.5841 195.269 57.6018C195.122 57.6371 194.957 57.4665 194.898 57.2193C194.839 56.9722 194.91 56.7427 195.057 56.7074Z" fill="#FFDE59"/>
<path opacity="0.35" d="M194.298 57.2571C194.396 57.234 194.444 57.0819 194.405 56.9174C194.366 56.753 194.255 56.6384 194.157 56.6616C194.059 56.6847 194.011 56.8368 194.05 57.0013C194.089 57.1657 194.2 57.2803 194.298 57.2571Z" fill="#FFDE59"/>
<path d="M195.393 55.8058C195.199 56.712 195.781 57.6005 196.681 57.7947C197.417 57.9535 198.135 57.6005 198.476 56.9768C198.494 56.9591 198.506 56.9356 198.517 56.9062C198.6 56.7826 198.641 56.6531 198.67 56.506C198.853 55.647 198.335 54.7879 197.499 54.5525C197.458 54.529 197.423 54.5231 197.382 54.5172C196.723 54.376 196.07 54.6467 195.693 55.1586C195.552 55.3351 195.446 55.5587 195.393 55.8058Z" fill="#111111"/>
<path opacity="0.24" d="M195.393 55.8069C195.199 56.7131 195.781 57.6016 196.681 57.7958C197.417 57.9546 198.135 57.6016 198.476 56.9779C198.052 57.1073 196.364 57.4839 195.693 55.1597C195.552 55.3362 195.446 55.5598 195.393 55.8069Z" fill="#FFDE59"/>
<path opacity="0.24" d="M197.258 54.4939C196.641 54.6351 196.123 55.1176 195.982 55.7766C195.787 56.6828 196.364 57.5713 197.27 57.7655C197.311 57.7714 197.353 57.7714 197.394 57.7772C197.164 57.8302 196.923 57.8361 196.682 57.7831C195.776 57.5889 195.199 56.7004 195.393 55.7943C195.575 54.9293 196.399 54.3762 197.258 54.4939Z" fill="#FFDE59"/>
<path opacity="0.35" d="M198.023 55.135C198.029 55.135 198.034 55.135 198.04 55.135C197.876 54.9055 197.699 54.6996 197.505 54.5525C198.34 54.7879 198.858 55.6469 198.676 56.506C198.646 56.6531 198.605 56.7826 198.523 56.9061C198.546 56.506 198.482 56.1706 198.388 55.8647C198.358 55.9529 198.305 56.0118 198.235 56.0294C198.087 56.0647 197.923 55.8941 197.864 55.6469C197.799 55.3939 197.876 55.1703 198.023 55.135Z" fill="#FFDE59"/>
<path opacity="0.35" d="M197.262 55.6791C197.361 55.656 197.409 55.5039 197.37 55.3394C197.331 55.175 197.22 55.0604 197.122 55.0836C197.024 55.1067 196.976 55.2588 197.015 55.4233C197.053 55.5877 197.164 55.7023 197.262 55.6791Z" fill="#FFDE59"/>
<path d="M188.391 66.2632C188.197 67.1694 188.779 68.0579 189.68 68.2521C190.415 68.4109 191.133 68.0579 191.474 67.4342C191.492 67.4165 191.504 67.393 191.515 67.3636C191.598 67.24 191.639 67.1105 191.668 66.9634C191.851 66.1044 191.333 65.2453 190.497 65.0099C190.456 64.9864 190.421 64.9805 190.38 64.9746C189.721 64.8334 189.068 65.104 188.691 65.616C188.55 65.7984 188.444 66.0161 188.391 66.2632Z" fill="#111111"/>
<path opacity="0.24" d="M188.391 66.2625C188.197 67.1687 188.779 68.0572 189.68 68.2513C190.415 68.4102 191.133 68.0572 191.474 67.4334C191.051 67.5629 189.362 67.9395 188.691 65.6152C188.55 65.7976 188.444 66.0154 188.391 66.2625Z" fill="#FFDE59"/>
<path opacity="0.24" d="M190.256 64.9512C189.639 65.0924 189.121 65.5749 188.98 66.2339C188.785 67.1401 189.362 68.0286 190.268 68.2227C190.309 68.2286 190.351 68.2286 190.392 68.2345C190.162 68.2875 189.921 68.2933 189.68 68.2404C188.774 68.0462 188.197 67.1577 188.391 66.2515C188.574 65.3925 189.397 64.8335 190.256 64.9512Z" fill="#FFDE59"/>
<path opacity="0.35" d="M191.021 65.5923C191.027 65.5923 191.033 65.5923 191.038 65.5923C190.874 65.3628 190.697 65.1569 190.503 65.0098C191.338 65.2451 191.856 66.1042 191.674 66.9633C191.644 67.1104 191.603 67.2399 191.521 67.3634C191.544 66.9633 191.48 66.6279 191.386 66.3219C191.356 66.4102 191.303 66.469 191.233 66.4867C191.085 66.522 190.921 66.3514 190.862 66.1042C190.797 65.8571 190.874 65.6276 191.021 65.5923Z" fill="#FFDE59"/>
<path opacity="0.35" d="M190.263 66.142C190.361 66.1189 190.409 65.9668 190.371 65.8023C190.332 65.6379 190.221 65.5233 190.123 65.5465C190.025 65.5696 189.977 65.7217 190.016 65.8862C190.054 66.0506 190.165 66.1652 190.263 66.142Z" fill="#FFDE59"/>
<path d="M189.119 69.5392C188.925 70.4454 189.508 71.3339 190.408 71.5281C191.144 71.6869 191.861 71.3339 192.203 70.7102C192.22 70.6925 192.232 70.669 192.244 70.6396C192.326 70.516 192.367 70.3865 192.397 70.2394C192.579 69.3804 192.061 68.5213 191.226 68.2859C191.185 68.2624 191.149 68.2565 191.108 68.2506C190.449 68.1094 189.796 68.3801 189.419 68.892C189.278 69.0685 189.172 69.2921 189.119 69.5392Z" fill="#111111"/>
<path opacity="0.24" d="M189.119 69.5386C188.925 70.4448 189.508 71.3333 190.408 71.5275C191.144 71.6863 191.861 71.3333 192.203 70.7096C191.779 70.839 190.09 71.2156 189.419 68.8914C189.278 69.0679 189.172 69.2915 189.119 69.5386Z" fill="#FFDE59"/>
<path opacity="0.24" d="M190.991 68.2272C190.373 68.3684 189.855 68.8509 189.714 69.5099C189.52 70.4161 190.096 71.3046 191.003 71.4987C191.044 71.5046 191.085 71.5046 191.126 71.5105C190.897 71.5635 190.655 71.5694 190.414 71.5164C189.508 71.3222 188.931 70.4337 189.126 69.5276C189.308 68.6685 190.126 68.1095 190.991 68.2272Z" fill="#FFDE59"/>
<path opacity="0.35" d="M191.749 68.8683C191.755 68.8683 191.761 68.8683 191.767 68.8683C191.602 68.6388 191.426 68.4329 191.231 68.2858C192.067 68.5211 192.585 69.3802 192.402 70.2393C192.373 70.3864 192.332 70.5159 192.249 70.6394C192.273 70.2393 192.208 69.9039 192.114 69.5979C192.085 69.6862 192.032 69.745 191.961 69.7627C191.814 69.798 191.649 69.6274 191.59 69.3802C191.532 69.1331 191.602 68.9036 191.749 68.8683Z" fill="#FFDE59"/>
<path opacity="0.35" d="M190.989 69.4124C191.087 69.3892 191.135 69.2372 191.096 69.0727C191.057 68.9082 190.946 68.7937 190.848 68.8168C190.75 68.84 190.702 68.9921 190.741 69.1565C190.78 69.321 190.891 69.4355 190.989 69.4124Z" fill="#FFDE59"/>
<path d="M194.729 77.7912C194.535 78.6973 195.117 79.5858 196.017 79.78C196.753 79.9389 197.471 79.5858 197.812 78.9621C197.83 78.9445 197.841 78.9209 197.853 78.8915C197.936 78.768 197.977 78.6385 198.006 78.4914C198.189 77.6323 197.671 76.7732 196.835 76.5379C196.794 76.5143 196.759 76.5084 196.718 76.5026C196.059 76.3613 195.405 76.632 195.029 77.1439C194.888 77.3263 194.782 77.5499 194.729 77.7912Z" fill="#111111"/>
<path opacity="0.24" d="M194.729 77.7902C194.535 78.6964 195.117 79.5849 196.017 79.779C196.753 79.9379 197.471 79.5849 197.812 78.9611C197.388 79.0906 195.7 79.4672 195.029 77.1429C194.888 77.3254 194.782 77.5489 194.729 77.7902Z" fill="#FFDE59"/>
<path opacity="0.24" d="M196.594 76.4791C195.976 76.6203 195.459 77.1028 195.317 77.7619C195.123 78.668 195.7 79.5565 196.606 79.7507C196.647 79.7566 196.688 79.7566 196.73 79.7625C196.5 79.8154 196.259 79.8213 196.018 79.7683C195.111 79.5742 194.535 78.6857 194.729 77.7795C194.911 76.9204 195.735 76.3614 196.594 76.4791Z" fill="#FFDE59"/>
<path opacity="0.35" d="M197.36 77.1204C197.365 77.1204 197.371 77.1204 197.377 77.1204C197.213 76.8909 197.036 76.6849 196.842 76.5378C197.677 76.7732 198.195 77.6323 198.013 78.4914C197.983 78.6385 197.942 78.7679 197.86 78.8915C197.883 78.4914 197.819 78.156 197.724 77.85C197.695 77.9383 197.642 77.9971 197.571 78.0148C197.424 78.0501 197.26 77.8794 197.201 77.6323C197.136 77.3852 197.213 77.1557 197.36 77.1204Z" fill="#FFDE59"/>
<path opacity="0.35" d="M196.6 77.6698C196.698 77.6467 196.746 77.4946 196.708 77.3302C196.669 77.1657 196.558 77.0511 196.46 77.0743C196.362 77.0974 196.314 77.2495 196.353 77.414C196.391 77.5784 196.502 77.693 196.6 77.6698Z" fill="#FFDE59"/>
<path d="M190.742 72.5127C190.548 73.4189 191.131 74.3074 192.031 74.5016C192.767 74.6604 193.484 74.3074 193.826 73.6837C193.843 73.666 193.855 73.6425 193.867 73.6131C193.949 73.4895 193.99 73.36 194.02 73.2129C194.202 72.3539 193.685 71.4948 192.849 71.2594C192.808 71.2359 192.772 71.23 192.731 71.2241C192.072 71.0829 191.419 71.3536 191.043 71.8655C190.901 72.042 190.795 72.2656 190.742 72.5127Z" fill="#111111"/>
<path opacity="0.24" d="M190.742 72.5119C190.548 73.418 191.131 74.3065 192.031 74.5007C192.767 74.6596 193.484 74.3065 193.826 73.6828C193.402 73.8123 191.713 74.1889 191.043 71.8646C190.901 72.0411 190.795 72.2647 190.742 72.5119Z" fill="#FFDE59"/>
<path opacity="0.24" d="M192.608 71.2007C191.99 71.3419 191.472 71.8244 191.331 72.4834C191.137 73.3896 191.714 74.2781 192.62 74.4722C192.661 74.4781 192.702 74.4781 192.743 74.484C192.514 74.537 192.273 74.5429 192.031 74.4899C191.125 74.2957 190.549 73.4072 190.743 72.5011C190.925 71.642 191.749 71.083 192.608 71.2007Z" fill="#FFDE59"/>
<path opacity="0.35" d="M193.366 71.8418C193.372 71.8418 193.378 71.8418 193.384 71.8418C193.219 71.6123 193.043 71.4064 192.849 71.2593C193.684 71.4946 194.202 72.3537 194.02 73.2128C193.99 73.3599 193.949 73.4894 193.867 73.6129C193.89 73.2128 193.825 72.8774 193.731 72.5714C193.702 72.6597 193.649 72.7185 193.578 72.7362C193.431 72.7715 193.266 72.6009 193.208 72.3537C193.149 72.1066 193.219 71.8771 193.366 71.8418Z" fill="#FFDE59"/>
<path opacity="0.35" d="M192.612 72.3859C192.71 72.3628 192.758 72.2107 192.719 72.0462C192.68 71.8817 192.57 71.7672 192.471 71.7904C192.373 71.8135 192.325 71.9656 192.364 72.13C192.403 72.2945 192.514 72.4091 192.612 72.3859Z" fill="#FFDE59"/>
<path d="M192.73 75.217C192.536 76.1231 193.118 77.0116 194.018 77.2058C194.754 77.3647 195.472 77.0116 195.813 76.3879C195.831 76.3703 195.842 76.3467 195.854 76.3173C195.937 76.1937 195.978 76.0643 196.007 75.9172C196.19 75.0581 195.672 74.199 194.836 73.9636C194.795 73.9401 194.76 73.9342 194.719 73.9283C194.06 73.7871 193.406 74.0578 193.03 74.5697C192.889 74.7521 192.783 74.9757 192.73 75.217Z" fill="#111111"/>
<path opacity="0.24" d="M192.73 75.2182C192.536 76.1243 193.118 77.0128 194.018 77.207C194.754 77.3659 195.472 77.0128 195.813 76.3891C195.389 76.5186 193.701 76.8952 193.03 74.5709C192.889 74.7533 192.783 74.9769 192.73 75.2182Z" fill="#FFDE59"/>
<path opacity="0.24" d="M194.601 73.91C193.983 74.0512 193.465 74.5337 193.324 75.1928C193.13 76.0989 193.707 76.9874 194.613 77.1816C194.654 77.1875 194.695 77.1875 194.736 77.1934C194.507 77.2463 194.266 77.2522 194.024 77.1992C193.118 77.0051 192.542 76.1166 192.736 75.2104C192.918 74.3454 193.736 73.7864 194.601 73.91Z" fill="#FFDE59"/>
<path opacity="0.35" d="M195.36 74.5463C195.365 74.5463 195.371 74.5463 195.377 74.5463C195.213 74.3168 195.036 74.1108 194.842 73.9637C195.677 74.1991 196.195 75.0582 196.013 75.9173C195.983 76.0644 195.942 76.1938 195.86 76.3174C195.883 75.9173 195.819 75.5819 195.724 75.2759C195.695 75.3642 195.642 75.423 195.571 75.4407C195.424 75.476 195.26 75.3053 195.201 75.0582C195.142 74.8111 195.213 74.5816 195.36 74.5463Z" fill="#FFDE59"/>
<path opacity="0.35" d="M194.599 75.096C194.697 75.0728 194.745 74.9207 194.707 74.7563C194.668 74.5918 194.557 74.4773 194.459 74.5004C194.361 74.5236 194.313 74.6757 194.352 74.8401C194.39 75.0046 194.501 75.1191 194.599 75.096Z" fill="#FFDE59"/>
<path d="M209.219 61.3852C209.295 62.309 208.607 63.1151 207.683 63.1916C206.93 63.2505 206.265 62.815 206.006 62.1501C205.994 62.1266 205.982 62.1089 205.977 62.0736C205.906 61.9442 205.888 61.8088 205.877 61.6559C205.806 60.7791 206.43 59.9965 207.289 59.873C207.336 59.8553 207.365 59.8553 207.412 59.8494C208.083 59.7965 208.695 60.1436 209.001 60.7026C209.125 60.9027 209.201 61.1322 209.219 61.3852Z" fill="#111111"/>
<path opacity="0.24" d="M209.219 61.3853C209.295 62.3091 208.607 63.1152 207.683 63.1917C206.93 63.2506 206.265 62.8151 206.006 62.1502C206.412 62.3326 208.036 62.9269 209.001 60.7086C209.124 60.9028 209.201 61.1323 209.219 61.3853Z" fill="#FFDE59"/>
<path opacity="0.24" d="M207.537 59.8443C208.137 60.062 208.584 60.6092 208.637 61.28C208.713 62.2038 208.025 63.01 207.101 63.0864C207.06 63.0923 207.019 63.0864 206.978 63.0864C207.195 63.1688 207.437 63.2041 207.684 63.1865C208.607 63.11 209.296 62.3038 209.219 61.38C209.149 60.4974 208.407 59.8384 207.537 59.8443Z" fill="#FFDE59"/>
<path opacity="0.35" d="M206.7 60.379C206.694 60.379 206.689 60.379 206.683 60.379C206.871 60.173 207.077 59.9906 207.289 59.8671C206.43 59.9965 205.806 60.7791 205.877 61.65C205.888 61.7971 205.912 61.9324 205.977 62.0677C206.006 61.6676 206.112 61.344 206.241 61.0557C206.259 61.1439 206.306 61.2145 206.371 61.2381C206.512 61.291 206.7 61.1439 206.789 60.9027C206.883 60.6732 206.842 60.4378 206.7 60.379Z" fill="#FFDE59"/>
<path opacity="0.35" d="M207.652 60.7979C207.712 60.6398 207.684 60.4828 207.59 60.4472C207.496 60.4116 207.371 60.5109 207.311 60.669C207.252 60.8271 207.28 60.9842 207.374 61.0197C207.468 61.0553 207.593 60.956 207.652 60.7979Z" fill="#FFDE59"/>
<path d="M207.626 58.5495C207.702 59.4733 207.014 60.2794 206.09 60.3559C205.337 60.4148 204.672 59.9793 204.413 59.3144C204.401 59.2909 204.39 59.2732 204.384 59.2379C204.313 59.1085 204.296 58.9732 204.284 58.8202C204.213 57.9434 204.837 57.1608 205.696 57.0373C205.743 57.0196 205.772 57.0196 205.82 57.0137C206.49 56.9608 207.102 57.3079 207.408 57.8669C207.526 58.067 207.602 58.3024 207.626 58.5495Z" fill="#111111"/>
<path opacity="0.24" d="M207.627 58.5498C207.703 59.4737 207.015 60.2798 206.091 60.3563C205.338 60.4151 204.673 59.9797 204.414 59.3148C204.82 59.4972 206.444 60.0915 207.409 57.8732C207.527 58.0673 207.603 58.3027 207.627 58.5498Z" fill="#FFDE59"/>
<path opacity="0.24" d="M205.944 57.0142C206.544 57.2319 206.991 57.7791 207.044 58.4499C207.121 59.3737 206.432 60.1799 205.508 60.2564C205.467 60.2622 205.426 60.2564 205.385 60.2564C205.602 60.3387 205.844 60.374 206.091 60.3564C207.015 60.2799 207.703 59.4738 207.627 58.5499C207.556 57.6614 206.815 57.0024 205.944 57.0142Z" fill="#FFDE59"/>
<path opacity="0.35" d="M205.102 57.5491C205.096 57.5491 205.09 57.5491 205.084 57.5491C205.272 57.3432 205.478 57.1608 205.69 57.0372C204.831 57.1667 204.207 57.9493 204.278 58.8201C204.29 58.9672 204.313 59.1026 204.378 59.2379C204.407 58.8378 204.513 58.5142 204.643 58.2258C204.66 58.3141 204.707 58.3847 204.772 58.4082C204.913 58.4612 205.102 58.3141 205.19 58.0728C205.29 57.8375 205.249 57.6021 205.102 57.5491Z" fill="#FFDE59"/>
<path opacity="0.35" d="M206.053 57.9643C206.113 57.8062 206.085 57.6492 205.99 57.6136C205.896 57.578 205.771 57.6774 205.712 57.8355C205.652 57.9936 205.68 58.1505 205.774 58.1861C205.868 58.2217 205.993 58.1224 206.053 57.9643Z" fill="#FFDE59"/>
<path d="M205.271 56.1176C205.348 57.0414 204.66 57.8476 203.736 57.924C202.983 57.9829 202.318 57.5475 202.059 56.8826C202.047 56.859 202.035 56.8414 202.029 56.8061C201.959 56.6766 201.941 56.5413 201.929 56.3883C201.859 55.5115 202.482 54.729 203.341 54.6054C203.389 54.5877 203.418 54.5877 203.465 54.5819C204.136 54.5289 204.748 54.8761 205.054 55.4351C205.171 55.6351 205.248 55.8646 205.271 56.1176Z" fill="#111111"/>
<path opacity="0.24" d="M205.271 56.118C205.348 57.0418 204.659 57.8479 203.736 57.9244C202.982 57.9832 202.317 57.5478 202.059 56.8829C202.465 57.0653 204.089 57.6596 205.054 55.4413C205.171 55.6355 205.248 55.8649 205.271 56.118Z" fill="#FFDE59"/>
<path opacity="0.24" d="M203.589 54.5766C204.189 54.7943 204.637 55.3415 204.69 56.0123C204.766 56.9361 204.078 57.7422 203.154 57.8187C203.113 57.8246 203.071 57.8187 203.03 57.8187C203.248 57.9011 203.489 57.9364 203.736 57.9188C204.66 57.8423 205.349 57.0361 205.272 56.1123C205.202 55.2297 204.46 54.5707 203.589 54.5766Z" fill="#FFDE59"/>
<path opacity="0.35" d="M202.753 55.1114C202.747 55.1114 202.741 55.1114 202.735 55.1114C202.924 54.9055 203.13 54.7231 203.341 54.5995C202.482 54.7289 201.859 55.5115 201.929 56.3824C201.941 56.5295 201.965 56.6648 202.029 56.8002C202.059 56.4 202.165 56.0764 202.294 55.7881C202.312 55.8763 202.359 55.9469 202.424 55.9705C202.565 56.0234 202.753 55.8763 202.841 55.6351C202.935 55.4056 202.894 55.1702 202.753 55.1114Z" fill="#FFDE59"/>
<path opacity="0.35" d="M203.704 55.5261C203.764 55.368 203.736 55.211 203.642 55.1754C203.547 55.1399 203.423 55.2392 203.363 55.3973C203.303 55.5554 203.331 55.7124 203.426 55.748C203.52 55.7836 203.645 55.6842 203.704 55.5261Z" fill="#FFDE59"/>
<path d="M201.924 55.3314C202 56.2552 201.312 57.0613 200.388 57.1378C199.635 57.1966 198.97 56.7612 198.711 56.0963C198.699 56.0728 198.688 56.0551 198.682 56.0198C198.611 55.8903 198.593 55.755 198.582 55.602C198.511 54.7253 199.135 53.9427 199.994 53.8191C200.041 53.8015 200.07 53.8015 200.117 53.7956C200.788 53.7426 201.4 54.0898 201.706 54.6488C201.824 54.843 201.9 55.0783 201.924 55.3314Z" fill="#111111"/>
<path opacity="0.24" d="M201.925 55.3317C202.001 56.2555 201.313 57.0616 200.389 57.1381C199.636 57.197 198.971 56.7616 198.712 56.0966C199.118 56.2791 200.742 56.8734 201.707 54.655C201.825 54.8433 201.901 55.0787 201.925 55.3317Z" fill="#FFDE59"/>
<path opacity="0.24" d="M200.236 53.7903C200.836 54.008 201.283 54.5553 201.336 55.2261C201.413 56.1499 200.724 56.956 199.8 57.0325C199.759 57.0384 199.718 57.0325 199.677 57.0325C199.894 57.1149 200.136 57.1502 200.383 57.1325C201.307 57.056 201.995 56.2499 201.919 55.3261C201.854 54.4435 201.107 53.7844 200.236 53.7903Z" fill="#FFDE59"/>
<path opacity="0.35" d="M199.4 54.3253C199.394 54.3253 199.388 54.3253 199.382 54.3253C199.57 54.1193 199.776 53.9369 199.988 53.8134C199.129 53.9428 198.505 54.7254 198.576 55.5962C198.588 55.7434 198.611 55.8787 198.676 56.014C198.705 55.6139 198.811 55.2903 198.941 55.0019C198.958 55.0902 199.005 55.1608 199.07 55.1844C199.211 55.2373 199.4 55.0902 199.488 54.849C199.588 54.6136 199.541 54.3782 199.4 54.3253Z" fill="#FFDE59"/>
<path opacity="0.35" d="M200.347 54.7421C200.406 54.584 200.378 54.427 200.284 54.3914C200.19 54.3558 200.065 54.4552 200.005 54.6133C199.946 54.7714 199.974 54.9284 200.068 54.9639C200.162 54.9995 200.287 54.9002 200.347 54.7421Z" fill="#FFDE59"/>
<path d="M201.081 82.6249C201.245 84.6372 200.08 86.3554 198.486 86.4849C197.95 86.5261 197.438 86.3848 196.991 86.1024C196.615 85.867 196.285 85.5552 196.008 85.1492C195.985 85.1256 195.973 85.108 195.956 85.0844C195.602 84.5313 195.361 83.8488 195.302 83.0897C195.167 81.4304 195.944 79.9594 197.109 79.4298C197.121 79.4298 197.132 79.418 197.144 79.418C197.374 79.318 197.632 79.2533 197.897 79.2297C199.009 79.1415 200.045 79.8593 200.628 80.9773C200.875 81.4598 201.034 82.0188 201.081 82.6249Z" fill="#080808"/>
<path opacity="0.24" d="M201.081 82.6246C201.245 84.637 200.08 86.3551 198.486 86.4846C197.95 86.5258 197.438 86.3846 196.991 86.1021C197.762 86.0256 198.315 85.3431 198.621 84.4487C198.921 83.6131 199.009 82.5952 198.88 81.6949C198.692 80.3357 197.78 79.7237 197.115 79.4354C197.356 79.3236 197.627 79.2589 197.897 79.2353C199.009 79.1471 200.045 79.8649 200.628 80.9829C200.875 81.4595 201.034 82.0185 201.081 82.6246Z" fill="#FFDE59"/>
<path opacity="0.24" d="M201.081 82.6242C201.246 84.6366 200.081 86.3548 198.486 86.4842C197.951 86.5254 197.439 86.3842 196.992 86.1018C196.592 85.8605 196.244 85.5075 195.962 85.0897C196.733 85.1074 197.739 84.9779 198.622 84.4483C199.581 83.8893 200.404 82.8478 200.628 80.9767C200.875 81.4592 201.034 82.0182 201.081 82.6242Z" fill="#FFDE59"/>
<path opacity="0.21" d="M196.014 85.1484C195.991 85.1249 195.979 85.1072 195.961 85.0837C195.608 84.5306 195.367 83.848 195.308 83.0889C195.173 81.4296 195.95 79.9586 197.115 79.429C197.126 79.429 197.138 79.4172 197.15 79.4172C196.685 79.8997 195.32 81.5885 196.014 85.1484Z" fill="#FFDE59"/>
<path opacity="0.44" d="M196.42 83.7288C196.834 83.6952 197.13 83.169 197.08 82.5536C197.03 81.9382 196.654 81.4666 196.239 81.5002C195.824 81.5338 195.529 82.0599 195.579 82.6753C195.629 83.2907 196.005 83.7624 196.42 83.7288Z" fill="#FFDE59"/>
<path opacity="0.44" d="M197.644 81.8768C197.81 81.8634 197.924 81.6136 197.9 81.3188C197.876 81.0241 197.723 80.796 197.558 80.8094C197.393 80.8228 197.278 81.0726 197.302 81.3673C197.326 81.6621 197.479 81.8901 197.644 81.8768Z" fill="#FFDE59"/>
<path opacity="0.21" d="M217.163 184.05C217.616 184.503 223.3 188.593 223.3 188.593L224.665 204.062L244.442 205.739L245.684 191.129L254.457 188.593C254.457 188.593 253.433 178.819 247.861 176.318C242.288 173.818 241.47 183.126 241.47 183.126L229.555 182.344C229.555 182.344 229.738 173.635 224.965 174.541C220.188 175.453 217.163 184.05 217.163 184.05Z" fill="#FFDE59"/>
<path d="M251.356 185.863L243.018 188.282L242.583 188.405L241.341 203.01L221.571 201.333L221.123 196.302L220.2 185.863C220.2 185.863 216.263 183.033 214.692 181.839C214.363 181.574 214.145 181.403 214.062 181.327C214.062 181.327 217.087 172.724 221.865 171.824C226.631 170.912 226.449 179.626 226.449 179.626L238.37 180.403C238.37 180.403 239.029 172.865 243.23 173.183C243.689 173.218 244.201 173.342 244.76 173.595C250.332 176.102 251.356 185.863 251.356 185.863Z" fill="#0E0E0E"/>
<path opacity="0.12" d="M247.173 182.044C247.367 179.502 245.031 175.601 243.236 173.183C243.695 173.218 244.207 173.341 244.766 173.595C250.333 176.101 251.356 185.869 251.356 185.869L243.019 188.287C243.019 188.281 246.873 185.739 247.173 182.044Z" fill="#FFDE59"/>
<path opacity="0.12" d="M242.582 188.41L241.341 203.009L221.57 201.332L221.123 196.301C232.515 200.531 242.582 188.41 242.582 188.41Z" fill="#FFDE59"/>
<path opacity="0.12" d="M221.13 178.944L220.206 185.869C220.206 185.869 216.269 183.039 214.698 181.845C219.659 182.945 221.13 178.944 221.13 178.944Z" fill="#FFDE59"/>
<path d="M147.865 77.6706C147.706 77.6118 147.536 77.6235 147.377 77.6824C146.912 77.7942 146.488 78.1825 146.488 78.1825C143.487 70.3919 135.803 69.7388 135.803 69.7388C129.059 69.1092 124.523 77.9648 124.523 77.9648C124.511 77.9177 124.476 77.8824 124.429 77.853C124.164 77.6824 123.422 77.6118 123.422 77.6118C122.587 67.9735 128.342 64.9255 132.672 64.0017C135.202 63.4545 137.256 63.6252 137.256 63.6252C140.222 63.7487 142.363 64.649 143.917 65.9435C148.765 69.9388 147.865 77.6706 147.865 77.6706Z" fill="#201F23"/>
<path opacity="0.21" d="M127.788 72.2287C127.788 72.2287 127.512 73.435 127.082 72.8465C126.659 72.264 125.5 73.3938 125.064 74.7883C124.811 75.565 124.564 76.8536 124.423 77.8539C124.158 77.6833 123.417 77.6127 123.417 77.6127C122.581 67.9745 128.336 64.9265 132.666 64.0027C129.86 65.2031 126.806 67.0624 125.741 70.2987C124.164 75.0884 125.753 71.1225 126.8 71.6462C127.459 71.9816 127.024 72.264 127.788 72.2287Z" fill="#FFDE59"/>
<path opacity="0.21" d="M147.865 77.6713C147.706 77.6124 147.536 77.6242 147.377 77.6831C147.365 77.1241 147.283 76.5062 147.083 76.0178C146.582 74.8175 145.918 74.8175 145.335 74.2408C144.753 73.6583 144.388 72.9993 145.37 73.5465C146.365 74.0937 146.43 73.9819 146.171 71.4341C146 69.7807 144.811 67.4858 143.923 65.9501C148.765 69.9395 147.865 77.6713 147.865 77.6713Z" fill="#FFDE59"/>
<path opacity="0.38" d="M129.33 87.1445C130.571 87.1445 131.578 86.1382 131.578 84.8968C131.578 83.6554 130.571 82.649 129.33 82.649C128.088 82.649 127.082 83.6554 127.082 84.8968C127.082 86.1382 128.088 87.1445 129.33 87.1445Z" fill="#FF7E7B"/>
<path opacity="0.38" d="M141.876 87.1445C143.117 87.1445 144.123 86.1382 144.123 84.8968C144.123 83.6554 143.117 82.649 141.876 82.649C140.634 82.649 139.628 83.6554 139.628 84.8968C139.628 86.1382 140.634 87.1445 141.876 87.1445Z" fill="#FF7E7B"/>
<path d="M124.235 77.4733C124.235 77.485 124.677 81.8334 125.365 83.1103C126.054 84.3871 131.202 85.0638 132.344 83.934C133.144 83.1397 133.562 82.0099 134.344 81.2921C135.003 80.686 136.015 80.686 136.669 81.2921C137.445 82.0099 137.863 83.1397 138.669 83.934C139.811 85.0697 144.959 84.3871 145.648 83.1103C146.336 81.8334 146.777 77.4909 146.777 77.4733C146.766 75.9316 124.241 75.9316 124.235 77.4733Z" fill="#0E0E0E"/>
<path d="M146.165 77.7214C146.165 77.7214 146.153 77.9626 146.118 78.3274C146.071 78.9453 145.971 79.9456 145.812 80.8459C145.812 80.8576 145.812 80.8576 145.812 80.8576C145.688 81.6108 145.518 82.3051 145.288 82.6582C144.641 83.682 139.769 84.241 138.686 83.3172C138.421 83.0877 138.174 82.7935 137.945 82.464C137.604 82.0168 137.298 81.5167 136.95 81.1401C136.839 81.0047 136.721 80.887 136.609 80.7988C135.979 80.3104 135.026 80.3104 134.397 80.7988C133.667 81.3931 132.996 82.6817 132.243 83.3172C131.16 84.241 126.288 83.682 125.641 82.6582C124.982 81.6226 124.841 77.7331 124.841 77.7214C124.841 77.3213 127.065 77.0388 130.066 76.8976C130.078 76.8976 130.078 76.8976 130.078 76.8976C131.255 76.8388 132.543 76.7976 133.867 76.7858C134.938 76.774 136.032 76.774 137.109 76.7858C137.945 76.7976 138.763 76.8093 139.551 76.8446C140.804 76.8799 141.981 76.9447 142.976 77.0271C144.553 77.1506 145.688 77.333 146.053 77.5625C146.118 77.6037 146.165 77.6625 146.165 77.7214Z" fill="#FFDE59"/>
<path opacity="0.24" d="M137.098 76.7858L131.579 79.875C131.579 79.875 134.657 77.7096 133.862 76.7858C134.927 76.774 136.022 76.774 137.098 76.7858Z" fill="#BBD7FF"/>
<path opacity="0.24" d="M142.96 77.0204C141.295 78.0384 138.612 79.7565 136.946 81.1393C136.835 81.004 136.717 80.8863 136.605 80.798C135.976 80.3096 135.022 80.3096 134.393 80.798C133.663 81.3923 132.992 82.6809 132.239 83.3164C131.156 84.2402 126.284 83.6812 125.637 82.6574C124.978 81.6218 124.837 77.7324 124.837 77.7206C124.837 77.3205 127.061 77.0381 130.062 76.8968C129.391 77.1616 128.762 77.5676 128.409 78.1855C127.314 80.1037 127.244 81.916 128.409 81.1864C129.574 80.4567 130.439 80.2979 130.35 80.4097C130.268 80.5332 127.967 82.6456 129.332 82.5338C130.356 82.4515 136.493 78.7268 139.541 76.8439C140.795 76.8733 141.966 76.9439 142.96 77.0204Z" fill="#BBD7FF"/>
<path opacity="0.24" d="M141.877 82.6446C143.371 82.268 144.831 82.3916 145.813 80.8558C145.69 81.609 145.519 82.3033 145.29 82.6564C144.642 83.6802 139.77 84.2392 138.688 83.3154C138.423 83.0859 138.176 82.7917 137.946 82.4622C140.559 81.2618 144.531 78.7669 146.043 77.5548C146.125 77.6019 146.166 77.6548 146.166 77.7137C146.166 77.7137 146.155 77.9549 146.119 78.3197C144.172 79.932 140.612 82.9623 141.877 82.6446Z" fill="#BBD7FF"/>
<path d="M135.514 90.3402C135.982 90.3402 136.362 89.6526 136.362 88.8044C136.362 87.9563 135.982 87.2687 135.514 87.2687C135.046 87.2687 134.667 87.9563 134.667 88.8044C134.667 89.6526 135.046 90.3402 135.514 90.3402Z" fill="#FF7E7B"/>
<path d="M127.097 106.266C127.097 106.266 124.984 102.953 124.914 102.553C124.843 102.153 123.637 99.4224 124.26 99.0575C124.878 98.6927 125.355 99.3106 126.008 101.023C126.661 102.735 127.097 106.266 127.097 106.266Z" fill="#F2807E"/>
<path d="M133.562 98.6685L132.355 100.275L131.991 103.158C131.991 103.158 133.791 106.341 132.72 108.371C132.72 108.371 122.623 128.342 121.676 129.225C121.311 129.566 120.022 130.319 118.563 130.99C116.268 132.049 113.544 132.92 113.226 131.673C112.961 130.602 112.95 128.295 113.214 126.106C113.444 124.147 113.885 122.264 114.538 121.405C115.927 119.581 127.066 106.918 127.066 106.918C127.066 106.918 125.106 103.758 125.253 101.216C125.389 98.6627 126.118 95.8795 126.118 95.8795C126.118 95.8795 129.001 91.943 130.102 92.2313C130.184 92.2548 130.249 92.3019 130.284 92.3549C130.549 92.6961 130.102 93.6082 129.107 94.5438C128.195 95.397 127.866 96.8503 127.866 96.8503L127.477 99.2099L127.466 99.2687L127.601 99.4041C127.613 99.4158 127.613 99.4158 127.613 99.4158L129.107 96.6562C129.107 96.6562 132.355 93.6552 133.191 93.7494C133.25 93.7612 133.291 93.7847 133.326 93.82C133.762 94.3084 133.085 95.1204 132.791 95.4852C132.744 95.5558 132.697 95.597 132.679 95.6323C132.679 95.6323 134.103 94.6614 134.344 95.3911C134.538 95.9736 133.65 96.7915 133.297 97.0916C133.25 97.1387 133.203 97.1622 133.185 97.1799C133.197 97.1799 133.209 97.1681 133.232 97.1681L133.244 97.1563C133.497 97.0327 134.327 96.6797 134.521 97.1916C134.756 97.7977 133.562 98.6685 133.562 98.6685Z" fill="#FFB6AE"/>
<path opacity="0.38" d="M129.102 94.5503C128.19 95.4035 127.86 96.8568 127.86 96.8568L127.472 99.2164C127.372 99.0693 127.242 98.8398 127.207 98.6221C127.136 98.222 127.642 95.5976 127.642 95.5976C127.642 95.5976 128.666 94.3973 129.355 93.7382C129.731 93.397 130.061 92.8262 130.278 92.3555C130.537 92.7026 130.09 93.6147 129.102 94.5503Z" fill="#FF7E7B"/>
<path opacity="0.38" d="M132.785 95.485C132.685 95.485 132.032 96.2146 132.032 96.2146L130.349 97.9504L129.143 100.216L130.143 97.8445C130.149 97.8269 130.155 97.821 130.172 97.8033C130.372 97.6033 132.608 95.3438 132.873 95.0496C133.103 94.7965 133.456 94.0963 133.191 93.7433C133.25 93.7551 133.291 93.7786 133.326 93.8139C133.756 94.3082 133.079 95.1202 132.785 95.485Z" fill="#FF7E7B"/>
<path opacity="0.38" d="M133.287 97.091L133.228 97.1616L133.216 97.1734L132.451 97.9501L131.333 99.5035L130.345 101.027L131.08 99.3682L132.116 97.8971C132.116 97.8971 133.346 96.7085 133.828 96.2201C134.081 95.9554 134.24 95.6376 134.328 95.3964C134.534 95.973 133.64 96.7968 133.287 97.091Z" fill="#FF7E7B"/>
<path opacity="0.38" d="M118.71 129.931C118.71 130.296 118.663 130.661 118.563 130.99C116.268 132.049 113.544 132.92 113.226 131.673C112.961 130.602 112.95 128.295 113.214 126.106C113.661 125.936 114.138 125.841 114.638 125.841C116.886 125.847 118.71 127.677 118.71 129.931Z" fill="#FF7E7B"/>
<path d="M132.597 95.6217L130.278 98.0813L129.143 100.217" stroke="#FF7E7B" stroke-width="0.323334" stroke-miterlimit="10" stroke-linecap="round" stroke-linejoin="round"/>
<path d="M133.172 97.1848L131.954 98.6382L130.348 101.021" stroke="#FF7E7B" stroke-width="0.323334" stroke-miterlimit="10" stroke-linecap="round" stroke-linejoin="round"/>
<path d="M142.679 105.883C142.679 105.883 144.791 102.571 144.862 102.171C144.932 101.77 146.139 99.0402 145.515 98.6753C144.897 98.3105 144.42 98.9284 143.767 100.641C143.12 102.353 142.679 105.883 142.679 105.883Z" fill="#F2807E"/>
<path d="M136.219 98.2866L137.425 99.8929L137.79 102.776C137.79 102.776 135.989 105.96 137.06 107.99C137.06 107.99 147.157 127.96 148.105 128.843C148.469 129.184 149.758 129.937 151.217 130.608C153.512 131.667 156.237 132.538 156.554 131.291C156.819 130.22 156.831 127.913 156.566 125.724C156.337 123.765 155.895 121.882 155.242 121.023C153.853 119.199 142.715 106.536 142.715 106.536C142.715 106.536 144.674 103.376 144.527 100.834C144.392 98.2807 143.662 95.4975 143.662 95.4975C143.662 95.4975 140.779 91.561 139.679 91.8493C139.596 91.8729 139.531 91.9199 139.496 91.9729C139.231 92.3142 139.679 93.2262 140.673 94.1618C141.585 95.015 141.915 96.4684 141.915 96.4684L142.303 98.8279L142.315 98.8868L142.179 99.0221C142.168 99.0339 142.168 99.0339 142.168 99.0339L140.673 96.2742C140.673 96.2742 137.425 93.2733 136.589 93.3674C136.531 93.3792 136.489 93.4027 136.454 93.4381C136.019 93.9264 136.695 94.7384 136.99 95.1033C137.037 95.1739 137.084 95.2151 137.101 95.2504C137.101 95.2504 135.677 94.2795 135.436 95.0091C135.242 95.5916 136.13 96.4095 136.483 96.7096C136.531 96.7567 136.578 96.7802 136.595 96.7979C136.584 96.7979 136.572 96.7861 136.548 96.7861L136.536 96.7744C136.283 96.6508 135.454 96.2977 135.26 96.8097C135.018 97.4157 136.219 98.2866 136.219 98.2866Z" fill="#FFB6AE"/>
<path opacity="0.38" d="M140.679 94.1683C141.591 95.0215 141.921 96.4749 141.921 96.4749L142.309 98.8344C142.409 98.6873 142.539 98.4578 142.574 98.2401C142.645 97.84 142.139 95.2157 142.139 95.2157C142.139 95.2157 141.115 94.0153 140.426 93.3563C140.05 93.015 139.72 92.4442 139.502 91.9735C139.244 92.3207 139.685 93.2327 140.679 94.1683Z" fill="#FF7E7B"/>
<path opacity="0.38" d="M136.996 95.1028C137.096 95.1028 137.75 95.8324 137.75 95.8324L139.432 97.5682L140.639 99.8336L139.638 97.4623C139.633 97.4447 139.627 97.4388 139.609 97.4211C139.409 97.2211 137.173 94.9616 136.908 94.6674C136.679 94.4143 136.326 93.7141 136.59 93.3611C136.532 93.3729 136.49 93.3964 136.455 93.4317C136.026 93.926 136.696 94.738 136.996 95.1028Z" fill="#FF7E7B"/>
<path opacity="0.38" d="M136.496 96.7092L136.555 96.7798L136.567 96.7915L137.331 97.5682L138.449 99.1217L139.438 100.646L138.702 98.9863L137.667 97.5153C137.667 97.5153 136.437 96.3267 135.955 95.8383C135.702 95.5735 135.543 95.2558 135.454 95.0145C135.248 95.5912 136.137 96.415 136.496 96.7092Z" fill="#FF7E7B"/>
<path opacity="0.38" d="M151.07 129.549C151.07 129.914 151.117 130.279 151.217 130.608C153.512 131.667 156.237 132.538 156.554 131.291C156.819 130.22 156.831 127.913 156.566 125.725C156.119 125.554 155.642 125.46 155.142 125.46C152.894 125.466 151.07 127.296 151.07 129.549Z" fill="#FF7E7B"/>
<path d="M137.184 95.24L139.502 97.6996L140.638 99.8355" stroke="#FF7E7B" stroke-width="0.323334" stroke-miterlimit="10" stroke-linecap="round" stroke-linejoin="round"/>
<path d="M136.607 96.803L137.825 98.2564L139.432 100.639" stroke="#FF7E7B" stroke-width="0.323334" stroke-miterlimit="10" stroke-linecap="round" stroke-linejoin="round"/>
<path opacity="0.35" d="M59.1782 194.59C60.5433 195.613 80.0492 217.132 131.435 212.007V292.131C131.435 292.131 126.869 299.951 124.604 300.128C112.612 301.057 76.707 298.904 59.1782 277.927L52.3467 198.344L59.1782 194.59Z" fill="#FFDE59"/>
<path d="M124.605 215.771V300.127C124.605 300.127 77.4141 306.081 55.1367 284.669C54.1541 283.722 53.2303 282.727 52.3535 281.68V198.343C53.7128 199.366 73.2304 220.891 124.605 215.771Z" fill="#FFFDF7"/>
<path opacity="0.21" d="M107.335 242.533C107.005 251.965 106.399 263.828 106.523 268.641C106.57 270.706 106.764 272.689 106.911 274.513C107.358 279.909 107.529 283.799 103.169 283.504C101.239 283.369 95.6726 283.663 88.8881 284.04C77.1846 284.681 61.8446 285.511 55.1367 284.669C54.1541 283.722 53.2303 282.728 52.3535 281.68V265.163C55.831 262.827 61.3739 262.004 66.5108 261.421C70.8768 260.933 74.9427 260.597 77.1787 259.656C77.3729 259.574 77.5553 259.45 77.7377 259.291C82.2332 255.402 80.1208 229.576 80.1208 229.576H107.258C107.641 230.588 107.564 235.972 107.335 242.533Z" fill="#FFDE59"/>
<path d="M104.333 249.111C104.004 258.543 103.398 270.406 103.521 275.219C103.569 277.284 103.763 279.267 103.91 281.091C104.357 286.487 104.528 290.377 100.167 290.082C98.2375 289.947 92.6711 290.241 85.8867 290.618C72.8945 291.324 55.3951 292.283 50.2405 290.894C49.9463 290.824 49.6933 290.735 49.4756 290.641C46.969 289.523 45.2214 287.14 44.5565 284.334C44.5212 284.198 44.4859 284.057 44.4623 283.922C43.7209 280.297 44.7271 276.031 48.034 272.801C51.282 269.629 57.6604 268.658 63.5034 267.999C67.8694 267.511 71.9354 267.175 74.1713 266.234C74.3655 266.152 74.5479 266.028 74.7303 265.869C79.2258 261.98 77.1134 236.154 77.1134 236.154H104.251C104.639 237.172 104.563 242.556 104.333 249.111Z" fill="#0E0E0E"/>
<path opacity="0.24" d="M103.91 281.097C104.358 286.493 104.528 290.382 100.168 290.088C94.5429 289.688 58.0907 293.006 50.2412 290.9C58.3378 267.605 81.5507 276.707 91.8892 264.757C99.2796 256.225 101.757 243.344 102.728 236.16H104.258C105.217 238.637 103.31 267.063 103.528 275.231C103.569 277.29 103.763 279.273 103.91 281.097Z" fill="#FFDE59"/>
<path opacity="0.11" d="M103.911 281.097C104.358 286.493 104.529 290.382 100.169 290.088C98.2385 289.953 92.6721 290.247 85.8877 290.624C92.6839 285.169 94.455 273.06 90.6303 257.302C88.0178 246.593 87.8471 239.896 88.0766 236.154H104.252C105.211 238.631 103.305 267.058 103.522 275.225C103.57 277.29 103.764 279.273 103.911 281.097Z" fill="#FFDE59"/>
<path opacity="0.32" d="M81.1083 236.154C80.8435 243.103 79.4784 267.27 74.1709 266.234C79.396 264.033 77.113 236.154 77.113 236.154H81.1083Z" fill="#FFFDF7"/>
<path opacity="0.12" d="M103.91 281.098C104.357 286.493 104.528 290.383 100.167 290.089C98.2375 289.953 92.6711 290.248 85.8867 290.624C72.8945 291.33 55.3951 292.289 50.2405 290.901C49.9463 290.83 49.6933 290.742 49.4756 290.648C46.969 289.53 45.2214 287.147 44.5565 284.34C44.5212 284.205 44.4859 284.063 44.4623 283.928C43.7209 280.303 44.7271 276.037 48.034 272.807C51.282 269.635 57.6604 268.665 63.5034 268.006C67.8694 267.517 71.9354 267.182 74.1713 266.24C74.3655 266.158 74.5479 266.034 74.7303 265.875C89.8232 272.801 99.2437 260.027 104.333 249.117C104.004 258.55 103.398 270.412 103.521 275.225C103.569 277.291 103.763 279.274 103.91 281.098Z" fill="#FFDE59"/>
</svg>
