<?xml version="1.0" encoding="UTF-8"?><svg version="1.1" xmlns="http://www.w3.org/2000/svg" xmlns:xlink="http://www.w3.org/1999/xlink" viewBox="0 0 1500 1500" width="1500" height="1500" x="0px" y="0px">
    
    
    <!-- ITEM 0 -->
    <g>
        <defs>
            <clipPath id="clip-path-id-viewbox-item-0">
                <rect x="0.0" y="0.0" width="724.1" height="611.3"/>
            </clipPath>
        </defs>
        <g transform="translate(47.0 232.0) rotate(0.0 626.5 528.5) scale(1.730423974589145 1.729101913953869)">
            <g clip-path="url(#clip-path-id-viewbox-item-0)" transform="translate(-0.0 -0.0)">
                

<path d="M514.6,61.7c-77.7-84.8-227.2-74.6-301.8-15.6c-81.1,64.2-31.2,128.3-175.2,322.7  c-69.4,93.7-52.8,231,135.3,237.7c196,6.9,527,38.1,549.9-218.6C738.4,212.7,610,165.8,514.6,61.7z" style="fill:#FECE2F;"/>

            </g>
        </g>
    </g>
    
    <!-- ITEM 1 -->
    <g>
        <defs>
            <clipPath id="clip-path-id-viewbox-item-1">
                <rect x="0.0" y="0.0" width="403.406" height="526.39"/>
            </clipPath>
        </defs>
        <g transform="translate(147.0 280.0) rotate(0.0 350.5 457.5) scale(1.737703455079994 1.7382549060582457)">
            <g clip-path="url(#clip-path-id-viewbox-item-1)" transform="translate(-0.0 -0.0)">
                <title>hourglass</title><g id="Layer_2-i2" data-name="Layer 2"><g id="hourglass-i2"><path d="M162.033,212.224a45.917,45.917,0,0,0,20.319-15.779c8.646-11.889,15.347-17.423,20.1-16.861,12.538,1.47,27.02,39.514,38.909,40.638L204.4,266.956Z" style="fill:#1a1a1a"/><path d="M206.043,267.474,386.362,37.092a1.293,1.293,0,0,0-2.032-1.6L204.357,265.356,24.426,35.493a1.293,1.293,0,0,0-2.032,1.6l180.32,230.382L22.394,497.856a1.28,1.28,0,1,0,2.032,1.557L204.357,269.55l179.93,229.863a1.28,1.28,0,1,0,2.032-1.557Z" style="fill:#fff"/><path d="M77.082,490.334s3.243-7.738,12.754-14.4,19.022-16.6,23.129-26.285,16-34.283,27.668-44.226,23.777-19.887,29.181-32.9,25.075-50.582,34.37-50.322,5.4,14.4,14.266,18.806,15.78,16.86,20.535,27.625,14.7,32.64,25.291,35.925,19.67,18.244,27.668,35.926,24.426,21.01,38.476,50.019Z" style="fill:#1a1a1a"/><path d="M204.14,282.822a.721.721,0,0,1-.3-.044c-.087-.043-.173-.043-.26-.129a.908.908,0,0,1-.259-.173c-.086-.087-.173-.13-.216-.216a2.117,2.117,0,0,1-.432-1.384,2.491,2.491,0,0,1,.432-1.383c.086-.087.13-.173.216-.26a.9.9,0,0,1,.259-.172l.26-.13a1.435,1.435,0,0,1,.605,0c.086.043.216.086.3.13s.173.129.259.172a1.127,1.127,0,0,1,.216.26,2.115,2.115,0,0,1,.433,1.383,2.5,2.5,0,0,1-.433,1.384c-.086.086-.129.173-.216.216a.908.908,0,0,1-.259.173,2.132,2.132,0,0,1-.3.129A.631.631,0,0,1,204.14,282.822Z" style="fill:#1a1a1a"/><path d="M204.14,299.509a1.488,1.488,0,0,1-1.3-1.643v-2.377a1.333,1.333,0,1,1,2.594,0v2.377A1.488,1.488,0,0,1,204.14,299.509Z" style="fill:#1a1a1a"/><path d="M204.14,314.424a1.488,1.488,0,0,1-1.3-1.643v-5.533a1.333,1.333,0,1,1,2.594,0v5.533A1.488,1.488,0,0,1,204.14,314.424Z" style="fill:#1a1a1a"/><path d="M401.1,513.25v11.67a1.453,1.453,0,0,1-1.47,1.47H1.47A1.46,1.46,0,0,1,0,524.92V513.25a24.608,24.608,0,0,1,24.6-24.6H376.42a24.682,24.682,0,0,1,24.68,24.6Z" style="fill:#1a1a1a"/><path d="M259.18,526.39H253.9c-16.75-8.15-43.58-16.55-81.1-14.7-42.65,2.13-67.81,9.49-80.61,14.7H86.46a1.326,1.326,0,0,1,.65-.65c11.29-5.19,37.44-14.27,85.56-16.64,40.89-1.99,69.34,8.04,85.99,16.81A1.271,1.271,0,0,1,259.18,526.39Z" style="fill:#fece2f"/><path d="M400.29,507.06c-9.73,5.23-19.86,10.54-31.22,13.19a63.806,63.806,0,0,1-14.44,1.69,67.375,67.375,0,0,1-25.51-5.23c-27.66-11.16-38.34-13.58-71.37-16.04-11.15-.81-19.02-4.87-23.41-12.02a1.629,1.629,0,0,1-.11-.17H173.14v.17a2.3,2.3,0,0,0,.44,1.42c1.81,2.51,8.94,3.33,18.02,4.37,11.72,1.34,27.8,3.2,43.71,9.94,14.05,5.97,29.53,7.79,43.15,9.34,17.07,1.99,30.56,3.55,34.88,12.45a.975.975,0,0,1,.08.22H310.5c-4.27-6.82-16.72-8.29-32.35-10.07-13.79-1.6-29.48-3.38-43.88-9.51-15.56-6.62-31.43-8.43-43.01-9.78-10.46-1.16-17.38-1.98-19.85-5.4a4.871,4.871,0,0,1-.91-2.98.57.57,0,0,0,.01-.13H149.84c-.01.04-.03.09-.04.13-4.13,12.76-26.77,20.07-67.23,21.7-5.79.22-11.93.35-18.37.35-18.33,0-39.13-.91-61.17-2.77a1.279,1.279,0,1,1,.21-2.55c29.75,2.46,57.11,3.33,79.25,2.42,37.85-1.56,60.1-8.13,64.54-19.15a.355.355,0,0,0,.04-.09H80.32a1.3,1.3,0,0,1,0-2.59H330.98a1.3,1.3,0,1,1,0,2.59H237.26a.55.55,0,0,0,.07.09q6.165,8.43,20.55,9.55c33.37,2.51,44.18,4.93,72.15,16.21,29.03,11.75,49.59.85,69.48-9.78A24.577,24.577,0,0,1,400.29,507.06Z" style="fill:#fece2f"/><path d="M353.51,497.34c-13.71,0-21.19,3.28-21.19,4.97s7.48,4.97,21.19,4.97,21.18-3.28,21.18-4.97S367.21,497.34,353.51,497.34Zm0-2.6c-11.85,0-23.78,2.6-23.78,7.57s11.97,7.56,23.78,7.56,23.77-2.59,23.77-7.56S365.31,494.74,353.51,494.74Z" style="fill:#fece2f"/><path d="M259.52,5.663H219.747a1.47,1.47,0,1,1,0-2.94H259.52a1.47,1.47,0,1,1,0,2.94Z" style="fill:#fece2f"/><path d="M357.873,49.024a1.471,1.471,0,0,0-1.3-.821H334.311a1.5,1.5,0,0,0-1.253.692L239.893,196.877a1.457,1.457,0,0,0,.389,1.989,1.528,1.528,0,0,0,.822.259,1.589,1.589,0,0,0,1.167-.562L357.7,50.581A1.382,1.382,0,0,0,357.873,49.024Z" style="fill:#fff"/><path d="M121.957,397.516a1.274,1.274,0,0,0-1.729.216L56.5,474.036a1.33,1.33,0,0,0-.173,1.383,1.229,1.229,0,0,0,1.167.735l17.466.13h0a1.359,1.359,0,0,0,1.124-.605l46.258-76.434A1.342,1.342,0,0,0,121.957,397.516Z" style="fill:#fff"/><path d="M305.476,73.277a1.423,1.423,0,0,0-1.3-.735H293.933a1.458,1.458,0,0,0-1.3.779L274.651,107.6a1.559,1.559,0,0,0,0,1.384,1.355,1.355,0,0,0,1.168.735l7.436.605h.129a1.4,1.4,0,0,0,1.254-.735L305.476,74.7A1.408,1.408,0,0,0,305.476,73.277Z" style="fill:#fff"/><path d="M403.4,1.47V13.14a24.5,24.5,0,0,1-1.11,7.31,20.792,20.792,0,0,1-.88,2.36A24.588,24.588,0,0,1,378.8,37.74H26.98A24.611,24.611,0,0,1,3.5,20.48c-.12-.37-.23-.74-.32-1.12a24.548,24.548,0,0,1-.8-6.22V1.47A1.46,1.46,0,0,1,3.85,0H402.01A1.371,1.371,0,0,1,403.4,1.47Z" style="fill:#1a1a1a"/><path d="M313.24,0a.808.808,0,0,1-.07.22c-4.32,8.9-17.81,10.46-34.89,12.45-13.62,1.55-29.09,3.37-43.14,9.33-15.65,6.66-31.52,8.74-43.1,10.29-9.39,1.26-16.78,2.21-18.64,4.85a2.445,2.445,0,0,0-.31.6h-2.71a4.827,4.827,0,0,1,.86-2.16c2.51-3.55,9.64-4.5,20.41-5.92,11.45-1.52,27.1-3.59,42.45-10.08,14.4-6.14,30.09-7.91,43.88-9.51C293.61,8.29,306.05,6.83,310.32,0Z" style="fill:#fece2f"/><path d="M149.29,37.74h-2.84C136.55,17.69,67.37,15.81,4.54,20.88a1.308,1.308,0,0,1-1.04-.4,1.19,1.19,0,0,1-.34-.77,1.348,1.348,0,0,1,.02-.35,1.254,1.254,0,0,1,1.14-1.03c13.4-1.08,48.03-3.42,79.81-1.77C122.63,18.56,144.52,25.67,149.29,37.74Z" style="fill:#fece2f"/><path d="M259.02,0a1.353,1.353,0,0,1-.54.52c-15.21,8-40.2,17.03-75.52,17.03-3.42,0-6.88-.08-10.51-.26-19.89-.99-57.19-4.32-83.65-15.82A1.313,1.313,0,0,1,88.05,0h3.91c25.95,10.6,61.45,13.73,80.62,14.7,37.53,1.85,64.36-6.56,81.1-14.7Z" style="fill:#fece2f"/><path d="M402.29,20.45a20.792,20.792,0,0,1-.88,2.36,1.3,1.3,0,0,1-.52-.16l-1.3-.69C379.62,11.28,359,.22,329.82,12.02c-27.98,11.28-38.78,13.7-72.16,16.21-9.58.72-16.47,3.92-20.57,9.51h-3.05c4.39-7.23,12.28-11.29,23.49-12.15,33.03-2.42,43.71-4.84,71.38-15.99,13.53-5.49,26.58-6.62,39.9-3.55,11.67,2.73,22.05,8.26,32.03,13.62l1.3.69Z" style="fill:#fece2f"/><path d="M353.33,16.51c-11.8,0-23.77,2.6-23.77,7.57s11.97,7.57,23.77,7.57,23.78-2.6,23.78-7.57S365.14,16.51,353.33,16.51Zm0,12.54c-13.7,0-21.18-3.28-21.18-4.97s7.48-4.97,21.18-4.97,21.19,3.28,21.19,4.97S367.04,29.05,353.33,29.05Z" style="fill:#fece2f"/></g></g>
            </g>
        </g>
    </g>
    
    <!-- ITEM 2 -->
    <g>
        <defs>
            <clipPath id="clip-path-id-viewbox-item-2">
                <rect x="0.0" y="0.0" width="34.4" height="42.0"/>
            </clipPath>
        </defs>
        <g transform="translate(186.0 344.0) rotate(0.0 42.0 52.0) scale(2.441860465116279 2.4761904761904763)">
            <g clip-path="url(#clip-path-id-viewbox-item-2)" transform="translate(-0.0 -0.0)">
                

<path d="M2.6,0.1h-1C1,0.1,0.5,0,0,0l32.6,41.6c0.2,0.3,0.5,0.4,0.8,0.4c0.2,0,0.4-0.1,0.6-0.2c0.4-0.3,0.5-1,0.2-1.4  L2.6,0.1z" style="fill:#FCCC2F;"/>

            </g>
        </g>
    </g>
    
    <!-- ITEM 3 -->
    <g>
        <defs>
            <clipPath id="clip-path-id-viewbox-item-3">
                <rect x="0.0" y="0.0" width="491.97" height="369.268"/>
            </clipPath>
        </defs>
        <g transform="translate(581.0 568.0) rotate(0.0 426.5 320.5) scale(1.7338455596885989 1.7358666334477941)">
            <g clip-path="url(#clip-path-id-viewbox-item-3)" transform="translate(-0.0 -0.0)">
                <title>man_sitting_2</title><g id="Layer_2-i3" data-name="Layer 2"><g id="man_sitting_2-i3"><path d="M191.6,207.63s16.375,1.625,24.5,5.625,10.25,5.875,10.25,5.875l16.281-7.438,17.219-105.437s11.812-8.938,10.5-19-7.875-8.25-7.875-8.25a17.353,17.353,0,0,1-15.563,10.937A83.253,83.253,0,0,0,239.6,100.38l-32.625,73.375Z" style="fill:#fece2f"/><path d="M177.79,83.371s3,19.759,10.125,25.509,13.325,11.625,24.694,10.75l17.2-35.125s14.764,11.649,26.635,2.227c6.481-5.144,9.165-17.811,9.165-17.811s6.534-2.25,10.117-7.916c0,0-.083-2.292-8.833-5.73-1.084-6.437-2.25-21.6-5.417-24.1,0,0-14.389,16.768-21,15.5s-.841-6.75-9.629-5.5-5.2,12.332-5.2,12.332,4.833,5.627.52,9.439-7.157,7.753-17.625,4.813c-5.562-1.563-8.125-4.313-8.125-4.313Z" style="fill:#fece2f"/><path d="M159.311,188.421a65.013,65.013,0,0,0-40.333-27c-27.331-5.537-38.212-5.7-45.273-1.265-5.227,9.932-21.075,42.432-17.651,67.432s8.687,33.117,28.591,43.5,51.333-1.5,57.666-4.667,39.5-25,45-27.5S227.589,219.4,227.589,219.4,208.4,208.435,198.43,208.421s-46.785-6.166-46.785-6.166Z" style="fill:#fece2f"/><path d="M65.967,257.254C72.8,247.873,77.25,232.785,77.25,215.8c0-16.774-4.323-31.689-11.024-41.07A101.5,101.5,0,0,0,56.067,219.47C56.5,244.328,65.967,257.254,65.967,257.254Z" style="fill:#fff"/><path d="M265.611,98.767h0a17.1,17.1,0,0,0-13.185,13.618L233.187,215.8l9.944-4.453,17.163-105.485Z" style="fill:#fff"/><path d="M55.851,297.287c13.7-7.047,52.44-22.567,52.44-22.567l-12.364-.994c-27.971-5.491-40.336-19.325-40.941-52.743-.562-33.418,18.719-60.827,18.719-60.827a86.733,86.733,0,0,1,52.224,3.588c24.988,10.073,34.8,13.315,42.195,27.8,1.9-1.643-2.508,7.133-14.007,5.923l-2.724,6.052s30.911,3.416,30.694,2.551,8.949,1.081,8.949,1.081l9.382-22.351,7.868-14.829,4.323-49.716s-18.5-.432-26.155-12.408a69.327,69.327,0,0,1-9.511-23.907s-24.513,1.513-41.2,9.511c-16.731,8-26.8,14.267-42.238,24.513s-30.262,29.4-44.4,47.987-28.662,55.034-32.121,67.009S4.016,279.346,1.638,310.04c0,0-1.729,23.345-.865,27.452C.73,337.492,20.833,315.228,55.851,297.287Z" style="fill:#fff"/><path d="M200.547,158.6a1.216,1.216,0,0,1-.648-.173,15.631,15.631,0,0,1-7.739-13.877,15.58,15.58,0,0,1,16-15.088,1.25,1.25,0,0,1,1.254,1.34,1.292,1.292,0,0,1-1.3,1.254h-.043a13.055,13.055,0,0,0-9.295,3.545,12.858,12.858,0,0,0-4.064,9.079,13.017,13.017,0,0,0,6.442,11.586,1.323,1.323,0,0,1,.475,1.772A1.281,1.281,0,0,1,200.547,158.6Z" style="fill:#fece2f"/><path d="M146.767,122.068a24.337,24.337,0,0,1-24.3-23.042,1.3,1.3,0,0,1,2.594-.173,21.717,21.717,0,0,0,43.4-1.124,21.933,21.933,0,0,0-3.8-12.321,1.307,1.307,0,0,1,2.162-1.47,24.091,24.091,0,0,1,4.28,13.791A24.42,24.42,0,0,1,146.767,122.068Z" style="fill:#fece2f"/><path d="M135.4,167.462a1.274,1.274,0,0,1-1.3-1.3,23.361,23.361,0,0,1,45.7-6.831,1.286,1.286,0,1,1-2.464.735,20.748,20.748,0,0,0-40.595,6.053A1.375,1.375,0,0,1,135.4,167.462Z" style="fill:#fece2f"/><path d="M121.822,163.268a.952.952,0,0,1-.345-.043,1.307,1.307,0,0,1-.908-1.6,15.636,15.636,0,0,0,.562-4.237,15.866,15.866,0,0,0-31.732,0,1.3,1.3,0,1,1-2.594,0,18.46,18.46,0,1,1,36.92,0,18.813,18.813,0,0,1-.649,4.928A1.284,1.284,0,0,1,121.822,163.268Z" style="fill:#fece2f"/><path d="M63.676,278.351a20.79,20.79,0,0,1-8.085-39.946,1.289,1.289,0,0,1,.995,2.378,18.205,18.205,0,1,0,22.221,26.89,1.307,1.307,0,1,1,2.161,1.47A20.906,20.906,0,0,1,63.676,278.351Z" style="fill:#fece2f"/><path d="M36.137,310.127a1.274,1.274,0,0,1-1.167-.735,30.488,30.488,0,0,0-27.323-17.25,27.8,27.8,0,0,0-3.285.173,1.3,1.3,0,1,1-.26-2.594,32.9,32.9,0,0,1,3.589-.173,33.015,33.015,0,0,1,29.657,18.72A1.3,1.3,0,0,1,36.742,310,1.027,1.027,0,0,1,36.137,310.127Z" style="fill:#fece2f"/><path d="M16.726,249.17A29.294,29.294,0,0,1,13.354,249a1.339,1.339,0,0,1-1.167-1.427,1.368,1.368,0,0,1,1.426-1.167c1.038.086,2.075.173,3.113.173a29.831,29.831,0,0,0,16.687-54.558,1.307,1.307,0,0,1,1.47-2.162A32.422,32.422,0,0,1,16.726,249.17Z" style="fill:#fece2f"/><path d="M451.205,331.656l-10.159-1.989-203.406-28.7s3.891-5.145-25.982,23.388S159.521,359.2,159.521,359.2l285.848.951C452.372,354.007,451.94,337.8,451.205,331.656Z" style="fill:#fece2f"/><path d="M225.708,311.856,452.5,336.887l-1.3-5.188L237.64,301.005C235.219,303.253,228.389,309.867,225.708,311.856Z" style="fill:#fff"/><path d="M491.368,300.313c-4.28-2.637-12.322,1.686-24.6,13.229-1.946,1.816-3.805,3.675-5.577,5.49.3-.735.605-1.469.864-2.2,1.9-5.448,2.292-10.635,1-13.532a4.064,4.064,0,0,0-4.583-2.637c-2.594.432-4.539,3.069-5.879,8.041-1-5.361-2.854-9.554-5.4-11.024-1.038-.6-3.113-1.254-5.448.951-6.138,5.75,2.724,24.253,6.442,31.343l-54.256-7.782h-.3l-155.808-22.48a1.311,1.311,0,0,0-1.47,1.081,1.379,1.379,0,0,0,.044.605c-4.54,5.447-12.149,11.5-16.731,16.125-27.5,27.625-54.818,38.866-61.519,41.373h-4.193a1.3,1.3,0,0,0,0,2.594H445.326l26.371.216h0a1.3,1.3,0,0,0,1.254-.908l18.935-59.011A1.186,1.186,0,0,0,491.368,300.313Zm-47.815.13a2.413,2.413,0,0,1,1.6-.822,1.665,1.665,0,0,1,.778.217c3.5,2.031,6.441,14.915,4.064,27.841C444.893,317.865,439.706,304.074,443.553,300.443ZM254.285,345.058c-8.647-1.3-25.594-8.992-26.718-22.135-1.037-12.667,6.744-19.108,9.338-20.881a2.665,2.665,0,0,0,.519.217l165.751,23.907h.3l36.272,5.188c.3,2.853,1.167,15.693-4.453,27.538H285.2C286.1,352.234,276.506,348.43,254.285,345.058Zm190.522,13.834h-6.571c5.1-11.5,4.582-23.259,4.236-27.193l7.35,1.038.389.259C451.119,336.628,453.54,349.727,444.807,358.892Zm8.473-36.66c0-.217.044-.476.044-.692.648-8.949,2.377-17.855,5.576-18.374.13,0,.26-.043.39-.043.518,0,.994.216,1.383,1.124,1.729,3.977-.821,15.823-7.609,22.74C453.107,325.474,453.151,323.831,453.28,322.232Z" style="fill:#1a1a1a"/><path d="M360.937,329.235,371.788,340.3c.865.519,7.566,4.194,18.417.908,8.992-2.723,10.851-6.052,11.24-7.219-1.945-2.076-9.943-10.765-20.837-22.567A82.932,82.932,0,0,1,360.937,329.235Z" style="fill:#fece2f"/><path d="M393.75,323.356l-4.366-4.453L336.339,261.75s-46.993-57.368-65.151-56.5-29.095,7.219-29.095,7.219L185.33,240.134l-32.554,19.887s-20.492,13.575-43.837,14.223c0,0-27.8,11.111-56.547,25.594s-37.611,24.209-37.611,24.209A98.524,98.524,0,0,0,25.242,348.6a34.465,34.465,0,0,0,21.79,15.39c9.77,2.162,24.944,4.713,40.378,4.194a509.086,509.086,0,0,0,52.57-4.237l26.631-7.695,28.446-16.125,63.464-59.7,77.212,57.628,24.686-7.868,11.2,11.716,16.773,2.507,15.305-9.9Z" style="fill:#fece2f"/><path d="M288.265,213.2h0c-6.615-4.972-12.667-8.128-17.034-7.911a82,82,0,0,0-12.494,1.556,16.3,16.3,0,0,0-8.17,2.162,47.976,47.976,0,0,0-8.431,3.5l-56.763,27.669h0a25.7,25.7,0,0,0,20.751-.606c12.365-5.836,33.375-15.736,48.247-22.739a26.532,26.532,0,0,1,30.349,5.533l90.873,93.856,5.706-5.706C381.256,310.559,306.249,227.078,288.265,213.2Z" style="fill:#fff"/><path d="M89.1,282.113a1.287,1.287,0,0,0-.692-.735,1.315,1.315,0,0,0-.994,0l-2.551,1.08a1.337,1.337,0,0,0-.778,1.427c.087.346,6.571,36.747-9.814,45a1.191,1.191,0,0,0-.691,1.211,1.311,1.311,0,0,0,.821,1.167l8.517,3.459a2.246,2.246,0,0,0,.475.086,1.245,1.245,0,0,0,.908-.389c6.009-5.966,9.209-14.31,9.554-24.729C94.284,295.558,89.312,282.675,89.1,282.113Z" style="fill:#1a1a1a"/><path d="M354.193,331.786l-84.821-90.657a17.17,17.17,0,0,0-23.085-1.686c-14.786,11.759-43.837,34.5-72.111,54.688-34.2,24.426-57.152,37.914-68.133,40.162a42.157,42.157,0,0,1-20.406-1.253c5.145-5.837,7.912-13.662,8.214-23.259.476-14.18-4.5-27.063-4.712-27.625a1.3,1.3,0,0,0-2.421.951c.043.13,5.015,12.969,4.539,26.587-.3,9.468-3.112,17.034-8.343,22.481a78.61,78.61,0,0,1-19.152-10.289A115.672,115.672,0,0,1,44.61,304.507a1.289,1.289,0,0,0-1.988,1.642,113.373,113.373,0,0,0,19.584,17.769c12.623,9.035,25.074,13.7,36.487,13.7a39.476,39.476,0,0,0,7.869-.778c25.939-5.274,107.517-68.436,141.367-95.326a14.569,14.569,0,0,1,19.584,1.427L352.334,333.6a1.254,1.254,0,0,0,1.816.044A1.39,1.39,0,0,0,354.193,331.786Z" style="fill:#fff"/><path d="M381.256,310.559s-6.571,16.644-17.811,22.567l-2.983-2.9C360.419,330.273,375.593,320.978,381.256,310.559Z" style="fill:#1a1a1a"/><path d="M468.455,332.261a2.15,2.15,0,0,0-3.718,2.162c2.637,4.453,5.663,9.6,9.078,15.347l1.773-5.49C472.951,339.913,470.573,335.85,468.455,332.261Z" style="fill:#fece2f"/><path d="M477.317,328.068c-1.9-3.07-3.718-5.966-5.361-9.122a2.175,2.175,0,1,0-3.847,2.032c1.729,3.285,3.675,6.4,5.534,9.381,1.383,2.248,2.81,4.539,4.15,6.917l1.772-5.533C478.83,330.489,478.1,329.278,477.317,328.068Z" style="fill:#fece2f"/><ellipse cx="255.601" cy="52.735" rx="3.804" ry="7.349" transform="translate(178.934 302.204) rotate(-84.574)" style="fill:#fff"/><path d="M261.72,49.439a12.508,12.508,0,0,0-5.663-1.772c-4.928-.476-8.819,1.34-9.079,4.236-.129,1.513.735,2.983,2.465,4.064a12.5,12.5,0,0,0,5.663,1.773c.519.043,1.037.086,1.513.086,4.193,0,7.349-1.729,7.566-4.323C264.357,52.033,263.45,50.563,261.72,49.439Zm-6.355,5.75a11.036,11.036,0,0,1-4.5-1.383c-.864-.562-1.34-1.168-1.3-1.643.087-.908,2.032-1.946,5.015-1.946a12.358,12.358,0,0,1,1.254.044c.13,0,.216.043.346.043a2.8,2.8,0,0,0-1.513,2.032c-.087,1.08.691,2.118,2.031,2.939C256.273,55.232,255.841,55.232,255.365,55.189Z" style="fill:#1a1a1a"/><path d="M234.139,51.86l-1.211-4.582a7.862,7.862,0,0,1,.6-.606,1.283,1.283,0,0,0-1.815-1.815c-3.935,3.934-4.021,4.193-4.151,4.539a1.29,1.29,0,0,0,.822,1.643,1.261,1.261,0,0,0,.389.086,1.405,1.405,0,0,0,1.124-.648c.13-.173.475-.519.908-.995l.821,3.07a1.337,1.337,0,0,0,1.254.951.957.957,0,0,0,.346-.043A1.276,1.276,0,0,0,234.139,51.86Z" style="fill:#1a1a1a"/><path d="M430.324,343.545c-8.43-4.107-14.871-6.788-19.368-8.517a34.549,34.549,0,0,0,10.679-2.161c5.4-1.989,9.684-4.972,11.153-7.782a4.056,4.056,0,0,0-.821-5.188c-1.945-1.729-5.231-1.556-9.943.519,3.545-4.15,5.577-8.257,5.144-11.154-.173-1.167-.994-3.2-4.15-3.631-8.646-1.168-17.768,18.805-20.578,25.55C390.9,318.687,310.961,232.093,294.4,216.141c-13.446-12.97-30.479-15.3-49.2-6.744-.346.173-.778.346-1.211.562l17.25-103.195c.346-.345.735-.734,1.21-1.167,2.378-2.248,5.966-5.62,7.868-10.419,2.335-5.966,2.205-10.5-.518-13.92a9.122,9.122,0,0,0-5.188-3.459,41.567,41.567,0,0,0,2.594-7.825,13.582,13.582,0,0,1,2.637-1.772c2.421-1.427,5.447-3.243,7.09-5.837a2.646,2.646,0,0,0,.346-2.248c-.562-1.859-3.07-3.026-5.707-4.236-1.3-.606-3.415-1.557-3.718-2.119a88.63,88.63,0,0,0-4.15-22.523,30.47,30.47,0,0,0,5.4-13.878c.519-5.706-1.383-10.462-5.534-13.791-5.4-4.323-12.883-4.712-21.659-1.21a56.257,56.257,0,0,0-9.813,5.274l-.217.216L223.46,13.9a1.212,1.212,0,0,1-1.772-.3,1.277,1.277,0,0,1,.3-1.816l5.837-4.193A26.592,26.592,0,0,0,213.258,8.8a27.876,27.876,0,0,0-7.393,4.28l-3.5-4.885a1.3,1.3,0,1,0-2.118,1.513l3.631,5.1c-.475.432-.907.864-1.383,1.34l-4.8-.3a1.333,1.333,0,0,0-1.383,1.211,1.306,1.306,0,0,0,1.21,1.383l2.854.173a44.259,44.259,0,0,0-4.5,6.917c-4.151,7.955-5.664,15.52-4.453,22.524a32.584,32.584,0,0,0,6.182,13.7,15.877,15.877,0,0,0,1.124,1.384L177.2,82.209c-2.464.043-13.445.519-29.4,5.447-16.385,5.058-41.2,16.039-66.534,39.427-24.6,22.7-45.134,53.91-59.487,90.355A319.693,319.693,0,0,0,.039,338.573a8,8,0,0,0,2.334,5.534c1.816,1.816,4.5,2.68,7.955,2.68a11.789,11.789,0,0,0,1.21-.043c4.929-.173,7.869-1.513,9.338-2.464,4.5,7.911,9.6,13.488,15.131,16.558,11.457,6.355,30.436,8.43,50.236,8.43,12.926,0,26.2-.865,37.957-2.032a145.451,145.451,0,0,0,43.708-11.284A143.626,143.626,0,0,0,206,331.7c3.588-3.2,7.263-6.528,10.937-9.986,25.723-24.253,38.693-36.574,41.849-39.6l31.6,23.691a.712.712,0,0,0,.3.173l44.01,32.9a1.556,1.556,0,0,0,.864.259,66.359,66.359,0,0,0,24.08-7.695l9.987,10.16-4.712,18.157a1.45,1.45,0,0,0,.216,1.124,1.289,1.289,0,0,0,1.037.519H445.5a1.226,1.226,0,0,0,.951-.433,1.187,1.187,0,0,0,.346-.994C446.666,359.714,445.8,351.067,430.324,343.545ZM267.643,82.9c2.119,2.68,2.162,6.268.13,11.369-1.686,4.28-5.015,7.436-7.22,9.511-.605.606-1.167,1.081-1.6,1.557a1.358,1.358,0,0,0-.346.648l-17.6,105.356c-3.5,1.686-8.3,4.021-13.661,6.615a.428.428,0,0,0-.216-.173,64.781,64.781,0,0,0-25.2-10.16c-2.335-.389-5.231-.821-8.43-1.21,1.772-2.854,5.49-10.895,15.606-33.808.951-2.161,1.859-4.28,2.724-6.225,1.643-3.718,3.718-8.473,6.1-13.921,8.43-19.324,24.123-55.336,26.328-57.5a12,12,0,0,0,3.242-3.545h.389a12.609,12.609,0,0,0,.216,1.513,2.665,2.665,0,0,0,.217.519,2.067,2.067,0,0,0,1.642.908h.26a2.93,2.93,0,0,0,1.988-1.643,18.42,18.42,0,0,0,.26,2.075,2.66,2.66,0,0,0,.216.519,2.069,2.069,0,0,0,1.643.908.848.848,0,0,0,.346-.043c.994-.216,1.945-1.081,3.112-4.107a6.321,6.321,0,0,0,.822,1.945,2.175,2.175,0,0,0,1.816.994,1.206,1.206,0,0,0,.389-.043c1.859-.389,2.9-3.2,4.409-8.949.087-.389.173-.735.26-.994a1.3,1.3,0,0,0-2.508-.692q-.129.454-.259,1.038a36.825,36.825,0,0,1-2.162,6.614c-.346-.951-.951-3.5.476-8.041a1.338,1.338,0,0,0,.043-.432,29.691,29.691,0,0,0,2.075-3.243A6.24,6.24,0,0,1,267.643,82.9ZM142.53,221.5v.129c0,.043,0,.043.044.087,0,.043.043.086.043.129s.043.044.043.087.043.086.043.13.044.043.044.086c.043.043.043.086.086.13l.086.086c.044.043.087.043.087.087.043.043.043.043.086.043l.044.043a.042.042,0,0,1,.043.043c.043,0,.043.044.086.044s.087.043.13.043.043,0,.086.043a.741.741,0,0,0,.3.043.549.549,0,0,0,.259-.043h.044a.62.62,0,0,0,.259-.086h.043c.087-.044.13-.087.216-.13a.043.043,0,0,0,.044-.043c.086-.044.129-.13.172-.173h0c.13-.13,11.932-14.786,30.954-15.348,9.511,1.038,19.628,2.292,25.767,3.286a62.869,62.869,0,0,1,23.172,9.122c-17.682,8.646-39.644,19.584-39.99,19.714h-.043c-.043,0-.043,0-.086.043l-28.62,17.509c-4.323,2.55-8.56,4.928-12.234,6.83a128.164,128.164,0,0,1-28.058,8.906c-8.733,1.167-18.762,1.081-28.619-2.248a52.057,52.057,0,0,1-17.12-10.332.894.894,0,0,0-.432-.26c-7.263-7.522-11.543-18.373-12.408-31.9-1.167-17.509,3.5-37.957,13.445-59.141,1.081-2.291,2.162-4.5,3.243-6.658.173-.086,13.92-7.695,44.182,1.038l1.557.519c17.725,6.182,28.706,14.526,36.7,26.2l-5.664,13.013a1.155,1.155,0,0,0-.432.562l-7.566,17.855h0c-.043.086-.043.173-.086.216v.259C142.53,221.415,142.53,221.458,142.53,221.5Zm68.134-58.839,3.847-42.5,6.917-14.482c.044-.087.087-.13.13-.217l9.036-18.978a45.214,45.214,0,0,0,13.92,4.669,15.863,15.863,0,0,1-1.859,1.729c-2.032,1.729-10.721,21.054-27.063,58.449C213.733,155.616,212.09,159.421,210.664,162.663ZM254.847,89.3a12.7,12.7,0,0,0,1.6-1.038,28.352,28.352,0,0,1-1.556,4.194C254.847,91.633,254.8,90.553,254.847,89.3ZM200.418,65a19.68,19.68,0,0,0,12.8,4.928,18.831,18.831,0,0,0,8-1.816,24.613,24.613,0,0,0,5.664-3.631,7.149,7.149,0,0,0,.907-9.641,8.978,8.978,0,0,1-1.642-8.127,6.653,6.653,0,0,1,3.631-4.5,5.073,5.073,0,0,1,3.977-.043,3.957,3.957,0,0,1,1.989,2.378,6.231,6.231,0,0,0,3.675,3.977,5.5,5.5,0,0,0,4.539-.086,55.72,55.72,0,0,0,17.725-14.656,87.523,87.523,0,0,1,3.5,20.1c.086,1.9,2.464,3.026,5.231,4.28,1.254.562,4.193,1.945,4.323,2.637a.339.339,0,0,1-.043.13c-1.3,2.075-4.021,3.718-6.226,5.015-2.118,1.253-3.545,2.118-3.8,3.372a40.971,40.971,0,0,1-1.427,4.928L252.858,75.94a1.336,1.336,0,0,0-1.081,1.47,1.267,1.267,0,0,0,1.3,1.081h.216l8.776-1.427c-3.156,6.831-8.127,11.154-13.618,11.586-7.738.606-18.114-5.1-22.7-7.954l-2.421-1.557a.326.326,0,0,0-.172-.086h-.044a.26.26,0,0,0-.173-.043h-.562c-.086,0-.129.043-.216.043a.042.042,0,0,0-.043.043c-.043.043-.086.043-.173.087-.043,0-.043.043-.086.043l-.044.043a.042.042,0,0,0-.043.043l-.043.043c-.043.044-.086.13-.13.173h0a.959.959,0,0,0-.129.217c0,.043,0,.043-.044.086,0,.043-.043.087-.043.13v.562a.158.158,0,0,0,.043.129c.044.087,3.2,10.29-1.945,23.346l-7,14.612a18.883,18.883,0,0,1-5.187-.346,35.918,35.918,0,0,1-14.786-7.09c-10.678-8.084-13.056-23.864-13.488-27.193Zm-80.152,37.179c.086-.043.173-.13.259-.173a156.321,156.321,0,0,1,27.842-11.8c14.309-4.453,24.728-5.231,28.1-5.361.562,4.5,3.286,20.016,14.44,28.446,9.165,6.961,16.558,8,20.232,8h.346l-26.847,83.956c-2.853-.346-5.75-.648-8.6-.994h0c-9.684-1.081-18.719-1.989-22.221-2.335l1.729-3.977c.433.043,1.124.043,1.989.043.735,0,1.556-.043,2.464-.086,3.718-.3,6.312-1.34,7.739-3.069a4.431,4.431,0,0,0,.864-1.816.651.651,0,0,0,.13-.3l18.244-50.192a1.285,1.285,0,1,0-2.421-.864L167.734,188c-2.291-4.583-9.856-13.1-34.5-22.87-32.208-12.753-50.495-9.338-57.369-7,11.067-21.313,21.7-34.8,29.052-42.713C113.954,105.64,120.18,102.182,120.266,102.182ZM13.051,323.874h0A76.385,76.385,0,0,0,2.459,334.38,317.565,317.565,0,0,1,24.075,218.389c14.224-36.055,34.543-66.966,58.839-89.4a192.718,192.718,0,0,1,22.307-17.725c-.691.735-1.426,1.469-2.161,2.248-8.647,9.208-21.659,26.025-34.715,53.737-18.72,39.816-18.331,76.563.173,94.677a49.228,49.228,0,0,0,10.5,9.9,53.9,53.9,0,0,0,13.921,7.134c-1.643.648-3.416,1.34-5.275,2.118a385.778,385.778,0,0,0-56.028,29.441,169.059,169.059,0,0,0-18.5,13.315A.136.136,0,0,1,13.051,323.874ZM359.165,328.8a65.907,65.907,0,0,1-23.432,7.782l-42.67-31.906,1.9-1.859a4.209,4.209,0,0,0,1.3-3.2,4.27,4.27,0,0,0-1.47-3.112l-8.517-7.263a1.609,1.609,0,0,1-.562-1.211,1.884,1.884,0,0,1,.476-1.254,4.245,4.245,0,0,0-.26-6.268l-12.8-10.722a4.237,4.237,0,0,0-5.664.217l-9.813,9.467c-.26.216-12.883,12.278-42.627,40.336-3.631,3.415-7.306,6.787-10.851,9.943a141.169,141.169,0,0,1-37.4,23.777,143.255,143.255,0,0,1-42.93,11.111c-53.3,5.144-76.563-.476-86.679-6.1-7.263-4.064-12.754-12.451-16.428-19.886-1.47-3.373-3.718-8.82-5.318-13.4a172.191,172.191,0,0,1,17.6-12.624c27.5-17.336,50.409-27.366,63.983-32.553a57.078,57.078,0,0,0,14.18,1.772h.908c12.278-.173,28.49-7.133,48.2-20.621a272.29,272.29,0,0,0,25.766-20.06c3.156-1.556,50.581-25.074,60.092-29.441,17.682-8.084,33.721-5.923,46.344,6.226,12.192,11.759,58.882,61.951,87.156,92.472C377.625,313.153,369.8,322.837,359.165,328.8Zm38.044,9.468a30.786,30.786,0,0,1-7.047,2.939c-1.124.346-2.2.606-3.242.822h-.087c-8.6.735-12.883-.692-14.4-1.384-.3-.173-.562-.3-.649-.345l-6.571-6.7c4.453-2.681,8.647-7.134,12.451-13.316a67.931,67.931,0,0,0,4.064-7.565c10.03,10.808,17.379,18.805,19.5,21.1A15.379,15.379,0,0,1,397.209,338.271Zm24.944-30.09a1.483,1.483,0,0,1,.433.043c1.772.26,1.9,1.124,1.945,1.47.649,4.021-7.522,14.4-19.022,20.752C409.832,320.546,416.966,308.181,422.153,308.181Zm-14.136,24.21c1.253-.994,2.55-1.945,3.891-2.9.172-.13.3-.217.475-.346,7.349-5.188,15.391-9.425,17.812-7.307.475.433.821.952.259,2.076C428.465,327.722,417.7,333.256,408.017,332.391Z" style="fill:#1a1a1a"/><path d="M390.724,358.892,400.8,348.819a2.17,2.17,0,1,0-3.069-3.069c-3.805,3.8-8.258,8.214-13.143,13.142Z" style="fill:#fece2f"/><path d="M398.549,358.892h6.1c.821-.865,1.642-1.686,2.464-2.551,2.507-2.637,4.885-5.1,7.522-7.479a2.174,2.174,0,0,0-2.9-3.242c-2.724,2.464-5.275,5.145-7.739,7.695C402.224,355.217,400.451,357.076,398.549,358.892Z" style="fill:#fece2f"/></g></g>
            </g>
        </g>
    </g>
    
    <!-- ITEM 4 -->
    <g>
        <defs>
            <clipPath id="clip-path-id-viewbox-item-4">
                <rect x="0.0" y="0.0" width="34.4" height="42.0"/>
            </clipPath>
        </defs>
        <g transform="translate(224.0 393.0) rotate(0.0 42.0 52.0) scale(2.441860465116279 2.4761904761904763)">
            <g clip-path="url(#clip-path-id-viewbox-item-4)" transform="translate(-0.0 -0.0)">
                

<path d="M2.6,0.1h-1C1,0.1,0.5,0,0,0l32.6,41.6c0.2,0.3,0.5,0.4,0.8,0.4c0.2,0,0.4-0.1,0.6-0.2c0.4-0.3,0.5-1,0.2-1.4  L2.6,0.1z" style="fill:#FCCC2F;"/>

            </g>
        </g>
    </g>
    
</svg>