<svg width="266" height="222" viewBox="0 0 266 222" fill="none" xmlns="http://www.w3.org/2000/svg">
<mask id="mask0_4486_55392" style="mask-type:luminance" maskUnits="userSpaceOnUse" x="0" y="0" width="266" height="222">
<path d="M23.1834 34.6575C37.2779 16.911 58.0661 5.58416 79.8454 2.01556C98.2327 -0.997081 115.87 1.04276 132.24 10.3348C149.265 19.9983 164.426 31.1812 183.769 35.3215C203.544 39.5543 221.086 41.5313 237.116 55.9479C268.623 84.2838 274.183 141.247 251.52 176.975C246.671 184.621 239.662 191.368 233.322 197.678C228.172 202.804 222.532 206.801 216.547 209.932C211.695 212.668 206.745 214.879 202.538 215.984C200.983 216.392 199.15 216.775 197.078 217.132C186.242 219.804 174.864 220.827 163.595 221.368C149.07 222.067 134.523 222.125 119.987 221.838C92.8476 221.304 68.7231 221.863 45.3897 204.849C14.5909 182.393 0.521631 140.3 0.681026 102.464C0.783591 78.0889 8.23702 53.4764 23.1834 34.6575Z" fill="white"/>
</mask>
<g mask="url(#mask0_4486_55392)">
<path d="M23.1834 34.6556C37.2779 16.909 58.0661 5.5822 79.8454 2.0136C98.2327 -0.999034 115.87 1.04081 132.24 10.3329C149.265 19.9963 164.426 31.1792 183.769 35.3195C203.544 39.5524 221.086 41.5294 237.116 55.946C268.623 84.2819 274.183 141.245 251.52 176.973C246.671 184.619 239.662 191.367 233.322 197.676C228.172 202.802 222.532 206.799 216.547 209.93C211.695 212.666 206.745 214.877 202.538 215.982C200.983 216.39 199.15 216.773 197.078 217.13C186.242 219.802 174.864 220.825 163.595 221.366C149.07 222.065 134.523 222.123 119.987 221.837C92.8476 221.302 68.7231 221.861 45.3897 204.847C14.5909 182.391 0.521631 140.298 0.681026 102.462C0.783591 78.0869 8.23702 53.4744 23.1834 34.6556Z" fill="#EEEFF8"/>
<path d="M23.1834 34.6556C37.2779 16.909 58.0661 5.5822 79.8454 2.0136C98.2327 -0.999034 115.87 1.04081 132.24 10.3329C149.265 19.9963 164.426 31.1792 183.769 35.3195C203.544 39.5524 221.086 41.5294 237.116 55.946C268.623 84.2819 274.183 141.245 251.52 176.973C246.671 184.619 239.662 191.367 233.322 197.676C228.172 202.802 222.532 206.799 216.547 209.93C211.695 212.666 206.745 214.877 202.538 215.982C200.983 216.39 199.15 216.773 197.078 217.13C186.242 219.802 174.864 220.825 163.595 221.366C149.07 222.065 134.523 222.123 119.987 221.837C92.8476 221.302 68.7231 221.861 45.3897 204.847C14.5909 182.391 0.521631 140.298 0.681026 102.462C0.783591 78.0869 8.23702 53.4744 23.1834 34.6556Z" fill="#EEEFF8"/>
</g>
<mask id="mask1_4486_55392" style="mask-type:luminance" maskUnits="userSpaceOnUse" x="0" y="0" width="266" height="222">
<path d="M23.1834 34.6575C37.2779 16.911 58.0661 5.58416 79.8454 2.01556C98.2327 -0.997081 115.87 1.04276 132.24 10.3348C149.265 19.9983 164.426 31.1812 183.769 35.3215C203.544 39.5543 221.086 41.5313 237.116 55.9479C268.623 84.2838 274.183 141.247 251.52 176.975C246.671 184.621 239.662 191.368 233.322 197.678C228.172 202.804 222.532 206.801 216.547 209.932C211.695 212.668 206.745 214.879 202.538 215.984C200.983 216.392 199.15 216.775 197.078 217.132C186.242 219.804 174.864 220.827 163.595 221.368C149.07 222.067 134.523 222.125 119.987 221.838C92.8476 221.304 68.7231 221.863 45.3897 204.849C14.5909 182.393 0.521631 140.3 0.681026 102.464C0.783591 78.0889 8.23702 53.4764 23.1834 34.6575Z" fill="white"/>
</mask>
<g mask="url(#mask1_4486_55392)">
<path d="M53.5122 59.7435H49.9189V199.338H53.5122V59.7435Z" fill="#A1887F"/>
<path d="M70.3787 210.032C65.0206 210.032 62.1004 207.642 60.5002 203.883C58.3439 198.818 55.4355 199.257 51.7167 199.257C47.9978 199.257 45.0892 198.818 42.9331 203.883C41.333 207.642 38.4124 210.032 33.0547 210.032L32.0518 214.486H43.5851C43.5851 214.486 44.989 207.417 51.7169 207.417C58.4448 207.417 59.8488 214.486 59.8488 214.486H71.3821L70.3787 210.032Z" fill="#A1887F"/>
<path d="M60.5026 203.883C62.1027 207.642 65.0233 210.032 70.381 210.032L71.3839 214.486H59.8506C59.8506 214.486 58.4466 207.418 51.7188 207.418C51.7188 207.418 51.7188 201.106 51.7188 199.257C55.4379 199.257 58.3465 198.818 60.5026 203.883Z" fill="#A1887F"/>
<path d="M44.0545 203.883C42.4543 207.642 43.9205 210.032 38.5625 210.032L37.5596 214.486H49.0929C49.0929 214.486 49.5456 207.418 52.838 207.418C52.838 207.418 52.838 201.106 52.838 199.257C49.1191 199.257 46.2105 198.818 44.0545 203.883Z" fill="#BCAAA4"/>
<path d="M76.0723 127.343L89.468 123.276L74.3625 72.076C74.0946 71.1683 71.443 70.4926 71.443 70.4926L51.7164 64.1189L31.9898 70.4926C31.9898 70.4926 29.338 71.1683 29.0703 72.076L13.9648 123.276L27.3606 127.343L33.2449 105.656L33.4495 107.879L29.5231 131.69C29.3807 132.554 29.9999 133.352 30.8445 133.393L47.3018 134.189C48.6422 134.254 54.7909 134.254 56.131 134.189L72.5883 133.393C73.4329 133.352 74.0523 132.554 73.9097 131.69L69.9833 107.879L70.1879 105.656L76.0723 127.343Z" fill="white"/>
<path d="M57.8098 66.5667L56.5146 62.0581C56.3866 61.6121 56.0997 61.2331 55.7122 60.9978L54.2506 60.11C52.6845 59.1585 50.7447 59.1585 49.1783 60.11L47.7167 60.9978C47.3292 61.2331 47.0426 61.6121 46.9143 62.0581L45.6191 66.5667L40.7539 67.9557L51.714 72.3271L62.6742 67.9557L57.8098 66.5667Z" fill="#BCAAA4"/>
<path d="M56.3023 61.6009C56.1527 61.3571 55.9546 61.1467 55.7099 60.9981L54.2483 60.11C52.6822 59.1585 50.7424 59.1585 49.1761 60.11L47.7145 60.9981C47.4698 61.1467 47.2717 61.3571 47.1221 61.6009C48.0376 63.246 49.7482 64.3563 51.7121 64.3563C53.676 64.3563 55.3868 63.246 56.3023 61.6009Z" fill="#A1887F"/>
<path d="M55.1864 50.6028C55.1864 52.8261 54.7312 61.1218 51.7138 61.1218C48.6964 61.1218 48.2412 52.8261 48.2412 50.6028C48.2412 48.3796 50.095 46.577 51.7138 46.577C53.3327 46.577 55.1864 48.3796 55.1864 50.6028Z" fill="#A1887F"/>
<path d="M61.72 70.689L57.2469 67.9316L51.7197 75.6688L59.8094 84.254L61.72 70.689Z" fill="#EEEEEE"/>
<path d="M41.7168 70.689L46.1899 67.9316L51.717 75.6688L43.6274 84.254L41.7168 70.689Z" fill="#EEEEEE"/>
<path d="M55.9049 116.33L51.7102 120.818L47.5156 116.33L49.9512 76.077H53.4693L55.9049 116.33Z" fill="#E57373"/>
<path d="M55.7993 74.4233C55.6658 74.2061 55.4897 74.019 55.2718 73.8866L53.9496 73.0836C52.5681 72.2443 50.8569 72.2443 49.4757 73.0836L48.1534 73.8866C47.9356 74.019 47.7594 74.2061 47.626 74.4233C48.4411 75.8881 48.6208 78.3747 51.7126 78.3747C54.8047 78.3747 54.9844 75.8881 55.7993 74.4233Z" fill="#E57373"/>
<path d="M51.711 78.8209C50.7462 78.8209 49.972 78.599 49.3447 78.1426C49.1528 78.0032 49.1065 77.7289 49.241 77.53C49.3761 77.3311 49.6402 77.2831 49.8321 77.4226C50.3119 77.7718 50.9267 77.9415 51.711 77.9415C52.3681 77.9415 52.9009 77.8237 53.3401 77.5816C53.5469 77.468 53.8037 77.5491 53.9138 77.7631C54.0237 77.9777 53.9455 78.2436 53.7387 78.3578C53.1737 78.6694 52.5104 78.8209 51.711 78.8209Z" fill="#45271D"/>
<path d="M85.1376 113.953L88.791 126.716L78.1015 129.802L74.7188 117.1L85.1376 113.953Z" fill="white"/>
<path d="M61.7161 67.3408L72.9032 70.664C73.6174 70.876 74.1795 71.4486 74.3968 72.1852L89.4674 123.267L76.0717 127.334L70.1873 105.648L69.9827 107.87L73.9091 131.681C74.0515 132.545 73.4323 133.343 72.5877 133.384L58.2954 134.18C56.9553 134.245 55.7283 133.405 55.2604 132.101L51.7158 111.895V96.8414L61.7161 67.3408Z" fill="#62B7B6"/>
<path d="M70.1894 106.092C70.1799 106.092 70.1704 106.091 70.1612 106.091C69.9274 106.075 69.7502 105.865 69.7656 105.623L71.5906 76.9012C71.6061 76.6585 71.8182 76.4765 72.0418 76.4911C72.2756 76.5073 72.4528 76.7166 72.4374 76.9587L70.6124 105.681C70.5975 105.914 70.4107 106.092 70.1894 106.092Z" fill="#45271D"/>
<path d="M72.5865 133.821C72.3613 133.821 72.1738 133.637 72.1632 133.402C72.1521 133.159 72.3332 132.953 72.567 132.942C72.8482 132.928 73.1107 132.79 73.2871 132.563C73.4633 132.335 73.5374 132.04 73.4901 131.752L69.5637 107.941C69.5574 107.903 69.5561 107.864 69.5593 107.826L69.7639 105.603C69.7834 105.392 69.945 105.226 70.1485 105.207C70.3482 105.189 70.539 105.322 70.5944 105.526L76.3627 126.785L88.0649 123.232C88.2876 123.164 88.5252 123.297 88.591 123.53C88.6567 123.763 88.5282 124.007 88.3033 124.075L76.1895 127.753C76.0805 127.786 75.9638 127.772 75.8648 127.716C75.7657 127.659 75.6927 127.563 75.6621 127.45L70.51 108.462L74.326 131.605C74.4143 132.14 74.2765 132.691 73.948 133.114C73.6194 133.538 73.1304 133.795 72.6065 133.821C72.5997 133.821 72.5932 133.821 72.5865 133.821Z" fill="#45271D"/>
<path d="M51.7154 97.2797C51.6685 97.2797 51.6212 97.2718 51.5746 97.2547C51.3538 97.1742 51.2374 96.9232 51.3151 96.6943L58.575 75.2768C58.6527 75.0479 58.8955 74.9275 59.1157 75.0078C59.3366 75.0883 59.4529 75.3393 59.3753 75.5682L52.1153 96.9857C52.0542 97.1664 51.8904 97.2797 51.7154 97.2797Z" fill="#45271D"/>
<path d="M77.7793 124.684C78.0532 124.684 78.2753 124.454 78.2753 124.17C78.2753 123.886 78.0532 123.656 77.7793 123.656C77.5053 123.656 77.2832 123.886 77.2832 124.17C77.2832 124.454 77.5053 124.684 77.7793 124.684Z" fill="#45271D"/>
<path d="M77.2373 122.722C77.5112 122.722 77.7333 122.491 77.7333 122.208C77.7333 121.924 77.5112 121.693 77.2373 121.693C76.9633 121.693 76.7412 121.924 76.7412 122.208C76.7412 122.491 76.9633 122.722 77.2373 122.722Z" fill="#45271D"/>
<path d="M78.1009 130.24C78.0281 130.24 77.9564 130.221 77.8923 130.183C77.7943 130.125 77.722 130.029 77.6923 129.917L76.9324 127.065C76.8701 126.831 77.0025 126.589 77.2284 126.524C77.4555 126.46 77.6879 126.597 77.7502 126.831L78.397 129.258L88.2957 126.401L87.7699 123.743C87.7228 123.505 87.8706 123.273 88.1001 123.224C88.3301 123.174 88.5536 123.329 88.601 123.566L89.2064 126.626C89.2513 126.852 89.1195 127.075 88.9049 127.137L78.2154 130.223C78.1772 130.234 78.1391 130.24 78.1009 130.24Z" fill="#45271D"/>
<path d="M54.1767 105.322C54.6874 105.322 55.1014 104.893 55.1014 104.363C55.1014 103.834 54.6874 103.405 54.1767 103.405C53.666 103.405 53.252 103.834 53.252 104.363C53.252 104.893 53.666 105.322 54.1767 105.322Z" fill="#45271D"/>
<path d="M54.1767 109.253C54.6874 109.253 55.1014 108.824 55.1014 108.294C55.1014 107.765 54.6874 107.336 54.1767 107.336C53.666 107.336 53.252 107.765 53.252 108.294C53.252 108.824 53.666 109.253 54.1767 109.253Z" fill="#45271D"/>
<path d="M54.1767 101.387C54.6874 101.387 55.1014 100.958 55.1014 100.428C55.1014 99.8989 54.6874 99.4697 54.1767 99.4697C53.666 99.4697 53.252 99.8989 53.252 100.428C53.252 100.958 53.666 101.387 54.1767 101.387Z" fill="#45271D"/>
<path d="M18.295 113.956L14.6416 126.719L25.3311 129.804L28.7139 117.103L18.295 113.956Z" fill="white"/>
<path d="M41.7181 67.342L30.5309 70.6652C29.8168 70.8773 29.2547 71.4498 29.0374 72.1864L13.9668 123.268L27.3625 127.335L33.2469 105.649L33.4515 107.871L29.525 131.682C29.3827 132.546 30.0019 133.344 30.8465 133.385L45.1388 134.181C46.4791 134.246 47.7061 133.406 48.174 132.102L51.7186 111.897V96.8426L41.7181 67.342Z" fill="#62B7B6"/>
<path d="M33.2477 106.091C33.0264 106.091 32.8396 105.913 32.825 105.68L31 76.9583C30.9845 76.7162 31.1618 76.5069 31.3956 76.4907C31.6164 76.4752 31.831 76.6581 31.8467 76.9008L33.6718 105.623C33.6872 105.865 33.51 106.074 33.2761 106.091C33.2669 106.091 33.2572 106.091 33.2477 106.091Z" fill="#45271D"/>
<path d="M27.3643 127.774C27.3245 127.774 27.2842 127.768 27.2452 127.757L15.1311 124.078C14.9063 124.01 14.7774 123.766 14.8435 123.533C14.9092 123.3 15.1468 123.166 15.3696 123.235L27.072 126.788L32.8403 105.529C32.9036 105.295 33.1374 105.159 33.3637 105.225C33.5891 105.291 33.7203 105.534 33.657 105.767L27.7726 127.454C27.7421 127.567 27.669 127.662 27.5699 127.719C27.5066 127.756 27.4357 127.774 27.3643 127.774Z" fill="#45271D"/>
<path d="M48.1776 132.543C48.1524 132.543 48.1267 132.54 48.1013 132.536C47.8707 132.492 47.7178 132.263 47.7598 132.025L51.2973 111.858V96.9183L44.0612 75.5715C43.9835 75.3426 44.0999 75.0916 44.3207 75.0111C44.5413 74.9311 44.7838 75.0512 44.8614 75.2801L52.1216 96.6976C52.1376 96.7444 52.1457 96.7938 52.1457 96.8434V111.897C52.1457 111.924 52.1433 111.95 52.1389 111.976L48.5944 132.182C48.5573 132.394 48.3789 132.543 48.1776 132.543Z" fill="#45271D"/>
<path d="M25.8203 124.686C26.0942 124.686 26.3163 124.456 26.3163 124.172C26.3163 123.888 26.0942 123.658 25.8203 123.658C25.5463 123.658 25.3242 123.888 25.3242 124.172C25.3242 124.456 25.5463 124.686 25.8203 124.686Z" fill="#45271D"/>
<path d="M26.3593 122.724C26.6333 122.724 26.8554 122.493 26.8554 122.209C26.8554 121.926 26.6333 121.695 26.3593 121.695C26.0854 121.695 25.8633 121.926 25.8633 122.209C25.8633 122.493 26.0854 122.724 26.3593 122.724Z" fill="#45271D"/>
<path d="M25.3324 130.241C25.2943 130.241 25.2561 130.235 25.2185 130.224L14.529 127.139C14.3144 127.077 14.1826 126.853 14.2275 126.627L14.8326 123.568C14.8797 123.33 15.106 123.176 15.3333 123.225C15.563 123.274 15.7108 123.507 15.6637 123.744L15.1382 126.402L25.0369 129.259L25.6834 126.832C25.7457 126.598 25.9792 126.461 26.2052 126.525C26.4312 126.59 26.5635 126.832 26.5012 127.066L25.7416 129.918C25.7118 130.031 25.6396 130.126 25.5416 130.184C25.4769 130.221 25.4052 130.241 25.3324 130.241Z" fill="#45271D"/>
<path d="M61.72 67.3431L57.2469 64.5854L51.7197 72.3226L59.8094 80.9081L61.72 67.3431Z" fill="white"/>
<path d="M41.7168 67.3431L46.1899 64.5854L51.717 72.3226L43.6274 80.9081L41.7168 67.3431Z" fill="white"/>
<path d="M59.8058 81.3467C59.6935 81.3467 59.5837 81.3004 59.5025 81.214L51.4128 72.6288C51.2491 72.4552 51.2521 72.1769 51.4199 72.0072C51.5871 71.8378 51.8558 71.8409 52.0196 72.0145L59.5168 79.9711L61.297 68.1157C61.333 67.8759 61.5484 67.7099 61.7814 67.7488C62.0128 67.7862 62.1711 68.0111 62.1353 68.2509L60.2248 80.9741C60.1999 81.1385 60.0878 81.2746 59.9349 81.3253C59.8924 81.3399 59.8491 81.3467 59.8058 81.3467Z" fill="#45271D"/>
<path d="M43.6269 81.3489C43.5836 81.3489 43.5403 81.3421 43.4975 81.3281C43.3446 81.2773 43.2326 81.1413 43.2077 80.9769L41.2971 68.2537C41.2611 68.0139 41.4194 67.7889 41.6511 67.7516C41.8833 67.7154 42.0995 67.8787 42.1355 68.1185L43.9156 79.9738L51.4132 72.0173C51.5766 71.8431 51.8456 71.84 52.0129 72.01C52.1806 72.1794 52.1839 72.4579 52.0199 72.6316L43.93 81.2167C43.849 81.3026 43.7392 81.3489 43.6269 81.3489Z" fill="#45271D"/>
<path d="M134.249 59.7435H130.655V199.338H134.249V59.7435Z" fill="#A1887F"/>
<path d="M151.12 210.032C145.762 210.032 142.842 207.641 141.241 203.882C139.085 198.817 136.177 199.257 132.458 199.257C128.739 199.257 125.83 198.817 123.674 203.882C122.074 207.641 119.154 210.032 113.796 210.032L112.793 214.486H124.326C124.326 214.486 125.73 207.417 132.458 207.417C139.186 207.417 140.59 214.486 140.59 214.486H152.123L151.12 210.032Z" fill="#A1887F"/>
<path d="M141.241 203.882C142.841 207.641 145.762 210.032 151.119 210.032L152.122 214.486H140.589C140.589 214.486 139.185 207.417 132.457 207.417C132.457 207.417 132.457 201.106 132.457 199.257C136.176 199.257 139.085 198.817 141.241 203.882Z" fill="#A1887F"/>
<path d="M124.796 203.882C123.195 207.641 124.662 210.032 119.304 210.032L118.301 214.486H129.834C129.834 214.486 130.287 207.417 133.579 207.417C133.579 207.417 133.579 201.106 133.579 199.257C129.86 199.257 126.952 198.817 124.796 203.882Z" fill="#BCAAA4"/>
<path d="M156.807 127.343L170.202 123.276L155.097 72.0761C154.829 71.1684 152.177 70.4927 152.177 70.4927L132.451 64.119L112.724 70.4927C112.724 70.4927 110.072 71.1684 109.805 72.0761L94.6992 123.276L108.095 127.343L113.979 105.656L114.184 107.879L110.257 131.69C110.115 132.554 110.734 133.352 111.579 133.393L128.036 134.189C129.377 134.254 135.525 134.254 136.865 134.189L153.323 133.393C154.167 133.352 154.787 132.554 154.644 131.69L150.718 107.879L150.922 105.656L156.807 127.343Z" fill="white"/>
<path d="M138.537 66.5667L137.242 62.0581C137.114 61.6121 136.827 61.2331 136.44 60.9978L134.978 60.11C133.412 59.1585 131.472 59.1585 129.906 60.11L128.444 60.9978C128.057 61.2331 127.77 61.6121 127.642 62.0581L126.347 66.5667L121.481 67.9557L132.442 72.3271L143.402 67.9557L138.537 66.5667Z" fill="#BCAAA4"/>
<path d="M137.033 61.6009C136.883 61.3571 136.685 61.1467 136.44 60.9981L134.979 60.11C133.413 59.1585 131.473 59.1585 129.907 60.11L128.445 60.9981C128.2 61.1467 128.002 61.3571 127.853 61.6009C128.768 63.246 130.479 64.3563 132.443 64.3563C134.406 64.3563 136.117 63.246 137.033 61.6009Z" fill="#A1887F"/>
<path d="M135.92 50.6028C135.92 52.8261 135.465 61.1218 132.447 61.1218C129.43 61.1218 128.975 52.8261 128.975 50.6028C128.975 48.3796 130.828 46.577 132.447 46.577C134.066 46.577 135.92 48.3796 135.92 50.6028Z" fill="#A1887F"/>
<path d="M142.451 70.6886L137.978 67.9313L132.451 75.6685L140.541 84.2537L142.451 70.6886Z" fill="#EEEEEE"/>
<path d="M122.451 70.6886L126.924 67.9313L132.451 75.6685L124.362 84.2537L122.451 70.6886Z" fill="#EEEEEE"/>
<path d="M136.65 116.329L132.455 120.818L128.261 116.329L130.696 76.0768H134.214L136.65 116.329Z" fill="#FB8C00"/>
<path d="M136.542 74.4229C136.409 74.2058 136.233 74.0187 136.015 73.8863L134.693 73.0832C133.311 72.2439 131.6 72.2439 130.219 73.0832L128.897 73.8863C128.679 74.0187 128.503 74.2058 128.369 74.4229C129.184 75.8877 129.364 78.3744 132.456 78.3744C135.548 78.3744 135.727 75.8877 136.542 74.4229Z" fill="#FB8C00"/>
<path d="M132.456 78.8205C131.491 78.8205 130.717 78.5986 130.09 78.1422C129.898 78.0028 129.852 77.7285 129.986 77.5296C130.121 77.3307 130.386 77.2828 130.577 77.4222C131.057 77.7714 131.672 77.9411 132.456 77.9411C133.113 77.9411 133.646 77.8233 134.085 77.5812C134.292 77.4676 134.549 77.5487 134.659 77.7627C134.769 77.9773 134.69 78.2432 134.484 78.3574C133.919 78.669 133.255 78.8205 132.456 78.8205Z" fill="#45271D"/>
<path d="M165.874 113.953L169.527 126.716L158.838 129.801L155.455 117.1L165.874 113.953Z" fill="white"/>
<path d="M142.452 67.3409L153.64 70.6641C154.354 70.8762 154.916 71.4487 155.133 72.1853L170.204 123.267L156.808 127.334L150.924 105.648L150.719 107.87L154.645 131.682C154.788 132.545 154.169 133.344 153.324 133.384L139.032 134.181C137.691 134.245 136.464 133.405 135.997 132.101L132.452 111.895V96.8415L142.452 67.3409Z" fill="#58223A"/>
<path d="M150.927 106.092C150.917 106.092 150.908 106.092 150.899 106.091C150.665 106.075 150.487 105.866 150.503 105.623L152.328 76.9013C152.343 76.6586 152.554 76.4766 152.779 76.4912C153.013 76.5074 153.19 76.7167 153.175 76.9588L151.35 105.681C151.335 105.914 151.148 106.092 150.927 106.092Z" fill="#45271D"/>
<path d="M153.322 133.825C153.097 133.825 152.909 133.642 152.899 133.406C152.887 133.164 153.069 132.958 153.302 132.947C153.584 132.933 153.846 132.795 154.023 132.567C154.199 132.34 154.273 132.045 154.226 131.757L150.299 107.945C150.293 107.907 150.291 107.868 150.295 107.83L150.499 105.607C150.519 105.396 150.68 105.23 150.884 105.211C151.086 105.193 151.275 105.326 151.33 105.53L157.098 126.789L168.801 123.236C169.023 123.168 169.261 123.301 169.327 123.534C169.392 123.767 169.264 124.011 169.039 124.079L156.925 127.757C156.816 127.79 156.699 127.776 156.6 127.72C156.501 127.663 156.428 127.567 156.397 127.454L151.245 108.467L155.062 131.609C155.15 132.144 155.012 132.694 154.684 133.118C154.355 133.542 153.866 133.799 153.342 133.825C153.335 133.825 153.328 133.825 153.322 133.825Z" fill="#45271D"/>
<path d="M132.452 97.2794C132.405 97.2794 132.358 97.2716 132.311 97.2545C132.09 97.174 131.974 96.9229 132.051 96.694L139.312 75.2765C139.389 75.0476 139.632 74.9273 139.852 75.0075C140.073 75.088 140.19 75.3391 140.112 75.568L132.852 96.9855C132.79 97.1661 132.627 97.2794 132.452 97.2794Z" fill="#45271D"/>
<path d="M158.516 124.683C158.79 124.683 159.012 124.453 159.012 124.169C159.012 123.885 158.79 123.655 158.516 123.655C158.242 123.655 158.02 123.885 158.02 124.169C158.02 124.453 158.242 124.683 158.516 124.683Z" fill="#45271D"/>
<path d="M157.976 122.721C158.25 122.721 158.472 122.491 158.472 122.207C158.472 121.923 158.25 121.693 157.976 121.693C157.702 121.693 157.479 121.923 157.479 122.207C157.479 122.491 157.702 122.721 157.976 122.721Z" fill="#45271D"/>
<path d="M158.832 130.239C158.759 130.239 158.688 130.22 158.623 130.182C158.525 130.125 158.453 130.029 158.423 129.917L157.664 127.064C157.602 126.831 157.734 126.588 157.96 126.524C158.186 126.459 158.419 126.597 158.482 126.831L159.128 129.258L169.027 126.401L168.501 123.743C168.454 123.505 168.602 123.273 168.832 123.224C169.059 123.174 169.286 123.328 169.332 123.566L169.938 126.625C169.982 126.852 169.851 127.075 169.636 127.137L158.947 130.223C158.908 130.234 158.87 130.239 158.832 130.239Z" fill="#45271D"/>
<path d="M134.913 105.322C135.424 105.322 135.838 104.893 135.838 104.363C135.838 103.834 135.424 103.405 134.913 103.405C134.402 103.405 133.988 103.834 133.988 104.363C133.988 104.893 134.402 105.322 134.913 105.322Z" fill="#45271D"/>
<path d="M134.913 109.253C135.424 109.253 135.838 108.824 135.838 108.295C135.838 107.765 135.424 107.336 134.913 107.336C134.402 107.336 133.988 107.765 133.988 108.295C133.988 108.824 134.402 109.253 134.913 109.253Z" fill="#45271D"/>
<path d="M134.913 101.386C135.424 101.386 135.838 100.957 135.838 100.428C135.838 99.8985 135.424 99.4694 134.913 99.4694C134.402 99.4694 133.988 99.8985 133.988 100.428C133.988 100.957 134.402 101.386 134.913 101.386Z" fill="#45271D"/>
<path d="M99.0323 113.955L95.3789 126.718L106.068 129.804L109.451 117.102L99.0323 113.955Z" fill="white"/>
<path d="M122.448 67.3423L111.26 70.6654C110.546 70.8775 109.984 71.45 109.767 72.1866L94.6963 123.269L108.092 127.336L113.976 105.649L114.181 107.872L110.255 131.683C110.112 132.547 110.731 133.345 111.576 133.386L125.868 134.182C127.209 134.247 128.436 133.406 128.904 132.103L132.448 111.897V96.8431L122.448 67.3423Z" fill="#58223A"/>
<path d="M113.983 106.091C113.762 106.091 113.575 105.913 113.56 105.681L111.735 76.9584C111.72 76.7163 111.897 76.507 112.131 76.4908C112.357 76.4753 112.566 76.6582 112.582 76.9009L114.407 105.623C114.423 105.865 114.245 106.074 114.011 106.091C114.002 106.091 113.993 106.091 113.983 106.091Z" fill="#45271D"/>
<path d="M108.096 127.775C108.056 127.775 108.016 127.769 107.977 127.757L95.8626 124.079C95.6377 124.01 95.5089 123.766 95.5749 123.533C95.6407 123.3 95.8783 123.167 96.101 123.235L107.803 126.788L113.571 105.529C113.635 105.296 113.869 105.159 114.095 105.225C114.32 105.291 114.452 105.534 114.388 105.768L108.504 127.454C108.473 127.567 108.4 127.663 108.301 127.72C108.238 127.756 108.167 127.775 108.096 127.775Z" fill="#45271D"/>
<path d="M128.906 132.543C128.881 132.543 128.855 132.541 128.83 132.536C128.599 132.493 128.446 132.264 128.488 132.025L132.026 111.858V96.9188L124.79 75.5719C124.712 75.3431 124.828 75.092 125.049 75.0115C125.271 74.9307 125.512 75.0519 125.59 75.2805L132.85 96.698C132.866 96.7448 132.874 96.7942 132.874 96.8439V111.898C132.874 111.924 132.872 111.951 132.867 111.976L129.323 132.182C129.285 132.394 129.107 132.543 128.906 132.543Z" fill="#45271D"/>
<path d="M106.555 124.686C106.829 124.686 107.051 124.456 107.051 124.172C107.051 123.888 106.829 123.658 106.555 123.658C106.281 123.658 106.059 123.888 106.059 124.172C106.059 124.456 106.281 124.686 106.555 124.686Z" fill="#45271D"/>
<path d="M107.099 122.724C107.373 122.724 107.595 122.494 107.595 122.21C107.595 121.926 107.373 121.695 107.099 121.695C106.825 121.695 106.603 121.926 106.603 122.21C106.603 122.494 106.825 122.724 107.099 122.724Z" fill="#45271D"/>
<path d="M106.064 130.24C106.026 130.24 105.988 130.235 105.95 130.224L95.2604 127.138C95.0458 127.077 94.914 126.853 94.959 126.627L95.5643 123.567C95.6117 123.33 95.8355 123.176 96.0653 123.225C96.2947 123.274 96.4425 123.506 96.3954 123.744L95.8696 126.402L105.768 129.259L106.415 126.832C106.477 126.598 106.711 126.46 106.937 126.525C107.163 126.59 107.295 126.832 107.233 127.066L106.473 129.918C106.443 130.031 106.371 130.126 106.273 130.184C106.208 130.221 106.136 130.24 106.064 130.24Z" fill="#45271D"/>
<path d="M142.451 67.3423L137.978 64.5846L132.451 72.3218L140.541 80.9073L142.451 67.3423Z" fill="white"/>
<path d="M122.451 67.3425L126.924 64.5848L132.451 72.322L124.362 80.9075L122.451 67.3425Z" fill="white"/>
<path d="M140.541 81.3458C140.429 81.3458 140.319 81.2995 140.238 81.2131L132.148 72.6279C131.984 72.4543 131.987 72.1761 132.155 72.0064C132.323 71.8369 132.591 71.84 132.755 72.0136L140.252 79.9702L142.033 68.1149C142.069 67.8751 142.285 67.709 142.517 67.748C142.748 67.7853 142.907 68.0103 142.871 68.2501L140.96 80.9733C140.935 81.1377 140.823 81.2737 140.671 81.3245C140.628 81.3391 140.585 81.3458 140.541 81.3458Z" fill="#45271D"/>
<path d="M124.361 81.3485C124.318 81.3485 124.275 81.3418 124.232 81.3277C124.079 81.277 123.967 81.1409 123.942 80.9765L122.031 68.2533C121.995 68.0135 122.154 67.7885 122.385 67.7512C122.618 67.7151 122.834 67.8783 122.87 68.1181L124.65 79.9734L132.147 72.0169C132.311 71.8427 132.579 71.8396 132.747 72.0096C132.915 72.179 132.918 72.4576 132.754 72.6312L124.664 81.2164C124.583 81.3022 124.474 81.3485 124.361 81.3485Z" fill="#45271D"/>
<path d="M214.883 59.7435H211.29V199.338H214.883V59.7435Z" fill="#A1887F"/>
<path d="M231.749 210.032C226.391 210.032 223.47 207.642 221.87 203.883C219.714 198.817 216.806 199.257 213.087 199.257C209.368 199.257 206.459 198.817 204.303 203.883C202.703 207.642 199.783 210.032 194.425 210.032L193.422 214.486H204.955C204.955 214.486 206.359 207.417 213.087 207.417C219.815 207.417 221.219 214.486 221.219 214.486H232.752L231.749 210.032Z" fill="#A1887F"/>
<path d="M221.869 203.883C223.469 207.642 226.389 210.032 231.747 210.032L232.75 214.486H221.217C221.217 214.486 219.813 207.417 213.085 207.417C213.085 207.417 213.085 201.106 213.085 199.257C216.804 199.257 219.713 198.817 221.869 203.883Z" fill="#A1887F"/>
<path d="M205.424 203.883C203.823 207.642 205.29 210.032 199.932 210.032L198.929 214.486H210.462C210.462 214.486 210.915 207.417 214.207 207.417C214.207 207.417 214.207 201.106 214.207 199.257C210.488 199.257 207.58 198.817 205.424 203.883Z" fill="#BCAAA4"/>
<path d="M237.442 127.343L250.838 123.276L235.733 72.0759C235.465 71.1682 232.813 70.4924 232.813 70.4924L213.087 64.1188L193.36 70.4924C193.36 70.4924 190.708 71.1682 190.44 72.0759L175.335 123.276L188.731 127.343L194.615 105.656L194.82 107.879L190.893 131.69C190.751 132.554 191.37 133.352 192.215 133.393L208.672 134.189C210.012 134.254 216.161 134.254 217.501 134.189L233.958 133.393C234.803 133.352 235.422 132.554 235.28 131.69L231.353 107.879L231.558 105.656L237.442 127.343Z" fill="white"/>
<path d="M219.184 66.5667L217.889 62.0581C217.761 61.6121 217.474 61.2331 217.086 60.9978L215.625 60.11C214.059 59.1585 212.119 59.1585 210.552 60.11L209.091 60.9978C208.703 61.2331 208.417 61.6121 208.288 62.0581L206.993 66.5667L202.128 67.9557L213.088 72.3271L224.048 67.9557L219.184 66.5667Z" fill="#BCAAA4"/>
<path d="M217.676 61.6009C217.527 61.3571 217.329 61.1467 217.084 60.9981L215.622 60.11C214.056 59.1585 212.116 59.1585 210.55 60.11L209.088 60.9981C208.844 61.1467 208.646 61.3571 208.496 61.6009C209.412 63.246 211.122 64.3563 213.086 64.3563C215.05 64.3563 216.761 63.246 217.676 61.6009Z" fill="#A1887F"/>
<path d="M216.56 50.6028C216.56 52.8261 216.105 61.1218 213.088 61.1218C210.07 61.1218 209.615 52.8261 209.615 50.6028C209.615 48.3796 211.469 46.577 213.088 46.577C214.707 46.5773 216.56 48.3796 216.56 50.6028Z" fill="#A1887F"/>
<path d="M223.083 70.6884L218.61 67.931L213.083 75.6682L221.173 84.2534L223.083 70.6884Z" fill="#EEEEEE"/>
<path d="M203.08 70.6884L207.553 67.931L213.08 75.6682L204.991 84.2534L203.08 70.6884Z" fill="#EEEEEE"/>
<path d="M217.273 116.329L213.078 120.817L208.884 116.329L211.319 76.0767H214.837L217.273 116.329Z" fill="#0097A7"/>
<path d="M217.165 74.4236C217.032 74.2065 216.856 74.0194 216.638 73.887L215.316 73.0839C213.934 72.2446 212.223 72.2446 210.842 73.0839L209.52 73.887C209.302 74.0194 209.126 74.2065 208.992 74.4236C209.807 75.8884 209.987 78.3751 213.079 78.3751C216.171 78.3751 216.35 75.8884 217.165 74.4236Z" fill="#0097A7"/>
<path d="M213.082 78.8208C212.118 78.8208 211.344 78.5989 210.716 78.1425C210.524 78.0031 210.478 77.7287 210.612 77.5299C210.747 77.331 211.011 77.283 211.203 77.4224C211.683 77.7714 212.298 77.9414 213.082 77.9414C213.739 77.9414 214.272 77.8236 214.711 77.5815C214.918 77.4679 215.175 77.5489 215.285 77.763C215.395 77.9776 215.317 78.2435 215.11 78.3576C214.545 78.6693 213.881 78.8208 213.082 78.8208Z" fill="#45271D"/>
<path d="M246.501 113.953L250.154 126.716L239.465 129.802L236.082 117.1L246.501 113.953Z" fill="white"/>
<path d="M223.084 67.3417L234.271 70.6648C234.986 70.8769 235.548 71.4494 235.765 72.186L250.836 123.268L237.44 127.335L231.555 105.648L231.351 107.871L235.277 131.682C235.42 132.546 234.8 133.344 233.956 133.385L219.664 134.181C218.323 134.246 217.096 133.406 216.629 132.102L213.084 111.896V96.8422L223.084 67.3417Z" fill="#C1544F"/>
<path d="M231.555 106.092C231.545 106.092 231.536 106.092 231.526 106.091C231.293 106.075 231.115 105.866 231.131 105.624L232.956 76.902C232.971 76.6594 233.183 76.4773 233.407 76.4919C233.641 76.5082 233.818 76.7174 233.802 76.9595L231.977 105.682C231.963 105.914 231.776 106.092 231.555 106.092Z" fill="#45271D"/>
<path d="M233.953 133.826C233.728 133.826 233.54 133.642 233.529 133.407C233.518 133.164 233.699 132.958 233.933 132.947C234.214 132.933 234.477 132.795 234.654 132.567C234.83 132.34 234.904 132.045 234.857 131.757L230.93 107.945C230.924 107.907 230.922 107.869 230.926 107.83L231.13 105.607C231.15 105.396 231.311 105.23 231.514 105.211C231.718 105.193 231.905 105.326 231.961 105.53L237.729 126.789L249.431 123.236C249.654 123.168 249.892 123.301 249.957 123.534C250.023 123.767 249.895 124.011 249.67 124.079L237.556 127.757C237.446 127.791 237.33 127.777 237.231 127.72C237.132 127.663 237.059 127.567 237.028 127.455L231.876 108.467L235.693 131.609C235.781 132.144 235.643 132.695 235.314 133.118C234.986 133.542 234.497 133.8 233.973 133.825C233.966 133.825 233.959 133.826 233.953 133.826Z" fill="#45271D"/>
<path d="M213.084 97.2802C213.037 97.2802 212.989 97.2723 212.943 97.2552C212.722 97.1747 212.606 96.9236 212.683 96.6948L219.943 75.2773C220.021 75.0484 220.264 74.928 220.484 75.0083C220.705 75.0888 220.821 75.3398 220.744 75.5687L213.483 96.9862C213.422 97.1668 213.258 97.2802 213.084 97.2802Z" fill="#45271D"/>
<path d="M239.145 124.684C239.419 124.684 239.642 124.454 239.642 124.17C239.642 123.886 239.419 123.656 239.145 123.656C238.872 123.656 238.649 123.886 238.649 124.17C238.649 124.454 238.872 124.684 239.145 124.684Z" fill="#45271D"/>
<path d="M238.605 122.722C238.879 122.722 239.101 122.492 239.101 122.208C239.101 121.924 238.879 121.694 238.605 121.694C238.331 121.694 238.109 121.924 238.109 122.208C238.109 122.492 238.331 122.722 238.605 122.722Z" fill="#45271D"/>
<path d="M239.471 130.24C239.398 130.24 239.326 130.221 239.262 130.183C239.164 130.126 239.092 130.03 239.062 129.917L238.302 127.065C238.24 126.831 238.373 126.589 238.599 126.524C238.825 126.46 239.058 126.597 239.12 126.831L239.767 129.258L249.666 126.401L249.14 123.743C249.093 123.506 249.241 123.273 249.47 123.225C249.698 123.175 249.925 123.329 249.971 123.567L250.576 126.626C250.621 126.853 250.489 127.076 250.275 127.138L239.585 130.223C239.547 130.235 239.509 130.24 239.471 130.24Z" fill="#45271D"/>
<path d="M215.545 105.323C216.056 105.323 216.47 104.893 216.47 104.364C216.47 103.835 216.056 103.406 215.545 103.406C215.034 103.406 214.62 103.835 214.62 104.364C214.62 104.893 215.034 105.323 215.545 105.323Z" fill="#45271D"/>
<path d="M215.545 109.254C216.056 109.254 216.47 108.825 216.47 108.295C216.47 107.766 216.056 107.337 215.545 107.337C215.034 107.337 214.62 107.766 214.62 108.295C214.62 108.825 215.034 109.254 215.545 109.254Z" fill="#45271D"/>
<path d="M215.545 101.387C216.056 101.387 216.47 100.958 216.47 100.429C216.47 99.8992 216.056 99.4701 215.545 99.4701C215.034 99.4701 214.62 99.8992 214.62 100.429C214.62 100.958 215.034 101.387 215.545 101.387Z" fill="#45271D"/>
<path d="M179.661 113.956L176.008 126.719L186.697 129.805L190.08 117.103L179.661 113.956Z" fill="white"/>
<path d="M203.087 67.3425L191.9 70.6657C191.186 70.8777 190.624 71.4503 190.407 72.1869L175.336 123.269L188.732 127.336L194.616 105.649L194.821 107.872L190.894 131.683C190.752 132.547 191.371 133.345 192.216 133.386L206.508 134.182C207.848 134.247 209.075 133.407 209.543 132.103L213.088 111.897V96.8434L203.087 67.3425Z" fill="#C1544F"/>
<path d="M194.612 106.092C194.391 106.092 194.204 105.914 194.189 105.681L192.364 76.9591C192.349 76.717 192.526 76.5078 192.76 76.4915C192.981 76.4761 193.195 76.659 193.211 76.9016L195.036 105.624C195.051 105.866 194.874 106.075 194.64 106.091C194.631 106.092 194.621 106.092 194.612 106.092Z" fill="#45271D"/>
<path d="M188.727 127.774C188.687 127.774 188.647 127.769 188.608 127.757L176.494 124.078C176.27 124.01 176.141 123.766 176.207 123.533C176.273 123.3 176.509 123.167 176.733 123.235L188.435 126.788L194.203 105.529C194.267 105.296 194.5 105.159 194.727 105.225C194.952 105.291 195.083 105.534 195.02 105.768L189.136 127.454C189.105 127.567 189.032 127.663 188.933 127.719C188.869 127.756 188.799 127.774 188.727 127.774Z" fill="#45271D"/>
<path d="M209.54 132.543C209.515 132.543 209.489 132.541 209.464 132.536C209.233 132.493 209.08 132.264 209.122 132.025L212.66 111.858V96.9187L205.424 75.5719C205.346 75.343 205.462 75.0919 205.683 75.0114C205.904 74.9315 206.146 75.0516 206.224 75.2804L213.484 96.6979C213.5 96.7448 213.508 96.7942 213.508 96.8438V111.898C213.508 111.924 213.506 111.95 213.501 111.976L209.957 132.182C209.92 132.394 209.741 132.543 209.54 132.543Z" fill="#45271D"/>
<path d="M187.191 124.686C187.465 124.686 187.687 124.456 187.687 124.172C187.687 123.888 187.465 123.658 187.191 123.658C186.917 123.658 186.695 123.888 186.695 124.172C186.695 124.456 186.917 124.686 187.191 124.686Z" fill="#45271D"/>
<path d="M187.733 122.724C188.007 122.724 188.229 122.493 188.229 122.209C188.229 121.925 188.007 121.695 187.733 121.695C187.459 121.695 187.237 121.925 187.237 122.209C187.237 122.493 187.459 122.724 187.733 122.724Z" fill="#45271D"/>
<path d="M186.7 130.241C186.661 130.241 186.623 130.235 186.586 130.224L175.896 127.139C175.682 127.077 175.55 126.853 175.595 126.627L176.2 123.568C176.247 123.33 176.471 123.176 176.701 123.225C176.93 123.274 177.078 123.506 177.031 123.745L176.505 126.402L186.404 129.259L187.051 126.832C187.113 126.598 187.347 126.461 187.572 126.525C187.798 126.59 187.931 126.832 187.868 127.066L187.109 129.918C187.079 130.031 187.007 130.126 186.909 130.184C186.844 130.221 186.772 130.241 186.7 130.241Z" fill="#45271D"/>
<path d="M223.082 67.3425L218.609 64.5848L213.082 72.322L221.172 80.9075L223.082 67.3425Z" fill="white"/>
<path d="M203.08 67.3425L207.553 64.5848L213.08 72.322L204.991 80.9075L203.08 67.3425Z" fill="white"/>
<path d="M221.174 81.3465C221.062 81.3465 220.952 81.3003 220.871 81.2139L212.781 72.6287C212.617 72.455 212.62 72.1768 212.788 72.0071C212.955 71.8377 213.224 71.8407 213.388 72.0144L220.885 79.9709L222.665 68.1156C222.701 67.8758 222.917 67.7097 223.15 67.7487C223.381 67.786 223.54 68.011 223.504 68.2508L221.593 80.974C221.568 81.1384 221.456 81.2745 221.303 81.3252C221.261 81.3398 221.218 81.3465 221.174 81.3465Z" fill="#45271D"/>
<path d="M204.991 81.3489C204.948 81.3489 204.905 81.3421 204.862 81.3281C204.709 81.2773 204.597 81.1413 204.572 80.9769L202.661 68.2537C202.625 68.0139 202.784 67.7889 203.015 67.7516C203.247 67.7154 203.464 67.8787 203.5 68.1185L205.28 79.9738L212.777 72.0173C212.941 71.8431 213.209 71.84 213.377 72.01C213.545 72.1794 213.548 72.4579 213.384 72.6316L205.294 81.2167C205.214 81.3026 205.103 81.3489 204.991 81.3489Z" fill="#45271D"/>
</g>
<mask id="mask2_4486_55392" style="mask-type:luminance" maskUnits="userSpaceOnUse" x="0" y="0" width="266" height="222">
<path d="M23.1834 34.6575C37.2779 16.911 58.0661 5.58416 79.8454 2.01556C98.2327 -0.997081 115.87 1.04276 132.24 10.3348C149.265 19.9983 164.426 31.1812 183.769 35.3215C203.544 39.5543 221.086 41.5313 237.116 55.9479C268.623 84.2838 274.183 141.247 251.52 176.975C246.671 184.621 239.662 191.368 233.322 197.678C228.172 202.804 222.532 206.801 216.547 209.932C211.695 212.668 206.745 214.879 202.538 215.984C200.983 216.392 199.15 216.775 197.078 217.132C186.242 219.804 174.864 220.827 163.595 221.368C149.07 222.067 134.523 222.125 119.987 221.838C92.8476 221.304 68.7231 221.863 45.3897 204.849C14.5909 182.393 0.521631 140.3 0.681026 102.464C0.783591 78.0889 8.23702 53.4764 23.1834 34.6575Z" fill="white"/>
</mask>
<g mask="url(#mask2_4486_55392)">
<g opacity="0.5">
<path d="M23.1834 34.6575C37.2779 16.911 58.0661 5.58416 79.8454 2.01556C98.2327 -0.997081 115.87 1.04276 132.24 10.3348C149.265 19.9983 164.426 31.1812 183.769 35.3215C203.544 39.5543 221.086 41.5313 237.116 55.9479C268.623 84.2838 274.183 141.247 251.52 176.975C246.671 184.621 239.662 191.368 233.322 197.678C228.172 202.804 222.532 206.801 216.547 209.932C211.695 212.668 206.745 214.879 202.538 215.984C200.983 216.392 199.15 216.775 197.078 217.132C186.242 219.804 174.864 220.827 163.595 221.368C149.07 222.067 134.523 222.125 119.987 221.838C92.8476 221.304 68.7231 221.863 45.3897 204.849C14.5909 182.393 0.521631 140.3 0.681026 102.464C0.783591 78.0889 8.23702 53.4764 23.1834 34.6575Z" fill="#FFF5CE"/>
</g>
</g>
<path d="M68.3376 64.3602V209.221H96.6175V213.429H64.2783V64.3602H68.3376Z" fill="#A1887F"/>
<path d="M81.7293 213.425H138.557L116.492 28.4515H59.665L81.7293 213.425Z" fill="#BCAAA4"/>
<path d="M85.3864 209.216H133.951L112.844 32.6571H64.2783L85.3864 209.216Z" fill="#EFEBE9"/>
<path d="M114.442 159.309C114.279 159.309 114.125 159.213 114.054 159.049L82.459 85.9014C82.3632 85.6798 82.459 85.4195 82.6728 85.3205C82.8866 85.2215 83.1375 85.3205 83.2333 85.5421L114.828 158.69C114.924 158.912 114.828 159.172 114.614 159.271C114.558 159.297 114.499 159.309 114.442 159.309Z" fill="#45271D"/>
<path d="M119.242 188.182C119.08 188.182 118.925 188.086 118.855 187.922L87.2598 114.774C87.164 114.553 87.2598 114.292 87.4736 114.193C87.6877 114.095 87.9383 114.193 88.0341 114.415L119.629 187.563C119.725 187.785 119.629 188.045 119.415 188.144C119.359 188.17 119.3 188.182 119.242 188.182Z" fill="#45271D"/>
<path d="M126.924 213.871H81.7306C81.5165 213.871 81.3357 213.706 81.3095 213.486L63.012 60.0906C62.9833 59.8496 63.1484 59.63 63.3809 59.6002C63.6112 59.5714 63.8252 59.7413 63.8539 59.9826L82.1054 212.992H126.924C127.158 212.992 127.348 213.189 127.348 213.432C127.348 213.674 127.158 213.871 126.924 213.871Z" fill="#45271D"/>
<path d="M81.2282 209.665H68.3342C68.1001 209.665 67.9102 209.468 67.9102 209.226V101.132C67.9102 100.89 68.1001 100.693 68.3342 100.693C68.5683 100.693 68.7583 100.89 68.7583 101.132V208.786H81.2279C81.462 208.786 81.652 208.983 81.652 209.225C81.652 209.468 81.4626 209.665 81.2282 209.665Z" fill="#45271D"/>
<path d="M71.6772 95.0137C71.4664 95.0137 71.2835 94.8508 71.2567 94.6281L63.8557 32.7242C63.8408 32.5994 63.8785 32.4735 63.9588 32.3792C64.0395 32.2847 64.1553 32.2308 64.2768 32.2308H106.9C107.134 32.2308 107.324 32.4278 107.324 32.6704C107.324 32.913 107.134 33.1099 106.9 33.1099H64.7566L72.0986 94.5201C72.1272 94.7607 71.9622 94.9806 71.7297 95.0104C71.7121 95.0126 71.6945 95.0137 71.6772 95.0137Z" fill="#45271D"/>
<path d="M160.823 69.8984L168.898 65.8339C169.081 65.7421 169.213 65.5696 169.258 65.3651L169.353 64.9331L171.712 64.4181L172.287 69.1433C172.353 69.6841 172.968 69.9374 173.374 69.5907L181.14 62.9564L182.225 65.3772C182.297 65.5362 182.422 65.6605 182.579 65.7264C186.148 67.2238 192.537 69.9536 192.732 70.3896C192.986 70.9579 197.765 121.687 198.355 127.961C198.389 128.321 198.151 128.645 197.807 128.708C193.634 129.466 168.926 133.626 154.14 128.768C153.839 128.67 153.65 128.363 153.682 128.038L159.216 72.2799C159.318 71.2507 159.926 70.35 160.823 69.8984Z" fill="white"/>
<path d="M180.744 122.143L181.821 204.193C181.821 204.193 181.823 209.22 181.823 214.479H172.8L170.915 212.455L168.698 214.479H146.642C146.642 214.479 146.266 208.802 147.86 206.786C148.713 205.708 154.285 205.268 157.67 203.21C162.407 200.328 165.182 196.059 165.182 196.059L156.998 122.143H180.744Z" fill="#01579B"/>
<path d="M157.671 203.217C162.408 200.335 165.182 196.627 165.182 196.627L165.183 196.626L169.601 198.588H181.822L181.822 204.761C181.822 204.761 181.824 209.227 181.824 214.485H172.801L170.916 212.462L168.699 214.485H146.643C146.643 214.485 146.267 208.809 147.861 206.793C148.714 205.715 154.286 205.275 157.671 203.217Z" fill="#EEEEEE"/>
<path d="M181.824 204.765V200.555H173.707C173.707 200.555 172.864 196.421 165.185 196.63C165.185 196.63 162.411 200.339 157.673 203.22C154.288 205.279 148.715 205.719 147.863 206.797C146.269 208.813 146.645 214.489 146.645 214.489H168.701L170.918 212.465L172.803 214.489H181.826C181.826 209.231 181.824 204.765 181.824 204.765Z" fill="#616161"/>
<path d="M181.826 214.927H172.803C172.688 214.927 172.577 214.878 172.497 214.793L170.894 213.071L168.981 214.817C168.903 214.888 168.804 214.927 168.701 214.927H146.645C146.422 214.927 146.237 214.748 146.222 214.517C146.206 214.278 145.853 208.643 147.535 206.516C147.993 205.937 149.188 205.604 151.26 205.067C153.231 204.555 155.683 203.919 157.458 202.84C162.072 200.034 164.823 196.396 164.85 196.359C164.928 196.255 165.047 196.192 165.174 196.189C165.367 196.184 165.558 196.182 165.743 196.182C173.161 196.182 174.085 200.284 174.122 200.463C174.171 200.701 174.024 200.934 173.795 200.984C173.565 201.036 173.34 200.883 173.292 200.645C173.259 200.496 172.401 196.939 165.392 197.064C164.788 197.829 162.13 201.018 157.888 203.598C156.007 204.742 153.489 205.395 151.466 205.92C150.005 206.299 148.494 206.691 148.191 207.074C146.958 208.633 147.001 212.735 147.049 214.048H168.541L170.638 212.134C170.808 211.979 171.066 211.989 171.224 212.159L172.983 214.048H181.402C181.401 208.983 181.399 204.763 181.399 204.763V200.553C181.399 200.311 181.589 200.114 181.823 200.114C182.057 200.114 182.247 200.311 182.247 200.553V204.763C182.247 204.763 182.25 209.229 182.25 214.487C182.25 214.73 182.06 214.927 181.826 214.927Z" fill="#45271D"/>
<path d="M174.435 212.897C174.228 212.897 174.047 212.739 174.016 212.521C173.379 207.976 169.995 207.79 163.021 207.812C162.112 207.816 161.172 207.819 160.18 207.809C157.707 207.785 156.221 207.291 155.636 206.3C155.253 205.649 155.287 204.847 155.737 203.915C155.842 203.698 156.097 203.61 156.306 203.719C156.516 203.828 156.601 204.092 156.496 204.309C156.186 204.952 156.14 205.467 156.361 205.841C156.645 206.324 157.539 206.904 160.188 206.93C161.174 206.94 162.112 206.936 163.018 206.933C169.686 206.907 174.084 206.892 174.856 212.394C174.889 212.634 174.729 212.858 174.497 212.893C174.476 212.896 174.456 212.897 174.435 212.897Z" fill="#45271D"/>
<path d="M154.225 212.892C154.217 212.892 154.209 212.892 154.202 212.891C153.968 212.878 153.789 212.671 153.801 212.429C153.802 212.4 153.93 209.523 152.368 207.816C151.594 206.97 150.518 206.542 149.169 206.542C148.935 206.542 148.745 206.345 148.745 206.103C148.745 205.86 148.935 205.663 149.169 205.663C150.763 205.663 152.047 206.185 152.987 207.215C154.8 209.201 154.655 212.344 154.648 212.477C154.635 212.711 154.448 212.892 154.225 212.892Z" fill="#45271D"/>
<path d="M165.995 202.672C165.857 202.672 165.722 202.603 165.641 202.476C165.627 202.454 164.251 200.334 162.471 199.943C162.242 199.892 162.095 199.659 162.144 199.421C162.193 199.183 162.419 199.031 162.647 199.083C164.77 199.55 166.284 201.891 166.348 201.99C166.477 202.193 166.423 202.465 166.228 202.599C166.157 202.648 166.075 202.672 165.995 202.672Z" fill="#45271D"/>
<path d="M163.406 204.212C163.253 204.212 163.105 204.126 163.029 203.975C163.021 203.959 162.234 202.443 160.341 201.878C160.116 201.811 159.986 201.568 160.051 201.335C160.116 201.101 160.351 200.966 160.576 201.034C162.833 201.707 163.745 203.495 163.783 203.571C163.89 203.787 163.808 204.052 163.6 204.163C163.538 204.197 163.472 204.212 163.406 204.212Z" fill="#45271D"/>
<path d="M181.827 214.483H172.804L170.919 212.46L168.701 214.483H146.646C146.646 214.483 146.589 213.062 146.613 211.894H181.826C181.827 212.551 181.827 213.79 181.827 214.483Z" fill="#45271D"/>
<path d="M181.826 214.927H172.803C172.688 214.927 172.577 214.878 172.497 214.793L170.894 213.071L168.981 214.817C168.903 214.888 168.804 214.927 168.701 214.927H146.645C146.422 214.927 146.237 214.748 146.222 214.517C146.206 214.278 145.853 208.643 147.535 206.516C147.993 205.937 149.188 205.604 151.26 205.067C153.231 204.555 155.683 203.919 157.458 202.84C162.072 200.034 164.823 196.396 164.85 196.359C164.928 196.255 165.047 196.192 165.174 196.189C165.367 196.184 165.558 196.182 165.743 196.182C173.161 196.182 174.085 200.284 174.122 200.463C174.171 200.701 174.024 200.934 173.795 200.984C173.565 201.036 173.34 200.883 173.292 200.645C173.259 200.496 172.401 196.939 165.392 197.064C164.788 197.829 162.13 201.018 157.888 203.598C156.007 204.742 153.489 205.395 151.466 205.92C150.005 206.299 148.494 206.691 148.191 207.074C146.958 208.633 147.001 212.735 147.049 214.048H168.541L170.638 212.134C170.808 211.979 171.066 211.989 171.224 212.159L172.983 214.048H181.402C181.401 208.983 181.399 204.763 181.399 204.763V200.553C181.399 200.311 181.589 200.114 181.823 200.114C182.057 200.114 182.247 200.311 182.247 200.553V204.763C182.247 204.763 182.25 209.229 182.25 214.487C182.25 214.73 182.06 214.927 181.826 214.927Z" fill="#45271D"/>
<path d="M181.142 56.1014V65.6257C181.142 65.6257 177.493 71.2319 170.466 72.354L172.706 58.0989L181.142 56.1014Z" fill="#FCE4C4"/>
<path d="M172.706 58.0981L177.616 56.9354C176.763 61.0249 174.581 69.1217 171.236 72.2076C170.984 72.2614 170.728 72.3111 170.466 72.3532L172.706 58.0981Z" fill="#F2D0B0"/>
<path d="M172.063 37.4009C171.398 37.6398 170.443 37.5734 169.708 37.7647C168.901 37.9751 168.115 38.2741 167.37 38.6606C165.188 39.7933 163.42 41.7812 162.422 44.1195C161.302 46.7473 161.506 49.4343 161.498 52.2295C161.48 58.753 166.568 64.0562 172.861 64.0748C179.155 64.0933 184.289 58.82 184.289 52.2966C184.289 33.0048 172.068 37.3989 172.063 37.4009Z" fill="#FCE4C4"/>
<path d="M167.847 54.9332C166.955 54.9332 166.394 54.6025 166.362 54.584C166.231 54.5046 166.151 54.3573 166.154 54.1997C166.157 54.0496 166.247 50.4905 167.919 47.5707C168.037 47.3651 168.293 47.2967 168.493 47.419C168.691 47.5416 168.757 47.8078 168.639 48.0139C167.345 50.2754 167.064 53.0437 167.006 53.9304C167.306 54.0364 167.889 54.164 168.656 53.952C168.879 53.8903 169.109 54.028 169.169 54.2602C169.228 54.4919 169.095 54.7298 168.871 54.7915C168.497 54.8942 168.153 54.9332 167.847 54.9332Z" fill="#45271D"/>
<path d="M171.122 58.526C170.891 58.526 170.647 58.503 170.388 58.4533C170.161 58.4099 170.011 58.1832 170.053 57.9473C170.095 57.7117 170.313 57.5557 170.541 57.5998C172.717 58.0202 173.359 56.0455 173.385 55.9613C173.457 55.7338 173.692 55.6087 173.913 55.6819C174.133 55.756 174.253 56.0006 174.182 56.2286C173.915 57.0847 172.954 58.526 171.122 58.526Z" fill="#45271D"/>
<path d="M174.142 51.2798C174.08 50.4416 173.619 49.795 173.112 49.8351C172.605 49.8753 172.244 50.5872 172.306 51.4253C172.367 52.2632 172.829 52.9101 173.336 52.8699C173.843 52.8295 174.204 52.1176 174.142 51.2798Z" fill="#45271D"/>
<path d="M165.237 49.8351C164.73 49.8753 164.369 50.5872 164.431 51.4253C164.492 52.2632 164.954 52.9101 165.461 52.8699C165.968 52.8298 166.329 52.1179 166.267 51.2798C166.205 50.4416 165.744 49.795 165.237 49.8351Z" fill="#45271D"/>
<path d="M180.435 51.5067C180.435 51.5067 180.963 47.9872 178.437 47.0523C175.911 46.1173 180.481 41.5355 179.459 39.6657C178.437 37.7956 174.87 35.271 173.226 41.1616C171.581 47.0523 167.583 47.576 161.915 45.6778C156.246 43.7796 155.607 37.6831 161.489 38.1695C161.489 38.1695 165.803 25.9206 182.404 29.6609C182.404 29.6609 187.094 30.97 184.975 34.2424C184.975 34.2424 189.966 34.9899 190.615 39.0618C191.263 43.1336 194.425 56.7003 181.03 60.4341L180.435 51.5067Z" fill="#FFA000"/>
<path d="M186.797 47.9326C187.251 48.1744 187.519 48.6765 187.691 49.175C188.246 50.7809 188.047 52.6471 187.166 54.088C186.285 55.529 184.743 56.5136 183.105 56.6799C180.458 56.9489 179.319 53.6802 180.441 51.5021C181.283 49.8656 184.993 46.9733 186.797 47.9326Z" fill="#FCE4C4"/>
<path d="M184.97 54.0816C184.911 54.0816 184.851 54.0698 184.793 54.0454C183.635 53.5576 182.516 54.0311 182.505 54.0356C182.347 54.1049 182.164 54.0779 182.029 53.9669C181.895 53.8558 181.83 53.6774 181.86 53.5018C182.2 51.4894 184.698 50.4409 184.804 50.3971C185.046 50.2978 185.319 50.4204 185.415 50.6706C185.51 50.9211 185.392 51.2042 185.151 51.3037C185.13 51.3124 183.762 51.8911 183.106 52.8892C183.661 52.8148 184.394 52.8246 185.147 53.1422C185.388 53.2437 185.503 53.5282 185.405 53.7778C185.331 53.9669 185.155 54.0816 184.97 54.0816Z" fill="#45271D"/>
<path d="M187.994 42.4491C187.99 42.4491 187.987 42.4491 187.983 42.4488C187.749 42.4426 187.564 42.2404 187.57 41.9977C187.714 36.4011 182.712 35.9203 182.499 35.9026C182.374 35.8922 182.259 35.8249 182.187 35.7186C182.114 35.6123 182.091 35.4785 182.123 35.3523C182.133 35.3113 182.372 34.2866 181.708 33.4552C181.028 32.6053 179.59 32.2232 177.546 32.3503C177.321 32.3651 177.112 32.1806 177.097 31.9377C177.083 31.6953 177.261 31.4872 177.496 31.4726C179.86 31.3233 181.502 31.8072 182.371 32.906C182.98 33.6765 183.045 34.55 183.012 35.0824C185.158 35.4426 188.542 37.2314 188.419 42.0213C188.412 42.2597 188.223 42.4491 187.994 42.4491Z" fill="#EF6C00"/>
<path d="M183.998 40.5787C183.764 40.5787 183.574 40.3818 183.574 40.1391C183.574 37.8687 179.778 37.0246 179.739 37.0162C179.598 36.9859 179.481 36.8827 179.429 36.7425C179.377 36.6025 179.398 36.4448 179.484 36.3245C179.486 36.3217 179.82 35.8232 179.647 35.4415C179.538 35.2019 179.126 34.7845 177.583 34.6774C177.35 34.6611 177.173 34.4516 177.189 34.2095C177.204 33.9674 177.411 33.7837 177.64 33.8002C179.174 33.9065 180.082 34.3234 180.418 35.0749C180.616 35.5166 180.552 35.9615 180.438 36.2953C181.633 36.6541 184.422 37.7484 184.422 40.1391C184.422 40.3818 184.232 40.5787 183.998 40.5787Z" fill="#EF6C00"/>
<path d="M166.086 67.2529L168.897 65.838C169.079 65.7463 169.211 65.5738 169.256 65.3693L169.351 64.9371L171.71 64.422L172.286 69.1472C172.352 69.688 172.967 69.9413 173.373 69.5946L181.139 62.9603L182.224 65.3811C182.295 65.5401 182.42 65.6644 182.577 65.7303C182.736 65.7971 182.903 65.8672 183.073 65.9385L176.066 78.4344L172.535 72.8608L167.672 78.1074L166.086 67.2529Z" fill="#EEEEEE"/>
<path d="M184.951 206.853C185.225 206.853 185.447 206.623 185.447 206.339C185.447 206.055 185.225 205.825 184.951 205.825C184.677 205.825 184.455 206.055 184.455 206.339C184.455 206.623 184.677 206.853 184.951 206.853Z" fill="#45271D"/>
<path d="M183.057 206.34C183.331 206.34 183.553 206.11 183.553 205.826C183.553 205.542 183.331 205.311 183.057 205.311C182.783 205.311 182.561 205.542 182.561 205.826C182.561 206.11 182.783 206.34 183.057 206.34Z" fill="#45271D"/>
<path d="M195.31 122.136H157L157.264 117.508H195.106L195.31 122.136Z" fill="#4E342E"/>
<path d="M195.775 132.094H195.75L195.31 122.136H177.618V117.508H175.656V122.136H169.351L170.539 132.655L179.134 196.051C179.134 196.051 176.36 200.321 171.622 203.202C168.237 205.261 162.665 205.701 161.812 206.779C160.218 208.795 160.594 214.471 160.594 214.471H182.65L184.867 212.448L186.752 214.471H195.775C195.775 209.213 195.773 204.186 195.773 204.186L195.775 132.094Z" fill="#0277BD"/>
<path d="M190.506 198.187C190.505 198.187 190.504 198.187 190.503 198.187C190.269 198.186 190.08 197.987 190.082 197.744C190.449 144.733 186.208 125.384 186.165 125.195C186.111 124.958 186.252 124.722 186.48 124.666C186.709 124.611 186.937 124.757 186.99 124.994C187.034 125.184 191.298 144.603 190.93 197.751C190.928 197.992 190.739 198.187 190.506 198.187Z" fill="#45271D"/>
<path d="M172.926 74.2452L170.764 108.853L165.497 113.306L162.326 108.257L170.469 74.2452H172.926Z" fill="#FBC02D"/>
<path d="M176.064 69.4828C176.064 69.6932 174.918 76.241 171.372 76.241C168.212 76.241 170.584 70.6749 170.787 69.4828H176.064Z" fill="#FBC02D"/>
<path d="M171.372 76.673C170.931 76.673 170.552 76.5774 170.245 76.3892C170.043 76.2657 169.976 75.9962 170.095 75.7872C170.214 75.5782 170.474 75.5084 170.676 75.6321C170.851 75.7395 171.085 75.7936 171.371 75.7936C171.766 75.7936 172.148 75.6966 172.506 75.5053C172.714 75.3934 172.97 75.4783 173.078 75.6943C173.185 75.9103 173.104 76.1754 172.895 76.2865C172.416 76.5429 171.903 76.673 171.372 76.673Z" fill="#45271D"/>
<path d="M160.195 70.1602L169.35 64.9349C169.167 70.6026 166.201 96.8131 165.802 99.0498C165.372 101.454 165.862 103.181 160.292 130.226C157.923 129.841 155.671 129.31 153.624 128.597L155.472 109.969C155.472 109.969 154.688 110.504 153.895 110.504C141.006 110.504 156.426 76.5075 158.931 71.5013C159.215 70.9336 159.655 70.4682 160.195 70.1602Z" fill="#01579B"/>
<path d="M160.297 130.666C160.275 130.666 160.253 130.664 160.231 130.661C157.731 130.254 155.464 129.7 153.493 129.013C153.305 128.948 153.186 128.756 153.206 128.551L155.833 102.079C155.857 101.837 156.064 101.664 156.299 101.686C156.532 101.711 156.701 101.927 156.678 102.169L154.085 128.29C155.829 128.875 157.804 129.357 159.966 129.726C164.331 108.505 164.801 104.232 165.028 102.172C165.087 101.634 165.13 101.246 165.219 100.746C165.285 100.377 165.4 98.742 165.545 96.673C165.787 93.2194 166.118 88.4895 166.565 84.4238C166.592 84.1826 166.803 84.0104 167.034 84.0367C167.267 84.0645 167.434 84.2822 167.408 84.5234C166.963 88.5711 166.632 93.2906 166.391 96.7366C166.232 98.9961 166.128 100.489 166.053 100.906C165.969 101.376 165.928 101.752 165.871 102.272C165.641 104.359 165.163 108.701 160.711 130.317C160.669 130.523 160.494 130.666 160.297 130.666Z" fill="#45271D"/>
<path d="M158.315 100.151C158.217 100.151 158.118 100.116 158.038 100.045C156.513 98.6831 158.044 87.3001 158.55 83.8437C158.585 83.6039 158.799 83.4387 159.033 83.4751C159.264 83.5116 159.424 83.7357 159.388 83.9758C158.386 90.8303 157.796 98.6682 158.592 99.3784C158.769 99.5366 158.789 99.8146 158.636 99.9984C158.552 100.099 158.434 100.151 158.315 100.151Z" fill="#45271D"/>
<path d="M169.941 131.06C169.002 126.932 164.895 107.891 166.979 99.3305C168.873 91.5557 178.642 72.6328 182.338 65.6268C185.852 67.0986 192.534 69.9455 192.733 70.3915C193.004 70.9974 198.416 128.597 198.416 128.597C198.416 128.597 184.048 131.406 169.941 131.06Z" fill="#0277BD"/>
<path d="M172.364 131.08C171.56 131.08 170.757 131.07 169.955 131.051C169.762 131.046 169.597 130.907 169.552 130.712C168.005 123.91 164.617 107.224 166.566 99.2212C167.956 93.5132 173.525 81.9045 177.952 73.1709C178.06 72.9558 178.317 72.8738 178.525 72.9863C178.732 73.0991 178.812 73.3653 178.703 73.5802C174.297 82.2711 168.758 93.8122 167.388 99.4367C165.515 107.126 168.739 123.244 170.303 130.179C182.685 130.436 195.491 128.241 197.952 127.794C198.183 127.754 198.402 127.912 198.443 128.151C198.483 128.39 198.329 128.618 198.098 128.66C195.762 129.084 184.144 131.08 172.364 131.08Z" fill="#45271D"/>
<path d="M155.97 110.275L153.264 108.686C153.264 108.686 151.28 101.579 158.316 99.7094C158.316 99.7094 153.449 103.808 155.97 110.275Z" fill="white"/>
<path d="M155.972 110.702C155.9 110.702 155.828 110.683 155.763 110.645L153.057 109.055C152.968 109.002 152.9 108.918 152.866 108.817C152.845 108.754 150.803 102.438 157.129 99.2995C157.246 99.2411 157.383 99.2417 157.5 99.302C157.617 99.3615 157.7 99.4734 157.727 99.6055C157.772 99.8271 158.803 105.095 156.356 110.45C156.305 110.561 156.213 110.644 156.101 110.681C156.058 110.695 156.015 110.702 155.972 110.702ZM153.621 108.376L155.778 109.643C157.44 105.694 157.167 101.798 156.985 100.364C152.389 102.984 153.369 107.474 153.621 108.376Z" fill="#45271D"/>
<path d="M160.949 96.4864L166.397 96.9806C167.004 97.0359 167.511 97.4965 167.629 98.1172C167.749 98.7559 167.654 99.554 166.749 100.131C166.749 100.131 168.174 101.997 166.392 103.217C166.392 103.217 167.606 105.409 165.892 106.251C165.892 106.251 167.019 108.214 164.854 109.289L163.14 109.39C163.14 109.39 161.608 117.442 155.969 110.276C155.969 110.276 152.102 103.777 159.984 96.8098C160.252 96.5739 160.599 96.4547 160.949 96.4864Z" fill="#FCE4C4"/>
<path d="M167.632 98.1145C167.753 98.7532 167.657 99.5513 166.752 100.129C166.752 100.129 168.177 101.994 166.395 103.214C166.395 103.214 167.609 105.407 165.895 106.248C165.895 106.248 167.022 108.211 164.857 109.286L164.612 109.301L163.974 109.137C163.668 109.059 163.402 108.865 163.234 108.59C162.887 108.021 162.52 106.973 163.47 105.832C163.47 105.832 162.591 103.915 164.114 102.863C164.114 102.863 163.192 100.795 164.771 99.9182C164.771 99.9182 164.221 98.1485 165.198 97.1381C165.295 97.0371 165.408 96.9586 165.53 96.8988L166.4 96.9776C167.007 97.0329 167.514 97.4938 167.632 98.1145Z" fill="#F2D0B0"/>
<path d="M160.306 109.826C160.072 109.826 159.882 109.629 159.882 109.387C159.882 109.144 160.072 108.947 160.306 108.947H163.143L164.833 108.847C165.071 108.832 165.268 109.018 165.281 109.261C165.294 109.503 165.115 109.711 164.881 109.725L163.167 109.826L160.306 109.826Z" fill="#45271D"/>
<path d="M158.665 98.5156C158.569 98.5156 158.471 98.4816 158.392 98.4121C158.213 98.2553 158.19 97.9778 158.341 97.7924C159.828 95.9661 160.705 95.9517 161.035 96.0432L166.435 96.5332C166.668 96.5543 166.841 96.7677 166.821 97.0095C166.801 97.2513 166.599 97.4286 166.361 97.4093L160.913 96.9147C160.883 96.9119 160.852 96.9057 160.823 96.8962C160.766 96.8951 160.178 96.9001 158.99 98.3596C158.906 98.4626 158.786 98.5156 158.665 98.5156Z" fill="#45271D"/>
<path d="M166.753 100.556C166.744 100.556 166.735 100.556 166.725 100.556L160.279 100.135C160.046 100.119 159.868 99.9107 159.883 99.6684C159.898 99.426 160.104 99.2415 160.333 99.2572L166.779 99.6779C167.012 99.6933 167.19 99.902 167.175 100.144C167.161 100.377 166.975 100.556 166.753 100.556Z" fill="#45271D"/>
<path d="M166.395 103.646C166.385 103.646 166.374 103.645 166.364 103.644L160.275 103.177C160.041 103.159 159.866 102.948 159.883 102.706C159.9 102.463 160.099 102.282 160.338 102.3L166.427 102.767C166.66 102.785 166.836 102.996 166.818 103.239C166.801 103.469 166.615 103.646 166.395 103.646Z" fill="#45271D"/>
<path d="M165.894 106.683C165.885 106.683 165.875 106.682 165.866 106.682L159.89 106.266C159.656 106.25 159.479 106.04 159.495 105.798C159.511 105.555 159.716 105.367 159.947 105.389L165.923 105.804C166.156 105.821 166.333 106.03 166.317 106.273C166.302 106.505 166.116 106.683 165.894 106.683Z" fill="#45271D"/>
<path d="M168.743 94.023L169.141 93.0197C172.778 83.9893 179.43 71.1306 182.333 65.6268C183.048 65.9261 183.894 66.2827 184.789 66.6639L184.024 75.3938H180.596L181.227 82.874L168.743 94.023Z" fill="#01579B"/>
<path d="M168.744 94.4668C168.657 94.4668 168.57 94.4393 168.495 94.3837C168.336 94.2645 168.276 94.048 168.351 93.86L168.75 92.8569C170.665 88.1004 173.614 81.7694 177.515 74.0366C177.623 73.8212 177.88 73.7387 178.087 73.8509C178.295 73.9632 178.375 74.2291 178.266 74.4442C174.568 81.775 171.73 87.8387 169.822 92.4841L180.786 82.6922L180.173 75.4366C180.163 75.3138 180.203 75.1921 180.283 75.1014C180.364 75.0106 180.477 74.9587 180.596 74.9587H183.636L184.327 67.0826C184.348 66.8405 184.558 66.661 184.788 66.6846C185.021 66.7065 185.193 66.9202 185.172 67.162L184.446 75.4381C184.426 75.6647 184.243 75.8381 184.024 75.8381H181.059L181.65 82.84C181.662 82.9809 181.607 83.1192 181.504 83.2114L169.02 94.3604C168.941 94.4308 168.842 94.4668 168.744 94.4668Z" fill="#45271D"/>
<path d="M183.168 100.836L177.565 103.13L181.657 115.483L187.452 113.178L183.168 100.836Z" fill="white"/>
<path d="M192.732 70.392C192.732 70.392 225.071 104.193 185.29 114.712L180.326 100.827C180.326 100.827 191.155 97.2218 187.184 89.6066C182.212 80.0694 185.967 72.9165 192.732 70.392Z" fill="#0277BD"/>
<path d="M166.547 97.4167C166.847 97.107 167.285 96.9881 167.698 97.0801L174.461 98.5839C174.461 98.5839 177.658 99.2355 178.63 102.451C179.051 103.843 179.874 106.344 180.673 108.733C181.718 111.865 182.858 114.997 182.858 114.997C182.858 114.997 173.649 121.235 170.673 110.786L165.324 109.416C165.018 109.338 164.752 109.144 164.584 108.869C164.237 108.3 163.869 107.252 164.82 106.111C164.82 106.111 163.941 104.194 165.463 103.142C165.463 103.142 164.542 101.074 166.121 100.197C166.12 100.197 165.57 98.4271 166.547 97.4167Z" fill="#FCE4C4"/>
<path d="M170.671 111.229C170.638 111.229 170.604 111.225 170.569 111.216L165.221 109.846C164.804 109.74 164.45 109.477 164.224 109.107C163.61 108.101 163.652 106.997 164.331 106.042C164.058 105.247 163.943 103.906 164.95 102.997C164.675 102.143 164.583 100.79 165.633 99.9981C165.507 99.3714 165.369 98.0158 166.246 97.1092C166.643 96.6979 167.219 96.5274 167.786 96.6536L174.548 98.1574C174.777 98.2085 174.923 98.4421 174.874 98.6794C174.825 98.9173 174.6 99.0702 174.37 99.0169L167.608 97.5131C167.327 97.4511 167.035 97.5347 166.845 97.7313C166.074 98.5294 166.518 100.05 166.523 100.065C166.586 100.267 166.5 100.487 166.32 100.587C165.116 101.256 165.817 102.893 165.847 102.962C165.933 103.158 165.87 103.391 165.697 103.511C164.494 104.342 165.172 105.861 165.201 105.925C165.273 106.083 165.249 106.269 165.139 106.401C164.541 107.12 164.474 107.872 164.941 108.637C165.049 108.814 165.221 108.94 165.424 108.993L170.773 110.362C171 110.42 171.139 110.659 171.083 110.894C171.035 111.095 170.862 111.229 170.671 111.229Z" fill="#45271D"/>
<path d="M172.162 101.873C172.134 101.873 172.107 101.87 172.079 101.865L166.039 100.626C165.809 100.578 165.66 100.347 165.706 100.109C165.751 99.8707 165.974 99.7164 166.204 99.7633L172.244 101.002C172.474 101.049 172.623 101.281 172.577 101.519C172.538 101.728 172.36 101.873 172.162 101.873Z" fill="#45271D"/>
<path d="M171.417 104.869C171.388 104.869 171.359 104.866 171.33 104.86L165.378 103.574C165.148 103.525 165.001 103.292 165.049 103.054C165.097 102.816 165.324 102.664 165.551 102.713L171.503 103.999C171.733 104.049 171.88 104.282 171.832 104.519C171.79 104.727 171.614 104.869 171.417 104.869Z" fill="#45271D"/>
<path d="M170.831 107.956C170.801 107.956 170.769 107.952 170.738 107.945L164.727 106.542C164.498 106.489 164.355 106.254 164.406 106.017C164.457 105.78 164.685 105.63 164.913 105.684L170.924 107.087C171.152 107.14 171.296 107.376 171.245 107.612C171.2 107.817 171.025 107.956 170.831 107.956Z" fill="#45271D"/>
<path d="M182.858 115.439C182.683 115.439 182.519 115.326 182.458 115.144L178.231 102.598C178.192 102.484 178.201 102.358 178.255 102.251C178.308 102.143 178.403 102.064 178.515 102.03L180.57 101.423C180.795 101.359 181.029 101.492 181.094 101.726C181.158 101.959 181.028 102.203 180.803 102.269L179.18 102.748L183.259 114.855C183.337 115.084 183.22 115.334 182.999 115.414C182.952 115.431 182.905 115.439 182.858 115.439Z" fill="#45271D"/>
<path d="M185.288 115.153C185.115 115.153 184.954 115.042 184.891 114.866L179.927 100.981C179.887 100.869 179.892 100.744 179.943 100.636C179.994 100.528 180.085 100.446 180.195 100.41C180.251 100.391 185.82 98.4936 187.283 94.7174C187.872 93.1979 187.713 91.5491 186.81 89.817C183.531 83.528 183.732 77.5745 187.362 73.4834C187.52 73.3041 187.789 73.2932 187.961 73.4573C188.134 73.6216 188.145 73.8996 187.986 74.0783C184.617 77.8764 184.46 83.4601 187.556 89.3987C188.585 91.3724 188.758 93.2731 188.069 95.0473C186.688 98.6094 182.267 100.558 180.872 101.095L185.553 114.188C189.902 113.009 193.562 111.484 196.436 109.655C196.636 109.528 196.897 109.593 197.019 109.8C197.142 110.007 197.079 110.278 196.88 110.405C193.852 112.332 189.987 113.925 185.393 115.139C185.358 115.148 185.323 115.153 185.288 115.153Z" fill="#45271D"/>
<path d="M166.205 93.0198L161.927 80.7235L163.821 74.3653L161.35 73.9914L163.166 68.4665L169.354 64.9349C169.221 69.0612 166.606 84.6469 166.205 93.0198Z" fill="#01579B"/>
<path d="M166.199 93.4538C166.023 93.4538 165.861 93.3397 165.8 93.1632L161.522 80.867C161.491 80.7775 161.489 80.6793 161.516 80.5881L163.264 74.7205L161.283 74.4209C161.158 74.4021 161.048 74.3267 160.982 74.2153C160.916 74.104 160.902 73.9679 160.943 73.8442L162.526 69.0296C162.601 68.7999 162.842 68.677 163.064 68.7553C163.286 68.8335 163.404 69.0835 163.329 69.3132L161.91 73.6274L163.877 73.925C164 73.9435 164.108 74.0167 164.175 74.1253C164.241 74.2341 164.258 74.3671 164.222 74.4899L162.369 80.7076L165.909 90.8847C166.259 86.311 167.04 80.4347 167.74 75.1637C168.289 71.0377 168.762 67.4748 168.894 65.5062C168.911 65.2638 169.118 65.082 169.347 65.098C169.581 65.1149 169.757 65.325 169.741 65.567C169.607 67.5654 169.131 71.1421 168.581 75.2838C167.77 81.3893 166.85 88.3094 166.624 93.0364C166.614 93.2457 166.462 93.4182 166.263 93.4494C166.24 93.4522 166.22 93.4538 166.199 93.4538Z" fill="#45271D"/>
<path d="M178.048 78.102L172.702 69.6989L181.138 62.955L182.334 65.6234L178.048 78.102Z" fill="white"/>
<path d="M171.803 63.9833L168.625 65.1053L166.864 76.2335L172.701 69.6978L171.803 63.9833Z" fill="white"/>
<path d="M178.05 78.5453C177.909 78.5453 177.775 78.4718 177.696 78.3479L172.648 70.4129L167.179 76.5369C167.052 76.6794 166.85 76.719 166.681 76.6334C166.513 76.5481 166.419 76.3588 166.449 76.1672L168.061 65.9756C168.099 65.736 168.316 65.575 168.549 65.6129C168.78 65.6524 168.937 65.8782 168.899 66.1181L167.515 74.8668L172.393 69.4039C172.481 69.3046 172.608 69.2558 172.738 69.2642C172.868 69.2754 172.986 69.3478 173.058 69.4603L177.936 77.1274L181.792 65.8993C181.871 65.6704 182.113 65.5517 182.334 65.6325C182.554 65.7139 182.67 65.9655 182.591 66.1941L178.449 78.2531C178.396 78.4104 178.26 78.5221 178.101 78.542C178.084 78.5442 178.067 78.5453 178.05 78.5453Z" fill="#45271D"/>
<path d="M171.622 203.217C176.359 200.335 179.134 196.627 179.134 196.627L179.134 196.626L183.552 198.588H195.773L195.773 204.761C195.773 204.761 195.775 209.227 195.775 214.485H186.752L184.867 212.462L182.65 214.485H160.594C160.594 214.485 160.218 208.809 161.812 206.793C162.665 205.715 168.237 205.275 171.622 203.217Z" fill="white"/>
<path d="M195.776 204.765V200.555H187.659C187.659 200.555 186.816 196.421 179.137 196.63C179.137 196.63 176.363 200.339 171.625 203.22C168.24 205.279 162.668 205.719 161.815 206.797C160.221 208.813 160.597 214.489 160.597 214.489H182.653L184.87 212.465L186.755 214.489H195.778C195.778 209.231 195.776 204.765 195.776 204.765Z" fill="#616161"/>
<path d="M195.777 214.927H186.754C186.639 214.927 186.529 214.878 186.449 214.793L184.845 213.071L182.932 214.817C182.854 214.888 182.755 214.927 182.652 214.927H160.596C160.373 214.927 160.188 214.748 160.173 214.517C160.157 214.278 159.804 208.643 161.486 206.516C161.945 205.937 163.139 205.604 165.211 205.067C167.182 204.555 169.634 203.919 171.41 202.84C176.015 200.039 178.774 196.396 178.801 196.359C178.879 196.255 178.998 196.192 179.125 196.189C179.318 196.184 179.509 196.182 179.694 196.182C187.113 196.182 188.037 200.284 188.073 200.463C188.122 200.701 187.975 200.934 187.746 200.984C187.517 201.036 187.292 200.883 187.243 200.645C187.21 200.496 186.343 196.939 179.343 197.064C178.739 197.829 176.081 201.018 171.839 203.598C169.958 204.742 167.44 205.395 165.417 205.92C163.956 206.299 162.446 206.691 162.142 207.074C160.91 208.633 160.953 212.735 161 214.048H182.492L184.589 212.134C184.759 211.979 185.017 211.989 185.175 212.159L186.934 214.048H195.353C195.352 208.983 195.35 204.763 195.35 204.763L195.351 200.553C195.351 200.311 195.541 200.114 195.775 200.114C196.009 200.114 196.199 200.311 196.199 200.553L196.198 204.763C196.198 204.763 196.201 209.229 196.201 214.487C196.201 214.73 196.011 214.927 195.777 214.927Z" fill="#45271D"/>
<path d="M188.38 212.898C188.172 212.898 187.991 212.74 187.961 212.521C187.323 207.977 183.944 207.787 176.966 207.813C176.056 207.816 175.116 207.819 174.125 207.81C171.652 207.785 170.165 207.292 169.581 206.3C169.197 205.65 169.231 204.847 169.681 203.916C169.786 203.698 170.042 203.611 170.251 203.72C170.46 203.828 170.545 204.092 170.44 204.31C170.13 204.952 170.084 205.467 170.305 205.842C170.589 206.324 171.484 206.904 174.133 206.931C175.119 206.94 176.056 206.937 176.963 206.934C183.628 206.909 188.028 206.893 188.8 212.395C188.834 212.635 188.673 212.858 188.441 212.893C188.421 212.896 188.4 212.898 188.38 212.898Z" fill="#45271D"/>
<path d="M168.169 212.892C168.161 212.892 168.154 212.892 168.146 212.891C167.912 212.878 167.733 212.671 167.745 212.429C167.747 212.4 167.875 209.523 166.312 207.816C165.539 206.97 164.463 206.542 163.114 206.542C162.879 206.542 162.689 206.345 162.689 206.103C162.689 205.86 162.879 205.663 163.114 205.663C164.707 205.663 165.992 206.185 166.931 207.215C168.745 209.201 168.599 212.344 168.592 212.477C168.58 212.711 168.393 212.892 168.169 212.892Z" fill="#45271D"/>
<path d="M179.944 202.671C179.807 202.671 179.671 202.602 179.59 202.475C179.576 202.454 178.2 200.334 176.42 199.942C176.191 199.892 176.045 199.658 176.093 199.421C176.142 199.183 176.37 199.031 176.596 199.082C178.719 199.549 180.234 201.89 180.297 201.99C180.426 202.192 180.373 202.464 180.178 202.598C180.106 202.648 180.024 202.671 179.944 202.671Z" fill="#45271D"/>
<path d="M177.357 204.213C177.204 204.213 177.056 204.126 176.98 203.976C176.972 203.96 176.185 202.444 174.292 201.879C174.067 201.812 173.937 201.568 174.002 201.335C174.066 201.102 174.303 200.967 174.527 201.034C176.784 201.708 177.696 203.496 177.734 203.571C177.841 203.787 177.759 204.053 177.551 204.164C177.489 204.197 177.422 204.213 177.357 204.213Z" fill="#45271D"/>
<path d="M195.775 214.483H186.752L184.867 212.459L182.65 214.483H160.594C160.594 214.483 160.538 213.061 160.562 211.893H195.774C195.775 212.55 195.775 213.79 195.775 214.483Z" fill="#45271D"/>
<path d="M195.777 214.927H186.754C186.639 214.927 186.529 214.878 186.449 214.793L184.845 213.071L182.932 214.817C182.854 214.888 182.755 214.927 182.652 214.927H160.596C160.373 214.927 160.188 214.748 160.173 214.517C160.157 214.278 159.804 208.643 161.486 206.516C161.945 205.937 163.139 205.604 165.211 205.067C167.182 204.555 169.634 203.919 171.41 202.84C176.015 200.039 178.774 196.396 178.801 196.359C178.879 196.255 178.998 196.192 179.125 196.189C179.318 196.184 179.509 196.182 179.694 196.182C187.113 196.182 188.037 200.284 188.073 200.463C188.122 200.701 187.975 200.934 187.746 200.984C187.517 201.036 187.292 200.883 187.243 200.645C187.21 200.496 186.343 196.939 179.343 197.064C178.739 197.829 176.081 201.018 171.839 203.598C169.958 204.742 167.44 205.395 165.417 205.92C163.956 206.299 162.446 206.691 162.142 207.074C160.91 208.633 160.953 212.735 161 214.048H182.492L184.589 212.134C184.759 211.979 185.017 211.989 185.175 212.159L186.934 214.048H195.353C195.352 208.983 195.35 204.763 195.35 204.763L195.351 200.553C195.351 200.311 195.541 200.114 195.775 200.114C196.009 200.114 196.199 200.311 196.199 200.553L196.198 204.763C196.198 204.763 196.201 209.229 196.201 214.487C196.201 214.73 196.011 214.927 195.777 214.927Z" fill="#45271D"/>
<path d="M179.134 196.515C178.926 196.515 178.744 196.357 178.715 196.137L170.044 132.179C170.012 131.939 170.173 131.717 170.405 131.683C170.636 131.648 170.852 131.817 170.884 132.057L179.555 196.014C179.587 196.254 179.426 196.477 179.194 196.511C179.174 196.514 179.154 196.515 179.134 196.515Z" fill="#45271D"/>
</svg>
