<svg width="390" height="844" viewBox="0 0 390 844" fill="none" xmlns="http://www.w3.org/2000/svg">
<g clip-path="url(#clip0_4166_50585)">
<rect width="390" height="844" fill="white"/>
<rect width="390" height="844" fill="#FFDE59"/>
<path d="M207.417 342.079C209.496 338.026 212.255 336 215.695 336C219.134 336 220.853 337.715 220.853 341.144C220.853 343.248 219.813 345.548 217.734 348.042C213.575 352.874 209.616 358.447 205.857 364.76L199.739 375.399L271 502.714H222.495L175.322 415.087L136.036 485.411C133.796 489.464 131.877 493.556 130.277 497.687C128.677 501.896 126.558 504 123.919 504C120.64 504 119 502.402 119 499.207C119 497.336 119.72 495.193 121.159 492.777L203.218 350.146C204.098 348.587 204.817 347.301 205.377 346.288L207.417 342.079Z" fill="white"/>
</g>
<defs>
<clipPath id="clip0_4166_50585">
<rect width="390" height="844" fill="white"/>
</clipPath>
</defs>
</svg>
