<svg viewBox="0 0 390 490" preserveAspectRatio="none" fill="none" xmlns="http://www.w3.org/2000/svg">
<g clip-path="url(#clip0_2116_29874)">
<rect width="390" height="490" fill="#111111"/>
<g filter="url(#filter0_b_2116_29874)">
<path d="M221.351 0.5C271.007 0.5 227.079 159.018 171.695 110.375C116.31 61.7324 111.874 147 74.6755 147C-6.33116 147 -72 81.4097 -72 0.5C-72 -80.4097 -6.33116 -146 74.6755 -146C155.682 -146 171.695 0.5 221.351 0.5Z" fill="url(#paint0_linear_2116_29874)"/>
</g>
<path d="M198.339 41.9443C198.982 40.6485 199.836 40.0006 200.899 40.0006C201.962 40.0006 202.494 40.5488 202.494 41.6452C202.494 42.3181 202.173 43.0532 201.53 43.8506C200.244 45.3957 199.019 47.1774 197.857 49.1959L195.965 52.5974L218 93.3037H203.002L188.415 65.287L176.268 87.7715C175.575 89.0673 174.982 90.3756 174.487 91.6964C173.992 93.042 173.337 93.7148 172.521 93.7148C171.507 93.7148 171 93.204 171 92.1823C171 91.5842 171.223 90.8989 171.668 90.1264L197.041 44.5235C197.313 44.0251 197.536 43.6139 197.709 43.29L198.339 41.9443Z" fill="white"/>
<g filter="url(#filter1_b_2116_29874)">
<path d="M91.5 45.5C134 84.8496 92.4655 106 58.5 106C24.5345 106 -3 78.9132 -3 45.5C-3 12.0868 24.5345 -15 58.5 -15C64.0121 -15 68.2853 -12.8967 71.5527 -10.0166C78.8181 -3.61255 67.4731 8.1918 69.8308 17.5854C71.2939 23.4142 77.1505 32.2142 91.5 45.5Z" fill="url(#paint1_linear_2116_29874)"/>
</g>
<g filter="url(#filter2_b_2116_29874)">
<path d="M490 362.553C490 399.555 384.015 485.63 384.015 429.552C384.015 373.474 317 399.555 317 362.553C317 325.551 366.597 323.003 384.015 295.554C401.433 268.105 418.247 260.432 427.406 311.492C436.565 362.553 490 342.097 490 362.553Z" fill="url(#paint2_linear_2116_29874)"/>
</g>
<path d="M362.263 340.749C366.084 330.29 376.019 321.316 386.924 323.569C393.353 324.897 399.015 329.045 402.56 335.813C406.039 342.456 413.129 368.341 405.023 367.939C399.513 367.666 402.874 375.612 403.767 381.684C404.431 386.199 400.813 389.939 397.197 392.722C384.861 402.213 374.667 393.405 370.321 377.507C369.282 373.707 368.136 369.81 365.08 367.324C359.032 362.404 350.012 358.224 356.533 351.057C359.152 348.179 360.913 344.447 362.263 340.749Z" fill="url(#paint3_linear_2116_29874)"/>
<g filter="url(#filter3_b_2116_29874)">
<path d="M-11.05 316.032C-5.66409 287.257 81.429 329.906 47.2344 356.724C13.0398 383.542 61.9694 395.362 57.9347 416.917C49.1484 463.859 4.01748 494.799 -42.868 486.023C-89.7535 477.247 -120.639 432.079 -111.853 385.137C-103.066 338.196 -16.4359 344.807 -11.05 316.032Z" fill="url(#paint4_linear_2116_29874)"/>
</g>
<g filter="url(#filter4_b_2116_29874)">
<path d="M-9.36864 425.751C-38.0498 421.183 -26.974 400.714 -12.9971 391.21C0.979859 381.707 20.0147 385.333 29.5185 399.31C39.0222 413.287 35.396 432.322 21.4191 441.825C19.0986 443.403 16.6857 443.697 14.4814 443.372C9.72472 442.67 11.0998 434.697 7.5661 431.436C5.34211 429.384 0.428045 427.312 -9.36864 425.751Z" fill="url(#paint5_linear_2116_29874)"/>
</g>
<g clip-path="url(#clip1_2116_29874)">
<rect x="110" y="179" width="170" height="170" rx="85" fill="#FBF2D4"/>
<path d="M149.18 216.98H149.1L148.02 219.2L145.16 224.48L142.3 219.2L141.22 216.98H141.14V227H138.64V213.04H141.62L145.2 219.86H145.28L148.82 213.04H151.68V227H149.18V216.98ZM158.948 227.24C158.201 227.24 157.528 227.113 156.928 226.86C156.341 226.607 155.835 226.24 155.408 225.76C154.995 225.28 154.675 224.707 154.448 224.04C154.221 223.36 154.108 222.6 154.108 221.76C154.108 220.92 154.221 220.167 154.448 219.5C154.675 218.833 154.995 218.267 155.408 217.8C155.835 217.32 156.341 216.953 156.928 216.7C157.528 216.447 158.201 216.32 158.948 216.32C159.695 216.32 160.368 216.447 160.968 216.7C161.568 216.953 162.075 217.32 162.488 217.8C162.915 218.267 163.241 218.833 163.468 219.5C163.695 220.167 163.808 220.92 163.808 221.76C163.808 222.6 163.695 223.36 163.468 224.04C163.241 224.707 162.915 225.28 162.488 225.76C162.075 226.24 161.568 226.607 160.968 226.86C160.368 227.113 159.695 227.24 158.948 227.24ZM158.948 225.18C159.628 225.18 160.161 224.973 160.548 224.56C160.935 224.147 161.128 223.54 161.128 222.74V220.8C161.128 220.013 160.935 219.413 160.548 219C160.161 218.587 159.628 218.38 158.948 218.38C158.281 218.38 157.755 218.587 157.368 219C156.981 219.413 156.788 220.013 156.788 220.8V222.74C156.788 223.54 156.981 224.147 157.368 224.56C157.755 224.973 158.281 225.18 158.948 225.18ZM166.078 227V216.56H168.638V218.72H168.738C168.804 218.44 168.904 218.173 169.038 217.92C169.184 217.653 169.371 217.42 169.598 217.22C169.824 217.02 170.091 216.86 170.398 216.74C170.718 216.62 171.084 216.56 171.498 216.56H172.058V218.98H171.258C170.391 218.98 169.738 219.107 169.298 219.36C168.858 219.613 168.638 220.027 168.638 220.6V227H166.078ZM173.929 216.56H176.489V218.28H176.569C176.756 217.68 177.109 217.207 177.629 216.86C178.149 216.5 178.756 216.32 179.449 216.32C180.783 216.32 181.796 216.793 182.489 217.74C183.196 218.673 183.549 220.013 183.549 221.76C183.549 223.52 183.196 224.873 182.489 225.82C181.796 226.767 180.783 227.24 179.449 227.24C178.756 227.24 178.149 227.06 177.629 226.7C177.123 226.34 176.769 225.86 176.569 225.26H176.489V231H173.929V216.56ZM178.629 225.12C179.296 225.12 179.836 224.9 180.249 224.46C180.663 224.02 180.869 223.427 180.869 222.68V220.88C180.869 220.133 180.663 219.54 180.249 219.1C179.836 218.647 179.296 218.42 178.629 218.42C178.016 218.42 177.503 218.573 177.089 218.88C176.689 219.187 176.489 219.593 176.489 220.1V223.42C176.489 223.967 176.689 224.387 177.089 224.68C177.503 224.973 178.016 225.12 178.629 225.12ZM185.921 212.2H188.481V218.3H188.581C188.795 217.74 189.128 217.273 189.581 216.9C190.048 216.513 190.688 216.32 191.501 216.32C192.581 216.32 193.408 216.673 193.981 217.38C194.555 218.087 194.841 219.093 194.841 220.4V227H192.281V220.66C192.281 219.913 192.148 219.353 191.881 218.98C191.615 218.607 191.175 218.42 190.561 218.42C190.295 218.42 190.035 218.46 189.781 218.54C189.541 218.607 189.321 218.713 189.121 218.86C188.935 218.993 188.781 219.167 188.661 219.38C188.541 219.58 188.481 219.82 188.481 220.1V227H185.921V212.2ZM201.819 227.24C201.073 227.24 200.399 227.113 199.799 226.86C199.213 226.607 198.706 226.24 198.279 225.76C197.866 225.28 197.546 224.707 197.319 224.04C197.093 223.36 196.979 222.6 196.979 221.76C196.979 220.92 197.093 220.167 197.319 219.5C197.546 218.833 197.866 218.267 198.279 217.8C198.706 217.32 199.213 216.953 199.799 216.7C200.399 216.447 201.073 216.32 201.819 216.32C202.566 216.32 203.239 216.447 203.839 216.7C204.439 216.953 204.946 217.32 205.359 217.8C205.786 218.267 206.113 218.833 206.339 219.5C206.566 220.167 206.679 220.92 206.679 221.76C206.679 222.6 206.566 223.36 206.339 224.04C206.113 224.707 205.786 225.28 205.359 225.76C204.946 226.24 204.439 226.607 203.839 226.86C203.239 227.113 202.566 227.24 201.819 227.24ZM201.819 225.18C202.499 225.18 203.033 224.973 203.419 224.56C203.806 224.147 203.999 223.54 203.999 222.74V220.8C203.999 220.013 203.806 219.413 203.419 219C203.033 218.587 202.499 218.38 201.819 218.38C201.153 218.38 200.626 218.587 200.239 219C199.853 219.413 199.659 220.013 199.659 220.8V222.74C199.659 223.54 199.853 224.147 200.239 224.56C200.626 224.973 201.153 225.18 201.819 225.18ZM211.509 227C210.629 227 209.982 226.78 209.569 226.34C209.155 225.9 208.949 225.28 208.949 224.48V212.2H211.509V224.96H212.889V227H211.509ZM218.968 227.24C218.221 227.24 217.548 227.113 216.948 226.86C216.361 226.607 215.854 226.24 215.428 225.76C215.014 225.28 214.694 224.707 214.468 224.04C214.241 223.36 214.128 222.6 214.128 221.76C214.128 220.92 214.241 220.167 214.468 219.5C214.694 218.833 215.014 218.267 215.428 217.8C215.854 217.32 216.361 216.953 216.948 216.7C217.548 216.447 218.221 216.32 218.968 216.32C219.714 216.32 220.388 216.447 220.988 216.7C221.588 216.953 222.094 217.32 222.508 217.8C222.934 218.267 223.261 218.833 223.488 219.5C223.714 220.167 223.828 220.92 223.828 221.76C223.828 222.6 223.714 223.36 223.488 224.04C223.261 224.707 222.934 225.28 222.508 225.76C222.094 226.24 221.588 226.607 220.988 226.86C220.388 227.113 219.714 227.24 218.968 227.24ZM218.968 225.18C219.648 225.18 220.181 224.973 220.568 224.56C220.954 224.147 221.148 223.54 221.148 222.74V220.8C221.148 220.013 220.954 219.413 220.568 219C220.181 218.587 219.648 218.38 218.968 218.38C218.301 218.38 217.774 218.587 217.388 219C217.001 219.413 216.808 220.013 216.808 220.8V222.74C216.808 223.54 217.001 224.147 217.388 224.56C217.774 224.973 218.301 225.18 218.968 225.18ZM235.517 227.88C235.517 228.427 235.417 228.907 235.217 229.32C235.031 229.747 234.717 230.1 234.277 230.38C233.837 230.66 233.271 230.873 232.577 231.02C231.884 231.167 231.037 231.24 230.037 231.24C229.157 231.24 228.411 231.18 227.797 231.06C227.184 230.953 226.677 230.793 226.277 230.58C225.891 230.38 225.611 230.127 225.437 229.82C225.264 229.513 225.177 229.167 225.177 228.78C225.177 228.193 225.337 227.733 225.657 227.4C225.991 227.08 226.451 226.873 227.037 226.78V226.56C226.611 226.453 226.277 226.247 226.037 225.94C225.811 225.62 225.697 225.247 225.697 224.82C225.697 224.553 225.751 224.32 225.857 224.12C225.964 223.907 226.104 223.727 226.277 223.58C226.464 223.433 226.671 223.313 226.897 223.22C227.124 223.113 227.364 223.033 227.617 222.98V222.9C226.977 222.607 226.497 222.2 226.177 221.68C225.871 221.16 225.717 220.553 225.717 219.86C225.717 218.793 226.084 217.94 226.817 217.3C227.551 216.647 228.624 216.32 230.037 216.32C230.357 216.32 230.671 216.34 230.977 216.38C231.297 216.42 231.591 216.487 231.857 216.58V216.24C231.857 215.227 232.351 214.72 233.337 214.72H234.957V216.68H232.737V216.96C233.284 217.267 233.691 217.667 233.957 218.16C234.224 218.653 234.357 219.22 234.357 219.86C234.357 220.913 233.991 221.76 233.257 222.4C232.537 223.04 231.464 223.36 230.037 223.36C229.424 223.36 228.891 223.3 228.437 223.18C228.237 223.273 228.064 223.4 227.917 223.56C227.771 223.707 227.697 223.893 227.697 224.12C227.697 224.64 228.151 224.9 229.057 224.9H231.857C233.137 224.9 234.064 225.167 234.637 225.7C235.224 226.22 235.517 226.947 235.517 227.88ZM233.117 228.18C233.117 227.847 232.984 227.587 232.717 227.4C232.451 227.213 231.991 227.12 231.337 227.12H227.777C227.417 227.387 227.237 227.747 227.237 228.2C227.237 228.6 227.404 228.913 227.737 229.14C228.071 229.367 228.637 229.48 229.437 229.48H230.717C231.557 229.48 232.164 229.373 232.537 229.16C232.924 228.947 233.117 228.62 233.117 228.18ZM230.037 221.62C231.291 221.62 231.917 221.087 231.917 220.02V219.68C231.917 218.613 231.291 218.08 230.037 218.08C228.784 218.08 228.157 218.613 228.157 219.68V220.02C228.157 221.087 228.784 221.62 230.037 221.62ZM238.276 215.04C237.742 215.04 237.356 214.92 237.116 214.68C236.889 214.44 236.776 214.133 236.776 213.76V213.36C236.776 212.987 236.889 212.68 237.116 212.44C237.356 212.2 237.742 212.08 238.276 212.08C238.796 212.08 239.176 212.2 239.416 212.44C239.656 212.68 239.776 212.987 239.776 213.36V213.76C239.776 214.133 239.656 214.44 239.416 214.68C239.176 214.92 238.796 215.04 238.276 215.04ZM236.996 216.56H239.556V227H236.996V216.56ZM246.743 227.24C245.97 227.24 245.276 227.113 244.663 226.86C244.063 226.593 243.55 226.227 243.123 225.76C242.71 225.28 242.39 224.707 242.163 224.04C241.936 223.36 241.823 222.6 241.823 221.76C241.823 220.933 241.93 220.187 242.143 219.52C242.37 218.853 242.69 218.287 243.103 217.82C243.516 217.34 244.023 216.973 244.623 216.72C245.223 216.453 245.903 216.32 246.663 216.32C247.476 216.32 248.183 216.46 248.783 216.74C249.383 217.02 249.876 217.4 250.263 217.88C250.65 218.36 250.936 218.92 251.123 219.56C251.323 220.187 251.423 220.86 251.423 221.58V222.42H244.483V222.68C244.483 223.44 244.696 224.053 245.123 224.52C245.55 224.973 246.183 225.2 247.023 225.2C247.663 225.2 248.183 225.067 248.583 224.8C248.996 224.533 249.363 224.193 249.683 223.78L251.063 225.32C250.636 225.92 250.05 226.393 249.303 226.74C248.57 227.073 247.716 227.24 246.743 227.24ZM246.703 218.24C246.023 218.24 245.483 218.467 245.083 218.92C244.683 219.373 244.483 219.96 244.483 220.68V220.84H248.763V220.66C248.763 219.94 248.583 219.36 248.223 218.92C247.876 218.467 247.37 218.24 246.703 218.24Z" fill="#111111"/>
<path fill-rule="evenodd" clip-rule="evenodd" d="M166.819 240.557C167.836 239.601 169.435 239.65 170.391 240.668C175.686 246.3 178.25 253.564 178.25 262.222C178.25 269.028 175.355 274.901 172.487 279.689C171.764 280.895 171.032 282.051 170.339 283.138C170.271 283.244 170.204 283.349 170.138 283.454C169.514 284.432 168.931 285.346 168.398 286.225C167.191 288.212 166.392 289.775 166.058 291.058C164.973 295.231 164.439 300.331 164.506 306.402C164.521 307.797 163.402 308.941 162.006 308.957C160.611 308.972 159.467 307.853 159.451 306.457C159.381 300.085 159.936 294.514 161.166 289.785C161.701 287.73 162.849 285.624 164.076 283.602C164.641 282.673 165.254 281.71 165.872 280.741C165.94 280.635 166.008 280.528 166.075 280.422C166.768 279.336 167.467 278.232 168.15 277.092C170.903 272.497 173.195 267.608 173.195 262.222C173.195 254.624 170.978 248.672 166.708 244.13C165.752 243.113 165.802 241.513 166.819 240.557Z" fill="#111111"/>
<path fill-rule="evenodd" clip-rule="evenodd" d="M223.115 240.557C224.132 241.513 224.182 243.112 223.226 244.13C218.956 248.672 216.739 254.624 216.739 262.222C216.739 267.608 219.031 272.497 221.783 277.092C222.466 278.232 223.166 279.336 223.858 280.422C223.926 280.528 223.994 280.635 224.062 280.741C224.679 281.71 225.293 282.673 225.857 283.602C227.085 285.624 228.233 287.73 228.768 289.785C229.998 294.514 230.553 300.085 230.483 306.457C230.467 307.853 229.323 308.972 227.927 308.957C226.532 308.941 225.412 307.797 225.428 306.402C225.495 300.331 224.961 295.231 223.875 291.058C223.542 289.775 222.742 288.212 221.536 286.225C221.003 285.346 220.42 284.432 219.796 283.454C219.73 283.349 219.663 283.244 219.595 283.138C218.902 282.051 218.169 280.895 217.447 279.689C214.578 274.901 211.684 269.028 211.684 262.222C211.684 253.564 214.248 246.3 219.542 240.668C220.498 239.65 222.098 239.601 223.115 240.557Z" fill="#111111"/>
<path fill-rule="evenodd" clip-rule="evenodd" d="M163.627 284.582C164.373 283.403 165.934 283.052 167.114 283.798C177.877 290.61 187.39 293.845 195.717 293.845C204.02 293.845 213.015 290.626 222.747 283.859C223.894 283.062 225.469 283.345 226.266 284.491C227.062 285.637 226.779 287.212 225.633 288.009C215.35 295.159 205.362 298.9 195.717 298.9C186.094 298.9 175.638 295.176 164.411 288.07C163.231 287.323 162.88 285.762 163.627 284.582Z" fill="#111111"/>
<path d="M195.681 286.21C198.008 286.21 199.894 284.324 199.894 281.998C199.894 279.671 198.008 277.785 195.681 277.785C193.355 277.785 191.469 279.671 191.469 281.998C191.469 284.324 193.355 286.21 195.681 286.21Z" fill="#111111"/>
</g>
<path d="M195 360C182.393 360 169.91 357.517 158.262 352.692C146.615 347.868 136.032 340.797 127.118 331.882C118.203 322.968 111.132 312.385 106.308 300.738C101.483 289.09 99 276.607 99 264C99 251.393 101.483 238.91 106.308 227.262C111.132 215.615 118.203 205.032 127.118 196.118C136.032 187.203 146.615 180.132 158.262 175.308C169.91 170.483 182.393 168 195 168C207.607 168 220.09 170.483 231.738 175.308C243.385 180.132 253.968 187.203 262.882 196.118C271.797 205.032 278.868 215.615 283.692 227.262C288.517 238.91 291 251.393 291 264C291 276.607 288.517 289.09 283.692 300.738C278.868 312.385 271.797 322.968 262.882 331.882C253.968 340.797 243.385 347.868 231.738 352.692C220.09 357.517 207.607 360 195 360L195 360Z" stroke="#FBF2D4" stroke-width="14.3929"/>
<path d="M195 360C182.393 360 169.91 357.517 158.262 352.692C146.615 347.868 136.032 340.797 127.118 331.882C118.203 322.968 111.132 312.385 106.308 300.738C101.483 289.09 99 276.607 99 264C99 251.393 101.483 238.91 106.308 227.262C111.132 215.615 118.203 205.032 127.118 196.118C136.032 187.203 146.615 180.132 158.262 175.308C169.91 170.483 182.393 168 195 168C207.607 168 220.09 170.483 231.738 175.308C243.385 180.132 253.968 187.203 262.882 196.118C271.797 205.032 278.868 215.615 283.692 227.262C288.517 238.91 291 251.393 291 264C291 276.607 288.517 289.09 283.692 300.738C278.868 312.385 271.797 322.968 262.882 331.882C253.968 340.797 243.385 347.868 231.738 352.692C220.09 357.517 207.607 360 195 360L195 360Z" stroke="#FFDE59" stroke-width="14.3929" stroke-linecap="round"/>
<circle cx="259.831" cy="328.831" r="21.7597" fill="#FFDE59" stroke="#111111" stroke-width="3.62338"/>
<path d="M244.493 334V332.548H246.749V326.932H246.641L244.937 329.164L243.785 328.264L245.789 325.624H248.549V332.548H250.325V334H244.493ZM254.161 334.144C253.065 334.144 252.253 333.764 251.725 333.004C251.197 332.244 250.933 331.18 250.933 329.812C250.933 328.444 251.197 327.38 251.725 326.62C252.253 325.86 253.065 325.48 254.161 325.48C255.257 325.48 256.069 325.86 256.597 326.62C257.125 327.38 257.389 328.444 257.389 329.812C257.389 331.18 257.125 332.244 256.597 333.004C256.069 333.764 255.257 334.144 254.161 334.144ZM254.161 332.62C254.641 332.62 254.973 332.444 255.157 332.092C255.341 331.74 255.433 331.244 255.433 330.604V329.02C255.433 328.38 255.341 327.884 255.157 327.532C254.973 327.18 254.641 327.004 254.161 327.004C253.681 327.004 253.349 327.18 253.165 327.532C252.981 327.884 252.889 328.38 252.889 329.02V330.604C252.889 331.244 252.981 331.74 253.165 332.092C253.349 332.444 253.681 332.62 254.161 332.62ZM261.356 334.144C260.26 334.144 259.448 333.764 258.92 333.004C258.392 332.244 258.128 331.18 258.128 329.812C258.128 328.444 258.392 327.38 258.92 326.62C259.448 325.86 260.26 325.48 261.356 325.48C262.452 325.48 263.264 325.86 263.792 326.62C264.32 327.38 264.584 328.444 264.584 329.812C264.584 331.18 264.32 332.244 263.792 333.004C263.264 333.764 262.452 334.144 261.356 334.144ZM261.356 332.62C261.836 332.62 262.168 332.444 262.352 332.092C262.536 331.74 262.628 331.244 262.628 330.604V329.02C262.628 328.38 262.536 327.884 262.352 327.532C262.168 327.18 261.836 327.004 261.356 327.004C260.876 327.004 260.544 327.18 260.36 327.532C260.176 327.884 260.084 328.38 260.084 329.02V330.604C260.084 331.244 260.176 331.74 260.36 332.092C260.544 332.444 260.876 332.62 261.356 332.62ZM267.099 334L272.907 325.624H274.491L268.683 334H267.099ZM267.711 330.232C267.007 330.232 266.471 330.032 266.103 329.632C265.735 329.232 265.551 328.64 265.551 327.856C265.551 327.072 265.735 326.48 266.103 326.08C266.471 325.68 267.007 325.48 267.711 325.48C268.415 325.48 268.951 325.68 269.319 326.08C269.687 326.48 269.871 327.072 269.871 327.856C269.871 328.64 269.687 329.232 269.319 329.632C268.951 330.032 268.415 330.232 267.711 330.232ZM267.711 329.2C267.919 329.2 268.075 329.12 268.179 328.96C268.283 328.792 268.335 328.528 268.335 328.168V327.544C268.335 327.184 268.283 326.924 268.179 326.764C268.075 326.596 267.919 326.512 267.711 326.512C267.503 326.512 267.347 326.596 267.243 326.764C267.139 326.924 267.087 327.184 267.087 327.544V328.168C267.087 328.528 267.139 328.792 267.243 328.96C267.347 329.12 267.503 329.2 267.711 329.2ZM273.879 334.144C273.175 334.144 272.639 333.944 272.271 333.544C271.903 333.144 271.719 332.552 271.719 331.768C271.719 330.984 271.903 330.392 272.271 329.992C272.639 329.592 273.175 329.392 273.879 329.392C274.583 329.392 275.119 329.592 275.487 329.992C275.855 330.392 276.039 330.984 276.039 331.768C276.039 332.552 275.855 333.144 275.487 333.544C275.119 333.944 274.583 334.144 273.879 334.144ZM273.879 333.112C274.087 333.112 274.243 333.032 274.347 332.872C274.451 332.704 274.503 332.44 274.503 332.08V331.456C274.503 331.096 274.451 330.836 274.347 330.676C274.243 330.508 274.087 330.424 273.879 330.424C273.671 330.424 273.515 330.508 273.411 330.676C273.307 330.836 273.255 331.096 273.255 331.456V332.08C273.255 332.44 273.307 332.704 273.411 332.872C273.515 333.032 273.671 333.112 273.879 333.112Z" fill="black"/>
</g>
<defs>
<filter id="filter0_b_2116_29874" x="-92" y="-166" width="355" height="333" filterUnits="userSpaceOnUse" color-interpolation-filters="sRGB">
<feFlood flood-opacity="0" result="BackgroundImageFix"/>
<feGaussianBlur in="BackgroundImage" stdDeviation="10"/>
<feComposite in2="SourceAlpha" operator="in" result="effect1_backgroundBlur_2116_29874"/>
<feBlend mode="normal" in="SourceGraphic" in2="effect1_backgroundBlur_2116_29874" result="shape"/>
</filter>
<filter id="filter1_b_2116_29874" x="-57" y="-69" width="220.535" height="229" filterUnits="userSpaceOnUse" color-interpolation-filters="sRGB">
<feFlood flood-opacity="0" result="BackgroundImageFix"/>
<feGaussianBlur in="BackgroundImage" stdDeviation="27"/>
<feComposite in2="SourceAlpha" operator="in" result="effect1_backgroundBlur_2116_29874"/>
<feBlend mode="normal" in="SourceGraphic" in2="effect1_backgroundBlur_2116_29874" result="shape"/>
</filter>
<filter id="filter2_b_2116_29874" x="306.824" y="263.824" width="193.353" height="194.372" filterUnits="userSpaceOnUse" color-interpolation-filters="sRGB">
<feFlood flood-opacity="0" result="BackgroundImageFix"/>
<feGaussianBlur in="BackgroundImage" stdDeviation="5.08824"/>
<feComposite in2="SourceAlpha" operator="in" result="effect1_backgroundBlur_2116_29874"/>
<feBlend mode="normal" in="SourceGraphic" in2="effect1_backgroundBlur_2116_29874" result="shape"/>
</filter>
<filter id="filter3_b_2116_29874" x="-125.139" y="294.654" width="195.101" height="204.648" filterUnits="userSpaceOnUse" color-interpolation-filters="sRGB">
<feFlood flood-opacity="0" result="BackgroundImageFix"/>
<feGaussianBlur in="BackgroundImage" stdDeviation="5.89543"/>
<feComposite in2="SourceAlpha" operator="in" result="effect1_backgroundBlur_2116_29874"/>
<feBlend mode="normal" in="SourceGraphic" in2="effect1_backgroundBlur_2116_29874" result="shape"/>
</filter>
<filter id="filter4_b_2116_29874" x="-54.1684" y="359.039" width="115.856" height="111.321" filterUnits="userSpaceOnUse" color-interpolation-filters="sRGB">
<feFlood flood-opacity="0" result="BackgroundImageFix"/>
<feGaussianBlur in="BackgroundImage" stdDeviation="13.4358"/>
<feComposite in2="SourceAlpha" operator="in" result="effect1_backgroundBlur_2116_29874"/>
<feBlend mode="normal" in="SourceGraphic" in2="effect1_backgroundBlur_2116_29874" result="shape"/>
</filter>
<linearGradient id="paint0_linear_2116_29874" x1="250.493" y1="156.654" x2="210.119" y2="-70.343" gradientUnits="userSpaceOnUse">
<stop offset="0.0989583" stop-color="#FDE896"/>
<stop offset="0.630208" stop-color="#FFDE59"/>
</linearGradient>
<linearGradient id="paint1_linear_2116_29874" x1="104.827" y1="66.9037" x2="77.7567" y2="-37.1489" gradientUnits="userSpaceOnUse">
<stop stop-color="#111111"/>
<stop offset="0.0001" stop-color="#111111"/>
<stop offset="1" stop-color="#686868"/>
</linearGradient>
<linearGradient id="paint2_linear_2116_29874" x1="494.115" y1="453.751" x2="468.319" y2="319.631" gradientUnits="userSpaceOnUse">
<stop offset="0.659902" stop-color="#FFDE59"/>
<stop offset="1" stop-color="#FDE896"/>
</linearGradient>
<linearGradient id="paint3_linear_2116_29874" x1="377.593" y1="324.815" x2="339.86" y2="353.864" gradientUnits="userSpaceOnUse">
<stop stop-color="#111111"/>
<stop offset="0.0001" stop-color="#111111"/>
<stop offset="1" stop-color="#686868"/>
</linearGradient>
<linearGradient id="paint4_linear_2116_29874" x1="82.5988" y1="316.082" x2="-53.3202" y2="314.857" gradientUnits="userSpaceOnUse">
<stop offset="0.0989583" stop-color="#FDE896"/>
<stop offset="0.630208" stop-color="#FFDE59"/>
</linearGradient>
<linearGradient id="paint5_linear_2116_29874" x1="-20.9405" y1="420.527" x2="20.0793" y2="456.151" gradientUnits="userSpaceOnUse">
<stop stop-color="#111111"/>
<stop offset="0.0001" stop-color="#111111"/>
<stop offset="1" stop-color="#686868"/>
</linearGradient>
<clipPath id="clip0_2116_29874">
<rect width="390" height="490" fill="white"/>
</clipPath>
<clipPath id="clip1_2116_29874">
<rect x="110" y="179" width="170" height="170" rx="85" fill="white"/>
</clipPath>
</defs>
</svg>
