<svg width="24" height="24" viewBox="0 0 24 24" fill="none" xmlns="http://www.w3.org/2000/svg">
<path fill-rule="evenodd" clip-rule="evenodd" d="M5.23416 3.77289C4.5468 3.77289 3.98959 4.33962 3.98959 5.03872C3.98959 5.73781 4.5468 6.30454 5.23416 6.30454C5.92152 6.30454 6.47874 5.73781 6.47874 5.03872C6.47874 4.33962 5.92152 3.77289 5.23416 3.77289ZM2.49609 5.03872C2.49609 3.50071 3.72197 2.25391 5.23416 2.25391C6.74635 2.25391 7.97223 3.50071 7.97223 5.03872C7.97223 6.57672 6.74635 7.82353 5.23416 7.82353C3.72197 7.82353 2.49609 6.57672 2.49609 5.03872Z" fill="#111111"/>
<path fill-rule="evenodd" clip-rule="evenodd" d="M2.19533 9.58718C2.33681 9.42961 2.53694 9.33984 2.74675 9.33984H7.72505C7.93486 9.33984 8.13499 9.42961 8.27647 9.58718C8.41795 9.74475 8.48773 9.95559 8.46873 10.1681L7.47307 21.3073C7.43811 21.6985 7.11561 21.9981 6.72939 21.9981H3.74241C3.35619 21.9981 3.0337 21.6985 2.99873 21.3073L2.00307 10.1681C1.98407 9.95559 2.05385 9.74475 2.19533 9.58718ZM3.56446 10.8588L4.42435 20.4791H6.04745L6.90734 10.8588H3.56446Z" fill="#111111"/>
<path fill-rule="evenodd" clip-rule="evenodd" d="M21.3227 2C21.6968 2 22 2.30841 22 2.68884L22 21.058C22 21.4384 21.6968 21.7468 21.3227 21.7468C20.9487 21.7468 20.6454 21.4384 20.6454 21.058L20.6454 2.68884C20.6454 2.30841 20.9487 2 21.3227 2Z" fill="#111111"/>
<path fill-rule="evenodd" clip-rule="evenodd" d="M19.293 3.60681C19.293 3.98725 18.9897 4.29565 18.6157 4.29565L13.1958 4.29565C12.8217 4.29565 12.5185 3.98725 12.5185 3.60681C12.5185 3.22637 12.8217 2.91797 13.1958 2.91797L18.6157 2.91797C18.9897 2.91797 19.293 3.22637 19.293 3.60681Z" fill="#111111"/>
<path fill-rule="evenodd" clip-rule="evenodd" d="M19.2891 10.2201C19.2891 10.6005 18.9858 10.9089 18.6118 10.9089L11.3874 10.9089C11.0134 10.9089 10.7102 10.6005 10.7102 10.2201C10.7102 9.83966 11.0134 9.53125 11.3875 9.53125L18.6118 9.53125C18.9858 9.53125 19.2891 9.83966 19.2891 10.2201Z" fill="#111111"/>
<path fill-rule="evenodd" clip-rule="evenodd" d="M19.2891 16.8334C19.2891 17.2138 18.9858 17.5222 18.6118 17.5222L14.9996 17.5222C14.6256 17.5222 14.3223 17.2138 14.3223 16.8334C14.3223 16.4529 14.6256 16.1445 14.9996 16.1445L18.6118 16.1445C18.9858 16.1445 19.2891 16.4529 19.2891 16.8334Z" fill="#111111"/>
<path fill-rule="evenodd" clip-rule="evenodd" d="M19.2891 6.91541C19.2891 7.29584 18.9858 7.60425 18.6118 7.60425L14.9996 7.60425C14.6256 7.60425 14.3223 7.29584 14.3223 6.91541C14.3223 6.53497 14.6256 6.22656 14.9996 6.22656L18.6118 6.22656C18.9858 6.22656 19.2891 6.53497 19.2891 6.91541Z" fill="#111111"/>
<path fill-rule="evenodd" clip-rule="evenodd" d="M19.2891 13.5248C19.2891 13.9052 18.9858 14.2136 18.6118 14.2136L14.9996 14.2136C14.6256 14.2136 14.3223 13.9052 14.3223 13.5248C14.3223 13.1443 14.6256 12.8359 14.9996 12.8359L18.6118 12.8359C18.9858 12.8359 19.2891 13.1443 19.2891 13.5248Z" fill="#111111"/>
<path fill-rule="evenodd" clip-rule="evenodd" d="M19.2891 20.1381C19.2891 20.5185 18.9858 20.8269 18.6118 20.8269L13.1935 20.8269C12.8195 20.8269 12.5163 20.5185 12.5163 20.1381C12.5163 19.7576 12.8195 19.4492 13.1935 19.4492L18.6118 19.4492C18.9858 19.4492 19.2891 19.7576 19.2891 20.1381Z" fill="#111111"/>
</svg>
