<svg width="24" height="24" viewBox="0 0 24 24" fill="none" xmlns="http://www.w3.org/2000/svg">
<path fill-rule="evenodd" clip-rule="evenodd" d="M6.79757 7.48909L7.16143 11.4915C10.3186 10.5462 13.6814 10.5462 16.8386 11.4915L17.2025 7.48909C14.0938 6.33697 9.9062 6.33697 6.79757 7.48909ZM5.70458 6.31064C9.39324 4.72979 14.6068 4.72979 18.2955 6.31064C18.5941 6.43863 18.7764 6.74434 18.7469 7.0679L18.2469 12.5679C18.2259 12.7995 18.0985 13.0083 17.9022 13.133C17.7059 13.2578 17.4628 13.2844 17.2442 13.205C13.8545 11.975 10.1456 11.975 6.75585 13.205C6.53721 13.2844 6.29413 13.2578 6.09781 13.133C5.90149 13.0083 5.77416 12.7995 5.7531 12.5679L5.2531 7.0679C5.22368 6.74434 5.40595 6.43863 5.70458 6.31064Z" fill="#111111"/>
<path fill-rule="evenodd" clip-rule="evenodd" d="M10.1142 8.35699C10.4694 8.14388 10.9301 8.25906 11.1432 8.61424L12.6432 11.1142C12.8563 11.4694 12.7412 11.9301 12.386 12.1432C12.0308 12.3563 11.5701 12.2412 11.357 11.886L9.85699 9.38599C9.64388 9.0308 9.75906 8.5701 10.1142 8.35699Z" fill="#111111"/>
<path fill-rule="evenodd" clip-rule="evenodd" d="M4.5 3.75C4.08579 3.75 3.75 4.08579 3.75 4.5V19.5C3.75 19.9142 4.08578 20.25 4.5 20.25H19.5C19.9142 20.25 20.25 19.9142 20.25 19.5V4.5C20.25 4.08578 19.9142 3.75 19.5 3.75H4.5ZM2.25 4.5C2.25 3.25736 3.25736 2.25 4.5 2.25H19.5C20.7427 2.25 21.75 3.25737 21.75 4.5V19.5C21.75 20.7427 20.7427 21.75 19.5 21.75H4.5C3.25737 21.75 2.25 20.7427 2.25 19.5V4.5Z" fill="#111111"/>
<path fill-rule="evenodd" clip-rule="evenodd" d="M9.38373 10.9855C11.1174 10.7132 12.8828 10.7132 14.6165 10.9855C15.0257 11.0498 15.3053 11.4336 15.241 11.8428C15.1768 12.252 14.7929 12.5316 14.3837 12.4673C12.8043 12.2192 11.1959 12.2192 9.61649 12.4673C9.20729 12.5316 8.82347 12.252 8.75919 11.8428C8.69492 11.4336 8.97453 11.0498 9.38373 10.9855Z" fill="#111111"/>
</svg>
