<svg width="104" height="48" viewBox="0 0 104 48" fill="none" xmlns="http://www.w3.org/2000/svg">
<g filter="url(#filter0_d_3172_36753)">
<path d="M19.9359 9.4105C20.3153 8.65165 20.8187 8.27223 21.4461 8.27223C22.0735 8.27223 22.3872 8.59328 22.3872 9.23537C22.3872 9.62939 22.1975 10.0599 21.8182 10.5269C21.0594 11.4316 20.3371 12.4751 19.6514 13.6571L18.5351 15.6491L31.5359 39.487H22.6867L14.0806 23.0802L6.91326 36.2473C6.5047 37.0062 6.15451 37.7723 5.86269 38.5457C5.57087 39.3338 5.1842 39.7278 4.70269 39.7278C4.10445 39.7278 3.80533 39.4286 3.80533 38.8303C3.80533 38.4801 3.93665 38.0788 4.19929 37.6264L19.1699 10.9209C19.3304 10.629 19.4617 10.3882 19.5638 10.1985L19.9359 9.4105Z" fill="#FFDE59"/>
</g>
<g filter="url(#filter1_d_3172_36753)">
<path d="M38.8637 35.2722V27.774L35.7172 16.4999H38.4477L40.3036 23.5182H40.3463L41.9995 16.4999H44.7194L41.7222 27.774V35.2722H38.8637ZM49.7897 35.4855C48.8155 35.4855 48.0191 35.2793 47.4005 34.8669C46.789 34.4545 46.3374 33.843 46.0459 33.0323C45.7544 32.2217 45.6086 31.2191 45.6086 30.0245V21.4383C45.6086 20.3575 45.7508 19.4331 46.0352 18.6651C46.3197 17.8972 46.7712 17.307 47.3898 16.8946C48.0085 16.4821 48.8191 16.2759 49.8217 16.2759C50.5754 16.2759 51.2118 16.3932 51.7309 16.6279C52.25 16.8626 52.6695 17.2039 52.9895 17.6518C53.3095 18.0927 53.5406 18.6331 53.6828 19.2731C53.8321 19.9059 53.9068 20.6277 53.9068 21.4383V30.0245C53.9068 31.2191 53.7646 32.2217 53.4802 33.0323C53.2028 33.843 52.762 34.4545 52.1576 34.8669C51.5531 35.2793 50.7639 35.4855 49.7897 35.4855ZM49.7897 33.011C50.1452 33.011 50.4119 32.9043 50.5896 32.691C50.7674 32.4777 50.8847 32.1542 50.9416 31.7204C51.0056 31.2795 51.0376 30.7249 51.0376 30.0565V21.3103C51.0376 20.4926 50.9594 19.8633 50.803 19.4224C50.6536 18.9744 50.3266 18.7505 49.8217 18.7505C49.3026 18.7505 48.9506 18.9673 48.7657 19.4011C48.5809 19.8277 48.4884 20.4606 48.4884 21.2996V30.0565C48.4884 30.7391 48.5169 31.3009 48.5738 31.7417C48.6378 32.1755 48.7622 32.4955 48.9471 32.7017C49.1391 32.9079 49.4199 33.011 49.7897 33.011ZM60.0544 35.4855C59.0802 35.4855 58.2874 35.3042 57.6758 34.9416C57.0643 34.5718 56.6163 34.0172 56.3319 33.2777C56.0475 32.531 55.9053 31.5889 55.9053 30.4511V16.4999H58.7638V30.3978C58.7638 30.924 58.7851 31.3862 58.8278 31.7844C58.8776 32.1826 58.9913 32.4919 59.1691 32.7124C59.3469 32.9328 59.6384 33.043 60.0437 33.043C60.449 33.043 60.7406 32.9363 60.9183 32.723C61.1032 32.5026 61.217 32.1933 61.2596 31.7951C61.3023 31.3969 61.3236 30.9311 61.3236 30.3978V16.4999H64.1822V30.4511C64.1822 31.5889 64.0399 32.531 63.7555 33.2777C63.4782 34.0172 63.0338 34.5718 62.4222 34.9416C61.8178 35.3042 61.0285 35.4855 60.0544 35.4855ZM66.3939 35.2722V16.4999H68.6338L72.6123 27.7633L72.4096 22.6436V16.4999H74.9801V35.2722H72.9536L68.8685 23.6142L69.0285 28.5419V35.2722H66.3939ZM76.6053 35.2722V32.7337L80.4984 18.9638H76.9573V16.4999H83.4956V18.8144L79.6025 32.8084H83.4103V35.2722H76.6053ZM84.8541 35.2722V16.4999H91.1471V18.9638H87.7126V24.4248H90.9764V26.8353H87.7126V32.8084H91.2751V35.2722H84.8541ZM92.9216 35.2722V16.4999H99.2146V18.9638H95.7801V24.4248H99.0439V26.8353H95.7801V32.8084H99.3425V35.2722H92.9216Z" fill="white"/>
</g>
<defs>
<filter id="filter0_d_3172_36753" x="3.21846" y="8.27222" width="28.9044" height="32.6295" filterUnits="userSpaceOnUse" color-interpolation-filters="sRGB">
<feFlood flood-opacity="0" result="BackgroundImageFix"/>
<feColorMatrix in="SourceAlpha" type="matrix" values="0 0 0 0 0 0 0 0 0 0 0 0 0 0 0 0 0 0 127 0" result="hardAlpha"/>
<feOffset dy="0.586957"/>
<feGaussianBlur stdDeviation="0.293479"/>
<feComposite in2="hardAlpha" operator="out"/>
<feColorMatrix type="matrix" values="0 0 0 0 0 0 0 0 0 0 0 0 0 0 0 0 0 0 0.25 0"/>
<feBlend mode="normal" in2="BackgroundImageFix" result="effect1_dropShadow_3172_36753"/>
<feBlend mode="normal" in="SourceGraphic" in2="effect1_dropShadow_3172_36753" result="shape"/>
</filter>
<filter id="filter1_d_3172_36753" x="35.1303" y="16.2759" width="64.7992" height="20.3835" filterUnits="userSpaceOnUse" color-interpolation-filters="sRGB">
<feFlood flood-opacity="0" result="BackgroundImageFix"/>
<feColorMatrix in="SourceAlpha" type="matrix" values="0 0 0 0 0 0 0 0 0 0 0 0 0 0 0 0 0 0 127 0" result="hardAlpha"/>
<feOffset dy="0.586957"/>
<feGaussianBlur stdDeviation="0.293479"/>
<feComposite in2="hardAlpha" operator="out"/>
<feColorMatrix type="matrix" values="0 0 0 0 0 0 0 0 0 0 0 0 0 0 0 0 0 0 0.25 0"/>
<feBlend mode="normal" in2="BackgroundImageFix" result="effect1_dropShadow_3172_36753"/>
<feBlend mode="normal" in="SourceGraphic" in2="effect1_dropShadow_3172_36753" result="shape"/>
</filter>
</defs>
</svg>
