<svg width="104" height="32" viewBox="0 0 104 32" fill="none" xmlns="http://www.w3.org/2000/svg">
<path d="M20.4352 1.15798C20.8145 0.386 21.3179 1.33514e-05 21.9453 1.33514e-05C22.5728 1.33514e-05 22.8865 0.326614 22.8865 0.979828C22.8865 1.38066 22.6968 1.81861 22.3174 2.29368C21.5587 3.21411 20.8364 4.27558 20.1506 5.47809L19.0344 7.50453L32.0352 31.755H23.1859L14.5799 15.0643L7.41252 28.4593C7.00397 29.2313 6.65378 30.0107 6.36196 30.7975C6.07014 31.5992 5.68347 32 5.20196 32C4.60372 32 4.3046 31.6957 4.3046 31.087C4.3046 30.7307 4.43592 30.3224 4.69856 29.8622L19.6691 2.69451C19.8296 2.3976 19.9609 2.15264 20.0631 1.95965L20.4352 1.15798Z" fill="#FFDE59"/>
<path d="M38.363 27V19.5017L35.2165 8.22769H37.947L39.8029 15.246H39.8456L41.4988 8.22769H44.2187L41.2215 19.5017V27H38.363ZM49.289 27.2133C48.3148 27.2133 47.5184 27.0071 46.8998 26.5947C46.2882 26.1823 45.8367 25.5707 45.5452 24.7601C45.2536 23.9495 45.1079 22.9469 45.1079 21.7523V13.1661C45.1079 12.0853 45.2501 11.1609 45.5345 10.3929C45.8189 9.62495 46.2705 9.03476 46.8891 8.62234C47.5077 8.20991 48.3183 8.0037 49.321 8.0037C50.0747 8.0037 50.7111 8.12103 51.2302 8.35568C51.7493 8.59034 52.1688 8.93165 52.4888 9.37963C52.8088 9.82049 53.0399 10.3609 53.1821 11.0009C53.3314 11.6337 53.4061 12.3555 53.4061 13.1661V21.7523C53.4061 22.9469 53.2639 23.9495 52.9794 24.7601C52.7021 25.5707 52.2612 26.1823 51.6568 26.5947C51.0524 27.0071 50.2631 27.2133 49.289 27.2133ZM49.289 24.7388C49.6445 24.7388 49.9111 24.6321 50.0889 24.4188C50.2667 24.2055 50.384 23.8819 50.4409 23.4482C50.5049 23.0073 50.5369 22.4527 50.5369 21.7843V13.0381C50.5369 12.2204 50.4587 11.5911 50.3022 11.1502C50.1529 10.7022 49.8258 10.4782 49.321 10.4782C48.8019 10.4782 48.4499 10.6951 48.265 11.1289C48.0801 11.5555 47.9877 12.1884 47.9877 13.0274V21.7843C47.9877 22.4669 48.0161 23.0287 48.073 23.4695C48.137 23.9033 48.2615 24.2233 48.4463 24.4295C48.6383 24.6357 48.9192 24.7388 49.289 24.7388ZM59.5536 27.2133C58.5795 27.2133 57.7866 27.032 57.1751 26.6694C56.5636 26.2996 56.1156 25.745 55.8312 25.0054C55.5468 24.2588 55.4045 23.3166 55.4045 22.1789V8.22769H58.263V22.1256C58.263 22.6518 58.2844 23.114 58.327 23.5122C58.3768 23.9104 58.4906 24.2197 58.6684 24.4401C58.8461 24.6606 59.1377 24.7708 59.543 24.7708C59.9483 24.7708 60.2398 24.6641 60.4176 24.4508C60.6025 24.2304 60.7162 23.9211 60.7589 23.5229C60.8016 23.1247 60.8229 22.6589 60.8229 22.1256V8.22769H63.6814V22.1789C63.6814 23.3166 63.5392 24.2588 63.2548 25.0054C62.9775 25.745 62.533 26.2996 61.9215 26.6694C61.3171 27.032 60.5278 27.2133 59.5536 27.2133ZM65.8932 27V8.22769H68.1331L72.1115 19.4911L71.9089 14.3714V8.22769H74.4794V27H72.4529L68.3677 15.342L68.5277 20.2697V27H65.8932ZM76.1046 27V24.4615L79.9977 10.6916H76.4565V8.22769H82.9949V10.5422L79.1017 24.5361H82.9095V27H76.1046ZM84.3534 27V8.22769H90.6464V10.6916H87.2119V16.1526H90.4757V18.5631H87.2119V24.5361H90.7743V27H84.3534ZM92.4208 27V8.22769H98.7138V10.6916H95.2793V16.1526H98.5432V18.5631H95.2793V24.5361H98.8418V27H92.4208Z" fill="#111111"/>
</svg>
