<svg width="24" height="24" viewBox="0 0 24 24" fill="none" xmlns="http://www.w3.org/2000/svg">
<path d="M12.8214 1.76957C13.0759 1.25665 13.4137 1.00018 13.8346 1.00018C14.2555 1.00018 14.466 1.21719 14.466 1.65121C14.466 1.91753 14.3387 2.20852 14.0842 2.52417C13.5752 3.13574 13.0906 3.84102 12.6305 4.64001L11.8817 5.98644L20.6038 22.0993H14.6669L8.89316 11.0094L4.08467 19.9095C3.81057 20.4224 3.57564 20.9403 3.37985 21.4631C3.18407 21.9958 2.92466 22.2621 2.60162 22.2621C2.20027 22.2621 1.99959 22.0599 1.99959 21.6554C1.99959 21.4187 2.08769 21.1475 2.2639 20.8417L12.3075 2.7905C12.4152 2.59322 12.5033 2.43047 12.5718 2.30223L12.8214 1.76957Z" fill="#111111"/>
</svg>
