<svg width="72" height="50" viewBox="0 0 72 50" fill="none" xmlns="http://www.w3.org/2000/svg">
<path fill-rule="evenodd" clip-rule="evenodd" d="M0.283203 40.8947C0.283203 45.4389 4.20744 49.1359 9.03095 49.1359H62.4889C67.3124 49.1359 71.2366 45.4389 71.2366 40.8947C71.2366 37.5355 69.1044 34.5415 65.8044 33.2673L63.1154 32.2291C61.3047 31.9574 60.0288 33.9603 61.0404 35.4865L61.4057 36.0376L64.14 37.0933C65.7849 37.7284 66.8477 39.2205 66.8477 40.8947C66.8477 43.1588 64.8924 45.001 62.4889 45.001H9.03095C6.62746 45.001 4.67207 43.159 4.67207 40.8947C4.67207 39.2205 5.73491 37.7284 7.37986 37.0933L35.7599 26.1357L44.0125 29.3221L44.0835 29.3158C46.0212 29.1451 46.8675 26.7812 45.4785 25.4195L37.9543 22.5144V18.7784C42.2597 17.8386 45.4785 14.1956 45.4785 9.85797C45.4785 4.80946 41.1187 0.702148 35.7599 0.702148C30.4011 0.702148 26.0413 4.80946 26.0413 9.85797H30.4302C30.4302 7.08935 32.8211 4.83688 35.7599 4.83688C38.6987 4.83688 41.0896 7.08935 41.0896 9.85797C41.0896 12.6266 38.6987 14.8791 35.7599 14.8791H33.5655V22.5145L5.71546 33.2673C2.41546 34.5415 0.283203 37.5353 0.283203 40.8947Z" fill="#111111"/>
<path d="M53.2165 29.5819V30.6705H54.3051H58.6649C58.8339 30.6705 59.0311 30.8226 59.0339 31.0818C59.0325 31.3378 58.8411 31.4874 58.6692 31.4874H54.3094H53.2208V32.576V37.0715C53.2208 37.3293 53.0287 37.48 52.8562 37.48C52.6836 37.48 52.4915 37.3293 52.4915 37.0715V32.5804V31.4918H51.4029H47.0431C46.8705 31.4918 46.6784 31.3411 46.6784 31.0834C46.6784 30.8256 46.8705 30.6749 47.0431 30.6749H51.3986H52.4872V29.5863V25.0952C52.4872 24.8375 52.6793 24.6867 52.8519 24.6867C53.0244 24.6867 53.2165 24.8375 53.2165 25.0952V29.5819Z" fill="#111111" stroke="black" stroke-width="2.17717"/>
</svg>
