<svg width="94" height="87" viewBox="0 0 94 87" fill="none" xmlns="http://www.w3.org/2000/svg">
<path d="M42.1338 25.604C31.4112 25.604 22.6836 34.2144 22.6836 44.814C22.6836 55.4042 31.4016 64.0241 42.1338 64.0241C52.8659 64.0241 61.5839 55.4137 61.5839 44.814C61.5839 34.2239 52.8563 25.604 42.1338 25.604ZM42.1338 57.6207C34.9886 57.6207 29.167 51.8804 29.167 44.814C29.167 37.7571 34.979 32.0073 42.1338 32.0073C49.2789 32.0073 55.1005 37.7476 55.1005 44.814C55.1005 51.871 49.2885 57.6207 42.1338 57.6207Z" fill="#111111"/>
<path d="M51.8575 73.6195H9.72508C7.94119 73.6195 6.48339 72.1892 6.48339 70.4178V19.21C6.48339 17.4481 7.94119 16.0083 9.72508 16.0083H19.4502C21.2436 16.0083 22.6919 14.578 22.6919 12.8067C22.6919 11.0353 21.2436 9.60498 19.4502 9.60498H9.72508C4.36382 9.60498 0 13.9149 0 19.21V70.4273C0 75.7224 4.36382 80.0323 9.72508 80.0323H51.8575C53.651 80.0323 55.0992 78.602 55.0992 76.8306C55.0992 75.0498 53.651 73.6195 51.8575 73.6195Z" fill="#111111"/>
<path d="M45.3745 16.0083H77.7818C79.5753 16.0083 81.0235 17.4481 81.0235 19.21V44.8139C81.0235 46.5852 82.4717 48.0156 84.2652 48.0156C86.0587 48.0156 87.5069 46.5852 87.5069 44.8139V19.21C87.5069 13.9149 83.1431 9.60498 77.7818 9.60498H45.3745C43.581 9.60498 42.1328 11.0353 42.1328 12.8067C42.1328 14.578 43.581 16.0083 45.3745 16.0083Z" fill="#111111"/>
<path d="M68.0664 24.003C68.0664 26.6552 70.2435 28.8055 72.9289 28.8055C75.6144 28.8055 77.7915 26.6552 77.7915 24.003C77.7915 21.3507 75.6144 19.2004 72.9289 19.2004C70.2435 19.2004 68.0664 21.3507 68.0664 24.003Z" fill="#111111"/>
<path d="M25.9253 6.40335H38.8921C40.6855 6.40335 42.1338 4.97302 42.1338 3.20168C42.1338 1.43033 40.6855 0 38.8921 0H25.9253C24.1318 0 22.6836 1.43033 22.6836 3.20168C22.6932 4.97302 24.1414 6.40335 25.9253 6.40335Z" fill="#111111"/>
<path d="M90.7496 67.2162H81.0246V57.6206C81.0246 55.8493 79.5763 54.4189 77.7829 54.4189C75.9894 54.4189 74.5412 55.8493 74.5412 57.6206V67.2256H64.8257C63.0322 67.2256 61.584 68.656 61.584 70.4273C61.584 72.1986 63.0322 73.629 64.8257 73.629H74.5508V83.234C74.5508 85.0053 75.999 86.4357 77.7924 86.4357C79.5859 86.4357 81.0341 85.0053 81.0341 83.234V73.6195H90.7592C92.5527 73.6195 94.0009 72.1892 94.0009 70.4178C93.9913 68.656 92.5431 67.2162 90.7496 67.2162Z" fill="#111111"/>
</svg>
