<svg width="22" height="24" viewBox="0 0 22 24" fill="currentColor" xmlns="http://www.w3.org/2000/svg">
<path d="M19.4963 13.7316V9.48148C19.4963 5.66874 16.9066 2.45689 13.3985 1.49096C13.0512 0.616296 12.2026 0 11.2 0C10.1973 0 9.34872 0.616296 9.00146 1.49096C5.49331 2.45807 2.90368 5.66874 2.90368 9.48148V13.7316L0.880569 15.7547C0.657754 15.9763 0.53331 16.2773 0.53331 16.5926V18.963C0.53331 19.6184 1.06309 20.1481 1.7185 20.1481H20.6815C21.3369 20.1481 21.8666 19.6184 21.8666 18.963V16.5926C21.8666 16.2773 21.7422 15.9763 21.5194 15.7547L19.4963 13.7316ZM19.4963 17.7778H2.90368V17.0833L4.92679 15.0601C5.14961 14.8385 5.27405 14.5375 5.27405 14.2222V9.48148C5.27405 6.21393 7.93242 3.55556 11.2 3.55556C14.4675 3.55556 17.1259 6.21393 17.1259 9.48148V14.2222C17.1259 14.5375 17.2503 14.8385 17.4732 15.0601L19.4963 17.0833V17.7778ZM11.2 23.7037C12.7538 23.7037 14.0527 22.7153 14.5398 21.3333H7.86012C8.34724 22.7153 9.6462 23.7037 11.2 23.7037Z" stroke='currentColor' stroke-width="0" />
</svg>
