<svg width="17" height="16" viewBox="0 0 17 16" fill="none" xmlns="http://www.w3.org/2000/svg">
<path d="M16.4898 7.19489L1.37868 0.0837787C1.06757 -0.0611102 0.700457 -0.015777 0.435568 0.202001C0.169791 0.419779 0.0551239 0.77089 0.137791 1.10333L1.86135 7.99933L0.137791 14.8953C0.054235 15.2278 0.169791 15.5798 0.435568 15.7976C0.598235 15.9309 0.797346 15.9993 1.00001 15.9993C1.1289 15.9993 1.25779 15.9718 1.37868 15.9149L16.4898 8.80378C16.8009 8.65711 17 8.34422 17 7.99933C17 7.65445 16.8009 7.34156 16.4898 7.19489ZM2.31646 13.5078L3.06224 10.5238L8.11112 7.99933L3.06224 5.47489L2.31646 2.49089L14.0231 7.99933L2.31646 13.5078Z" fill="#111111"/>
</svg>
