<?xml version="1.0" encoding="utf-8"?>
<!-- Generator: Adobe Illustrator 24.1.3, SVG Export Plug-In . SVG Version: 6.00 Build 0)  -->
<svg version="1.1" id="Layer_1" xmlns="http://www.w3.org/2000/svg" xmlns:xlink="http://www.w3.org/1999/xlink" x="0px" y="0px"
	 viewBox="0 0 91.1729 226.6775" enable-background="new 0 0 91.1729 226.6775" xml:space="preserve">
<g>
	<path d="M49.8057,87.2771l-4.2178,0.1191l-4.2158-0.1191c0,0-8.2569,7.4048-16.0078,1.7143
		c0.3379,3.0371,0.4599,5.8477,0.2441,8.1704c-0.9629,10.3643-4.5371,11.0498-5.7949,20.7608
		c-0.1514,0.5527-0.2715,1.2314-0.3623,2.0371l12.4189,4.9302l7.3174,2.9047c0.6651,0.1314,1.4951,0.2872,2.3682,0.4317
		c1.4394,0.2388,2.9804,0.4443,4.0322,0.4443c1.0518,0,2.5928-0.2055,4.0322-0.4443c0.8721-0.1445,1.7022-0.2998,2.3682-0.4317
		l7.3174-2.9047l12.4199-4.9297c-0.0898-0.8047-0.2109-1.4824-0.3613-2.0347c-1.2578-9.7139-4.834-10.3984-5.795-20.7637
		c-0.2158-2.3232-0.0947-5.1338,0.2442-8.1713C58.0625,94.6828,49.8057,87.2771,49.8057,87.2771z"/>
	<path d="M48.6084,84.1667c0,0,16.5117-4.3066,16.9883-15.5527c0.0078-0.1753,0.0234-0.3184,0.0351-0.4776
		c0.0479-0.6533,0.129-1.1743,0.2393-1.5703c-0.2393-0.8105-0.5937-1.9599-1.0635-3.3466
		c-0.9472-2.8038-2.3554-6.5411-4.1767-10.2623c-0.5996-1.2407-1.252-2.4677-1.9424-3.6577
		c-0.0098-0.0171-0.0195-0.0346-0.0303-0.0517c-3.9824-1.169-8.3545-1.7891-13.0722-1.7725
		c-4.712-0.0166-9.0792,0.6021-13.0596,1.7691c-0.0098,0.018-0.0215,0.0356-0.0322,0.0537
		c-2.7793,4.7964-4.8653,10.1889-6.127,13.9209c-0.4687,1.3857-0.8232,2.5346-1.0635,3.3452
		c0.1123,0.4023,0.1953,0.9346,0.2422,1.6045c0.0108,0.1494,0.0264,0.2817,0.0332,0.4453
		c0.4776,11.2461,16.9883,15.5527,16.9883,15.5527h3.0195l0.001,3.2295l0.001-3.2295H48.6084z"/>
	<path d="M40.5967,130.5061l-11.5215-4.5738l-9.7744-3.8808c-0.0205,0.5503-0.0322,1.1387-0.0322,1.7773
		c0,17.7559,4.3769,22.8487,4.6523,39.5039v53.3448c0,5.5234,4.4766,10,10,10c5.5215,0,10-4.4766,10-10v-74.959
		c-0.1933-2.3589-0.5674-4.3579-1.0488-6.0327C42.2236,133.4333,41.4004,131.737,40.5967,130.5061z"/>
	<path d="M50.5801,130.5061c-0.8037,1.2309-1.6279,2.9267-2.2754,5.1787c-0.4824,1.6753-0.8555,3.6748-1.0498,6.0347v74.958
		c0,5.5234,4.4766,10,10,10c5.5195,0,10-4.4766,10-10v-53.3448c0.2754-16.6552,4.6523-21.748,4.6523-39.5039
		c0-0.6386-0.0117-1.2275-0.0322-1.7773l-9.7754,3.8808L50.5801,130.5061z"/>
	<path d="M6.5117,137.4763c3.5889,0,6.5-2.9126,6.5-6.5015c0-2.0288-0.0107-4.166-0.0107-6.3813
		c-0.0352-13.7202,0.457-30.833,5.0351-43.5235c0.8008-2.2446,1.7198-4.3242,2.751-6.2397c0.1944-1.6089,0.5176-3.1392,0.9121-4.481
		c0.4346-1.4819,0.9493-2.7226,1.4629-3.5761c0.5381-1.9053,2.4405-8.2686,5.585-14.6953c0.3125-0.6309,0.6406-1.2632,0.9765-1.8946
		c0.0059-0.0097,0.0108-0.0195,0.0166-0.0298c-6.2353,2.1924-9.7148,5.2373-11.0527,6.6133
		C9.2891,64.9836,4.8838,76.8518,2.5508,88.8332C0.1758,101.2068,0.0088,114.0979,0,124.5935
		c0.0029,2.2529,0.0108,4.3935,0.0108,6.3813C0.0108,134.5637,2.9209,137.4763,6.5117,137.4763z"/>
	<path d="M62.4268,52.0783c3.1425,6.4229,5.0459,12.7808,5.5849,14.6919c0.5147,0.854,1.0303,2.0967,1.4659,3.5801
		c0.3935,1.3408,0.7167,2.8696,0.9111,4.4766c2.4961,4.6465,4.292,10.2719,5.4707,16.4677c2.0928,10.8287,2.3203,23,2.3125,33.3013
		c0.0019,2.2193-0.0059,4.3521-0.0059,6.3789c0,3.5889,2.9082,6.4995,6.4991,6.4995c3.5888,0,6.499-2.9106,6.499-6.4995
		c0-1.9878,0.0088-4.1264,0.0088-6.3789c-0.0352-14.0102-0.2471-32.207-5.7901-47.8926c-2.666-7.4672-6.6797-14.4741-12.792-19.8315
		c-1.2607-1.3218-4.7607-4.4707-11.1582-6.7197c0.0059,0.0107,0.0117,0.0205,0.0166,0.0312
		C61.7852,50.8147,62.1143,51.447,62.4268,52.0783z"/>
	<path d="M40.8272,41.448c3.8427,0.8945,7.6767,0.6489,11.1777-0.4795c0.7266-0.2344,1.4365-0.5069,2.1309-0.8169
		c5.788-2.5884,10.3515-7.7378,11.9003-14.3911c2.629-11.293-4.3945-22.5791-15.6855-25.209
		C39.0576-2.0774,27.7705,4.945,25.1397,16.238c-2.3204,9.9629,2.8779,19.9111,11.8877,23.9248
		c0.6884,0.3067,1.4023,0.5733,2.1347,0.8076C39.708,41.1457,40.2578,41.3156,40.8272,41.448z"/>
</g>
</svg>
