<svg width="40" height="40" viewBox="0 0 40 40" fill="none" xmlns="http://www.w3.org/2000/svg">
<g filter="url(#filter0_b)">
<rect width="40" height="40" rx="16" fill="#111111" fill-opacity="0.05"/>
<path d="M25.8182 18.8182C25.6253 18.8182 25.4403 18.8948 25.3039 19.0312C25.1675 19.1676 25.0909 19.3526 25.0909 19.5455V24.6364C25.0909 24.8292 25.0143 25.0142 24.8779 25.1506C24.7415 25.287 24.5565 25.3636 24.3636 25.3636H14.1818C13.9889 25.3636 13.8039 25.287 13.6676 25.1506C13.5312 25.0142 13.4545 24.8292 13.4545 24.6364V18.8182C13.4545 18.6253 13.5312 18.4403 13.6676 18.3039C13.8039 18.1675 13.9889 18.0909 14.1818 18.0909H15.6364C15.795 18.0992 15.9519 18.0553 16.0832 17.966C16.2145 17.8767 16.313 17.7469 16.3636 17.5964L16.7564 16.4036C16.8052 16.2592 16.8981 16.1337 17.0221 16.045C17.1461 15.9562 17.2948 15.9087 17.4473 15.9091H21.4545C21.6474 15.9091 21.8324 15.8325 21.9688 15.6961C22.1052 15.5597 22.1818 15.3747 22.1818 15.1818C22.1818 14.9889 22.1052 14.8039 21.9688 14.6676C21.8324 14.5312 21.6474 14.4545 21.4545 14.4545H17.4109C16.9539 14.4554 16.5086 14.5998 16.138 14.8673C15.7674 15.1348 15.4902 15.5119 15.3455 15.9455L15.1127 16.6727H14.1818C13.6032 16.6727 13.0482 16.9026 12.639 17.3118C12.2299 17.7209 12 18.2759 12 18.8545V24.6727C12 25.2514 12.2299 25.8063 12.639 26.2155C13.0482 26.6247 13.6032 26.8545 14.1818 26.8545H24.3636C24.9423 26.8545 25.4972 26.6247 25.9064 26.2155C26.3156 25.8063 26.5455 25.2514 26.5455 24.6727V19.5818C26.5504 19.4833 26.5352 19.3848 26.5009 19.2923C26.4666 19.1998 26.4138 19.1153 26.3457 19.0439C26.2777 18.9725 26.1959 18.9156 26.1052 18.8768C26.0145 18.838 25.9168 18.8181 25.8182 18.8182ZM19.2727 18.0909C18.6974 18.0909 18.1349 18.2615 17.6565 18.5812C17.1781 18.9008 16.8053 19.3552 16.5851 19.8867C16.3649 20.4183 16.3073 21.0032 16.4195 21.5675C16.5318 22.1318 16.8088 22.6502 17.2157 23.057C17.6225 23.4639 18.1409 23.7409 18.7052 23.8532C19.2695 23.9654 19.8544 23.9078 20.386 23.6876C20.9176 23.4675 21.3719 23.0946 21.6915 22.6162C22.0112 22.1378 22.1818 21.5754 22.1818 21C22.1818 20.2285 21.8753 19.4885 21.3298 18.943C20.7842 18.3974 20.0443 18.0909 19.2727 18.0909ZM19.2727 22.4545C18.985 22.4545 18.7038 22.3692 18.4646 22.2094C18.2254 22.0496 18.039 21.8224 17.9289 21.5566C17.8188 21.2908 17.79 20.9984 17.8461 20.7162C17.9023 20.4341 18.0408 20.1749 18.2442 19.9715C18.4476 19.7681 18.7068 19.6295 18.989 19.5734C19.2711 19.5173 19.5636 19.5461 19.8294 19.6562C20.0951 19.7663 20.3223 19.9527 20.4821 20.1919C20.642 20.4311 20.7273 20.7123 20.7273 21C20.7273 21.3858 20.574 21.7557 20.3012 22.0285C20.0285 22.3013 19.6585 22.4545 19.2727 22.4545ZM27.2727 14.4545H26.5455V13.7273C26.5455 13.5344 26.4688 13.3494 26.3324 13.213C26.1961 13.0766 26.0111 13 25.8182 13C25.6253 13 25.4403 13.0766 25.3039 13.213C25.1675 13.3494 25.0909 13.5344 25.0909 13.7273V14.4545H24.3636C24.1708 14.4545 23.9858 14.5312 23.8494 14.6676C23.713 14.8039 23.6364 14.9889 23.6364 15.1818C23.6364 15.3747 23.713 15.5597 23.8494 15.6961C23.9858 15.8325 24.1708 15.9091 24.3636 15.9091H25.0909V16.6364C25.0909 16.8292 25.1675 17.0142 25.3039 17.1506C25.4403 17.287 25.6253 17.3636 25.8182 17.3636C26.0111 17.3636 26.1961 17.287 26.3324 17.1506C26.4688 17.0142 26.5455 16.8292 26.5455 16.6364V15.9091H27.2727C27.4656 15.9091 27.6506 15.8325 27.787 15.6961C27.9234 15.5597 28 15.3747 28 15.1818C28 14.9889 27.9234 14.8039 27.787 14.6676C27.6506 14.5312 27.4656 14.4545 27.2727 14.4545Z" fill="black"/>
</g>
<defs>
<filter id="filter0_b" x="-4" y="-4" width="48" height="48" filterUnits="userSpaceOnUse" color-interpolation-filters="sRGB">
<feFlood flood-opacity="0" result="BackgroundImageFix"/>
<feGaussianBlur in="BackgroundImage" stdDeviation="2"/>
<feComposite in2="SourceAlpha" operator="in" result="effect1_backgroundBlur"/>
<feBlend mode="normal" in="SourceGraphic" in2="effect1_backgroundBlur" result="shape"/>
</filter>
</defs>
</svg>
