<svg width="36" height="37" viewBox="0 0 36 37" fill="none" xmlns="http://www.w3.org/2000/svg">
<rect width="36" height="37" rx="16" fill="#FFDE59"/>
<path d="M12.8974 12.8883L13.6975 14.8889H19.4178C19.8007 14.8889 20.1111 15.2122 20.1111 15.6111C20.1111 16.01 19.8007 16.3333 19.4178 16.3333H14.2757L16.009 20.6667H20.6126L21.2887 18.7884C21.3903 18.5064 21.6491 18.3196 21.9382 18.3196C22.4225 18.3196 22.7578 18.8235 22.5877 19.2959L21.7427 21.6431C21.6408 21.9241 21.3822 22.1111 21.0931 22.1111H15.5465C15.2664 22.1111 15.0141 21.9356 14.9066 21.6669L11.6175 13.4444H10.6933C10.3104 13.4444 10 13.1211 10 12.7222C10 12.3233 10.3104 12 10.6933 12H11.6175C12.1791 12 12.6811 12.3481 12.8974 12.8883Z" fill="#111111"/>
<path d="M15.8932 25C16.4675 25 16.9332 24.515 16.9332 23.9167C16.9332 23.3184 16.4675 22.8333 15.8932 22.8333C15.3188 22.8333 14.8532 23.3184 14.8532 23.9167C14.8532 24.515 15.3188 25 15.8932 25Z" fill="#111111"/>
<path d="M20.7464 25C21.3208 25 21.7864 24.515 21.7864 23.9167C21.7864 23.3184 21.3208 22.8333 20.7464 22.8333C20.172 22.8333 19.7064 23.3184 19.7064 23.9167C19.7064 24.515 20.172 25 20.7464 25Z" fill="#111111"/>
<path d="M21.636 16.388L22.4122 15.6118L21.5502 14.7498C21.3211 14.5207 21.3137 14.1568 21.5336 13.9369C21.7496 13.7209 22.1056 13.7237 22.336 13.9433L23.2293 14.7947L24.0055 14.0185C24.2537 13.7703 24.6646 13.7787 24.9231 14.0372C25.1817 14.2958 25.1901 14.7066 24.9419 14.9548L24.1656 15.731L25.0168 16.5822C25.2518 16.8173 25.2595 17.1907 25.0338 17.4163C24.8082 17.642 24.4347 17.6344 24.1997 17.3993L23.3485 16.5481L22.5723 17.3244C22.3241 17.5726 21.9133 17.5642 21.6547 17.3056C21.3962 17.0471 21.3878 16.6363 21.636 16.388Z" fill="#111111"/>
</svg>
