<svg width="34" height="22" viewBox="0 0 34 22" fill="none" xmlns="http://www.w3.org/2000/svg">
<path fill-rule="evenodd" clip-rule="evenodd" d="M33.3064 11.1304L31.5964 10.7029C31.1961 10.6025 30.7864 10.8482 30.6861 11.2494L30.6767 11.2832C30.5764 11.6844 30.8229 12.0941 31.2232 12.1944L32.9333 12.621C33.3345 12.7213 33.7442 12.4757 33.8436 12.0754L33.8529 12.0407C33.9523 11.6404 33.7067 11.2307 33.3064 11.1304Z" fill="#FF9933"/>
<path fill-rule="evenodd" clip-rule="evenodd" d="M31.2715 3.01889L31.2462 2.99452C30.949 2.7067 30.4718 2.71514 30.184 3.01233L28.9596 4.2789C28.6718 4.57609 28.6802 5.05327 28.9774 5.34109L29.0027 5.36546C29.299 5.65234 29.7771 5.64484 30.064 5.34765L31.2893 4.08015C31.5762 3.78296 31.5687 3.30577 31.2715 3.01889Z" fill="#FF9933"/>
<path fill-rule="evenodd" clip-rule="evenodd" d="M22.077 3.35055C22.1904 3.74805 22.6086 3.97961 23.0051 3.86617L23.0398 3.8568C23.4364 3.74242 23.6689 3.32523 23.5554 2.92773L23.0707 1.23366C22.9564 0.83616 22.5392 0.604597 22.1417 0.718035L22.1079 0.72741C21.7104 0.840848 21.4789 1.25897 21.5923 1.65554L22.077 3.35055Z" fill="#FF9933"/>
<path fill-rule="evenodd" clip-rule="evenodd" d="M20.287 4.42504L19.0195 3.19972C18.7232 2.91285 18.2451 2.92035 17.9582 3.21754L17.9339 3.24285C17.647 3.54004 17.6545 4.01723 17.9517 4.30504L19.2192 5.53036C19.5154 5.81723 19.9936 5.8088 20.2804 5.51255L20.3057 5.4863C20.5926 5.18911 20.5842 4.71192 20.287 4.42504Z" fill="#FF9933"/>
<path fill-rule="evenodd" clip-rule="evenodd" d="M31.4774 15.2449L30.2099 14.0195C29.9137 13.7327 29.4355 13.7402 29.1487 14.0374L29.1243 14.0627C28.8374 14.3599 28.8449 14.8371 29.1421 15.1249L30.4087 16.3502C30.7059 16.6371 31.184 16.6286 31.4709 16.3324L31.4962 16.3061C31.783 16.0089 31.7746 15.5317 31.4774 15.2449Z" fill="#FF9933"/>
<path fill-rule="evenodd" clip-rule="evenodd" d="M30.6328 8.1C30.7463 8.4975 31.1634 8.72906 31.5609 8.61563L33.255 8.13094C33.6525 8.0175 33.885 7.59937 33.7716 7.20187L33.7613 7.16812C33.6478 6.77156 33.2306 6.53905 32.8331 6.65343L31.1381 7.13812C30.7416 7.25156 30.5091 7.66875 30.6225 8.06625L30.6328 8.1Z" fill="#FF9933"/>
<path fill-rule="evenodd" clip-rule="evenodd" d="M26.1888 3.80334L26.2234 3.81177C26.6238 3.91209 27.0334 3.66646 27.1338 3.26521L27.5613 1.55614C27.6616 1.15489 27.4159 0.745198 27.0147 0.644885L26.9809 0.636447C26.5797 0.536135 26.17 0.781761 26.0706 1.18301L25.6422 2.89302C25.5428 3.29333 25.7884 3.70302 26.1888 3.80334Z" fill="#FF9933"/>
<path fill-rule="evenodd" clip-rule="evenodd" d="M25.8848 5.09381C23.4707 4.49006 21.0285 5.82038 20.1885 8.10414C20.2363 8.1032 20.2822 8.10039 20.33 8.10039C23.7857 8.10039 26.6835 10.5295 27.4091 13.7704C28.3635 13.1273 29.0938 12.1485 29.3948 10.9448C30.0416 8.35914 28.4694 5.73975 25.8848 5.09381Z" fill="#FF9933"/>
<path fill-rule="evenodd" clip-rule="evenodd" d="M20.3301 9.32794C19.8004 9.32794 19.2876 9.39638 18.7982 9.52482C17.8813 6.92512 15.4054 5.06323 12.4935 5.06323C8.92441 5.06323 6.00971 7.85887 5.81846 11.3792C5.60002 11.3511 5.37877 11.3304 5.15283 11.3304C2.37595 11.3304 0.125 13.5814 0.125 16.3583C0.125 19.1342 2.37595 21.3861 5.15283 21.3861H20.3301C23.527 21.3861 26.1351 18.897 26.3395 15.7508C26.3479 15.6205 26.3592 15.4892 26.3592 15.357C26.3592 12.027 23.6592 9.32794 20.3301 9.32794Z" fill="#9D9C99"/>
</svg>
