<svg width="24" height="24" viewBox="0 0 24 24" fill="none" xmlns="http://www.w3.org/2000/svg">
<path d="M11.9999 6.75C11.3878 6.75 10.7851 6.8318 10.1965 6.97791C9.79452 7.0777 9.38772 6.83271 9.28792 6.4307C9.18812 6.02869 9.43312 5.62189 9.83513 5.52209C10.5292 5.3498 11.2535 5.25 11.9999 5.25C15.0225 5.25 17.6917 6.88254 19.5496 8.42257C20.4892 9.20141 21.2478 9.97852 21.7717 10.5609C22.034 10.8526 22.2387 11.0967 22.379 11.2694C22.4492 11.3559 22.5033 11.4245 22.5406 11.4725C22.5592 11.4965 22.5736 11.5153 22.5837 11.5286L22.5957 11.5443L22.5992 11.549L22.6003 11.5505C22.6003 11.5505 22.601 11.5515 21.9999 12C22.601 12.4485 22.6009 12.4487 22.6009 12.4487L22.5992 12.451L22.5957 12.4557L22.5837 12.4714C22.5736 12.4847 22.5592 12.5035 22.5406 12.5275C22.5033 12.5755 22.4492 12.6441 22.379 12.7306C22.2387 12.9033 22.034 13.1474 21.7717 13.4391C21.2477 14.0215 20.4892 14.7986 19.5496 15.5774C19.2307 15.8418 18.7579 15.7975 18.4936 15.4786C18.2292 15.1597 18.2735 14.6869 18.5924 14.4226C19.4624 13.7014 20.1683 12.9785 20.6565 12.4359C20.804 12.272 20.9311 12.125 21.0365 12C20.9311 11.875 20.804 11.728 20.6565 11.5641C20.1684 11.0215 19.4624 10.2986 18.5924 9.57743C16.831 8.11746 14.5003 6.75 11.9999 6.75ZM21.9999 12L22.6009 12.4487C22.7994 12.1827 22.7996 11.8175 22.601 11.5515L21.9999 12ZM4.45023 8.42258C4.74427 8.17885 5.17449 8.195 5.44943 8.46009L14.5205 17.2061C14.7168 17.3954 14.7949 17.6762 14.7245 17.9396C14.6542 18.203 14.4464 18.4075 14.1819 18.4736C13.4827 18.6486 12.7526 18.75 11.9999 18.75C8.9774 18.75 6.30818 17.1175 4.45024 15.5774C3.51063 14.7986 2.75211 14.0215 2.2282 13.4391C1.96581 13.1474 1.76113 12.9033 1.62085 12.7306C1.55068 12.6441 1.49655 12.5755 1.45928 12.5275C1.44065 12.5035 1.42623 12.4847 1.41612 12.4714L1.4042 12.4557L1.40069 12.451L1.39956 12.4495C1.39956 12.4495 1.39883 12.4485 1.99993 12C1.39883 11.5515 1.39897 11.5513 1.39897 11.5513L1.40069 11.549L1.4042 11.5443L1.41612 11.5286C1.42623 11.5153 1.44065 11.4965 1.45928 11.4725C1.49655 11.4245 1.55068 11.3559 1.62085 11.2694C1.76113 11.0967 1.96581 10.8526 2.2282 10.5609C2.75211 9.97852 3.51063 9.20141 4.45023 8.42258ZM1.99993 12L1.39897 11.5513C1.20044 11.8173 1.20029 12.1825 1.39883 12.4485L1.99993 12ZM2.96333 12C3.06872 12.125 3.19589 12.272 3.34336 12.4359C3.83151 12.9785 4.53745 13.7014 5.40748 14.4226C7.16883 15.8825 9.4996 17.25 11.9999 17.25C12.1315 17.25 12.2627 17.2462 12.3933 17.2388L4.89992 10.0139C4.26066 10.5838 3.73273 11.1313 3.34336 11.5641C3.19589 11.728 3.06872 11.875 2.96333 12Z" fill="#111111"/>
<path d="M10.6639 9.75789C10.9692 10.0379 10.9897 10.5123 10.7098 10.8176C10.4236 11.1296 10.2499 11.5437 10.2499 12C10.2499 12.9665 11.0334 13.75 11.9999 13.75C12.4771 13.75 12.9085 13.56 13.2249 13.2498C13.5207 12.9598 13.9956 12.9645 14.2855 13.2603C14.5755 13.5561 14.5707 14.031 14.2749 14.3209C13.6895 14.8948 12.8854 15.25 11.9999 15.25C10.205 15.25 8.74993 13.7949 8.74993 12C8.74993 11.1537 9.07436 10.3816 9.60427 9.80374C9.88424 9.49846 10.3587 9.47793 10.6639 9.75789Z" fill="#111111"/>
<path d="M2.4696 2.46967C2.76249 2.17678 3.23737 2.17678 3.53026 2.46967L21.5303 20.4697C21.8232 20.7626 21.8232 21.2374 21.5303 21.5303C21.2374 21.8232 20.7625 21.8232 20.4696 21.5303L2.4696 3.53033C2.17671 3.23744 2.17671 2.76256 2.4696 2.46967Z" fill="#111111"/>
</svg>
