<svg width="36" height="37" viewBox="0 0 36 37" fill="none" xmlns="http://www.w3.org/2000/svg">
<rect width="36" height="37" rx="16" fill="#FFDE59"/>
<path d="M19.9765 18.1553C20.3531 17.8293 20.6552 17.426 20.8623 16.973C21.0693 16.5199 21.1765 16.0276 21.1765 15.5294C21.1765 14.5934 20.8046 13.6956 20.1427 13.0337C19.4808 12.3718 18.5831 12 17.6471 12C16.711 12 15.8133 12.3718 15.1514 13.0337C14.4895 13.6956 14.1176 14.5934 14.1176 15.5294C14.1176 16.0276 14.2248 16.5199 14.4319 16.973C14.6389 17.426 14.941 17.8293 15.3176 18.1553C14.3295 18.6027 13.4912 19.3253 12.9028 20.2366C12.3145 21.1479 12.001 22.2094 12 23.2941C12 23.4813 12.0744 23.6609 12.2067 23.7933C12.3391 23.9256 12.5187 24 12.7059 24C12.8931 24 13.0726 23.9256 13.205 23.7933C13.3374 23.6609 13.4118 23.4813 13.4118 23.2941C13.4118 22.1708 13.858 21.0936 14.6523 20.2993C15.4465 19.505 16.5238 19.0588 17.6471 19.0588C18.7703 19.0588 19.8476 19.505 20.6419 20.2993C21.4361 21.0936 21.8824 22.1708 21.8824 23.2941C21.8824 23.4813 21.9567 23.6609 22.0891 23.7933C22.2215 23.9256 22.401 24 22.5882 24C22.7754 24 22.955 23.9256 23.0874 23.7933C23.2197 23.6609 23.2941 23.4813 23.2941 23.2941C23.2931 22.2094 22.9797 21.1479 22.3913 20.2366C21.803 19.3253 20.9646 18.6027 19.9765 18.1553ZM17.6471 17.6471C17.2282 17.6471 16.8188 17.5229 16.4706 17.2902C16.1223 17.0575 15.8509 16.7267 15.6906 16.3398C15.5303 15.9529 15.4884 15.5271 15.5701 15.1163C15.6518 14.7055 15.8535 14.3282 16.1497 14.032C16.4458 13.7359 16.8231 13.5342 17.2339 13.4525C17.6447 13.3707 18.0705 13.4127 18.4574 13.573C18.8444 13.7332 19.1751 14.0047 19.4078 14.3529C19.6405 14.7012 19.7647 15.1106 19.7647 15.5294C19.7647 16.091 19.5416 16.6297 19.1445 17.0268C18.7473 17.424 18.2087 17.6471 17.6471 17.6471Z" fill="#111111"/>
</svg>
