<svg width="48" height="48" viewBox="0 0 48 48" fill="none" xmlns="http://www.w3.org/2000/svg">
<path fill="currentColor" stroke-width="0.5" stroke='currentColor' fill-rule="evenodd" clip-rule="evenodd" d="M9.55394 34.2031H38.1492C37.3205 30.8402 33.032 25.6094 23.7734 25.6094C14.5148 25.6094 10.3826 30.8402 9.55394 34.2031ZM7.35156 35.375C7.35156 30.8404 12.088 23.9572 22.7734 23.5217C23.1263 23.5073 23.4857 23.5 23.8516 23.5C24.1634 23.5 24.4707 23.5053 24.7734 23.5158C35.5847 23.8899 40.6484 30.8183 40.6484 35.375C40.5 36 40 36 39.3516 36H8.43075C8 36 7.5 36 7.35156 35.375Z" fill="#9D9C99"/>
<path fill="currentColor" stroke-width="0.5" stroke='currentColor' fill-rule="evenodd" clip-rule="evenodd" d="M23.9337 14C22.4235 14 20.9337 15.4899 20.9337 17C20.9337 17.6472 20.6628 18.25 20.0156 18.25C19.3684 18.25 18.8438 17.7253 18.8438 17.0781C18.8438 14.2736 21.1173 12 23.9219 12C26.7264 12 29 14.2736 29 17.0781C29 19.4793 27.1733 21.471 24.9337 22V24.1094C24.9337 24.7566 24.5691 25.2812 23.9219 25.2812C23.2747 25.2812 22.75 24.7566 22.75 24.1094V20.9844C22.75 20.3372 23.2747 20 23.9219 20C25.432 20 26.9337 18.5101 26.9337 17C26.9337 15.4899 25.4438 14 23.9337 14Z" fill="#9D9C99"/>
</svg>
