<?xml version="1.0" encoding="iso-8859-1"?>
<!-- Generator: Adobe Illustrator 22.1.0, SVG Export Plug-In . SVG Version: 6.00 Build 0)  -->
<svg version="1.1" id="Layer_1" xmlns="http://www.w3.org/2000/svg" xmlns:xlink="http://www.w3.org/1999/xlink" x="0px" y="0px"
	 viewBox="0 0 20 29" style="enable-background:new 0 0 20 29;" xml:space="preserve">
<g id="measuring-height_1_">
	<circle cx="6.5" cy="2.5" r="2.5"/>
	<polygon points="0,6 0,17 2,17 2,8 3,8 3,29 6,29 6,16 7,16 7,29 10,29 10,8 11,8 11,17 13,17 13,6 	"/>
	<polygon points="20,14 20,13 16,13 16,11 18,11 18,10 16,10 16,8 18,8 18,7 16,7 16,5 18,5 18,4 16,4 16,2 18,2 18,1 16,1 16,0 
		15,0 15,29 16,29 16,26 18,26 18,25 16,25 16,23 18,23 18,22 16,22 16,20 18,20 18,19 16,19 16,17 18,17 18,16 16,16 16,14 	"/>
</g>
</svg>
