<svg width="22" height="24" viewBox="0 0 22 24" fill="white" xmlns="http://www.w3.org/2000/svg">
<path d="M2.44444 24H7.33333H14.6667H19.5556C20.9037 24 22 22.9236 22 21.6V10.8002C22 10.4822 21.8717 10.1762 21.6419 9.95178L11.8641 0.351896C11.3862 -0.117299 10.6138 -0.117299 10.1359 0.351896L0.358111 9.95178C0.128333 10.1762 0 10.4822 0 10.8002V21.6C0 22.9236 1.09633 24 2.44444 24ZM8.55556 21.6V15.6001H13.4444V21.6H8.55556ZM2.44444 11.297L11 2.89706L19.5556 11.297L19.5568 21.6H15.8889V15.6001C15.8889 14.2765 14.7926 13.2001 13.4444 13.2001H8.55556C7.20744 13.2001 6.11111 14.2765 6.11111 15.6001V21.6H2.44444V11.297Z" fill='currentColor' stroke-width="0" stroke='currentColor'/>
</svg>
