<svg width="24" height="24" viewBox="0 0 24 24" fill="none" xmlns="http://www.w3.org/2000/svg">
<path fill-rule="evenodd" clip-rule="evenodd" d="M1.25 12C1.25 6.06294 6.06294 1.25 12 1.25C17.9371 1.25 22.75 6.06294 22.75 12C22.75 17.9371 17.9371 22.75 12 22.75C6.06294 22.75 1.25 17.9371 1.25 12ZM12 2.75C6.89136 2.75 2.75 6.89136 2.75 12C2.75 17.1086 6.89136 21.25 12 21.25C17.1086 21.25 21.25 17.1086 21.25 12C21.25 6.89136 17.1086 2.75 12 2.75Z" fill="#111111"/>
<path fill-rule="evenodd" clip-rule="evenodd" d="M8.75 9C8.75 7.20509 10.2051 5.75 12 5.75C13.7949 5.75 15.25 7.20509 15.25 9C15.25 10.7949 13.7949 12.25 12 12.25C10.2051 12.25 8.75 10.7949 8.75 9ZM12 7.25C11.0335 7.25 10.25 8.03351 10.25 9C10.25 9.96649 11.0335 10.75 12 10.75C12.9665 10.75 13.75 9.96649 13.75 9C13.75 8.03351 12.9665 7.25 12 7.25Z" fill="#111111"/>
<path fill-rule="evenodd" clip-rule="evenodd" d="M10 15.25C7.74849 15.25 5.90541 17.0012 5.75939 19.2154C5.73213 19.6287 5.37497 19.9416 4.96166 19.9144C4.54834 19.8871 4.23538 19.53 4.26264 19.1166C4.46031 16.1194 6.95314 13.75 10 13.75H14C17.0429 13.75 19.5332 16.1131 19.7366 19.1048C19.7647 19.518 19.4525 19.8758 19.0393 19.9039C18.626 19.932 18.2682 19.6198 18.2401 19.2065C18.0898 16.9966 16.2486 15.25 14 15.25H10Z" fill="#111111"/>
</svg>
