<svg width="24" height="24" viewBox="0 0 24 24" fill="none" xmlns="http://www.w3.org/2000/svg">
<path d="M4 11.75C3.86193 11.75 3.75 11.8619 3.75 12V21C3.75 21.1381 3.86193 21.25 4 21.25H20C20.1381 21.25 20.25 21.1381 20.25 21V12C20.25 11.8619 20.1381 11.75 20 11.75H4ZM2.25 12C2.25 11.0335 3.0335 10.25 4 10.25H20C20.9665 10.25 21.75 11.0335 21.75 12V21C21.75 21.9665 20.9665 22.75 20 22.75H4C3.0335 22.75 2.25 21.9665 2.25 21V12Z" fill="#111111"/>
<path d="M12 2.75C9.65281 2.75 7.75 4.65279 7.75 7V11C7.75 11.4142 7.41421 11.75 7 11.75C6.58579 11.75 6.25 11.4142 6.25 11V7C6.25 3.82436 8.82439 1.25 12 1.25C15.1756 1.25 17.75 3.82436 17.75 7V11C17.75 11.4142 17.4142 11.75 17 11.75C16.5858 11.75 16.25 11.4142 16.25 11V7C16.25 4.65279 14.3472 2.75 12 2.75Z" fill="#111111"/>
<path d="M12 14.25C12.4142 14.25 12.75 14.5858 12.75 15V18C12.75 18.4142 12.4142 18.75 12 18.75C11.5858 18.75 11.25 18.4142 11.25 18V15C11.25 14.5858 11.5858 14.25 12 14.25Z" fill="#111111"/>
</svg>
