<svg width="14" height="14" viewBox="0 0 14 14" fill="none" xmlns="http://www.w3.org/2000/svg">
<path d="M8.78104 7.165C9.18122 6.8186 9.5022 6.39016 9.72219 5.90877C9.94218 5.42737 10.056 4.90428 10.056 4.375C10.056 3.38044 9.66095 2.42661 8.95769 1.72335C8.25442 1.02009 7.3006 0.625 6.30604 0.625C5.31147 0.625 4.35765 1.02009 3.65439 1.72335C2.95112 2.42661 2.55604 3.38044 2.55604 4.375C2.56067 4.90719 2.68036 5.43208 2.90691 5.91366C3.13346 6.39524 3.4615 6.82211 3.86854 7.165C2.81864 7.64041 1.92789 8.40815 1.30277 9.37641C0.677658 10.3447 0.34464 11.4725 0.343536 12.625C0.343536 12.8239 0.422554 13.0147 0.563206 13.1553C0.703858 13.296 0.894624 13.375 1.09354 13.375C1.29245 13.375 1.48321 13.296 1.62387 13.1553C1.76452 13.0147 1.84354 12.8239 1.84354 12.625C1.84354 11.4315 2.31764 10.2869 3.16156 9.44302C4.00547 8.59911 5.15006 8.125 6.34354 8.125C7.53701 8.125 8.6816 8.59911 9.52552 9.44302C10.3694 10.2869 10.8435 11.4315 10.8435 12.625C10.8435 12.8239 10.9226 13.0147 11.0632 13.1553C11.2039 13.296 11.3946 13.375 11.5935 13.375C11.7924 13.375 11.9832 13.296 12.1239 13.1553C12.2645 13.0147 12.3435 12.8239 12.3435 12.625C12.3392 11.4684 12.0006 10.3376 11.3686 9.36893C10.7365 8.40024 9.83794 7.63488 8.78104 7.165ZM6.30604 6.625C5.86103 6.625 5.42601 6.49304 5.056 6.24581C4.68599 5.99857 4.3976 5.64717 4.22731 5.23604C4.05701 4.8249 4.01245 4.3725 4.09927 3.93605C4.18609 3.49959 4.40038 3.09868 4.71505 2.78401C5.02971 2.46934 5.43063 2.25505 5.86708 2.16823C6.30354 2.08142 6.75594 2.12597 7.16707 2.29627C7.57821 2.46657 7.92961 2.75496 8.17684 3.12497C8.42408 3.49498 8.55604 3.92999 8.55604 4.375C8.55604 4.97174 8.31898 5.54403 7.89703 5.96599C7.47507 6.38795 6.90277 6.625 6.30604 6.625ZM12.681 2.875C12.4821 2.875 12.2914 2.95402 12.1507 3.09467C12.0101 3.23532 11.931 3.42609 11.931 3.625V5.125C11.931 5.32391 12.0101 5.51468 12.1507 5.65533C12.2914 5.79598 12.4821 5.875 12.681 5.875C12.8799 5.875 13.0707 5.79598 13.2114 5.65533C13.352 5.51468 13.431 5.32391 13.431 5.125V3.625C13.431 3.42609 13.352 3.23532 13.2114 3.09467C13.0707 2.95402 12.8799 2.875 12.681 2.875ZM12.1185 6.8425C11.9815 6.98623 11.9038 7.17643 11.901 7.375C11.9005 7.47371 11.9194 7.57155 11.9567 7.66293C11.994 7.75431 12.049 7.83742 12.1185 7.9075C12.1914 7.97375 12.2751 8.02702 12.366 8.065C12.4558 8.10468 12.5529 8.12517 12.651 8.12517C12.7492 8.12517 12.8463 8.10468 12.936 8.065C13.0291 8.03132 13.1136 7.97758 13.1836 7.90759C13.2536 7.8376 13.3074 7.75307 13.341 7.66C13.383 7.57099 13.4036 7.47338 13.401 7.375C13.4019 7.22603 13.3584 7.08018 13.276 6.95604C13.1937 6.8319 13.0762 6.7351 12.9386 6.67797C12.8011 6.62085 12.6496 6.60599 12.5035 6.63529C12.3575 6.66459 12.2234 6.73673 12.1185 6.8425Z" fill="#616161"/>
</svg>
