<svg width="18" height="21" viewBox="0 0 18 21" fill="none" xmlns="http://www.w3.org/2000/svg">
<path d="M10.2523 0.730574C10.4934 0.24464 10.8133 0.00167465 11.2121 0.00167465C11.6109 0.00167465 11.8103 0.20726 11.8103 0.618435C11.8103 0.870747 11.6897 1.14642 11.4486 1.44546C10.9664 2.02484 10.5073 2.693 10.0714 3.44993L9.36198 4.7255L17.625 19.9903H12.0006L6.53075 9.4841L1.97534 17.9158C1.71567 18.4017 1.4931 18.8923 1.30762 19.3876C1.12214 19.8922 0.876379 20.1445 0.570341 20.1445C0.190113 20.1445 0 19.953 0 19.5698C0 19.3455 0.0834637 19.0886 0.250393 18.7989L9.76539 1.69777C9.8674 1.51087 9.95087 1.35668 10.0158 1.2352L10.2523 0.730574Z" fill="black"/>
</svg>
