<svg width="48" height="48" viewBox="0 0 48 48" fill="none" xmlns="http://www.w3.org/2000/svg">
<path fill="currentColor" stroke='currentColor' d="M26.0412 10.0856C26.3969 9.36186 26.8688 9 27.4571 9C28.0454 9 28.3395 9.30619 28.3395 9.91858C28.3395 10.2944 28.1616 10.7049 27.806 11.1503C27.0946 12.0132 26.4174 13.0083 25.7744 14.1357L24.7278 16.0355L36.9172 38.7704H28.6203L20.5513 23.1228L13.8312 35.6806C13.4482 36.4043 13.1198 37.135 12.8462 37.8727C12.5726 38.6242 12.2101 39 11.7586 39C11.1977 39 10.9172 38.7147 10.9172 38.1441C10.9172 37.81 11.0404 37.4273 11.2866 36.9958L25.3229 11.5261C25.4734 11.2477 25.5965 11.0181 25.6923 10.8372L26.0412 10.0856Z" fill="#9D9C99"/>
</svg>
