<svg width="17" height="16" viewBox="0 0 17 16" fill="none" xmlns="http://www.w3.org/2000/svg">
<g clip-path="url(#clip0)">
<path d="M11.9474 0H5.21053C2.424 0 0.157898 2.26611 0.157898 5.05263V15.1579C0.157898 15.6227 0.534319 16 1 16H11.9474C14.7339 16 17 13.7339 17 10.9474V5.05263C17 2.26611 14.7339 0 11.9474 0ZM15.3158 10.9474C15.3158 12.8051 13.8051 14.3158 11.9474 14.3158H1.84211V5.05263C1.84211 3.19495 3.35285 1.68421 5.21053 1.68421H11.9474C13.8051 1.68421 15.3158 3.19495 15.3158 5.05263V10.9474Z" fill="#111111"/>
<path d="M6.4737 9.26313C7.17132 9.26313 7.73686 8.6976 7.73686 7.99997C7.73686 7.30235 7.17132 6.73682 6.4737 6.73682C5.77608 6.73682 5.21054 7.30235 5.21054 7.99997C5.21054 8.6976 5.77608 9.26313 6.4737 9.26313Z" fill="#111111"/>
<path d="M10.6842 9.26313C11.3818 9.26313 11.9474 8.6976 11.9474 7.99997C11.9474 7.30235 11.3818 6.73682 10.6842 6.73682C9.98659 6.73682 9.42105 7.30235 9.42105 7.99997C9.42105 8.6976 9.98659 9.26313 10.6842 9.26313Z" fill="#111111"/>
</g>
<defs>
<clipPath id="clip0">
<rect width="16.8421" height="16" fill="white" transform="translate(0.157898)"/>
</clipPath>
</defs>
</svg>
