<svg width="26" height="28" viewBox="0 0 26 28" fill="none" xmlns="http://www.w3.org/2000/svg">
<path fill-rule="evenodd" clip-rule="evenodd" d="M24.9827 21.8786C24.8777 21.6926 24.6707 21.5906 24.4592 21.6176C23.8937 21.6926 23.3312 21.7316 22.7912 21.7316C15.9182 21.7316 10.3262 16.1396 10.3262 9.2681C10.3262 6.4091 11.3207 3.6176 13.1237 1.4036C13.2587 1.2371 13.2782 1.0061 13.1732 0.820101C13.0697 0.634101 12.8612 0.532101 12.6512 0.559101C5.98217 1.4516 0.951172 7.2041 0.951172 13.9406C0.951172 21.3866 7.01117 27.4451 14.4557 27.4451C18.5357 27.4451 22.3532 25.6286 24.9317 22.4621C25.0667 22.2956 25.0862 22.0646 24.9827 21.8786Z" fill="#FF9933"/>
</svg>
