<svg width="48" height="48" viewBox="0 0 48 48" fill="none" xmlns="http://www.w3.org/2000/svg">
<path fill="currentColor" stroke-width="0.5" stroke='currentColor' d="M24.0001 10C25.4728 10 26.6667 11.1939 26.6667 12.6667H21.3334C21.3334 11.1939 22.5273 10 24.0001 10Z" fill="#9D9C99"/>
<path fill="currentColor" stroke-width="0.5" stroke='currentColor' fill-rule="evenodd" clip-rule="evenodd" d="M29.3754 33.3449C29.1854 33.1258 28.9098 33 28.6198 33H19.381C19.0911 33 18.8155 33.1258 18.6255 33.3449C18.4356 33.5639 18.3501 33.8546 18.3911 34.1416C18.784 36.8887 21.1448 39 24.0004 39C26.856 39 29.2169 36.8887 29.6098 34.1416C29.6508 33.8546 29.5653 33.5639 29.3754 33.3449ZM27.2676 35C26.6606 36.1871 25.4249 37 24.0004 37C22.5759 37 21.3402 36.1871 20.7333 35H27.2676Z" fill="#9D9C99"/>
<path fill="currentColor" stroke-width="0.5" stroke='currentColor' fill-rule="evenodd" clip-rule="evenodd" d="M31.984 21.3338C31.432 21.3513 30.9987 21.813 31.0162 22.365C31.1566 26.7968 32.1892 29.8613 33.223 31.8438C33.4516 32.2823 33.6797 32.6666 33.8972 33H12C11.4477 33 11 33.4477 11 34C11 34.5523 11.4477 35 12 35H36C36.421 35 36.797 34.7363 36.9403 34.3404C37.0828 33.9467 36.9649 33.5062 36.6455 33.2362M36.6455 33.2362L36.6435 33.2346ZM36.6455 33.2362L36.6305 33.2229C36.614 33.2079 36.5848 33.1807 36.5446 33.1408C36.4642 33.0609 36.3397 32.93 36.1848 32.7435C35.8751 32.3709 35.4427 31.7751 34.9964 30.9191C34.1059 29.2114 33.1463 26.4425 33.0152 22.3017C32.9977 21.7497 32.536 21.3164 31.984 21.3338" fill="#9D9C99"/>
<path fill="currentColor" stroke-width="0.5" stroke='currentColor' fill-rule="evenodd" clip-rule="evenodd" d="M29.1276 13.9357C27.6725 12.9255 25.9041 12.3333 24.0004 12.3333C19.0298 12.3333 15.0004 16.3628 15.0004 21.3333C15.0004 25.8517 14.0335 28.8644 13.106 30.7195C12.641 31.6494 12.1823 32.2957 11.8514 32.7001C11.6859 32.9024 11.5521 33.0445 11.4652 33.1314C11.4217 33.1749 11.39 33.2046 11.3718 33.2211L11.3551 33.2361L11.3583 33.2334C10.9349 33.5871 10.8789 34.2162 11.2322 34.6402C11.5857 35.0645 12.2163 35.1218 12.6406 34.7682L12.0004 34C12.6406 34.7682 12.6417 34.7673 12.6417 34.7673L12.6428 34.7663L12.6454 34.7641L12.6518 34.7588L12.6687 34.7442C12.6818 34.7328 12.6986 34.7179 12.7188 34.6995C12.7593 34.6626 12.8135 34.6116 12.8794 34.5457C13.0112 34.4138 13.1899 34.2226 13.3994 33.9666C13.8185 33.4543 14.3598 32.684 14.8948 31.6139C15.9673 29.4689 17.0004 26.1483 17.0004 21.3333C17.0004 17.4674 20.1344 14.3333 24.0004 14.3333C25.4834 14.3333 26.856 14.7934 27.987 15.5786C28.4406 15.8935 29.0637 15.7811 29.3787 15.3274C29.6937 14.8738 29.5812 14.2507 29.1276 13.9357Z" fill="#9D9C99"/>
<path fill="currentColor" stroke-width="0.5" stroke='currentColor' fill-rule="evenodd" clip-rule="evenodd" d="M18.8797 13.9227C20.3348 12.9125 22.1033 12.3203 24.0069 12.3203C28.9775 12.3203 33.0069 16.3498 33.0069 21.3203C33.0069 25.8387 33.9738 28.8514 34.9013 30.7064C35.3663 31.6364 35.825 32.2827 36.1559 32.6871C36.3214 32.8894 36.4552 33.0315 36.5421 33.1184C36.5856 33.1619 36.6173 33.1916 36.6355 33.2081L36.6522 33.2231L36.649 33.2203C37.0724 33.5741 37.1284 34.2032 36.7751 34.6272C36.4216 35.0514 35.791 35.1088 35.3667 34.7552L36.0069 33.987C35.3667 34.7552 35.3656 34.7543 35.3656 34.7543L35.3645 34.7533L35.3619 34.7511L35.3555 34.7458L35.3387 34.7312C35.3255 34.7198 35.3087 34.7049 35.2885 34.6865C35.248 34.6496 35.1938 34.5985 35.1279 34.5326C34.9961 34.4008 34.8174 34.2096 34.608 33.9536C34.1888 33.4412 33.6475 32.6709 33.1125 31.6009C32.04 29.4559 31.0069 26.1353 31.0069 21.3203C31.0069 17.4543 27.8729 14.3203 24.0069 14.3203C22.5239 14.3203 21.1513 14.7804 20.0203 15.5656C19.5667 15.8805 18.9436 15.7681 18.6286 15.3144C18.3136 14.8607 18.4261 14.2376 18.8797 13.9227Z" fill="#9D9C99"/>
</svg>