<svg width="30" height="28" viewBox="0 0 30 28" fill="none" xmlns="http://www.w3.org/2000/svg">
<path fill-rule="evenodd" clip-rule="evenodd" d="M9.50826 22.8713C9.4421 23.0058 9.40689 23.0814 9.37915 23.1981C9.21162 23.9105 9.70887 24.6335 10.4921 24.8131C11.2742 24.9918 12.0447 24.5599 12.2143 23.8464C12.241 23.7287 12.2474 23.6415 12.2442 23.4996C12.3242 22.3248 11.5101 20.4985 11.5101 20.4985C11.5101 20.4985 9.97456 21.77 9.50826 22.8713Z" fill="#26A9E0"/>
<path fill-rule="evenodd" clip-rule="evenodd" d="M13.5636 25.4792C13.4975 25.6137 13.4623 25.6893 13.4335 25.8049C13.267 26.5184 13.7643 27.2424 14.5475 27.4189C15.3296 27.5997 16.1011 27.1667 16.2708 26.4543C16.2964 26.3366 16.3028 26.2483 16.2996 26.1054C16.3785 24.9317 15.5644 23.1064 15.5644 23.1064C15.5644 23.1064 14.03 24.3769 13.5636 25.4792Z" fill="#26A9E0"/>
<path fill-rule="evenodd" clip-rule="evenodd" d="M17.2152 22.4979C17.1502 22.6293 17.1139 22.7049 17.0861 22.8216C16.9186 23.534 17.4169 24.2591 18.1991 24.4377C18.9812 24.6164 19.7527 24.1834 19.9224 23.471C19.949 23.3554 19.9544 23.265 19.9512 23.1232C20.0312 21.9494 19.2181 20.1221 19.2181 20.1221C19.2181 20.1221 17.6815 21.3956 17.2152 22.4979Z" fill="#26A9E0"/>
<path fill-rule="evenodd" clip-rule="evenodd" d="M22.7004 5.10368C22.1253 5.10368 21.5683 5.17724 21.0358 5.31384C20.0402 2.53341 17.3502 0.540039 14.1864 0.540039C10.3098 0.540039 7.14273 3.53168 6.93572 7.29776C6.69777 7.26729 6.45768 7.24627 6.21226 7.24627C3.19569 7.24627 0.75 9.65366 0.75 12.6243C0.75 15.5949 3.19569 18.0033 6.21226 18.0033H22.7004C26.1737 18.0033 29.0067 15.3396 29.2287 11.9749C29.2372 11.8351 29.25 11.6954 29.25 11.5535C29.25 7.99024 26.3177 5.10368 22.7004 5.10368Z" fill="#9D9C99"/>
</svg>
