<svg width="24" height="24" viewBox="0 0 24 24" fill="none" xmlns="http://www.w3.org/2000/svg">
<path d="M13.5 3H10.5L9.875 5.25L9.25 7.5L8 12L6.75 16.5L6.125 18.75L5.5 21H18.5L17.75 18.3L16 12L14.75 7.5L14.125 5.25L13.5 3Z" fill="#E48E29"/>
<path fill-rule="evenodd" clip-rule="evenodd" d="M9.77736 2.79927C9.86753 2.47465 10.1631 2.25 10.5 2.25H13.5C13.8369 2.25 14.1325 2.47465 14.2226 2.79927L19.0701 20.25H21C21.4142 20.25 21.75 20.5858 21.75 21C21.75 21.4142 21.4142 21.75 21 21.75H18.5164C18.5052 21.7503 18.4939 21.7503 18.4827 21.75H5.51725C5.50606 21.7503 5.49483 21.7503 5.48358 21.75H3C2.58579 21.75 2.25 21.4142 2.25 21C2.25 20.5858 2.58579 20.25 3 20.25H4.92994L9.77736 2.79927ZM6.48673 20.25H17.5133L12.9299 3.75H11.0701L6.48673 20.25Z" fill="#E48E29"/>
<path fill-rule="evenodd" clip-rule="evenodd" d="M6 16.5C6 16.0858 6.33579 15.75 6.75 15.75H17.25C17.6642 15.75 18 16.0858 18 16.5C18 16.9142 17.6642 17.25 17.25 17.25H6.75C6.33579 17.25 6 16.9142 6 16.5Z" fill="#FFFBFF"/>
<path fill-rule="evenodd" clip-rule="evenodd" d="M7.25 12C7.25 11.5858 7.58579 11.25 8 11.25H16C16.4142 11.25 16.75 11.5858 16.75 12C16.75 12.4142 16.4142 12.75 16 12.75H8C7.58579 12.75 7.25 12.4142 7.25 12Z" fill="#FFFBFF"/>
<path fill-rule="evenodd" clip-rule="evenodd" d="M8.5 7.5C8.5 7.08579 8.83579 6.75 9.25 6.75H14.75C15.1642 6.75 15.5 7.08579 15.5 7.5C15.5 7.91421 15.1642 8.25 14.75 8.25H9.25C8.83579 8.25 8.5 7.91421 8.5 7.5Z" fill="#FFFBFF"/>
<path fill-rule="evenodd" clip-rule="evenodd" d="M13.9245 4.52755C14.3236 4.41669 14.737 4.65036 14.8478 5.04946L18.4728 18.0995C18.5837 18.4986 18.35 18.912 17.9509 19.0228C17.5518 19.1337 17.1384 18.9 17.0276 18.5009L13.4026 5.45092C13.2917 5.05182 13.5254 4.63841 13.9245 4.52755Z" fill="#E48E29"/>
<path fill-rule="evenodd" clip-rule="evenodd" d="M10.0759 4.52755C10.475 4.63841 10.7087 5.05182 10.5978 5.45092L6.84783 18.9509C6.73697 19.35 6.32356 19.5837 5.92446 19.4728C5.52536 19.362 5.29169 18.9486 5.40255 18.5495L9.15255 5.04946C9.26341 4.65036 9.67682 4.41669 10.0759 4.52755Z" fill="#E48E29"/>
</svg>
