<svg width="48" height="48" viewBox="0 0 48 48" fill="none" xmlns="http://www.w3.org/2000/svg">
<path fill-rule="evenodd" fill="currentColor" stroke='currentColor' clip-rule="evenodd" d="M9.66675 21.9993C9.66675 15.1879 15.1886 9.66602 22.0001 9.66602C28.8116 9.66602 34.3334 15.1879 34.3334 21.9993C34.3334 28.8108 28.8116 34.3327 22.0001 34.3327C15.1886 34.3327 9.66675 28.8108 9.66675 21.9993ZM22.0001 11.666C16.2932 11.666 11.6667 16.2924 11.6667 21.9993C11.6667 27.7063 16.2932 32.3327 22.0001 32.3327C27.707 32.3327 32.3334 27.7063 32.3334 21.9993C32.3334 16.2924 27.707 11.666 22.0001 11.666Z" fill="#9D9C99" stroke="#9D9C99" stroke-width="0.5" stroke-linejoin="round"/>
<path fill-rule="evenodd" fill="currentColor" stroke='currentColor' clip-rule="evenodd" d="M29.4406 29.4413C29.8311 29.0508 30.4643 29.0508 30.8548 29.4413L36.5117 35.0982C36.9022 35.4887 36.9022 36.1219 36.5117 36.5124C36.1212 36.9029 35.488 36.9029 35.0975 36.5124L29.4406 30.8555C29.0501 30.465 29.0501 29.8319 29.4406 29.4413Z" fill="#9D9C99" stroke="#9D9C99" stroke-width="0.5" stroke-linecap="round" stroke-linejoin="round"/>
</svg>
