<svg width="30" height="30" viewBox="0 0 30 30" fill="none" xmlns="http://www.w3.org/2000/svg">
<path fill-rule="evenodd" clip-rule="evenodd" d="M13.3519 23.3236L12.064 22.8189L13.0681 21.8682C13.1567 21.786 13.1599 21.6462 13.0766 21.5587L12.6712 21.1298C12.589 21.0423 12.4492 21.038 12.3617 21.1223L11.4483 21.9866L11.2082 20.751C11.1848 20.6336 11.0684 20.5546 10.9511 20.5781L10.3717 20.6912C10.2532 20.7147 10.1753 20.8299 10.1977 20.9473L10.4389 22.183L9.26726 21.7241C9.15522 21.6804 9.02717 21.7369 8.98342 21.8479L8.76788 22.3985C8.72413 22.5095 8.77961 22.6375 8.89272 22.6813L10.1807 23.186L9.17549 24.1378C9.08799 24.221 9.08479 24.3598 9.16802 24.4483L9.5735 24.8762C9.65567 24.9637 9.79545 24.968 9.88402 24.8847L10.7963 24.0194L11.0375 25.255C11.061 25.3724 11.1762 25.4503 11.2947 25.4279L11.8741 25.3148C11.9925 25.2913 12.0704 25.1761 12.0469 25.0576L11.8069 23.823L12.9774 24.2808C13.0895 24.3245 13.2175 24.2701 13.2612 24.157L13.4768 23.6086C13.5205 23.4954 13.464 23.3674 13.3519 23.3236Z" fill="#26A9E0"/>
<path fill-rule="evenodd" clip-rule="evenodd" d="M21.3549 23.3236L20.0669 22.8189L21.071 21.8682C21.1596 21.786 21.1628 21.6462 21.0796 21.5587L20.6741 21.1298C20.5919 21.0423 20.4521 21.038 20.3646 21.1223L19.4512 21.9866L19.2112 20.751C19.1877 20.6336 19.0714 20.5546 18.954 20.5781L18.3746 20.6912C18.2561 20.7147 18.1783 20.8299 18.2007 20.9473L18.4418 22.183L17.2702 21.7241C17.1581 21.6804 17.0301 21.7369 16.9863 21.8479L16.7708 22.3985C16.7271 22.5095 16.7825 22.6375 16.8957 22.6813L18.1836 23.186L17.1784 24.1378C17.0909 24.221 17.0877 24.3598 17.171 24.4483L17.5764 24.8762C17.6586 24.9637 17.7984 24.968 17.8869 24.8847L18.7993 24.0194L19.0404 25.255C19.0639 25.3724 19.1792 25.4503 19.2976 25.4279L19.877 25.3148C19.9954 25.2913 20.0733 25.1761 20.0499 25.0576L19.8098 23.823L20.9803 24.2808C21.0924 24.3245 21.2204 24.2701 21.2642 24.157L21.4797 23.6086C21.5235 23.4954 21.4669 23.3674 21.3549 23.3236Z" fill="#26A9E0"/>
<path fill-rule="evenodd" clip-rule="evenodd" d="M17.3529 27.3254L16.065 26.8206L17.0691 25.8699C17.1577 25.7877 17.1609 25.6479 17.0776 25.5604L16.6721 25.1315C16.59 25.044 16.4502 25.0397 16.3627 25.124L15.4493 25.9883L15.2092 24.7527C15.1857 24.6353 15.0694 24.5563 14.952 24.5798L14.3726 24.6929C14.2542 24.7164 14.1763 24.8316 14.1987 24.949L14.4399 26.1847L13.2682 25.7258C13.1562 25.6821 13.0281 25.7386 12.9844 25.8496L12.7689 26.4002C12.7251 26.5112 12.7806 26.6392 12.8937 26.683L14.1816 27.1877L13.1765 28.1395C13.089 28.2227 13.0858 28.3615 13.169 28.45L13.5745 28.8779C13.6566 28.9654 13.7964 28.9697 13.885 28.8865L14.7973 28.0211L15.0385 29.2567C15.062 29.3741 15.1772 29.452 15.2956 29.4296L15.8751 29.3165C15.9935 29.293 16.0714 29.1778 16.0479 29.0593L15.8078 27.8247L16.9784 28.2825C17.0904 28.3263 17.2185 28.2718 17.2622 28.1587L17.4778 27.6103C17.5215 27.4972 17.465 27.3691 17.3529 27.3254Z" fill="#26A9E0"/>
<path fill-rule="evenodd" clip-rule="evenodd" d="M22.7004 5.201C22.1253 5.201 21.5683 5.27569 21.0358 5.41441C20.0402 2.59098 17.3502 0.566772 14.1864 0.566772C10.3098 0.566772 7.14273 3.60468 6.93572 7.42901C6.69777 7.39807 6.45768 7.37672 6.21226 7.37672C3.19569 7.37672 0.75 9.82135 0.75 12.8379C0.75 15.8545 3.19569 18.3002 6.21226 18.3002H22.7004C26.1737 18.3002 29.0067 15.5952 29.2287 12.1785C29.2372 12.0366 29.25 11.8946 29.25 11.7506C29.25 8.1322 26.3177 5.201 22.7004 5.201Z" fill="#9D9C99"/>
</svg>
