<svg width="36" height="36" viewBox="0 0 36 36" fill="none" xmlns="http://www.w3.org/2000/svg">
<path fill-rule="evenodd" clip-rule="evenodd" d="M8.77637 18.0005C8.77637 23.0952 12.9065 27.2254 18.0012 27.2254C23.096 27.2254 27.2261 23.0952 27.2261 18.0005C27.2261 12.9058 23.096 8.77563 18.0012 8.77563C12.9065 8.77563 8.77637 12.9058 8.77637 18.0005Z" fill="#FF9933"/>
<path fill-rule="evenodd" clip-rule="evenodd" d="M34.5645 16.5315H31.1951C30.4053 16.5315 29.7598 17.177 29.7598 17.9668V18.0348C29.7598 18.8247 30.4053 19.4702 31.1951 19.4702H34.5645C35.3544 19.4702 35.9999 18.8247 35.9999 18.0348V17.9668C35.9999 17.177 35.3544 16.5315 34.5645 16.5315Z" fill="#FF9933"/>
<path fill-rule="evenodd" clip-rule="evenodd" d="M6.24131 18.0344V17.9665C6.24131 17.1766 5.59582 16.5311 4.80595 16.5311H1.43657C0.646699 16.5311 0 17.1766 0 17.9665V18.0344C0 18.8243 0.646699 19.4698 1.43657 19.4698H4.80595C5.59582 19.4698 6.24131 18.8243 6.24131 18.0344Z" fill="#FF9933"/>
<path fill-rule="evenodd" clip-rule="evenodd" d="M27.0298 2.42899L26.9716 2.39502C26.2872 2.00069 25.4052 2.23607 25.0096 2.92038L23.3255 5.83963C22.93 6.52272 23.1666 7.40602 23.8497 7.80035L23.9091 7.83432C24.5922 8.22865 25.4755 7.99205 25.8699 7.30774L27.5552 4.38971C27.9495 3.70661 27.7129 2.82332 27.0298 2.42899Z" fill="#FF9933"/>
<path fill-rule="evenodd" clip-rule="evenodd" d="M12.1503 28.2013L12.0921 28.1673C11.4078 27.7717 10.5257 28.0083 10.1313 28.6927L8.44604 31.6107C8.05171 32.295 8.2871 33.1771 8.97141 33.5714L9.02965 33.6066C9.71396 34.0009 10.596 33.7643 10.9904 33.08L12.6757 30.162C13.07 29.4777 12.8346 28.5956 12.1503 28.2013Z" fill="#FF9933"/>
<path fill-rule="evenodd" clip-rule="evenodd" d="M25.8699 28.6923C25.4755 28.0092 24.5922 27.7726 23.9091 28.167L23.8497 28.2009C23.1666 28.5953 22.93 29.4774 23.3255 30.1617L25.0108 33.0809C25.4052 33.764 26.2872 34.0006 26.9716 33.6063L27.0298 33.5711C27.7141 33.1768 27.9495 32.2947 27.5552 31.6104L25.8699 28.6923Z" fill="#FF9933"/>
<path fill-rule="evenodd" clip-rule="evenodd" d="M10.1313 7.30828C10.5257 7.99259 11.4078 8.22798 12.0921 7.83365L12.1503 7.79967C12.8346 7.40535 13.07 6.52326 12.6757 5.83895L10.9904 2.92092C10.596 2.23661 9.71396 2.00001 9.02965 2.39555L8.97141 2.42953C8.2871 2.82386 8.05171 3.70594 8.44604 4.39025L10.1313 7.30828Z" fill="#FF9933"/>
<path fill-rule="evenodd" clip-rule="evenodd" d="M7.30852 10.1308L4.39049 8.44553C3.70618 8.0512 2.8241 8.2878 2.42977 8.9709L2.3958 9.03035C2.00026 9.71345 2.23685 10.5967 2.92117 10.9911L5.8392 12.6764C6.52351 13.0707 7.40559 12.8341 7.79992 12.151L7.83389 12.0916C8.22943 11.4085 7.99162 10.5252 7.30852 10.1308Z" fill="#FF9933"/>
<path fill-rule="evenodd" clip-rule="evenodd" d="M33.081 25.0104L30.1618 23.3251C29.4787 22.9307 28.5966 23.1661 28.2023 23.8504L28.1683 23.9087C27.7728 24.593 28.0094 25.4751 28.6925 25.8694L31.6117 27.5547C32.296 27.949 33.1781 27.7136 33.5724 27.0305L33.6064 26.9711C34.0007 26.2868 33.7641 25.4047 33.081 25.0104Z" fill="#FF9933"/>
<path fill-rule="evenodd" clip-rule="evenodd" d="M7.80029 23.8505C7.40475 23.1674 6.52388 22.9308 5.83956 23.3252L2.92153 25.0105C2.23722 25.4048 2.00062 26.2869 2.39495 26.9712L2.43014 27.0306C2.82447 27.7137 3.70655 27.9491 4.38965 27.5548L7.30889 25.8707C7.99199 25.4752 8.2298 24.5931 7.83426 23.9088L7.80029 23.8505Z" fill="#FF9933"/>
<path fill-rule="evenodd" clip-rule="evenodd" d="M28.2013 12.1503C28.5956 12.8334 29.4789 13.07 30.162 12.6757L33.08 10.9904C33.7643 10.596 34.0009 9.71396 33.6066 9.02965L33.5714 8.97141C33.1771 8.2871 32.295 8.05171 31.6119 8.44604L28.6927 10.1301C28.0083 10.5257 27.7717 11.4078 28.1673 12.0921L28.2013 12.1503Z" fill="#FF9933"/>
<path fill-rule="evenodd" clip-rule="evenodd" d="M17.9666 6.24131H18.0346C18.8244 6.24131 19.4699 5.59582 19.4699 4.80595V1.43657C19.4699 0.646699 18.8244 0 18.0346 0H17.9666C17.1767 0 16.5312 0.646699 16.5312 1.43657V4.80595C16.5312 5.59582 17.1767 6.24131 17.9666 6.24131Z" fill="#FF9933"/>
<path fill-rule="evenodd" clip-rule="evenodd" d="M18.0346 29.7594H17.9666C17.1767 29.7594 16.5312 30.4049 16.5312 31.1948V34.5654C16.5312 35.354 17.1767 36.0007 17.9666 36.0007H18.0346C18.8244 36.0007 19.4699 35.354 19.4699 34.5654V31.1948C19.4699 30.4049 18.8244 29.7594 18.0346 29.7594Z" fill="#FF9933"/>
</svg>
