<svg width="24" height="24" viewBox="0 0 24 24" fill="none" xmlns="http://www.w3.org/2000/svg">
<path d="M8.75 6C8.75 4.20507 10.2051 2.75 12 2.75C13.7949 2.75 15.25 4.20507 15.25 6C15.25 7.79493 13.7949 9.25 12 9.25C10.2051 9.25 8.75 7.79493 8.75 6ZM12 1.25C9.37665 1.25 7.25 3.37665 7.25 6C7.25 8.62335 9.37665 10.75 12 10.75C14.6234 10.75 16.75 8.62335 16.75 6C16.75 3.37665 14.6234 1.25 12 1.25ZM12 12.25C6.61524 12.25 2.25 16.6152 2.25 22C2.25 22.4142 2.58579 22.75 3 22.75C3.41421 22.75 3.75 22.4142 3.75 22C3.75 17.4437 7.44366 13.75 12 13.75C16.5563 13.75 20.25 17.4437 20.25 22C20.25 22.4142 20.5858 22.75 21 22.75C21.4142 22.75 21.75 22.4142 21.75 22C21.75 16.6152 17.3848 12.25 12 12.25Z" fill="#111111"/>
</svg>
