<svg width="30" height="34" viewBox="0 0 30 34" fill="none" xmlns="http://www.w3.org/2000/svg">
<path d="M23.0946 22.3578L23.1545 22.1991L16.5619 19.7131V19.086C17.5983 18.8076 18.3726 17.9208 18.3726 16.8557C18.3726 15.5624 17.2338 14.534 15.864 14.534C14.4943 14.534 13.3555 15.5624 13.3555 16.8557V17.0254H13.5252H14.5814H14.7511V16.8557C14.7511 16.3117 15.2369 15.8453 15.864 15.8453C16.4912 15.8453 16.977 16.3117 16.977 16.8557C16.977 17.3997 16.4912 17.8662 15.864 17.8662H15.3359H15.1662V18.0359V19.7131L8.57363 22.1991L8.63351 22.3578L8.57363 22.1991C7.71992 22.521 7.15647 23.2836 7.15647 24.1506C7.15647 25.3254 8.19045 26.2573 9.43142 26.2573H22.2967C23.5377 26.2573 24.5716 25.3254 24.5716 24.1506C24.5716 23.2836 24.0082 22.521 23.1545 22.1991L23.0946 22.3578ZM9.09394 23.4159L15.864 20.863L22.6342 23.4159L22.694 23.2571L22.6342 23.4159C22.9705 23.5427 23.176 23.8345 23.176 24.1506C23.176 24.576 22.795 24.946 22.2967 24.946H9.43142C8.93312 24.946 8.5521 24.576 8.5521 24.1506C8.5521 23.8345 8.75758 23.5427 9.09394 23.4159L9.03406 23.2571L9.09394 23.4159Z" fill="white" stroke="white" stroke-width="0.339394"/>
<path d="M23.0946 22.3578L23.1545 22.1991L16.5619 19.7131V19.086C17.5983 18.8076 18.3726 17.9208 18.3726 16.8557C18.3726 15.5624 17.2338 14.534 15.864 14.534C14.4943 14.534 13.3555 15.5624 13.3555 16.8557V17.0254H13.5252H14.5814H14.7511V16.8557C14.7511 16.3117 15.2369 15.8453 15.864 15.8453C16.4912 15.8453 16.977 16.3117 16.977 16.8557C16.977 17.3997 16.4912 17.8662 15.864 17.8662H15.3359H15.1662V18.0359V19.7131L8.57363 22.1991L8.63351 22.3578L8.57363 22.1991C7.71992 22.521 7.15647 23.2836 7.15647 24.1506C7.15647 25.3254 8.19045 26.2573 9.43142 26.2573H22.2967C23.5377 26.2573 24.5716 25.3254 24.5716 24.1506C24.5716 23.2836 24.0082 22.521 23.1545 22.1991L23.0946 22.3578ZM9.09394 23.4159L15.864 20.863L22.6342 23.4159L22.694 23.2571L22.6342 23.4159C22.9705 23.5427 23.176 23.8345 23.176 24.1506C23.176 24.576 22.795 24.946 22.2967 24.946H9.43142C8.93312 24.946 8.5521 24.576 8.5521 24.1506C8.5521 23.8345 8.75758 23.5427 9.09394 23.4159L9.03406 23.2571L9.09394 23.4159Z" fill="white" stroke="white" stroke-width="0.339394"/>
<rect x="1.61914" y="6.80591" width="27.2391" height="23.3333" rx="3.11111" stroke="white" stroke-width="2.26263"/>
<path d="M1.61914 13.0281C1.61914 10.0949 1.61914 8.62836 2.53036 7.71713C3.44159 6.80591 4.90818 6.80591 7.84136 6.80591H22.636C25.5692 6.80591 27.0358 6.80591 27.947 7.71713C28.8583 8.62836 28.8583 10.0949 28.8583 13.0281H1.61914Z" fill="white"/>
<path d="M7.67188 2L7.67187 6.66667" stroke="white" stroke-width="2.26263" stroke-linecap="round"/>
<path d="M22.8057 2.13806L22.8057 6.80473" stroke="white" stroke-width="2.26263" stroke-linecap="round"/>
</svg>
