<svg width="24" height="24" viewBox="0 0 24 24" fill="none" xmlns="http://www.w3.org/2000/svg">
<rect width="24" height="24" rx="12" fill="white"/>
<path d="M11.9702 7.77246C11.9975 7.02861 12.2065 6.37523 12.5922 5.82905C12.9799 5.28011 13.6207 4.89015 14.498 4.66919C14.5038 4.6962 14.5099 4.72323 14.5162 4.75016V4.89149C14.5162 5.21197 14.4385 5.57946 14.285 5.98368C14.1242 6.37506 13.8729 6.74342 13.5392 7.07586C13.227 7.36879 12.9382 7.56272 12.683 7.65039C12.5987 7.67556 12.4832 7.70032 12.3436 7.72262C12.2195 7.74196 12.095 7.75856 11.9702 7.77246Z" fill="#1C1B1F"/>
<path d="M12.1166 8.87633C11.1257 8.87633 10.4377 8 9.46028 8C8.48288 8 6.46924 8.8984 6.46924 12C6.46924 15.1016 8.25738 17.1 8.45734 17.3333C8.65734 17.5667 9.11988 18.1665 9.83644 18.1665C10.553 18.1665 11.3375 17.5967 12.1166 17.5967C12.8956 17.5967 13.8761 18.1665 14.5162 18.1665C15.1564 18.1665 15.4197 17.9055 15.8553 17.4554C16.291 17.0053 17.1219 15.6318 17.4121 14.8074C16.9341 14.5228 15.6672 13.7504 15.6672 12C15.6672 10.8331 16.0936 9.86367 16.9465 9.09173C16.387 8.3639 15.7381 8 14.9997 8C13.8921 8 13.1074 8.87633 12.1166 8.87633Z" fill="#1C1B1F"/>
<path fill-rule="evenodd" clip-rule="evenodd" d="M7.24849 8.47957C7.96805 7.7753 8.84157 7.5 9.46028 7.5C10.072 7.5 10.583 7.7683 10.9772 7.97523C10.9901 7.98199 11.0029 7.98868 11.0155 7.9953C11.4501 8.22308 11.7632 8.37633 12.1166 8.37633C12.4773 8.37633 12.8143 8.21853 13.2988 7.98703L13.2992 7.98683C13.749 7.77191 14.318 7.5 14.9997 7.5C15.9309 7.5 16.7142 7.96919 17.3429 8.78699C17.5018 8.9936 17.4753 9.28757 17.2821 9.46244C16.5356 10.138 16.1672 10.972 16.1672 12C16.1672 13.4573 17.2025 14.1007 17.6679 14.3777C17.8725 14.4995 17.9628 14.7488 17.8838 14.9734C17.7228 15.4306 17.4237 16.0125 17.1182 16.527C16.8163 17.0354 16.4753 17.5339 16.2146 17.8032L16.2146 17.8032L16.2064 17.8116C16.001 18.0239 15.7838 18.2483 15.5218 18.4072C15.2324 18.5828 14.9142 18.6665 14.5162 18.6665C14.2895 18.6665 14.0574 18.6172 13.8481 18.5596C13.6583 18.5073 13.4587 18.4399 13.2715 18.3766C13.2504 18.3695 13.2295 18.3624 13.2088 18.3554C12.7694 18.2073 12.4093 18.0967 12.1166 18.0967C11.8323 18.0967 11.5263 18.2019 11.1274 18.3503C11.1095 18.3569 11.0913 18.3637 11.0729 18.3706C10.7236 18.5009 10.2799 18.6665 9.83644 18.6665C8.91442 18.6665 8.31965 17.9498 8.11546 17.7038C8.10088 17.6862 8.08829 17.6711 8.07771 17.6587L8.07769 17.6587C8.07277 17.653 8.06696 17.6462 8.06029 17.6385C7.77857 17.3122 5.96924 15.2167 5.96924 12C5.96924 10.3329 6.51458 9.1979 7.24849 8.47957ZM7.94797 9.19423C7.43072 9.7005 6.96924 10.5655 6.96924 12C6.96924 14.8442 8.57399 16.7032 8.82194 16.9905C8.82769 16.9972 8.83271 17.003 8.83697 17.0079M7.94797 9.19423C8.47958 8.6739 9.10158 8.5 9.46028 8.5ZM9.46028 8.5C9.80605 8.5 10.1144 8.65206 10.5513 8.88103ZM10.5513 8.88103C10.5615 8.8864 10.5719 8.89182 10.5823 8.89728ZM10.5823 8.89728C10.9797 9.10578 11.4953 9.37633 12.1166 9.37633ZM12.1166 9.37633C12.7149 9.37633 13.2416 9.1236 13.6635 8.92117ZM13.6635 8.92117C13.6859 8.91039 13.7081 8.89975 13.73 8.88931ZM13.73 8.88931C14.1971 8.66608 14.574 8.5 14.9997 8.5ZM14.9997 8.5C15.44 8.5 15.8601 8.66844 16.2635 9.06872ZM16.2635 9.06872C15.5348 9.87764 15.1672 10.8626 15.1672 12C15.1672 13.6614 16.1579 14.568 16.792 15.0059C16.6524 15.3151 16.4627 15.6723 16.2583 16.0165C15.9633 16.5135 15.671 16.9269 15.4961 17.1077C15.2683 17.343 15.1383 17.4703 15.0031 17.5523C14.8919 17.6198 14.7585 17.6665 14.5162 17.6665C14.4229 17.6665 14.2924 17.6446 14.1134 17.5954C13.953 17.5512 13.7815 17.4933 13.5888 17.4283C13.5688 17.4215 13.5486 17.4147 13.5282 17.4078C13.1225 17.271 12.6028 17.0967 12.1166 17.0967C11.6291 17.0967 11.16 17.2712 10.795 17.407L10.7788 17.413C10.3696 17.5652 10.0862 17.6665 9.83644 17.6665C9.40093 17.6665 9.09209 17.3058 8.85295 17.0266C8.84759 17.0203 8.84228 17.0141 8.837 17.008" fill="#1C1B1F"/>
</svg>
