<svg width="24" height="24" viewBox="0 0 24 24" fill="none" xmlns="http://www.w3.org/2000/svg">
<rect width="24" height="24" rx="12" fill="#FFFDF7"/>
<path d="M13.1066 4.39191C13.2919 4.02126 13.5378 3.83594 13.8442 3.83594C14.1507 3.83594 14.3039 3.99275 14.3039 4.30637C14.3039 4.49882 14.2113 4.70909 14.026 4.93718C13.6554 5.37911 13.3026 5.88875 12.9676 6.4661L12.4224 7.43905L18.7725 19.0823H14.4502L10.2467 11.0687L6.74589 17.5C6.54634 17.8706 6.37529 18.2448 6.23276 18.6226C6.09022 19.0075 5.90136 19.2 5.66617 19.2C5.37397 19.2 5.22787 19.0538 5.22787 18.7616C5.22787 18.5905 5.29201 18.3945 5.42029 18.1735L12.7324 5.12963C12.8108 4.98708 12.875 4.86947 12.9249 4.77681L13.1066 4.39191Z" fill="#111111"/>
</svg>
