<svg width="24" height="24" viewBox="0 0 24 24" fill="none" xmlns="http://www.w3.org/2000/svg">
<rect width="24" height="24" rx="12" fill="white"/>
<path d="M18.336 12.1498C18.336 11.6818 18.294 11.2318 18.216 10.7998H12V13.3558H15.552C15.396 14.1778 14.928 14.8738 14.226 15.3418V17.0038H16.368C17.616 15.8518 18.336 14.1598 18.336 12.1498Z" fill="#4285F4"/>
<path d="M11.9999 18.6003C13.7819 18.6003 15.2759 18.0123 16.3679 17.0043L14.2259 15.3423C13.6379 15.7383 12.8879 15.9783 11.9999 15.9783C10.2839 15.9783 8.82591 14.8203 8.30391 13.2603H6.10791V14.9643C7.19391 17.1183 9.41991 18.6003 11.9999 18.6003Z" fill="#34A853"/>
<path d="M8.30439 13.254C8.17239 12.858 8.09439 12.438 8.09439 12C8.09439 11.562 8.17239 11.142 8.30439 10.746V9.04199H6.10839C5.65839 9.92999 5.40039 10.932 5.40039 12C5.40039 13.068 5.65839 14.07 6.10839 14.958L7.81839 13.626L8.30439 13.254Z" fill="#FBBC05"/>
<path d="M11.9999 8.0279C12.9719 8.0279 13.8359 8.3639 14.5259 9.0119L16.4159 7.1219C15.2699 6.0539 13.7819 5.3999 11.9999 5.3999C9.41991 5.3999 7.19391 6.8819 6.10791 9.0419L8.30391 10.7459C8.82591 9.1859 10.2839 8.0279 11.9999 8.0279Z" fill="#EA4335"/>
</svg>
